<svg width="592" height="128" viewBox="0 0 592 128" fill="none" xmlns="http://www.w3.org/2000/svg">
<path d="M99.692 28.544H114.92V32.576H99.692V28.544ZM81.224 26.888H99.944V30.452H81.224V26.888ZM82.556 35.132H98.54V38.624H82.556V35.132ZM83.204 41H98.072V44.492H83.204V41ZM107.288 19.652H111.464V48.416C111.464 49.52 111.332 50.372 111.068 50.972C110.804 51.596 110.348 52.088 109.7 52.448C109.028 52.76 108.188 52.976 107.18 53.096C106.196 53.216 104.984 53.276 103.544 53.276C103.472 52.7 103.28 52.004 102.968 51.188C102.68 50.396 102.38 49.724 102.068 49.172C103.028 49.196 103.916 49.208 104.732 49.208C105.572 49.208 106.148 49.208 106.46 49.208C106.772 49.208 106.988 49.148 107.108 49.028C107.228 48.908 107.288 48.704 107.288 48.416V19.652ZM100.376 35.78L103.94 34.592C104.396 35.432 104.816 36.332 105.2 37.292C105.608 38.252 105.944 39.2 106.208 40.136C106.496 41.048 106.688 41.876 106.784 42.62L102.968 43.952C102.896 43.232 102.728 42.404 102.464 41.468C102.2 40.532 101.888 39.572 101.528 38.588C101.168 37.604 100.784 36.668 100.376 35.78ZM81.224 21.632L84.212 20.336C84.74 21.128 85.232 22.004 85.688 22.964C86.144 23.924 86.444 24.764 86.588 25.484L83.456 26.96C83.312 26.24 83.024 25.388 82.592 24.404C82.184 23.396 81.728 22.472 81.224 21.632ZM83.852 31.172L87.164 30.02C87.572 30.716 87.956 31.472 88.316 32.288C88.7 33.104 88.94 33.824 89.036 34.448L85.508 35.744C85.436 35.144 85.232 34.412 84.896 33.548C84.584 32.684 84.236 31.892 83.852 31.172ZM86.372 19.724H89.756V28.544H86.372V19.724ZM88.64 36.176H92.636V49.244H88.64V36.176ZM91.412 19.724H94.832V28.544H91.412V19.724ZM81.368 47.876C82.904 47.732 84.668 47.564 86.66 47.372C88.676 47.18 90.788 46.976 92.996 46.76C95.204 46.52 97.4 46.28 99.584 46.04L99.656 49.82C97.568 50.06 95.456 50.3 93.32 50.54C91.208 50.804 89.18 51.044 87.236 51.26C85.292 51.476 83.516 51.668 81.908 51.836L81.368 47.876ZM97.136 20.12L100.88 21.452C100.304 22.436 99.728 23.408 99.152 24.368C98.576 25.328 98.048 26.144 97.568 26.816L94.688 25.664C94.952 25.16 95.24 24.584 95.552 23.936C95.864 23.288 96.164 22.628 96.452 21.956C96.74 21.284 96.968 20.672 97.136 20.12ZM93.824 29.984L97.712 30.956C97.328 31.772 96.956 32.576 96.596 33.368C96.236 34.16 95.9 34.844 95.588 35.42L92.204 34.556C92.396 34.148 92.588 33.68 92.78 33.152C92.996 32.6 93.188 32.048 93.356 31.496C93.548 30.944 93.704 30.44 93.824 29.984ZM117.692 25.196H150.344V29.3H117.692V25.196ZM129.716 34.016H143.504V38.084H129.716V34.016ZM141.884 34.016H146.348C146.348 34.016 146.336 34.136 146.312 34.376C146.312 34.592 146.312 34.844 146.312 35.132C146.312 35.42 146.288 35.672 146.24 35.888C146.024 39.176 145.784 41.864 145.52 43.952C145.256 46.04 144.956 47.672 144.62 48.848C144.284 50 143.876 50.84 143.396 51.368C142.844 51.968 142.268 52.376 141.668 52.592C141.068 52.808 140.348 52.964 139.508 53.06C138.812 53.132 137.9 53.156 136.772 53.132C135.644 53.132 134.48 53.108 133.28 53.06C133.256 52.436 133.1 51.716 132.812 50.9C132.524 50.108 132.164 49.412 131.732 48.812C132.98 48.932 134.18 49.004 135.332 49.028C136.484 49.052 137.312 49.064 137.816 49.064C138.224 49.064 138.56 49.04 138.824 48.992C139.112 48.92 139.364 48.788 139.58 48.596C139.964 48.284 140.288 47.6 140.552 46.544C140.84 45.488 141.092 43.988 141.308 42.044C141.524 40.1 141.716 37.64 141.884 34.664V34.016ZM128.096 27.644H132.92C132.824 29.564 132.668 31.508 132.452 33.476C132.26 35.42 131.924 37.352 131.444 39.272C130.964 41.168 130.268 42.98 129.356 44.708C128.444 46.436 127.244 48.044 125.756 49.532C124.268 51.02 122.384 52.34 120.104 53.492C119.792 52.892 119.336 52.244 118.736 51.548C118.16 50.852 117.596 50.276 117.044 49.82C119.132 48.86 120.836 47.744 122.156 46.472C123.5 45.176 124.556 43.784 125.324 42.296C126.092 40.784 126.656 39.212 127.016 37.58C127.4 35.948 127.652 34.292 127.772 32.612C127.916 30.932 128.024 29.276 128.096 27.644ZM131.552 19.256H136.052V26.816H131.552V19.256ZM157.652 21.596H183.248V41.396H178.676V25.736H162.008V41.576H157.652V21.596ZM159.74 36.212H180.368V40.352H159.74V36.212ZM172.376 44.852L176.012 42.512C177.116 43.28 178.304 44.144 179.576 45.104C180.848 46.064 182.06 47.036 183.212 48.02C184.364 48.98 185.312 49.868 186.056 50.684L182.096 53.348C181.424 52.58 180.536 51.692 179.432 50.684C178.328 49.7 177.152 48.692 175.904 47.66C174.68 46.628 173.504 45.692 172.376 44.852ZM163.484 42.548L168.164 44.42C167.18 45.5 166.076 46.592 164.852 47.696C163.652 48.776 162.392 49.796 161.072 50.756C159.752 51.716 158.468 52.556 157.22 53.276C156.908 52.964 156.536 52.604 156.104 52.196C155.672 51.812 155.228 51.44 154.772 51.08C154.34 50.72 153.944 50.42 153.584 50.18C154.832 49.556 156.08 48.812 157.328 47.948C158.6 47.084 159.776 46.184 160.856 45.248C161.936 44.288 162.812 43.388 163.484 42.548ZM190.088 34.808H221.984V38.588H190.088V34.808ZM206.216 41.288H219.68V45.032H206.216V41.288ZM204.2 36.752H208.592V50.072H204.2V36.752ZM198.656 42.476C199.328 44.228 200.264 45.548 201.464 46.436C202.664 47.3 204.104 47.876 205.784 48.164C207.488 48.452 209.384 48.608 211.472 48.632C211.88 48.632 212.444 48.632 213.164 48.632C213.908 48.632 214.736 48.632 215.648 48.632C216.56 48.632 217.472 48.632 218.384 48.632C219.32 48.608 220.196 48.596 221.012 48.596C221.828 48.572 222.5 48.548 223.028 48.524C222.812 48.86 222.608 49.268 222.416 49.748C222.224 50.228 222.044 50.72 221.876 51.224C221.732 51.752 221.624 52.232 221.552 52.664H219.392H211.256C209.168 52.664 207.284 52.544 205.604 52.304C203.948 52.064 202.46 51.62 201.14 50.972C199.82 50.348 198.656 49.448 197.648 48.272C196.664 47.072 195.8 45.536 195.056 43.664L198.656 42.476ZM195.524 39.344L199.808 39.956C199.232 42.932 198.284 45.548 196.964 47.804C195.668 50.036 194.036 51.86 192.068 53.276C191.852 53.012 191.54 52.688 191.132 52.304C190.748 51.92 190.34 51.536 189.908 51.152C189.5 50.768 189.128 50.468 188.792 50.252C190.64 49.124 192.116 47.624 193.22 45.752C194.324 43.88 195.092 41.744 195.524 39.344ZM197.612 28.328V30.128H214.136V28.328H197.612ZM197.612 23.72V25.484H214.136V23.72H197.612ZM193.436 20.624H218.528V33.188H193.436V20.624ZM239.768 42.476H244.052V53.24H239.768V42.476ZM228.14 44.672H253.592V47.624H232.352V52.664H228.14V44.672ZM252.188 44.672H256.436V49.1C256.436 49.988 256.304 50.66 256.04 51.116C255.8 51.572 255.356 51.932 254.708 52.196C254.036 52.412 253.232 52.544 252.296 52.592C251.384 52.64 250.328 52.664 249.128 52.664C249.008 52.16 248.816 51.62 248.552 51.044C248.288 50.492 248.036 50 247.796 49.568C248.54 49.592 249.284 49.616 250.028 49.64C250.796 49.64 251.288 49.64 251.504 49.64C251.768 49.616 251.948 49.568 252.044 49.496C252.14 49.424 252.188 49.28 252.188 49.064V44.672ZM242.288 22.316H258.38V25.448H242.288V22.316ZM227.42 21.308H240.992V23.36H227.42V21.308ZM226.916 27.68H241.316V29.804H226.916V27.68ZM226.088 24.476H242.036V26.6H226.088V24.476ZM243.404 26.78L246.176 25.34C246.752 25.94 247.328 26.624 247.904 27.392C248.504 28.16 248.936 28.832 249.2 29.408L246.248 30.992C245.984 30.416 245.576 29.732 245.024 28.94C244.496 28.124 243.956 27.404 243.404 26.78ZM225.872 31.46C227.24 31.388 228.812 31.304 230.588 31.208C232.388 31.112 234.296 31.004 236.312 30.884C238.328 30.764 240.344 30.644 242.36 30.524L242.324 32.864C240.38 33.008 238.436 33.152 236.492 33.296C234.548 33.44 232.688 33.572 230.912 33.692C229.16 33.812 227.564 33.92 226.124 34.016L225.872 31.46ZM251.036 19.436H254.996V30.524C254.996 31.364 254.888 32 254.672 32.432C254.48 32.84 254.084 33.164 253.484 33.404C252.884 33.668 252.2 33.824 251.432 33.872C250.664 33.92 249.728 33.944 248.624 33.944C248.504 33.488 248.3 32.972 248.012 32.396C247.748 31.82 247.496 31.34 247.256 30.956C247.928 30.956 248.576 30.956 249.2 30.956C249.824 30.956 250.232 30.956 250.424 30.956C250.64 30.956 250.796 30.92 250.892 30.848C250.988 30.752 251.036 30.608 251.036 30.416V19.436ZM232.1 19.4H236.096V25.952H232.1V19.4ZM232.1 25.88H236.096V32.612H232.1V25.88ZM233.936 40.136V41.252H250.388V40.136H233.936ZM233.936 36.896V38.012H250.388V36.896H233.936ZM230.12 34.664H254.384V43.52H230.12V34.664ZM240.884 32.18L244.952 32.936C244.592 33.56 244.244 34.148 243.908 34.7C243.572 35.228 243.272 35.684 243.008 36.068L239.804 35.348C239.996 34.844 240.2 34.304 240.416 33.728C240.632 33.152 240.788 32.636 240.884 32.18ZM276.236 19.544L280.484 20.516C279.98 22.388 279.368 24.248 278.648 26.096C277.928 27.92 277.136 29.636 276.272 31.244C275.432 32.828 274.532 34.22 273.572 35.42C273.308 35.156 272.96 34.844 272.528 34.484C272.12 34.124 271.688 33.776 271.232 33.44C270.8 33.08 270.416 32.792 270.08 32.576C271.016 31.544 271.868 30.332 272.636 28.94C273.404 27.548 274.088 26.048 274.688 24.44C275.312 22.832 275.828 21.2 276.236 19.544ZM275.228 35.528L279.44 36.392C279.104 37.928 278.672 39.44 278.144 40.928C277.64 42.392 277.076 43.784 276.452 45.104C275.828 46.4 275.18 47.54 274.508 48.524C274.244 48.284 273.884 48.02 273.428 47.732C272.972 47.42 272.504 47.132 272.024 46.868C271.568 46.58 271.172 46.352 270.836 46.184C271.868 44.912 272.756 43.316 273.5 41.396C274.244 39.476 274.82 37.52 275.228 35.528ZM277.028 25.88H291.824V29.876H275.444L277.028 25.88ZM281.168 27.644H285.452V48.416C285.452 49.424 285.344 50.252 285.128 50.9C284.912 51.548 284.468 52.052 283.796 52.412C283.172 52.748 282.416 52.976 281.528 53.096C280.664 53.216 279.644 53.276 278.468 53.276C278.396 52.628 278.204 51.884 277.892 51.044C277.604 50.204 277.304 49.496 276.992 48.92C277.76 48.944 278.48 48.956 279.152 48.956C279.848 48.956 280.316 48.956 280.556 48.956C280.772 48.956 280.928 48.92 281.024 48.848C281.12 48.752 281.168 48.584 281.168 48.344V27.644ZM286.748 36.464L290.6 35.168C291.248 36.416 291.836 37.748 292.364 39.164C292.892 40.556 293.348 41.936 293.732 43.304C294.116 44.648 294.392 45.86 294.56 46.94L290.42 48.38C290.276 47.324 290.024 46.1 289.664 44.708C289.328 43.316 288.908 41.912 288.404 40.496C287.9 39.056 287.348 37.712 286.748 36.464ZM290.636 25.88H291.212L291.896 25.736L294.956 26.312C294.74 27.776 294.488 29.288 294.2 30.848C293.912 32.384 293.636 33.692 293.372 34.772L289.7 34.088C289.796 33.44 289.904 32.684 290.024 31.82C290.144 30.956 290.264 30.056 290.384 29.12C290.504 28.16 290.588 27.26 290.636 26.42V25.88ZM268.532 19.544L272.6 20.84C271.832 22.856 270.92 24.896 269.864 26.96C268.808 29 267.668 30.944 266.444 32.792C265.22 34.616 263.948 36.212 262.628 37.58C262.508 37.22 262.304 36.764 262.016 36.212C261.752 35.636 261.464 35.06 261.152 34.484C260.84 33.908 260.564 33.44 260.324 33.08C261.404 31.976 262.448 30.704 263.456 29.264C264.488 27.824 265.436 26.276 266.3 24.62C267.188 22.964 267.932 21.272 268.532 19.544ZM265.076 29.516L269.18 25.412V25.448V53.168H265.076V29.516ZM313.172 28.436H324.548V31.568H313.172V28.436ZM318.824 23.288C318.128 24.272 317.264 25.304 316.232 26.384C315.2 27.464 314.072 28.496 312.848 29.48C311.624 30.464 310.364 31.316 309.068 32.036C308.828 31.532 308.492 30.932 308.06 30.236C307.652 29.54 307.256 28.976 306.872 28.544C308.192 27.872 309.476 27.032 310.724 26.024C311.996 24.992 313.16 23.912 314.216 22.784C315.272 21.632 316.112 20.54 316.736 19.508H320.66C321.548 20.684 322.556 21.836 323.684 22.964C324.836 24.092 326.036 25.112 327.284 26.024C328.556 26.912 329.828 27.644 331.1 28.22C330.692 28.724 330.272 29.324 329.84 30.02C329.408 30.716 329.024 31.364 328.688 31.964C327.488 31.292 326.276 30.476 325.052 29.516C323.828 28.532 322.676 27.5 321.596 26.42C320.516 25.34 319.592 24.296 318.824 23.288ZM312.344 35.996V39.416H314.72V35.996H312.344ZM309.356 33.26H317.852V42.152H309.356V33.26ZM322.964 35.996V39.416H325.448V35.996H322.964ZM319.832 33.26H328.688V42.152H319.832V33.26ZM312.272 42.296L316.124 43.124C315.572 45.428 314.708 47.444 313.532 49.172C312.356 50.9 310.844 52.268 308.996 53.276C308.852 53.012 308.636 52.7 308.348 52.34C308.06 52.004 307.76 51.656 307.448 51.296C307.136 50.96 306.86 50.696 306.62 50.504C308.18 49.688 309.416 48.584 310.328 47.192C311.24 45.776 311.888 44.144 312.272 42.296ZM311.84 47.696L314.144 45.356C314.912 45.956 315.704 46.652 316.52 47.444C317.36 48.236 317.996 48.932 318.428 49.532L315.98 52.16C315.596 51.536 314.996 50.804 314.18 49.964C313.364 49.1 312.584 48.344 311.84 47.696ZM322.136 42.26L325.988 42.98C325.58 45.38 324.824 47.456 323.72 49.208C322.64 50.96 321.176 52.304 319.328 53.24C319.208 52.976 319.004 52.664 318.716 52.304C318.428 51.944 318.128 51.572 317.816 51.188C317.504 50.828 317.216 50.552 316.952 50.36C318.464 49.616 319.628 48.56 320.444 47.192C321.284 45.824 321.848 44.18 322.136 42.26ZM321.596 48.092L323.972 45.5C324.668 45.956 325.424 46.472 326.24 47.048C327.056 47.624 327.824 48.2 328.544 48.776C329.288 49.328 329.888 49.844 330.344 50.324L327.86 53.204C327.404 52.748 326.816 52.208 326.096 51.584C325.4 50.984 324.656 50.384 323.864 49.784C323.072 49.16 322.316 48.596 321.596 48.092ZM296.756 37.508C298.196 37.196 299.912 36.776 301.904 36.248C303.92 35.72 305.948 35.168 307.988 34.592L308.528 38.48C306.68 39.032 304.808 39.584 302.912 40.136C301.04 40.688 299.3 41.192 297.692 41.648L296.756 37.508ZM297.332 26.24H308.348V30.2H297.332V26.24ZM301.112 19.436H305.072V48.668C305.072 49.652 304.964 50.432 304.748 51.008C304.556 51.608 304.184 52.076 303.632 52.412C303.104 52.748 302.432 52.976 301.616 53.096C300.824 53.216 299.828 53.264 298.628 53.24C298.58 52.712 298.448 52.052 298.232 51.26C298.016 50.492 297.776 49.82 297.512 49.244C298.184 49.268 298.796 49.292 299.348 49.316C299.924 49.316 300.32 49.304 300.536 49.28C300.752 49.28 300.896 49.244 300.968 49.172C301.064 49.076 301.112 48.908 301.112 48.668V19.436ZM333.044 37.688C334.532 37.352 336.308 36.908 338.372 36.356C340.46 35.804 342.536 35.24 344.6 34.664L345.032 38.624C343.16 39.2 341.264 39.776 339.344 40.352C337.424 40.904 335.66 41.396 334.052 41.828L333.044 37.688ZM333.296 26.132H344.816V30.128H333.296V26.132ZM337.184 19.4H341.468V48.416C341.468 49.472 341.348 50.288 341.108 50.864C340.892 51.44 340.472 51.908 339.848 52.268C339.248 52.58 338.492 52.784 337.58 52.88C336.692 53 335.612 53.048 334.34 53.024C334.244 52.472 334.076 51.812 333.836 51.044C333.596 50.276 333.344 49.616 333.08 49.064C333.8 49.088 334.484 49.1 335.132 49.1C335.804 49.1 336.26 49.1 336.5 49.1C336.764 49.1 336.944 49.052 337.04 48.956C337.136 48.836 337.184 48.656 337.184 48.416V19.4ZM353.096 19.4H357.38V29.084H353.096V19.4ZM353.132 39.416H357.416V53.24H353.132V39.416ZM355.832 21.992H366.164V25.628H355.832V21.992ZM343.916 43.988H366.776V47.768H343.916V43.988ZM349.676 36.284V38.48H360.8V36.284H349.676ZM349.676 31.064V33.224H360.8V31.064H349.676ZM345.608 27.788H365.084V41.756H345.608V27.788ZM369.98 24.404H402.092V28.544H369.98V24.404ZM381.716 36.068H400.616V40.064H381.716V36.068ZM380.348 48.308H401.984V52.304H380.348V48.308ZM389.06 30.092H393.416V50.432H389.06V30.092ZM381.356 19.4L385.856 20.48C384.968 23.36 383.852 26.204 382.508 29.012C381.164 31.82 379.544 34.436 377.648 36.86C375.752 39.284 373.52 41.372 370.952 43.124C370.808 42.716 370.604 42.26 370.34 41.756C370.1 41.252 369.848 40.748 369.584 40.244C369.32 39.74 369.068 39.32 368.828 38.984C370.46 37.928 371.936 36.656 373.256 35.168C374.6 33.68 375.788 32.06 376.82 30.308C377.852 28.556 378.74 26.756 379.484 24.908C380.252 23.06 380.876 21.224 381.356 19.4ZM374.156 34.484H378.512V53.168H374.156V34.484ZM426.248 19.4H430.28V44.816H426.248V19.4ZM415.592 33.908L434.24 25.952L435.788 29.66L417.176 37.724L415.592 33.908ZM419.156 22.892H423.26V46.22C423.26 46.916 423.308 47.444 423.404 47.804C423.524 48.14 423.764 48.368 424.124 48.488C424.508 48.608 425.06 48.668 425.78 48.668C425.996 48.668 426.332 48.668 426.788 48.668C427.268 48.668 427.796 48.668 428.372 48.668C428.972 48.668 429.56 48.668 430.136 48.668C430.736 48.668 431.264 48.668 431.72 48.668C432.2 48.668 432.56 48.668 432.8 48.668C433.448 48.668 433.94 48.548 434.276 48.308C434.612 48.068 434.864 47.624 435.032 46.976C435.2 46.328 435.332 45.38 435.428 44.132C435.884 44.468 436.472 44.792 437.192 45.104C437.936 45.392 438.608 45.596 439.208 45.716C439.016 47.42 438.716 48.764 438.308 49.748C437.9 50.732 437.288 51.44 436.472 51.872C435.656 52.304 434.552 52.52 433.16 52.52C432.92 52.52 432.536 52.52 432.008 52.52C431.48 52.52 430.892 52.52 430.244 52.52C429.596 52.52 428.948 52.52 428.3 52.52C427.652 52.52 427.064 52.52 426.536 52.52C426.032 52.52 425.672 52.52 425.456 52.52C423.824 52.52 422.54 52.34 421.604 51.98C420.692 51.62 420.056 50.984 419.696 50.072C419.336 49.16 419.156 47.876 419.156 46.22V22.892ZM433.412 26.42H433.124L433.88 25.88L434.672 25.376L437.66 26.456L437.516 27.176C437.516 28.88 437.504 30.44 437.48 31.856C437.48 33.248 437.468 34.484 437.444 35.564C437.444 36.62 437.42 37.508 437.372 38.228C437.348 38.948 437.312 39.488 437.264 39.848C437.216 40.688 437.036 41.348 436.724 41.828C436.412 42.284 435.98 42.632 435.428 42.872C434.9 43.112 434.276 43.256 433.556 43.304C432.86 43.352 432.224 43.376 431.648 43.376C431.6 42.824 431.492 42.2 431.324 41.504C431.156 40.784 430.964 40.196 430.748 39.74C431.06 39.764 431.384 39.788 431.72 39.812C432.056 39.812 432.308 39.812 432.476 39.812C432.692 39.812 432.86 39.764 432.98 39.668C433.124 39.572 433.22 39.356 433.268 39.02C433.292 38.852 433.316 38.468 433.34 37.868C433.364 37.268 433.376 36.464 433.376 35.456C433.376 34.424 433.376 33.164 433.376 31.676C433.4 30.164 433.412 28.412 433.412 26.42ZM405.224 27.752H417.14V31.856H405.224V27.752ZM409.436 19.904H413.468V43.772H409.436V19.904ZM404.756 43.808C405.74 43.448 406.892 43.016 408.212 42.512C409.532 41.984 410.924 41.408 412.388 40.784C413.876 40.16 415.352 39.548 416.816 38.948L417.788 42.764C415.868 43.724 413.912 44.672 411.92 45.608C409.952 46.544 408.14 47.384 406.484 48.128L404.756 43.808ZM456.956 30.236H471.932V34.592H456.956V30.236ZM441.548 47.084H474.488V51.44H441.548V47.084ZM454.508 19.868H459.152V49.496H454.508V19.868ZM481.148 25.268H492.2V49.496H481.148V45.716H488.312V29.012H481.148V25.268ZM478.628 25.268H482.552V52.16H478.628V25.268ZM481.004 34.88H490.184V38.624H481.004V34.88ZM483.776 19.4L488.456 20.084C488.072 21.308 487.652 22.52 487.196 23.72C486.764 24.92 486.368 25.94 486.008 26.78L482.552 25.988C482.72 25.364 482.876 24.668 483.02 23.9C483.188 23.132 483.344 22.352 483.488 21.56C483.632 20.768 483.728 20.048 483.776 19.4ZM496.952 24.98H507.5V28.94H496.952V24.98ZM505.988 24.98H509.984C509.984 24.98 509.984 25.112 509.984 25.376C509.984 25.616 509.984 25.892 509.984 26.204C509.984 26.516 509.972 26.756 509.948 26.924C509.852 30.98 509.732 34.424 509.588 37.256C509.468 40.064 509.312 42.392 509.12 44.24C508.952 46.064 508.748 47.492 508.508 48.524C508.268 49.556 507.956 50.312 507.572 50.792C507.092 51.488 506.576 51.968 506.024 52.232C505.472 52.496 504.836 52.688 504.116 52.808C503.42 52.904 502.556 52.94 501.524 52.916C500.516 52.916 499.484 52.904 498.428 52.88C498.404 52.28 498.26 51.572 497.996 50.756C497.732 49.964 497.408 49.268 497.024 48.668C498.176 48.764 499.244 48.824 500.228 48.848C501.236 48.872 501.968 48.884 502.424 48.884C502.784 48.884 503.072 48.848 503.288 48.776C503.528 48.68 503.756 48.512 503.972 48.272C504.284 47.96 504.536 47.324 504.728 46.364C504.944 45.38 505.124 44 505.268 42.224C505.412 40.448 505.544 38.204 505.664 35.492C505.784 32.78 505.892 29.552 505.988 25.808V24.98ZM497.06 19.436L501.236 20.408C500.78 22.16 500.216 23.912 499.544 25.664C498.896 27.416 498.176 29.072 497.384 30.632C496.616 32.168 495.824 33.512 495.008 34.664C494.768 34.424 494.42 34.148 493.964 33.836C493.532 33.5 493.088 33.176 492.632 32.864C492.2 32.552 491.816 32.312 491.48 32.144C492.272 31.112 493.016 29.924 493.712 28.58C494.432 27.212 495.068 25.748 495.62 24.188C496.196 22.604 496.676 21.02 497.06 19.436ZM495.296 35.384L498.68 33.476C499.28 34.292 499.916 35.192 500.588 36.176C501.26 37.16 501.896 38.12 502.496 39.056C503.096 39.992 503.588 40.82 503.972 41.54L500.3 43.772C499.964 43.028 499.508 42.176 498.932 41.216C498.38 40.256 497.78 39.272 497.132 38.264C496.508 37.232 495.896 36.272 495.296 35.384ZM69.6375 104L78.4935 80.816H84.7575L93.6135 104H87.5655L85.4775 98.744H77.7375L75.6855 104H69.6375ZM78.5295 94.46H84.6855L81.5895 86.396L78.5295 94.46ZM95.3454 84.236V79.88H101.645V84.236H95.3454ZM95.8134 104V91.22H93.2934L93.7974 86.936H101.609V104H95.8134ZM105.303 104V86.936H110.811L110.991 88.52C111.735 88.064 112.659 87.656 113.763 87.296C114.867 86.912 115.971 86.672 117.075 86.576V90.932C116.451 91.004 115.755 91.124 114.987 91.292C114.243 91.436 113.523 91.616 112.827 91.832C112.155 92.048 111.579 92.276 111.099 92.516V104H105.303ZM119.26 104V80.816H130.672C132.52 80.816 134.044 81.188 135.244 81.932C136.444 82.652 137.332 83.636 137.908 84.884C138.508 86.132 138.808 87.536 138.808 89.096C138.808 90.68 138.472 92.084 137.8 93.308C137.128 94.532 136.168 95.492 134.92 96.188C133.696 96.86 132.232 97.196 130.528 97.196H125.056V104H119.26ZM125.056 92.732H129.232C130.456 92.732 131.368 92.396 131.968 91.724C132.592 91.052 132.904 90.164 132.904 89.06C132.904 87.86 132.616 86.936 132.04 86.288C131.488 85.616 130.612 85.28 129.412 85.28H125.056V92.732ZM149.984 104.36C146.696 104.36 144.272 103.604 142.712 102.092C141.152 100.556 140.372 98.348 140.372 95.468C140.372 92.612 141.152 90.416 142.712 88.88C144.296 87.344 146.72 86.576 149.984 86.576C153.272 86.576 155.696 87.344 157.256 88.88C158.84 90.416 159.632 92.612 159.632 95.468C159.632 98.348 158.852 100.556 157.292 102.092C155.732 103.604 153.296 104.36 149.984 104.36ZM149.984 99.824C151.328 99.824 152.288 99.488 152.864 98.816C153.44 98.144 153.728 97.028 153.728 95.468C153.728 93.908 153.44 92.792 152.864 92.12C152.288 91.448 151.328 91.112 149.984 91.112C148.664 91.112 147.716 91.448 147.14 92.12C146.564 92.792 146.276 93.908 146.276 95.468C146.276 97.028 146.564 98.144 147.14 98.816C147.716 99.488 148.664 99.824 149.984 99.824ZM169.736 104.36C168.08 104.36 166.664 104.096 165.488 103.568C164.312 103.04 163.412 102.176 162.788 100.976C162.164 99.752 161.852 98.12 161.852 96.08C161.852 94.016 162.212 92.288 162.932 90.896C163.652 89.48 164.636 88.412 165.884 87.692C167.156 86.948 168.608 86.576 170.24 86.576C171.128 86.576 171.92 86.672 172.616 86.864C173.336 87.056 174.008 87.344 174.632 87.728V79.736H180.428V104H175.424L175.1 102.56C174.404 103.16 173.624 103.616 172.76 103.928C171.896 104.216 170.888 104.36 169.736 104.36ZM171.392 100.148C172.664 100.148 173.744 99.716 174.632 98.852V91.94C173.816 91.196 172.772 90.824 171.5 90.824C170.276 90.824 169.34 91.292 168.692 92.228C168.068 93.14 167.756 94.436 167.756 96.116C167.756 97.748 168.056 98.828 168.656 99.356C169.28 99.884 170.192 100.148 171.392 100.148ZM190.424 104.36C189.056 104.36 187.76 104.264 186.536 104.072C185.312 103.88 184.34 103.64 183.62 103.352V98.924C184.46 99.284 185.432 99.56 186.536 99.752C187.64 99.944 188.624 100.04 189.488 100.04C190.52 100.04 191.264 99.992 191.72 99.896C192.2 99.8 192.44 99.536 192.44 99.104C192.44 98.624 192.056 98.264 191.288 98.024C190.52 97.784 189.464 97.436 188.12 96.98C186.56 96.428 185.372 95.792 184.556 95.072C183.764 94.328 183.368 93.236 183.368 91.796C183.368 90.116 183.992 88.832 185.24 87.944C186.512 87.032 188.528 86.576 191.288 86.576C192.368 86.576 193.436 86.66 194.492 86.828C195.548 86.996 196.412 87.188 197.084 87.404V91.76C196.412 91.448 195.644 91.22 194.78 91.076C193.916 90.932 193.136 90.86 192.44 90.86C191.552 90.86 190.796 90.92 190.172 91.04C189.572 91.136 189.272 91.388 189.272 91.796C189.272 92.252 189.608 92.576 190.28 92.768C190.952 92.936 191.924 93.224 193.196 93.632C194.54 94.04 195.584 94.484 196.328 94.964C197.072 95.42 197.6 95.972 197.912 96.62C198.224 97.268 198.38 98.084 198.38 99.068C198.38 100.772 197.708 102.08 196.364 102.992C195.02 103.904 193.04 104.36 190.424 104.36ZM206.463 108.968L205.311 106.052C206.823 105.572 207.975 104.912 208.767 104.072C209.583 103.256 209.991 102.32 209.991 101.264L209.703 97.736L211.719 100.94C211.407 101.204 211.071 101.408 210.711 101.552C210.351 101.696 209.967 101.768 209.559 101.768C208.671 101.768 207.879 101.492 207.183 100.94C206.487 100.364 206.139 99.56 206.139 98.528C206.139 97.52 206.487 96.728 207.183 96.152C207.879 95.576 208.707 95.288 209.667 95.288C210.939 95.288 211.899 95.732 212.547 96.62C213.219 97.508 213.555 98.708 213.555 100.22C213.555 102.26 212.931 104.06 211.683 105.62C210.435 107.18 208.695 108.296 206.463 108.968ZM251.715 73.544L255.963 74.516C255.459 76.388 254.847 78.248 254.127 80.096C253.407 81.92 252.615 83.636 251.751 85.244C250.911 86.828 250.011 88.22 249.051 89.42C248.787 89.156 248.439 88.844 248.007 88.484C247.599 88.124 247.167 87.776 246.711 87.44C246.279 87.08 245.895 86.792 245.559 86.576C246.495 85.544 247.347 84.332 248.115 82.94C248.883 81.548 249.567 80.048 250.167 78.44C250.791 76.832 251.307 75.2 251.715 73.544ZM250.707 89.528L254.919 90.392C254.583 91.928 254.151 93.44 253.623 94.928C253.119 96.392 252.555 97.784 251.931 99.104C251.307 100.4 250.659 101.54 249.987 102.524C249.723 102.284 249.363 102.02 248.907 101.732C248.451 101.42 247.983 101.132 247.503 100.868C247.047 100.58 246.651 100.352 246.315 100.184C247.347 98.912 248.235 97.316 248.979 95.396C249.723 93.476 250.299 91.52 250.707 89.528ZM252.507 79.88H267.303V83.876H250.923L252.507 79.88ZM256.647 81.644H260.931V102.416C260.931 103.424 260.823 104.252 260.607 104.9C260.391 105.548 259.947 106.052 259.275 106.412C258.651 106.748 257.895 106.976 257.007 107.096C256.143 107.216 255.123 107.276 253.947 107.276C253.875 106.628 253.683 105.884 253.371 105.044C253.083 104.204 252.783 103.496 252.471 102.92C253.239 102.944 253.959 102.956 254.631 102.956C255.327 102.956 255.795 102.956 256.035 102.956C256.251 102.956 256.407 102.92 256.503 102.848C256.599 102.752 256.647 102.584 256.647 102.344V81.644ZM262.227 90.464L266.079 89.168C266.727 90.416 267.315 91.748 267.843 93.164C268.371 94.556 268.827 95.936 269.211 97.304C269.595 98.648 269.871 99.86 270.039 100.94L265.899 102.38C265.755 101.324 265.503 100.1 265.143 98.708C264.807 97.316 264.387 95.912 263.883 94.496C263.379 93.056 262.827 91.712 262.227 90.464ZM266.115 79.88H266.691L267.375 79.736L270.435 80.312C270.219 81.776 269.967 83.288 269.679 84.848C269.391 86.384 269.115 87.692 268.851 88.772L265.179 88.088C265.275 87.44 265.383 86.684 265.503 85.82C265.623 84.956 265.743 84.056 265.863 83.12C265.983 82.16 266.067 81.26 266.115 80.42V79.88ZM244.011 73.544L248.079 74.84C247.311 76.856 246.399 78.896 245.343 80.96C244.287 83 243.147 84.944 241.923 86.792C240.699 88.616 239.427 90.212 238.107 91.58C237.987 91.22 237.783 90.764 237.495 90.212C237.231 89.636 236.943 89.06 236.631 88.484C236.319 87.908 236.043 87.44 235.803 87.08C236.883 85.976 237.927 84.704 238.935 83.264C239.967 81.824 240.915 80.276 241.779 78.62C242.667 76.964 243.411 75.272 244.011 73.544ZM240.555 83.516L244.659 79.412V79.448V107.168H240.555V83.516ZM276.627 79.268H287.679V103.496H276.627V99.716H283.791V83.012H276.627V79.268ZM274.107 79.268H278.031V106.16H274.107V79.268ZM276.483 88.88H285.663V92.624H276.483V88.88ZM279.255 73.4L283.935 74.084C283.551 75.308 283.131 76.52 282.675 77.72C282.243 78.92 281.847 79.94 281.487 80.78L278.031 79.988C278.199 79.364 278.355 78.668 278.499 77.9C278.667 77.132 278.823 76.352 278.967 75.56C279.111 74.768 279.207 74.048 279.255 73.4ZM292.431 78.98H302.979V82.94H292.431V78.98ZM301.467 78.98H305.463C305.463 78.98 305.463 79.112 305.463 79.376C305.463 79.616 305.463 79.892 305.463 80.204C305.463 80.516 305.451 80.756 305.427 80.924C305.331 84.98 305.211 88.424 305.067 91.256C304.947 94.064 304.791 96.392 304.599 98.24C304.431 100.064 304.227 101.492 303.987 102.524C303.747 103.556 303.435 104.312 303.051 104.792C302.571 105.488 302.055 105.968 301.503 106.232C300.951 106.496 300.315 106.688 299.595 106.808C298.899 106.904 298.035 106.94 297.003 106.916C295.995 106.916 294.963 106.904 293.907 106.88C293.883 106.28 293.739 105.572 293.475 104.756C293.211 103.964 292.887 103.268 292.503 102.668C293.655 102.764 294.723 102.824 295.707 102.848C296.715 102.872 297.447 102.884 297.903 102.884C298.263 102.884 298.551 102.848 298.767 102.776C299.007 102.68 299.235 102.512 299.451 102.272C299.763 101.96 300.015 101.324 300.207 100.364C300.423 99.38 300.603 98 300.747 96.224C300.891 94.448 301.023 92.204 301.143 89.492C301.263 86.78 301.371 83.552 301.467 79.808V78.98ZM292.539 73.436L296.715 74.408C296.259 76.16 295.695 77.912 295.023 79.664C294.375 81.416 293.655 83.072 292.863 84.632C292.095 86.168 291.303 87.512 290.487 88.664C290.247 88.424 289.899 88.148 289.443 87.836C289.011 87.5 288.567 87.176 288.111 86.864C287.679 86.552 287.295 86.312 286.959 86.144C287.751 85.112 288.495 83.924 289.191 82.58C289.911 81.212 290.547 79.748 291.099 78.188C291.675 76.604 292.155 75.02 292.539 73.436ZM290.775 89.384L294.159 87.476C294.759 88.292 295.395 89.192 296.067 90.176C296.739 91.16 297.375 92.12 297.975 93.056C298.575 93.992 299.067 94.82 299.451 95.54L295.779 97.772C295.443 97.028 294.987 96.176 294.411 95.216C293.859 94.256 293.259 93.272 292.611 92.264C291.987 91.232 291.375 90.272 290.775 89.384ZM311.007 81.464H338.007V85.676H315.399V107.24H311.007V81.464ZM335.775 81.464H340.203V102.2C340.203 103.352 340.059 104.264 339.771 104.936C339.507 105.608 338.991 106.124 338.223 106.484C337.431 106.82 336.459 107.024 335.307 107.096C334.179 107.168 332.835 107.204 331.275 107.204C331.227 106.796 331.119 106.316 330.951 105.764C330.783 105.236 330.603 104.708 330.411 104.18C330.219 103.652 330.015 103.208 329.799 102.848C330.471 102.872 331.155 102.896 331.851 102.92C332.547 102.92 333.171 102.92 333.723 102.92C334.299 102.92 334.695 102.92 334.911 102.92C335.247 102.92 335.475 102.86 335.595 102.74C335.715 102.62 335.775 102.428 335.775 102.164V81.464ZM317.451 74.876H325.515V78.656H317.451V74.876ZM322.707 74.876H327.315C327.411 77.204 327.627 79.412 327.963 81.5C328.299 83.564 328.803 85.472 329.475 87.224C330.171 88.952 331.083 90.476 332.211 91.796C333.339 93.116 334.743 94.196 336.423 95.036C336.135 95.3 335.787 95.66 335.379 96.116C334.995 96.548 334.611 97.016 334.227 97.52C333.867 98 333.567 98.42 333.327 98.78C331.551 97.748 330.051 96.476 328.827 94.964C327.627 93.428 326.643 91.712 325.875 89.816C325.131 87.92 324.555 85.88 324.147 83.696C323.763 81.512 323.523 79.232 323.427 76.856H322.707V74.876ZM323.067 82.472L327.027 83.156C326.403 86.924 325.335 90.14 323.823 92.804C322.335 95.468 320.187 97.544 317.379 99.032C317.187 98.696 316.923 98.312 316.587 97.88C316.251 97.424 315.891 96.98 315.507 96.548C315.147 96.116 314.811 95.78 314.499 95.54C316.971 94.364 318.903 92.672 320.295 90.464C321.687 88.232 322.611 85.568 323.067 82.472ZM354.207 83.732H358.707V100.904C358.707 101.792 358.815 102.356 359.031 102.596C359.271 102.812 359.823 102.92 360.687 102.92C360.855 102.92 361.167 102.92 361.623 102.92C362.079 102.92 362.571 102.92 363.099 102.92C363.627 102.92 364.119 102.92 364.575 102.92C365.031 102.92 365.379 102.92 365.619 102.92C366.195 102.92 366.627 102.752 366.915 102.416C367.227 102.056 367.455 101.384 367.599 100.4C367.743 99.416 367.851 97.988 367.923 96.116C368.427 96.5 369.075 96.872 369.867 97.232C370.659 97.568 371.355 97.82 371.955 97.988C371.811 100.22 371.547 101.996 371.163 103.316C370.779 104.612 370.179 105.524 369.363 106.052C368.547 106.604 367.407 106.88 365.943 106.88C365.751 106.88 365.451 106.88 365.043 106.88C364.659 106.88 364.215 106.88 363.711 106.88C363.231 106.88 362.751 106.88 362.271 106.88C361.791 106.88 361.347 106.88 360.939 106.88C360.555 106.88 360.279 106.88 360.111 106.88C358.575 106.88 357.375 106.688 356.511 106.304C355.671 105.944 355.071 105.332 354.711 104.468C354.375 103.604 354.207 102.416 354.207 100.904V83.732ZM354.315 76.892L357.123 73.544C358.563 74.048 360.027 74.66 361.515 75.38C363.003 76.1 364.419 76.844 365.763 77.612C367.107 78.38 368.259 79.124 369.219 79.844L366.375 83.624C365.439 82.856 364.299 82.064 362.955 81.248C361.635 80.408 360.219 79.604 358.707 78.836C357.219 78.068 355.755 77.42 354.315 76.892ZM347.727 86.288L351.939 87.152C351.771 88.808 351.543 90.5 351.255 92.228C350.967 93.956 350.571 95.6 350.067 97.16C349.563 98.696 348.903 100.052 348.087 101.228L344.055 98.888C344.775 97.856 345.375 96.668 345.855 95.324C346.335 93.98 346.731 92.54 347.043 91.004C347.355 89.468 347.583 87.896 347.727 86.288ZM368.427 86.828L372.387 84.884C373.419 86.204 374.379 87.632 375.267 89.168C376.155 90.704 376.911 92.228 377.535 93.74C378.183 95.252 378.651 96.632 378.939 97.88L374.583 100.04C374.343 98.816 373.923 97.436 373.323 95.9C372.723 94.34 372.003 92.768 371.163 91.184C370.323 89.6 369.411 88.148 368.427 86.828ZM387.255 75.272H412.455V79.556H387.255V75.272ZM387.759 84.632H407.235V88.808H387.759V84.632ZM385.059 75.272H389.379V85.352C389.379 86.936 389.319 88.676 389.199 90.572C389.103 92.468 388.875 94.412 388.515 96.404C388.179 98.396 387.675 100.316 387.003 102.164C386.355 104.012 385.503 105.68 384.447 107.168C384.183 106.904 383.823 106.604 383.367 106.268C382.935 105.932 382.479 105.608 381.999 105.296C381.519 105.008 381.111 104.78 380.775 104.612C381.759 103.244 382.539 101.744 383.115 100.112C383.691 98.48 384.123 96.812 384.411 95.108C384.699 93.38 384.879 91.688 384.951 90.032C385.023 88.352 385.059 86.792 385.059 85.352V75.272ZM406.083 84.632H406.947L407.739 84.452L410.799 85.676C410.055 88.7 409.035 91.376 407.739 93.704C406.443 96.008 404.907 98.036 403.131 99.788C401.355 101.516 399.363 102.98 397.155 104.18C394.971 105.404 392.595 106.424 390.027 107.24C389.835 106.832 389.595 106.376 389.307 105.872C389.043 105.392 388.743 104.912 388.407 104.432C388.095 103.952 387.795 103.556 387.507 103.244C389.811 102.668 391.959 101.864 393.951 100.832C395.967 99.776 397.779 98.504 399.387 97.016C401.019 95.528 402.399 93.824 403.527 91.904C404.679 89.96 405.531 87.8 406.083 85.424V84.632ZM394.563 86.972C396.003 91.172 398.307 94.652 401.475 97.412C404.643 100.172 408.795 102.104 413.931 103.208C413.595 103.52 413.235 103.916 412.851 104.396C412.491 104.876 412.143 105.368 411.807 105.872C411.495 106.376 411.231 106.832 411.015 107.24C407.391 106.304 404.259 104.984 401.619 103.28C399.003 101.576 396.783 99.464 394.959 96.944C393.159 94.4 391.647 91.46 390.423 88.124L394.563 86.972ZM434.451 86.144H448.059V88.232H434.451V86.144ZM434.451 89.6H448.059V91.688H434.451V89.6ZM432.939 93.128H449.463V95.72H432.939V93.128ZM441.327 79.376L445.251 80.312C444.795 80.984 444.363 81.62 443.955 82.22C443.547 82.82 443.175 83.348 442.839 83.804L439.815 82.904C440.079 82.376 440.355 81.788 440.643 81.14C440.955 80.492 441.183 79.904 441.327 79.376ZM428.151 79.16L431.643 80.24C430.755 82.04 429.651 83.804 428.331 85.532C427.011 87.236 425.679 88.664 424.335 89.816C424.167 89.6 423.927 89.324 423.615 88.988C423.303 88.628 422.979 88.28 422.643 87.944C422.307 87.584 422.007 87.296 421.743 87.08C422.991 86.12 424.191 84.932 425.343 83.516C426.495 82.1 427.431 80.648 428.151 79.16ZM434.883 79.052L438.411 80.06C437.667 81.764 436.743 83.444 435.639 85.1C434.535 86.756 433.407 88.148 432.255 89.276C432.063 89.06 431.799 88.796 431.463 88.484C431.127 88.172 430.767 87.872 430.383 87.584C430.023 87.296 429.699 87.056 429.411 86.864C430.539 85.904 431.583 84.728 432.543 83.336C433.503 81.92 434.283 80.492 434.883 79.052ZM439.599 83.444H443.199V94.028H439.599V83.444ZM430.311 98.744H434.199V102.632C434.199 103.064 434.283 103.34 434.451 103.46C434.619 103.58 435.015 103.64 435.639 103.64C435.783 103.64 436.011 103.64 436.323 103.64C436.659 103.64 437.019 103.64 437.403 103.64C437.787 103.64 438.147 103.64 438.483 103.64C438.843 103.64 439.107 103.64 439.275 103.64C439.611 103.64 439.863 103.58 440.031 103.46C440.223 103.34 440.355 103.088 440.427 102.704C440.499 102.32 440.559 101.744 440.607 100.976C440.991 101.24 441.531 101.504 442.227 101.768C442.923 102.032 443.523 102.224 444.027 102.344C443.907 103.592 443.679 104.552 443.343 105.224C443.031 105.92 442.575 106.388 441.975 106.628C441.399 106.892 440.643 107.024 439.707 107.024C439.539 107.024 439.299 107.024 438.987 107.024C438.699 107.024 438.351 107.024 437.943 107.024C437.559 107.024 437.175 107.024 436.791 107.024C436.431 107.024 436.095 107.024 435.783 107.024C435.471 107.024 435.243 107.024 435.099 107.024C433.803 107.024 432.807 106.892 432.111 106.628C431.415 106.364 430.935 105.908 430.671 105.26C430.431 104.636 430.311 103.784 430.311 102.704V98.744ZM432.255 97.376L434.703 95.108C435.399 95.396 436.131 95.756 436.899 96.188C437.667 96.62 438.387 97.064 439.059 97.52C439.755 97.952 440.319 98.384 440.751 98.816L438.123 101.3C437.715 100.892 437.187 100.448 436.539 99.968C435.891 99.488 435.183 99.02 434.415 98.564C433.671 98.108 432.951 97.712 432.255 97.376ZM442.119 99.428L445.503 97.808C446.151 98.528 446.799 99.308 447.447 100.148C448.095 100.988 448.683 101.828 449.211 102.668C449.763 103.508 450.183 104.276 450.471 104.972L446.835 106.772C446.595 106.076 446.223 105.296 445.719 104.432C445.239 103.592 444.675 102.728 444.027 101.84C443.403 100.952 442.767 100.148 442.119 99.428ZM425.559 98.312L429.051 99.536C428.691 100.856 428.211 102.152 427.611 103.424C427.011 104.696 426.207 105.764 425.199 106.628L421.923 104.54C422.811 103.796 423.567 102.872 424.191 101.768C424.815 100.64 425.271 99.488 425.559 98.312ZM435.135 82.328H449.031V84.884H433.335L435.135 82.328ZM432.939 85.316L436.503 82.436V94.82H432.939V85.316ZM432.363 73.4H436.863V78.008H432.363V73.4ZM421.383 75.956H449.967V79.448H421.383V75.956ZM419.043 75.956H422.967V86.54C422.967 88.028 422.919 89.672 422.823 91.472C422.751 93.248 422.583 95.084 422.319 96.98C422.079 98.852 421.731 100.676 421.275 102.452C420.819 104.228 420.219 105.836 419.475 107.276C419.259 107.012 418.947 106.712 418.539 106.376C418.131 106.04 417.711 105.716 417.279 105.404C416.847 105.116 416.475 104.9 416.163 104.756C416.835 103.46 417.363 102.044 417.747 100.508C418.131 98.948 418.407 97.352 418.575 95.72C418.767 94.064 418.887 92.456 418.935 90.896C419.007 89.336 419.043 87.884 419.043 86.54V75.956ZM425.991 85.172L429.555 81.608L429.591 81.68V96.368H425.991V85.172ZM453.567 88.808H485.463V92.588H453.567V88.808ZM469.695 95.288H483.159V99.032H469.695V95.288ZM467.679 90.752H472.071V104.072H467.679V90.752ZM462.135 96.476C462.807 98.228 463.743 99.548 464.943 100.436C466.143 101.3 467.583 101.876 469.263 102.164C470.967 102.452 472.863 102.608 474.951 102.632C475.359 102.632 475.923 102.632 476.643 102.632C477.387 102.632 478.215 102.632 479.127 102.632C480.039 102.632 480.951 102.632 481.863 102.632C482.799 102.608 483.675 102.596 484.491 102.596C485.307 102.572 485.979 102.548 486.507 102.524C486.291 102.86 486.087 103.268 485.895 103.748C485.703 104.228 485.523 104.72 485.355 105.224C485.211 105.752 485.103 106.232 485.031 106.664H482.871H474.735C472.647 106.664 470.763 106.544 469.083 106.304C467.427 106.064 465.939 105.62 464.619 104.972C463.299 104.348 462.135 103.448 461.127 102.272C460.143 101.072 459.279 99.536 458.535 97.664L462.135 96.476ZM459.003 93.344L463.287 93.956C462.711 96.932 461.763 99.548 460.443 101.804C459.147 104.036 457.515 105.86 455.547 107.276C455.331 107.012 455.019 106.688 454.611 106.304C454.227 105.92 453.819 105.536 453.387 105.152C452.979 104.768 452.607 104.468 452.271 104.252C454.119 103.124 455.595 101.624 456.699 99.752C457.803 97.88 458.571 95.744 459.003 93.344ZM461.091 82.328V84.128H477.615V82.328H461.091ZM461.091 77.72V79.484H477.615V77.72H461.091ZM456.915 74.624H482.007V87.188H456.915V74.624ZM502.743 94.748C502.623 93.788 502.695 92.948 502.959 92.228C503.247 91.508 503.643 90.86 504.147 90.284C504.675 89.708 505.251 89.18 505.875 88.7C506.523 88.22 507.123 87.752 507.675 87.296C508.251 86.84 508.719 86.372 509.079 85.892C509.439 85.412 509.619 84.884 509.619 84.308C509.619 83.588 509.439 82.976 509.079 82.472C508.719 81.968 508.191 81.584 507.495 81.32C506.823 81.056 506.007 80.924 505.047 80.924C503.943 80.924 502.935 81.164 502.023 81.644C501.111 82.124 500.211 82.832 499.323 83.768L496.371 81.032C497.523 79.712 498.879 78.656 500.439 77.864C502.023 77.048 503.763 76.64 505.659 76.64C507.411 76.64 508.959 76.904 510.303 77.432C511.671 77.96 512.739 78.764 513.507 79.844C514.299 80.9 514.695 82.232 514.695 83.84C514.695 84.728 514.503 85.508 514.119 86.18C513.759 86.828 513.279 87.416 512.679 87.944C512.103 88.448 511.491 88.94 510.843 89.42C510.195 89.876 509.595 90.356 509.043 90.86C508.491 91.364 508.059 91.928 507.747 92.552C507.435 93.176 507.315 93.908 507.387 94.748H502.743ZM505.083 104.324C504.171 104.324 503.415 104.024 502.815 103.424C502.215 102.824 501.915 102.068 501.915 101.156C501.915 100.22 502.215 99.452 502.815 98.852C503.415 98.252 504.171 97.952 505.083 97.952C505.995 97.952 506.751 98.252 507.351 98.852C507.951 99.452 508.251 100.22 508.251 101.156C508.251 102.068 507.951 102.824 507.351 103.424C506.751 104.024 505.995 104.324 505.083 104.324Z" fill="#864DA1"/>
</svg>
