<svg width="592" height="128" viewBox="0 0 592 128" fill="none" xmlns="http://www.w3.org/2000/svg">
<path d="M144.119 19.544L148.367 20.516C147.863 22.388 147.251 24.248 146.531 26.096C145.811 27.92 145.019 29.636 144.155 31.244C143.315 32.828 142.415 34.22 141.455 35.42C141.191 35.156 140.843 34.844 140.411 34.484C140.003 34.124 139.571 33.776 139.115 33.44C138.683 33.08 138.299 32.792 137.963 32.576C138.899 31.544 139.751 30.332 140.519 28.94C141.287 27.548 141.971 26.048 142.571 24.44C143.195 22.832 143.711 21.2 144.119 19.544ZM143.111 35.528L147.323 36.392C146.987 37.928 146.555 39.44 146.027 40.928C145.523 42.392 144.959 43.784 144.335 45.104C143.711 46.4 143.063 47.54 142.391 48.524C142.127 48.284 141.767 48.02 141.311 47.732C140.855 47.42 140.387 47.132 139.907 46.868C139.451 46.58 139.055 46.352 138.719 46.184C139.751 44.912 140.639 43.316 141.383 41.396C142.127 39.476 142.703 37.52 143.111 35.528ZM144.911 25.88H159.707V29.876H143.327L144.911 25.88ZM149.051 27.644H153.335V48.416C153.335 49.424 153.227 50.252 153.011 50.9C152.795 51.548 152.351 52.052 151.679 52.412C151.055 52.748 150.299 52.976 149.411 53.096C148.547 53.216 147.527 53.276 146.351 53.276C146.279 52.628 146.087 51.884 145.775 51.044C145.487 50.204 145.187 49.496 144.875 48.92C145.643 48.944 146.363 48.956 147.035 48.956C147.731 48.956 148.199 48.956 148.439 48.956C148.655 48.956 148.811 48.92 148.907 48.848C149.003 48.752 149.051 48.584 149.051 48.344V27.644ZM154.631 36.464L158.483 35.168C159.131 36.416 159.719 37.748 160.247 39.164C160.775 40.556 161.231 41.936 161.615 43.304C161.999 44.648 162.275 45.86 162.443 46.94L158.303 48.38C158.159 47.324 157.907 46.1 157.547 44.708C157.211 43.316 156.791 41.912 156.287 40.496C155.783 39.056 155.231 37.712 154.631 36.464ZM158.519 25.88H159.095L159.779 25.736L162.839 26.312C162.623 27.776 162.371 29.288 162.083 30.848C161.795 32.384 161.519 33.692 161.255 34.772L157.583 34.088C157.679 33.44 157.787 32.684 157.907 31.82C158.027 30.956 158.147 30.056 158.267 29.12C158.387 28.16 158.471 27.26 158.519 26.42V25.88ZM136.415 19.544L140.483 20.84C139.715 22.856 138.803 24.896 137.747 26.96C136.691 29 135.551 30.944 134.327 32.792C133.103 34.616 131.831 36.212 130.511 37.58C130.391 37.22 130.187 36.764 129.899 36.212C129.635 35.636 129.347 35.06 129.035 34.484C128.723 33.908 128.447 33.44 128.207 33.08C129.287 31.976 130.331 30.704 131.339 29.264C132.371 27.824 133.319 26.276 134.183 24.62C135.071 22.964 135.815 21.272 136.415 19.544ZM132.959 29.516L137.063 25.412V25.448V53.168H132.959V29.516ZM165.863 24.404H197.975V28.544H165.863V24.404ZM177.599 36.068H196.499V40.064H177.599V36.068ZM176.231 48.308H197.867V52.304H176.231V48.308ZM184.943 30.092H189.299V50.432H184.943V30.092ZM177.239 19.4L181.739 20.48C180.851 23.36 179.735 26.204 178.391 29.012C177.047 31.82 175.427 34.436 173.531 36.86C171.635 39.284 169.403 41.372 166.835 43.124C166.691 42.716 166.487 42.26 166.223 41.756C165.983 41.252 165.731 40.748 165.467 40.244C165.203 39.74 164.951 39.32 164.711 38.984C166.343 37.928 167.819 36.656 169.139 35.168C170.483 33.68 171.671 32.06 172.703 30.308C173.735 28.556 174.623 26.756 175.367 24.908C176.135 23.06 176.759 21.224 177.239 19.4ZM170.039 34.484H174.395V53.168H170.039V34.484ZM209.453 50V26.816H215.249V50H209.453ZM230.466 50.36C226.458 50.36 223.41 49.352 221.322 47.336C219.234 45.296 218.19 42.428 218.19 38.732C218.19 34.868 219.258 31.856 221.394 29.696C223.53 27.536 226.674 26.456 230.826 26.456C232.242 26.456 233.514 26.54 234.642 26.708C235.794 26.876 236.886 27.128 237.918 27.464V32.432C236.886 32.048 235.806 31.784 234.678 31.64C233.574 31.496 232.434 31.424 231.258 31.424C228.762 31.424 226.938 32.024 225.786 33.224C224.658 34.4 224.094 36.236 224.094 38.732C224.094 41.012 224.634 42.704 225.714 43.808C226.794 44.888 228.39 45.428 230.502 45.428C231.894 45.428 233.19 45.236 234.39 44.852V40.46H229.386V36.824H239.25V48.308C238.434 48.836 237.294 49.316 235.83 49.748C234.39 50.156 232.602 50.36 230.466 50.36ZM267.773 30.164H275.045V33.44H267.773V30.164ZM265.073 40.676H276.809V43.592H265.073V40.676ZM252.797 20.66H262.697V24.044H252.797V20.66ZM261.581 20.66H262.301L262.985 20.516L265.649 21.812C264.785 23.924 263.609 25.796 262.121 27.428C260.633 29.036 258.953 30.428 257.081 31.604C255.209 32.756 253.253 33.716 251.213 34.484C250.949 34.004 250.589 33.452 250.133 32.828C249.677 32.18 249.269 31.676 248.909 31.316C250.253 30.908 251.573 30.38 252.869 29.732C254.189 29.06 255.413 28.292 256.541 27.428C257.669 26.564 258.665 25.616 259.529 24.584C260.393 23.552 261.077 22.46 261.581 21.308V20.66ZM269.213 19.4C270.029 21.176 271.109 22.808 272.453 24.296C273.821 25.76 275.405 27.032 277.205 28.112C279.029 29.192 281.057 30.02 283.289 30.596C282.833 31.004 282.353 31.544 281.849 32.216C281.369 32.864 280.985 33.452 280.697 33.98C278.345 33.236 276.221 32.216 274.325 30.92C272.453 29.624 270.797 28.1 269.357 26.348C267.941 24.572 266.741 22.592 265.757 20.408L269.213 19.4ZM274.613 19.652L277.745 21.812C276.881 22.556 275.993 23.288 275.081 24.008C274.193 24.704 273.377 25.304 272.633 25.808L270.149 23.864C270.629 23.504 271.145 23.084 271.697 22.604C272.249 22.1 272.777 21.596 273.281 21.092C273.809 20.564 274.253 20.084 274.613 19.652ZM279.257 23.252L282.389 25.412C281.549 26.156 280.661 26.888 279.725 27.608C278.789 28.304 277.937 28.904 277.169 29.408L274.613 27.464C275.117 27.104 275.645 26.684 276.197 26.204C276.773 25.7 277.337 25.196 277.889 24.692C278.441 24.164 278.897 23.684 279.257 23.252ZM253.733 30.38H263.525V39.812H259.709V33.656H253.733V30.38ZM253.049 36.176H256.613C256.421 37.208 256.217 38.312 256.001 39.488C255.785 40.64 255.557 41.756 255.317 42.836C255.101 43.892 254.873 44.84 254.633 45.68L251.141 45.14C251.381 44.348 251.609 43.448 251.825 42.44C252.065 41.408 252.281 40.352 252.473 39.272C252.689 38.168 252.881 37.136 253.049 36.176ZM259.709 41.684H263.597C263.597 41.684 263.585 41.876 263.561 42.26C263.561 42.644 263.537 42.956 263.489 43.196C263.369 44.924 263.225 46.376 263.057 47.552C262.913 48.704 262.733 49.616 262.517 50.288C262.301 50.96 262.025 51.464 261.689 51.8C261.305 52.232 260.885 52.52 260.429 52.664C259.973 52.832 259.433 52.952 258.809 53.024C258.305 53.072 257.621 53.096 256.757 53.096C255.893 53.12 254.969 53.108 253.985 53.06C253.937 52.484 253.805 51.86 253.589 51.188C253.373 50.516 253.097 49.928 252.761 49.424C253.649 49.496 254.501 49.544 255.317 49.568C256.133 49.592 256.733 49.604 257.117 49.604C257.429 49.604 257.693 49.592 257.909 49.568C258.125 49.52 258.317 49.424 258.485 49.28C258.677 49.112 258.845 48.764 258.989 48.236C259.133 47.708 259.265 46.952 259.385 45.968C259.505 44.984 259.613 43.724 259.709 42.188V41.684ZM266.153 30.164H269.753V32.828C269.753 33.692 269.645 34.604 269.429 35.564C269.213 36.5 268.817 37.4 268.241 38.264C267.689 39.128 266.861 39.896 265.757 40.568C265.589 40.328 265.337 40.028 265.001 39.668C264.665 39.308 264.317 38.96 263.957 38.624C263.597 38.288 263.297 38.048 263.057 37.904C263.969 37.376 264.641 36.824 265.073 36.248C265.505 35.672 265.793 35.084 265.937 34.484C266.081 33.884 266.153 33.296 266.153 32.72V30.164ZM275.945 40.676H276.701L277.385 40.568L279.725 41.396C278.981 43.724 277.889 45.668 276.449 47.228C275.033 48.788 273.341 50.048 271.373 51.008C269.405 51.968 267.209 52.712 264.785 53.24C264.593 52.784 264.329 52.244 263.993 51.62C263.657 50.996 263.309 50.492 262.949 50.108C265.061 49.772 266.981 49.232 268.709 48.488C270.461 47.72 271.961 46.736 273.209 45.536C274.457 44.336 275.369 42.872 275.945 41.144V40.676ZM269.429 43.304C270.485 45.032 272.081 46.448 274.217 47.552C276.377 48.632 278.933 49.364 281.885 49.748C281.453 50.156 280.997 50.708 280.517 51.404C280.037 52.1 279.665 52.712 279.401 53.24C276.257 52.616 273.581 51.548 271.373 50.036C269.165 48.524 267.437 46.58 266.189 44.204L269.429 43.304ZM254.849 36.176H261.041V39.38H254.273L254.849 36.176ZM253.877 41.684H260.789V44.816H253.229L253.877 41.684ZM272.957 30.164H276.593V35.6C276.593 35.816 276.593 36.008 276.593 36.176C276.617 36.32 276.653 36.416 276.701 36.464C276.773 36.56 276.905 36.608 277.097 36.608C277.169 36.608 277.265 36.608 277.385 36.608C277.505 36.608 277.613 36.608 277.709 36.608C277.781 36.608 277.865 36.608 277.961 36.608C278.057 36.608 278.129 36.596 278.177 36.572C278.225 36.524 278.285 36.476 278.357 36.428C278.429 36.356 278.477 36.248 278.501 36.104C278.549 35.984 278.573 35.78 278.573 35.492C278.597 35.204 278.621 34.868 278.645 34.484C278.981 34.772 279.437 35.072 280.013 35.384C280.613 35.672 281.165 35.9 281.669 36.068C281.597 36.524 281.525 36.98 281.453 37.436C281.381 37.868 281.273 38.192 281.129 38.408C280.985 38.624 280.805 38.816 280.589 38.984C280.373 39.152 280.109 39.296 279.797 39.416C279.581 39.488 279.293 39.548 278.933 39.596C278.597 39.644 278.297 39.668 278.033 39.668C277.769 39.668 277.457 39.668 277.097 39.668C276.761 39.668 276.461 39.668 276.197 39.668C275.789 39.668 275.357 39.608 274.901 39.488C274.469 39.344 274.109 39.14 273.821 38.876C273.533 38.564 273.317 38.192 273.173 37.76C273.029 37.304 272.957 36.56 272.957 35.528V30.164ZM251.609 26.348L254.057 24.08C254.777 24.44 255.557 24.884 256.397 25.412C257.261 25.916 257.933 26.384 258.413 26.816L255.821 29.336C255.389 28.88 254.765 28.376 253.949 27.824C253.133 27.272 252.353 26.78 251.609 26.348ZM285.485 33.62H318.821V38.336H285.485V33.62ZM340.745 23.792H344.957V44.168H340.745V23.792ZM349.241 20.156H353.525V47.984C353.525 49.256 353.381 50.228 353.093 50.9C352.805 51.572 352.289 52.088 351.545 52.448C350.801 52.784 349.829 53 348.629 53.096C347.429 53.216 346.001 53.276 344.345 53.276C344.273 52.844 344.153 52.352 343.985 51.8C343.841 51.272 343.661 50.732 343.445 50.18C343.253 49.652 343.049 49.196 342.833 48.812C344.009 48.836 345.113 48.86 346.145 48.884C347.201 48.884 347.921 48.884 348.305 48.884C348.641 48.884 348.881 48.824 349.025 48.704C349.169 48.56 349.241 48.32 349.241 47.984V20.156ZM325.589 44.492L329.837 45.68C329.213 47.12 328.421 48.524 327.461 49.892C326.501 51.26 325.529 52.4 324.545 53.312C324.281 53.048 323.933 52.748 323.501 52.412C323.069 52.1 322.613 51.788 322.133 51.476C321.677 51.164 321.281 50.924 320.945 50.756C321.881 49.964 322.769 49.016 323.609 47.912C324.449 46.784 325.109 45.644 325.589 44.492ZM331.457 46.076L335.237 44.528C336.053 45.488 336.833 46.544 337.577 47.696C338.321 48.848 338.885 49.88 339.269 50.792L335.309 52.664C335.093 52.04 334.781 51.344 334.373 50.576C333.965 49.832 333.509 49.064 333.005 48.272C332.501 47.48 331.985 46.748 331.457 46.076ZM327.317 30.992V33.98H333.725V30.992H327.317ZM327.317 37.364V40.352H333.725V37.364H327.317ZM327.317 24.656V27.572H333.725V24.656H327.317ZM323.249 20.804H338.009V44.204H323.249V20.804ZM374.333 27.608H386.717V31.136H374.333V27.608ZM368.141 48.488C369.221 48.32 370.469 48.116 371.885 47.876C373.325 47.636 374.849 47.384 376.457 47.12C378.065 46.832 379.661 46.544 381.245 46.256L381.605 50C379.517 50.48 377.417 50.948 375.305 51.404C373.193 51.884 371.273 52.304 369.545 52.664L368.141 48.488ZM371.885 21.02H376.061V49.46H371.885V21.02ZM374.333 21.02H388.697V37.868H374.333V34.16H384.413V24.728H374.333V21.02ZM381.821 35.384C382.277 37.544 382.901 39.548 383.693 41.396C384.485 43.22 385.493 44.828 386.717 46.22C387.941 47.612 389.441 48.692 391.217 49.46C390.905 49.748 390.569 50.096 390.209 50.504C389.849 50.936 389.501 51.38 389.165 51.836C388.853 52.316 388.601 52.748 388.409 53.132C386.465 52.1 384.833 50.756 383.513 49.1C382.217 47.42 381.149 45.476 380.309 43.268C379.469 41.06 378.785 38.636 378.257 35.996L381.821 35.384ZM387.041 38.12L390.425 40.46C389.441 41.42 388.397 42.368 387.293 43.304C386.213 44.216 385.217 44.996 384.305 45.644L381.641 43.592C382.217 43.112 382.829 42.56 383.477 41.936C384.149 41.312 384.797 40.664 385.421 39.992C386.045 39.32 386.585 38.696 387.041 38.12ZM358.781 20.948H367.745V24.836H362.813V53.24H358.781V20.948ZM366.557 20.948H367.313L367.925 20.804L370.877 22.496C370.541 23.552 370.181 24.668 369.797 25.844C369.413 27.02 369.029 28.184 368.645 29.336C368.261 30.488 367.877 31.532 367.493 32.468C368.669 33.86 369.425 35.18 369.761 36.428C370.121 37.652 370.301 38.792 370.301 39.848C370.301 41.048 370.169 42.032 369.905 42.8C369.641 43.568 369.209 44.168 368.609 44.6C368.321 44.816 367.985 44.984 367.601 45.104C367.241 45.224 366.869 45.32 366.485 45.392C366.149 45.44 365.753 45.464 365.297 45.464C364.865 45.464 364.421 45.464 363.965 45.464C363.941 44.912 363.845 44.264 363.677 43.52C363.533 42.776 363.317 42.14 363.029 41.612C363.365 41.636 363.665 41.648 363.929 41.648C364.217 41.648 364.469 41.648 364.685 41.648C364.877 41.648 365.057 41.624 365.225 41.576C365.417 41.504 365.597 41.42 365.765 41.324C365.981 41.156 366.137 40.904 366.233 40.568C366.353 40.208 366.401 39.776 366.377 39.272C366.377 38.432 366.197 37.472 365.837 36.392C365.501 35.288 364.793 34.136 363.713 32.936C363.977 32.12 364.241 31.22 364.505 30.236C364.793 29.252 365.057 28.268 365.297 27.284C365.561 26.276 365.801 25.34 366.017 24.476C366.257 23.588 366.437 22.856 366.557 22.28V20.948ZM394.205 42.692H411.017V45.752H394.205V42.692ZM393.413 25.556H411.413V28.688H393.413V25.556ZM400.541 23.036H404.465V48.848H400.541V23.036ZM393.197 48.416C394.709 48.32 396.437 48.2 398.381 48.056C400.325 47.912 402.377 47.756 404.537 47.588C406.721 47.396 408.893 47.204 411.053 47.012L411.089 50.288C409.049 50.504 406.985 50.72 404.897 50.936C402.833 51.152 400.841 51.344 398.921 51.512C397.025 51.704 395.285 51.884 393.701 52.052L393.197 48.416ZM397.769 36.968V38.588H407.273V36.968H397.769ZM397.769 32.792V34.412H407.273V32.792H397.769ZM394.349 30.092H410.837V41.288H394.349V30.092ZM409.109 19.616L410.981 22.82C409.469 23.132 407.765 23.408 405.869 23.648C403.997 23.864 402.077 24.044 400.109 24.188C398.141 24.308 396.257 24.392 394.457 24.44C394.385 23.984 394.253 23.468 394.061 22.892C393.893 22.292 393.701 21.776 393.485 21.344C394.829 21.272 396.209 21.188 397.625 21.092C399.041 20.972 400.433 20.84 401.801 20.696C403.193 20.552 404.501 20.396 405.725 20.228C406.973 20.036 408.101 19.832 409.109 19.616ZM411.377 27.572H423.869V31.532H411.377V27.572ZM422.105 27.572H426.245C426.245 27.572 426.245 27.692 426.245 27.932C426.245 28.172 426.245 28.448 426.245 28.76C426.245 29.048 426.245 29.288 426.245 29.48C426.149 33.176 426.053 36.32 425.957 38.912C425.861 41.48 425.753 43.604 425.633 45.284C425.537 46.94 425.381 48.236 425.165 49.172C424.973 50.108 424.733 50.78 424.445 51.188C424.037 51.788 423.605 52.208 423.149 52.448C422.717 52.712 422.201 52.904 421.601 53.024C421.049 53.12 420.377 53.168 419.585 53.168C418.793 53.192 417.965 53.192 417.101 53.168C417.077 52.568 416.945 51.872 416.705 51.08C416.489 50.288 416.213 49.604 415.877 49.028C416.645 49.1 417.353 49.148 418.001 49.172C418.649 49.196 419.141 49.208 419.477 49.208C419.765 49.208 420.005 49.16 420.197 49.064C420.389 48.968 420.569 48.812 420.737 48.596C420.929 48.308 421.097 47.756 421.241 46.94C421.385 46.1 421.505 44.912 421.601 43.376C421.721 41.816 421.817 39.812 421.889 37.364C421.985 34.916 422.057 31.952 422.105 28.472V27.572ZM414.833 20.012H418.973C418.973 23.084 418.937 26 418.865 28.76C418.817 31.52 418.661 34.124 418.397 36.572C418.157 38.996 417.737 41.252 417.137 43.34C416.561 45.404 415.745 47.288 414.689 48.992C413.633 50.696 412.277 52.196 410.621 53.492C410.405 53.132 410.117 52.748 409.757 52.34C409.421 51.932 409.061 51.536 408.677 51.152C408.317 50.792 407.957 50.492 407.597 50.252C409.109 49.1 410.333 47.78 411.269 46.292C412.205 44.78 412.925 43.112 413.429 41.288C413.933 39.44 414.281 37.424 414.473 35.24C414.665 33.032 414.773 30.668 414.797 28.148C414.821 25.604 414.833 22.892 414.833 20.012ZM435.101 54.968L433.949 52.052C435.461 51.572 436.613 50.912 437.405 50.072C438.221 49.256 438.629 48.32 438.629 47.264L438.341 43.736L440.357 46.94C440.045 47.204 439.709 47.408 439.349 47.552C438.989 47.696 438.605 47.768 438.197 47.768C437.309 47.768 436.517 47.492 435.821 46.94C435.125 46.364 434.777 45.56 434.777 44.528C434.777 43.52 435.125 42.728 435.821 42.152C436.517 41.576 437.345 41.288 438.305 41.288C439.577 41.288 440.537 41.732 441.185 42.62C441.857 43.508 442.193 44.708 442.193 46.22C442.193 48.26 441.569 50.06 440.321 51.62C439.073 53.18 437.333 54.296 435.101 54.968ZM99.692 82.544H114.92V86.576H99.692V82.544ZM81.224 80.888H99.944V84.452H81.224V80.888ZM82.556 89.132H98.54V92.624H82.556V89.132ZM83.204 95H98.072V98.492H83.204V95ZM107.288 73.652H111.464V102.416C111.464 103.52 111.332 104.372 111.068 104.972C110.804 105.596 110.348 106.088 109.7 106.448C109.028 106.76 108.188 106.976 107.18 107.096C106.196 107.216 104.984 107.276 103.544 107.276C103.472 106.7 103.28 106.004 102.968 105.188C102.68 104.396 102.38 103.724 102.068 103.172C103.028 103.196 103.916 103.208 104.732 103.208C105.572 103.208 106.148 103.208 106.46 103.208C106.772 103.208 106.988 103.148 107.108 103.028C107.228 102.908 107.288 102.704 107.288 102.416V73.652ZM100.376 89.78L103.94 88.592C104.396 89.432 104.816 90.332 105.2 91.292C105.608 92.252 105.944 93.2 106.208 94.136C106.496 95.048 106.688 95.876 106.784 96.62L102.968 97.952C102.896 97.232 102.728 96.404 102.464 95.468C102.2 94.532 101.888 93.572 101.528 92.588C101.168 91.604 100.784 90.668 100.376 89.78ZM81.224 75.632L84.212 74.336C84.74 75.128 85.232 76.004 85.688 76.964C86.144 77.924 86.444 78.764 86.588 79.484L83.456 80.96C83.312 80.24 83.024 79.388 82.592 78.404C82.184 77.396 81.728 76.472 81.224 75.632ZM83.852 85.172L87.164 84.02C87.572 84.716 87.956 85.472 88.316 86.288C88.7 87.104 88.94 87.824 89.036 88.448L85.508 89.744C85.436 89.144 85.232 88.412 84.896 87.548C84.584 86.684 84.236 85.892 83.852 85.172ZM86.372 73.724H89.756V82.544H86.372V73.724ZM88.64 90.176H92.636V103.244H88.64V90.176ZM91.412 73.724H94.832V82.544H91.412V73.724ZM81.368 101.876C82.904 101.732 84.668 101.564 86.66 101.372C88.676 101.18 90.788 100.976 92.996 100.76C95.204 100.52 97.4 100.28 99.584 100.04L99.656 103.82C97.568 104.06 95.456 104.3 93.32 104.54C91.208 104.804 89.18 105.044 87.236 105.26C85.292 105.476 83.516 105.668 81.908 105.836L81.368 101.876ZM97.136 74.12L100.88 75.452C100.304 76.436 99.728 77.408 99.152 78.368C98.576 79.328 98.048 80.144 97.568 80.816L94.688 79.664C94.952 79.16 95.24 78.584 95.552 77.936C95.864 77.288 96.164 76.628 96.452 75.956C96.74 75.284 96.968 74.672 97.136 74.12ZM93.824 83.984L97.712 84.956C97.328 85.772 96.956 86.576 96.596 87.368C96.236 88.16 95.9 88.844 95.588 89.42L92.204 88.556C92.396 88.148 92.588 87.68 92.78 87.152C92.996 86.6 93.188 86.048 93.356 85.496C93.548 84.944 93.704 84.44 93.824 83.984ZM117.692 79.196H150.344V83.3H117.692V79.196ZM129.716 88.016H143.504V92.084H129.716V88.016ZM141.884 88.016H146.348C146.348 88.016 146.336 88.136 146.312 88.376C146.312 88.592 146.312 88.844 146.312 89.132C146.312 89.42 146.288 89.672 146.24 89.888C146.024 93.176 145.784 95.864 145.52 97.952C145.256 100.04 144.956 101.672 144.62 102.848C144.284 104 143.876 104.84 143.396 105.368C142.844 105.968 142.268 106.376 141.668 106.592C141.068 106.808 140.348 106.964 139.508 107.06C138.812 107.132 137.9 107.156 136.772 107.132C135.644 107.132 134.48 107.108 133.28 107.06C133.256 106.436 133.1 105.716 132.812 104.9C132.524 104.108 132.164 103.412 131.732 102.812C132.98 102.932 134.18 103.004 135.332 103.028C136.484 103.052 137.312 103.064 137.816 103.064C138.224 103.064 138.56 103.04 138.824 102.992C139.112 102.92 139.364 102.788 139.58 102.596C139.964 102.284 140.288 101.6 140.552 100.544C140.84 99.488 141.092 97.988 141.308 96.044C141.524 94.1 141.716 91.64 141.884 88.664V88.016ZM128.096 81.644H132.92C132.824 83.564 132.668 85.508 132.452 87.476C132.26 89.42 131.924 91.352 131.444 93.272C130.964 95.168 130.268 96.98 129.356 98.708C128.444 100.436 127.244 102.044 125.756 103.532C124.268 105.02 122.384 106.34 120.104 107.492C119.792 106.892 119.336 106.244 118.736 105.548C118.16 104.852 117.596 104.276 117.044 103.82C119.132 102.86 120.836 101.744 122.156 100.472C123.5 99.176 124.556 97.784 125.324 96.296C126.092 94.784 126.656 93.212 127.016 91.58C127.4 89.948 127.652 88.292 127.772 86.612C127.916 84.932 128.024 83.276 128.096 81.644ZM131.552 73.256H136.052V80.816H131.552V73.256ZM174.644 73.436H178.964V92.048C178.964 93.008 178.856 93.8 178.64 94.424C178.424 95.048 178.016 95.54 177.416 95.9C176.816 96.236 176.096 96.464 175.256 96.584C174.44 96.68 173.48 96.728 172.376 96.728C172.304 96.128 172.124 95.42 171.836 94.604C171.572 93.764 171.284 93.056 170.972 92.48C171.644 92.504 172.268 92.516 172.844 92.516C173.444 92.516 173.852 92.516 174.068 92.516C174.452 92.516 174.644 92.336 174.644 91.976V73.436ZM169.28 79.628L173.384 80.312C173 82.568 172.448 84.752 171.728 86.864C171.032 88.952 170.228 90.704 169.316 92.12C169.052 91.928 168.692 91.7 168.236 91.436C167.78 91.172 167.312 90.92 166.832 90.68C166.376 90.416 165.98 90.212 165.644 90.068C166.556 88.844 167.312 87.296 167.912 85.424C168.536 83.528 168.992 81.596 169.28 79.628ZM179.864 80.456L183.608 79.232C184.184 80.312 184.712 81.476 185.192 82.724C185.696 83.948 186.128 85.16 186.488 86.36C186.872 87.536 187.136 88.604 187.28 89.564L183.284 90.932C183.164 89.972 182.936 88.892 182.6 87.692C182.264 86.468 181.856 85.232 181.376 83.984C180.92 82.712 180.416 81.536 179.864 80.456ZM181.268 91.292L185.48 92.336C184.616 95.216 183.428 97.628 181.916 99.572C180.404 101.492 178.52 103.052 176.264 104.252C174.032 105.476 171.356 106.472 168.236 107.24C168.044 106.592 167.72 105.884 167.264 105.116C166.808 104.372 166.352 103.736 165.896 103.208C168.68 102.728 171.08 102.02 173.096 101.084C175.112 100.124 176.792 98.852 178.136 97.268C179.504 95.684 180.548 93.692 181.268 91.292ZM158.66 76.784H162.836V107.204H158.66V76.784ZM153.476 83.552H166.688V87.548H153.476V83.552ZM158.876 85.172L161.396 86.252C161.06 87.548 160.652 88.892 160.172 90.284C159.692 91.676 159.164 93.056 158.588 94.424C158.012 95.768 157.4 97.04 156.752 98.24C156.104 99.44 155.432 100.484 154.736 101.372C154.52 100.748 154.208 100.052 153.8 99.284C153.416 98.492 153.056 97.82 152.72 97.268C153.344 96.548 153.956 95.708 154.556 94.748C155.18 93.764 155.768 92.72 156.32 91.616C156.872 90.512 157.364 89.408 157.796 88.304C158.228 87.2 158.588 86.156 158.876 85.172ZM164.24 73.796L167.156 77.108C165.932 77.564 164.588 77.984 163.124 78.368C161.66 78.752 160.16 79.088 158.624 79.376C157.112 79.64 155.66 79.868 154.268 80.06C154.172 79.58 154.004 79.028 153.764 78.404C153.524 77.756 153.284 77.204 153.044 76.748C154.364 76.532 155.708 76.28 157.076 75.992C158.468 75.68 159.776 75.332 161 74.948C162.248 74.564 163.328 74.18 164.24 73.796ZM162.764 88.556C162.98 88.724 163.304 89.036 163.736 89.492C164.192 89.924 164.672 90.404 165.176 90.932C165.704 91.46 166.172 91.952 166.58 92.408C166.988 92.84 167.288 93.152 167.48 93.344L164.996 96.764C164.78 96.308 164.492 95.792 164.132 95.216C163.796 94.64 163.424 94.04 163.016 93.416C162.632 92.792 162.248 92.204 161.864 91.652C161.48 91.076 161.144 90.608 160.856 90.248L162.764 88.556ZM209.6 73.4H213.956V79.808H209.6V73.4ZM201.824 78.08H222.596V85.712H218.384V81.824H205.856V85.748H201.824V78.08ZM208.556 82.616L212.876 83.264C212.42 84.632 211.94 86.072 211.436 87.584C210.932 89.072 210.416 90.548 209.888 92.012C209.36 93.476 208.844 94.892 208.34 96.26C207.836 97.604 207.356 98.828 206.9 99.932L202.976 98.672C203.408 97.64 203.876 96.476 204.38 95.18C204.884 93.86 205.376 92.48 205.856 91.04C206.36 89.6 206.84 88.16 207.296 86.72C207.776 85.256 208.196 83.888 208.556 82.616ZM201.572 87.728H222.956V91.58H201.572V87.728ZM215.432 90.176L220.004 90.356C219.548 92.996 218.864 95.276 217.952 97.196C217.064 99.092 215.912 100.688 214.496 101.984C213.08 103.28 211.352 104.348 209.312 105.188C207.296 106.052 204.944 106.748 202.256 107.276C202.184 106.94 202.028 106.532 201.788 106.052C201.548 105.596 201.284 105.14 200.996 104.684C200.732 104.228 200.48 103.844 200.24 103.532C203.456 103.076 206.12 102.356 208.232 101.372C210.368 100.388 212.024 98.996 213.2 97.196C214.376 95.372 215.12 93.032 215.432 90.176ZM205.28 98.24L207.728 95.108C209.048 95.588 210.428 96.152 211.868 96.8C213.308 97.448 214.724 98.156 216.116 98.924C217.508 99.668 218.792 100.436 219.968 101.228C221.168 101.996 222.188 102.752 223.028 103.496L220.256 107.096C219.488 106.352 218.528 105.572 217.376 104.756C216.248 103.94 215 103.136 213.632 102.344C212.288 101.552 210.896 100.808 209.456 100.112C208.016 99.392 206.624 98.768 205.28 98.24ZM188.72 91.832C190.328 91.496 192.248 91.064 194.48 90.536C196.712 89.984 198.944 89.42 201.176 88.844L201.68 92.732C199.64 93.308 197.576 93.884 195.488 94.46C193.424 95.036 191.528 95.552 189.8 96.008L188.72 91.832ZM189.296 80.204H201.248V84.2H189.296V80.204ZM193.652 73.4H197.792V102.704C197.792 103.736 197.684 104.54 197.468 105.116C197.252 105.692 196.844 106.136 196.244 106.448C195.644 106.76 194.9 106.964 194.012 107.06C193.124 107.18 192.056 107.24 190.808 107.24C190.736 106.688 190.58 106.04 190.34 105.296C190.124 104.552 189.884 103.892 189.62 103.316C190.316 103.34 190.988 103.364 191.636 103.388C192.284 103.388 192.728 103.388 192.968 103.388C193.208 103.388 193.376 103.34 193.472 103.244C193.592 103.124 193.652 102.944 193.652 102.704V73.4ZM226.556 81.788H257.48V88.916H253.196V85.064H230.66V88.412H226.556V81.788ZM252.872 73.364L255.752 76.244C253.904 76.628 251.864 76.964 249.632 77.252C247.4 77.516 245.084 77.744 242.684 77.936C240.284 78.104 237.86 78.248 235.412 78.368C232.988 78.464 230.648 78.536 228.392 78.584C228.344 78.104 228.236 77.552 228.068 76.928C227.9 76.304 227.72 75.8 227.528 75.416C229.76 75.368 232.052 75.296 234.404 75.2C236.756 75.08 239.06 74.936 241.316 74.768C243.572 74.6 245.684 74.408 247.652 74.192C249.644 73.952 251.384 73.676 252.872 73.364ZM230.912 78.692L234.332 77.252C234.836 77.852 235.328 78.536 235.808 79.304C236.288 80.048 236.612 80.72 236.78 81.32L233.18 82.868C233.012 82.292 232.712 81.608 232.28 80.816C231.848 80.024 231.392 79.316 230.912 78.692ZM238.724 77.936L242.18 76.676C242.66 77.348 243.104 78.092 243.512 78.908C243.944 79.724 244.244 80.444 244.412 81.068L240.74 82.436C240.62 81.812 240.368 81.08 239.984 80.24C239.6 79.4 239.18 78.632 238.724 77.936ZM247.724 88.016L250.604 85.964C251.324 86.492 252.044 87.08 252.764 87.728C253.508 88.352 254.192 89 254.816 89.672C255.464 90.32 255.968 90.932 256.328 91.508L253.232 93.812C252.896 93.236 252.428 92.612 251.828 91.94C251.228 91.244 250.568 90.56 249.848 89.888C249.128 89.192 248.42 88.568 247.724 88.016ZM238.508 85.964L240.56 83.768C241.472 84.104 242.432 84.548 243.44 85.1C244.448 85.652 245.24 86.168 245.816 86.648L243.656 89.06C243.104 88.58 242.336 88.04 241.352 87.44C240.392 86.84 239.444 86.348 238.508 85.964ZM250.136 76.712L254.348 78.08C253.7 79.04 253.04 79.976 252.368 80.888C251.72 81.776 251.108 82.532 250.532 83.156L247.328 81.932C247.64 81.452 247.976 80.912 248.336 80.312C248.696 79.688 249.032 79.064 249.344 78.44C249.656 77.792 249.92 77.216 250.136 76.712ZM248.12 94.712H248.984L249.704 94.568L252.404 96.296C251.276 98.048 249.86 99.56 248.156 100.832C246.452 102.104 244.532 103.16 242.396 104C240.26 104.864 237.968 105.56 235.52 106.088C233.096 106.64 230.588 107.048 227.996 107.312C227.876 106.976 227.684 106.58 227.42 106.124C227.18 105.692 226.904 105.26 226.592 104.828C226.304 104.396 226.028 104.048 225.764 103.784C228.284 103.592 230.696 103.304 233 102.92C235.328 102.512 237.476 101.972 239.444 101.3C241.412 100.628 243.14 99.8 244.628 98.816C246.116 97.832 247.28 96.668 248.12 95.324V94.712ZM236.456 96.728C237.464 97.76 238.712 98.672 240.2 99.464C241.712 100.256 243.416 100.928 245.312 101.48C247.232 102.008 249.308 102.44 251.54 102.776C253.772 103.088 256.112 103.304 258.56 103.424C258.272 103.736 257.972 104.12 257.66 104.576C257.348 105.032 257.048 105.5 256.76 105.98C256.496 106.46 256.268 106.892 256.076 107.276C253.58 107.06 251.204 106.712 248.948 106.232C246.692 105.776 244.592 105.176 242.648 104.432C240.704 103.712 238.928 102.824 237.32 101.768C235.712 100.712 234.296 99.476 233.072 98.06L236.456 96.728ZM238.292 91.796L242.036 93.092C241.028 94.34 239.828 95.504 238.436 96.584C237.068 97.664 235.616 98.624 234.08 99.464C232.544 100.304 230.996 101.024 229.436 101.624C229.22 101.384 228.932 101.084 228.572 100.724C228.236 100.364 227.876 100.016 227.492 99.68C227.132 99.32 226.808 99.032 226.52 98.816C228.104 98.336 229.628 97.748 231.092 97.052C232.58 96.332 233.948 95.54 235.196 94.676C236.444 93.788 237.476 92.828 238.292 91.796ZM235.412 86.648H239.408V89.132C239.408 89.564 239.492 89.828 239.66 89.924C239.852 90.02 240.26 90.068 240.884 90.068C241.004 90.068 241.232 90.068 241.568 90.068C241.904 90.068 242.276 90.068 242.684 90.068C243.092 90.068 243.476 90.068 243.836 90.068C244.196 90.068 244.46 90.068 244.628 90.068C244.94 90.068 245.18 90.032 245.348 89.96C245.516 89.864 245.636 89.696 245.708 89.456C245.804 89.216 245.876 88.856 245.924 88.376C246.308 88.592 246.824 88.808 247.472 89.024C248.12 89.24 248.696 89.396 249.2 89.492C249.08 90.428 248.864 91.16 248.552 91.688C248.264 92.192 247.844 92.552 247.292 92.768C246.74 92.96 246.02 93.056 245.132 93.056C244.94 93.056 244.688 93.056 244.376 93.056C244.064 93.056 243.704 93.056 243.296 93.056C242.912 93.056 242.516 93.056 242.108 93.056C241.724 93.056 241.376 93.056 241.064 93.056C240.752 93.056 240.5 93.056 240.308 93.056C239.012 93.056 238.004 92.948 237.284 92.732C236.564 92.492 236.072 92.096 235.808 91.544C235.544 90.968 235.412 90.176 235.412 89.168V86.648ZM232.136 86.612L235.376 88.016C234.872 89.168 234.236 90.296 233.468 91.4C232.7 92.48 231.716 93.392 230.516 94.136L227.564 91.76C228.596 91.184 229.508 90.44 230.3 89.528C231.092 88.592 231.704 87.62 232.136 86.612ZM237.392 94.712H249.128V97.664H234.44L237.392 94.712ZM270.728 83.732H275.228V100.904C275.228 101.792 275.336 102.356 275.552 102.596C275.792 102.812 276.344 102.92 277.208 102.92C277.376 102.92 277.688 102.92 278.144 102.92C278.6 102.92 279.092 102.92 279.62 102.92C280.148 102.92 280.64 102.92 281.096 102.92C281.552 102.92 281.9 102.92 282.14 102.92C282.716 102.92 283.148 102.752 283.436 102.416C283.748 102.056 283.976 101.384 284.12 100.4C284.264 99.416 284.372 97.988 284.444 96.116C284.948 96.5 285.596 96.872 286.388 97.232C287.18 97.568 287.876 97.82 288.476 97.988C288.332 100.22 288.068 101.996 287.684 103.316C287.3 104.612 286.7 105.524 285.884 106.052C285.068 106.604 283.928 106.88 282.464 106.88C282.272 106.88 281.972 106.88 281.564 106.88C281.18 106.88 280.736 106.88 280.232 106.88C279.752 106.88 279.272 106.88 278.792 106.88C278.312 106.88 277.868 106.88 277.46 106.88C277.076 106.88 276.8 106.88 276.632 106.88C275.096 106.88 273.896 106.688 273.032 106.304C272.192 105.944 271.592 105.332 271.232 104.468C270.896 103.604 270.728 102.416 270.728 100.904V83.732ZM270.836 76.892L273.644 73.544C275.084 74.048 276.548 74.66 278.036 75.38C279.524 76.1 280.94 76.844 282.284 77.612C283.628 78.38 284.78 79.124 285.74 79.844L282.896 83.624C281.96 82.856 280.82 82.064 279.476 81.248C278.156 80.408 276.74 79.604 275.228 78.836C273.74 78.068 272.276 77.42 270.836 76.892ZM264.248 86.288L268.46 87.152C268.292 88.808 268.064 90.5 267.776 92.228C267.488 93.956 267.092 95.6 266.588 97.16C266.084 98.696 265.424 100.052 264.608 101.228L260.576 98.888C261.296 97.856 261.896 96.668 262.376 95.324C262.856 93.98 263.252 92.54 263.564 91.004C263.876 89.468 264.104 87.896 264.248 86.288ZM284.948 86.828L288.908 84.884C289.94 86.204 290.9 87.632 291.788 89.168C292.676 90.704 293.432 92.228 294.056 93.74C294.704 95.252 295.172 96.632 295.46 97.88L291.104 100.04C290.864 98.816 290.444 97.436 289.844 95.9C289.244 94.34 288.524 92.768 287.684 91.184C286.844 89.6 285.932 88.148 284.948 86.828ZM302.984 108.968L301.832 106.052C303.344 105.572 304.496 104.912 305.288 104.072C306.104 103.256 306.512 102.32 306.512 101.264L306.224 97.736L308.24 100.94C307.928 101.204 307.592 101.408 307.232 101.552C306.872 101.696 306.488 101.768 306.08 101.768C305.192 101.768 304.4 101.492 303.704 100.94C303.008 100.364 302.66 99.56 302.66 98.528C302.66 97.52 303.008 96.728 303.704 96.152C304.4 95.576 305.228 95.288 306.188 95.288C307.46 95.288 308.42 95.732 309.068 96.62C309.74 97.508 310.076 98.708 310.076 100.22C310.076 102.26 309.452 104.06 308.204 105.62C306.956 107.18 305.216 108.296 302.984 108.968ZM348.236 73.544L352.484 74.516C351.98 76.388 351.368 78.248 350.648 80.096C349.928 81.92 349.136 83.636 348.272 85.244C347.432 86.828 346.532 88.22 345.572 89.42C345.308 89.156 344.96 88.844 344.528 88.484C344.12 88.124 343.688 87.776 343.232 87.44C342.8 87.08 342.416 86.792 342.08 86.576C343.016 85.544 343.868 84.332 344.636 82.94C345.404 81.548 346.088 80.048 346.688 78.44C347.312 76.832 347.828 75.2 348.236 73.544ZM347.228 89.528L351.44 90.392C351.104 91.928 350.672 93.44 350.144 94.928C349.64 96.392 349.076 97.784 348.452 99.104C347.828 100.4 347.18 101.54 346.508 102.524C346.244 102.284 345.884 102.02 345.428 101.732C344.972 101.42 344.504 101.132 344.024 100.868C343.568 100.58 343.172 100.352 342.836 100.184C343.868 98.912 344.756 97.316 345.5 95.396C346.244 93.476 346.82 91.52 347.228 89.528ZM349.028 79.88H363.824V83.876H347.444L349.028 79.88ZM353.168 81.644H357.452V102.416C357.452 103.424 357.344 104.252 357.128 104.9C356.912 105.548 356.468 106.052 355.796 106.412C355.172 106.748 354.416 106.976 353.528 107.096C352.664 107.216 351.644 107.276 350.468 107.276C350.396 106.628 350.204 105.884 349.892 105.044C349.604 104.204 349.304 103.496 348.992 102.92C349.76 102.944 350.48 102.956 351.152 102.956C351.848 102.956 352.316 102.956 352.556 102.956C352.772 102.956 352.928 102.92 353.024 102.848C353.12 102.752 353.168 102.584 353.168 102.344V81.644ZM358.748 90.464L362.6 89.168C363.248 90.416 363.836 91.748 364.364 93.164C364.892 94.556 365.348 95.936 365.732 97.304C366.116 98.648 366.392 99.86 366.56 100.94L362.42 102.38C362.276 101.324 362.024 100.1 361.664 98.708C361.328 97.316 360.908 95.912 360.404 94.496C359.9 93.056 359.348 91.712 358.748 90.464ZM362.636 79.88H363.212L363.896 79.736L366.956 80.312C366.74 81.776 366.488 83.288 366.2 84.848C365.912 86.384 365.636 87.692 365.372 88.772L361.7 88.088C361.796 87.44 361.904 86.684 362.024 85.82C362.144 84.956 362.264 84.056 362.384 83.12C362.504 82.16 362.588 81.26 362.636 80.42V79.88ZM340.532 73.544L344.6 74.84C343.832 76.856 342.92 78.896 341.864 80.96C340.808 83 339.668 84.944 338.444 86.792C337.22 88.616 335.948 90.212 334.628 91.58C334.508 91.22 334.304 90.764 334.016 90.212C333.752 89.636 333.464 89.06 333.152 88.484C332.84 87.908 332.564 87.44 332.324 87.08C333.404 85.976 334.448 84.704 335.456 83.264C336.488 81.824 337.436 80.276 338.3 78.62C339.188 76.964 339.932 75.272 340.532 73.544ZM337.076 83.516L341.18 79.412V79.448V107.168H337.076V83.516ZM377.072 86.54V91.076H394.856V86.54H377.072ZM373.472 83.84H398.672V93.704H373.472V83.84ZM379.628 79.772H392.372V82.58H379.628V79.772ZM384.056 84.74H387.548V92.336H384.056V84.74ZM385.784 76.748C384.728 77.78 383.408 78.824 381.824 79.88C380.24 80.936 378.524 81.92 376.676 82.832C374.828 83.72 372.956 84.5 371.06 85.172C370.82 84.692 370.484 84.116 370.052 83.444C369.62 82.772 369.2 82.22 368.792 81.788C370.784 81.188 372.716 80.444 374.588 79.556C376.484 78.668 378.212 77.684 379.772 76.604C381.332 75.524 382.604 74.456 383.588 73.4H387.656C389.048 74.672 390.584 75.836 392.264 76.892C393.968 77.948 395.744 78.86 397.592 79.628C399.464 80.372 401.324 80.984 403.172 81.464C402.716 81.944 402.272 82.52 401.84 83.192C401.408 83.864 401.024 84.476 400.688 85.028C399.416 84.596 398.096 84.08 396.728 83.48C395.36 82.88 394.004 82.22 392.66 81.5C391.316 80.756 390.056 79.988 388.88 79.196C387.704 78.38 386.672 77.564 385.784 76.748ZM378.332 87.296L381.284 86.504C381.62 87.104 381.92 87.764 382.184 88.484C382.448 89.204 382.628 89.828 382.724 90.356L379.592 91.292C379.52 90.764 379.364 90.128 379.124 89.384C378.884 88.616 378.62 87.92 378.332 87.296ZM390.212 86.36L393.812 87.224C393.404 87.992 393.02 88.736 392.66 89.456C392.324 90.176 392 90.788 391.688 91.292L388.772 90.464C389.012 89.888 389.276 89.204 389.564 88.412C389.876 87.62 390.092 86.936 390.212 86.36ZM375.452 94.892H396.764V107.096H392.3V97.7H379.7V107.24H375.452V94.892ZM377.864 99.14H394.136V101.948H377.864V99.14ZM377.9 103.46H394.136V106.268H377.9V103.46ZM414.692 96.008H418.976V101.66C418.976 102.188 419.096 102.524 419.336 102.668C419.576 102.788 420.104 102.848 420.92 102.848C421.112 102.848 421.424 102.848 421.856 102.848C422.288 102.848 422.756 102.848 423.26 102.848C423.764 102.848 424.244 102.848 424.7 102.848C425.156 102.848 425.504 102.848 425.744 102.848C426.2 102.848 426.536 102.776 426.752 102.632C426.992 102.464 427.16 102.14 427.256 101.66C427.376 101.18 427.46 100.46 427.508 99.5C427.796 99.692 428.156 99.896 428.588 100.112C429.044 100.304 429.524 100.484 430.028 100.652C430.532 100.796 430.964 100.904 431.324 100.976C431.18 102.512 430.916 103.688 430.532 104.504C430.172 105.32 429.644 105.884 428.948 106.196C428.252 106.532 427.316 106.7 426.14 106.7C425.924 106.7 425.624 106.7 425.24 106.7C424.856 106.7 424.424 106.7 423.944 106.7C423.488 106.7 423.02 106.7 422.54 106.7C422.06 106.7 421.628 106.7 421.244 106.7C420.86 106.7 420.584 106.7 420.416 106.7C418.88 106.7 417.692 106.544 416.852 106.232C416.036 105.92 415.472 105.404 415.16 104.684C414.848 103.964 414.692 102.968 414.692 101.696V96.008ZM418.256 94.964L421.208 92.48C421.928 92.888 422.672 93.356 423.44 93.884C424.208 94.412 424.928 94.964 425.6 95.54C426.296 96.092 426.848 96.62 427.256 97.124L424.088 99.86C423.728 99.332 423.224 98.78 422.576 98.204C421.928 97.604 421.22 97.028 420.452 96.476C419.708 95.9 418.976 95.396 418.256 94.964ZM429.272 96.8L432.944 95.036C433.784 95.876 434.6 96.8 435.392 97.808C436.208 98.816 436.928 99.824 437.552 100.832C438.176 101.84 438.644 102.8 438.956 103.712L434.96 105.584C434.696 104.768 434.264 103.844 433.664 102.812C433.088 101.78 432.416 100.736 431.648 99.68C430.904 98.624 430.112 97.664 429.272 96.8ZM409.652 95.504L413.54 96.764C413.084 98.516 412.46 100.22 411.668 101.876C410.9 103.508 409.844 104.876 408.5 105.98L404.9 103.604C406.076 102.644 407.06 101.456 407.852 100.04C408.668 98.6 409.268 97.088 409.652 95.504ZM413.108 77.288H437.588V80.996H413.108V77.288ZM420.488 82.832H435.536V86.216H420.488V82.832ZM420.524 88.268H436.508V91.796H420.524V88.268ZM418.544 78.584H422.9V93.848H418.544V78.584ZM413.576 73.292L418.148 74.444C417.476 76.34 416.66 78.164 415.7 79.916C414.74 81.644 413.684 83.24 412.532 84.704C411.38 86.168 410.168 87.44 408.896 88.52C408.656 88.232 408.308 87.884 407.852 87.476C407.396 87.068 406.928 86.672 406.448 86.288C405.992 85.904 405.584 85.592 405.224 85.352C407.096 84.008 408.764 82.268 410.228 80.132C411.692 77.996 412.808 75.716 413.576 73.292ZM453.176 96.476H458.9V99.392H453.176V96.476ZM456.272 92.336H464.372V95.252H456.272V92.336ZM454.508 77.432H474.2V80.492H454.508V77.432ZM453.5 86.144H474.812V89.348H453.5V86.144ZM455.768 81.824H473.3V84.74H455.768V81.824ZM462.068 79.196H466.208V87.656H462.068V79.196ZM462.14 92.336H466.172V103.316C466.172 104.204 466.064 104.912 465.848 105.44C465.656 105.968 465.26 106.376 464.66 106.664C464.06 106.952 463.34 107.12 462.5 107.168C461.684 107.24 460.724 107.276 459.62 107.276C459.548 106.748 459.404 106.148 459.188 105.476C458.996 104.804 458.78 104.228 458.54 103.748C459.164 103.772 459.776 103.784 460.376 103.784C460.976 103.784 461.384 103.772 461.6 103.748C461.792 103.748 461.924 103.712 461.996 103.64C462.092 103.568 462.14 103.436 462.14 103.244V92.336ZM459.764 90.464L461.924 88.124C462.836 88.34 463.808 88.628 464.84 88.988C465.872 89.324 466.868 89.696 467.828 90.104C468.812 90.488 469.628 90.86 470.276 91.22L468.044 93.848C467.444 93.488 466.664 93.104 465.704 92.696C464.768 92.264 463.772 91.856 462.716 91.472C461.684 91.064 460.7 90.728 459.764 90.464ZM456.668 74.588L459.872 73.4C460.304 73.952 460.712 74.576 461.096 75.272C461.504 75.944 461.828 76.544 462.068 77.072L458.756 78.44C458.564 77.912 458.264 77.288 457.856 76.568C457.472 75.848 457.076 75.188 456.668 74.588ZM458.144 96.476H458.756L459.368 96.368L461.78 97.34C461.132 99.524 460.148 101.408 458.828 102.992C457.508 104.576 455.996 105.8 454.292 106.664C454.052 106.28 453.704 105.8 453.248 105.224C452.792 104.672 452.384 104.228 452.024 103.892C452.96 103.484 453.836 102.932 454.652 102.236C455.492 101.54 456.212 100.748 456.812 99.86C457.412 98.948 457.856 98 458.144 97.016V96.476ZM471.536 93.2L474.704 95.576C473.624 96.344 472.532 97.112 471.428 97.88C470.324 98.648 469.316 99.284 468.404 99.788L466.172 97.916C466.748 97.508 467.36 97.04 468.008 96.512C468.68 95.96 469.328 95.396 469.952 94.82C470.576 94.244 471.104 93.704 471.536 93.2ZM468.116 73.364L471.896 74.516C471.392 75.212 470.9 75.884 470.42 76.532C469.964 77.156 469.544 77.708 469.16 78.188L466.208 77.18C466.544 76.628 466.892 75.992 467.252 75.272C467.612 74.552 467.9 73.916 468.116 73.364ZM466.1 94.532C466.676 95.78 467.42 96.968 468.332 98.096C469.268 99.2 470.336 100.184 471.536 101.048C472.76 101.912 474.056 102.608 475.424 103.136C474.992 103.496 474.524 103.988 474.02 104.612C473.516 105.236 473.12 105.812 472.832 106.34C471.416 105.62 470.108 104.708 468.908 103.604C467.708 102.5 466.64 101.24 465.704 99.824C464.792 98.384 464.024 96.872 463.4 95.288L466.1 94.532ZM441.656 80.888H453.536V84.884H441.656V80.888ZM446.048 73.4H449.936V107.204H446.048V73.4ZM445.976 83.624L448.352 84.416C448.112 85.856 447.8 87.344 447.416 88.88C447.032 90.392 446.6 91.892 446.12 93.38C445.64 94.844 445.112 96.212 444.536 97.484C443.984 98.756 443.384 99.848 442.736 100.76C442.544 100.208 442.244 99.56 441.836 98.816C441.452 98.072 441.104 97.46 440.792 96.98C441.368 96.188 441.92 95.264 442.448 94.208C442.976 93.152 443.468 92.024 443.924 90.824C444.38 89.624 444.776 88.412 445.112 87.188C445.472 85.94 445.76 84.752 445.976 83.624ZM449.756 86.216C449.948 86.456 450.248 86.888 450.656 87.512C451.088 88.112 451.544 88.772 452.024 89.492C452.504 90.188 452.936 90.848 453.32 91.472C453.728 92.072 454.004 92.492 454.148 92.732L451.916 95.828C451.7 95.324 451.424 94.712 451.088 93.992C450.752 93.272 450.38 92.528 449.972 91.76C449.588 90.992 449.216 90.272 448.856 89.6C448.52 88.928 448.22 88.376 447.956 87.944L449.756 86.216ZM491.264 94.748C491.144 93.788 491.216 92.948 491.48 92.228C491.768 91.508 492.164 90.86 492.668 90.284C493.196 89.708 493.772 89.18 494.396 88.7C495.044 88.22 495.644 87.752 496.196 87.296C496.772 86.84 497.24 86.372 497.6 85.892C497.96 85.412 498.14 84.884 498.14 84.308C498.14 83.588 497.96 82.976 497.6 82.472C497.24 81.968 496.712 81.584 496.016 81.32C495.344 81.056 494.528 80.924 493.568 80.924C492.464 80.924 491.456 81.164 490.544 81.644C489.632 82.124 488.732 82.832 487.844 83.768L484.892 81.032C486.044 79.712 487.4 78.656 488.96 77.864C490.544 77.048 492.284 76.64 494.18 76.64C495.932 76.64 497.48 76.904 498.824 77.432C500.192 77.96 501.26 78.764 502.028 79.844C502.82 80.9 503.216 82.232 503.216 83.84C503.216 84.728 503.024 85.508 502.64 86.18C502.28 86.828 501.8 87.416 501.2 87.944C500.624 88.448 500.012 88.94 499.364 89.42C498.716 89.876 498.116 90.356 497.564 90.86C497.012 91.364 496.58 91.928 496.268 92.552C495.956 93.176 495.836 93.908 495.908 94.748H491.264ZM493.604 104.324C492.692 104.324 491.936 104.024 491.336 103.424C490.736 102.824 490.436 102.068 490.436 101.156C490.436 100.22 490.736 99.452 491.336 98.852C491.936 98.252 492.692 97.952 493.604 97.952C494.516 97.952 495.272 98.252 495.872 98.852C496.472 99.452 496.772 100.22 496.772 101.156C496.772 102.068 496.472 102.824 495.872 103.424C495.272 104.024 494.516 104.324 493.604 104.324Z" fill="#864DA1"/>
</svg>
