<svg width="592" height="128" viewBox="0 0 592 128" fill="none" xmlns="http://www.w3.org/2000/svg">
<path d="M135.692 28.544H150.92V32.576H135.692V28.544ZM117.224 26.888H135.944V30.452H117.224V26.888ZM118.556 35.132H134.54V38.624H118.556V35.132ZM119.204 41H134.072V44.492H119.204V41ZM143.288 19.652H147.464V48.416C147.464 49.52 147.332 50.372 147.068 50.972C146.804 51.596 146.348 52.088 145.7 52.448C145.028 52.76 144.188 52.976 143.18 53.096C142.196 53.216 140.984 53.276 139.544 53.276C139.472 52.7 139.28 52.004 138.968 51.188C138.68 50.396 138.38 49.724 138.068 49.172C139.028 49.196 139.916 49.208 140.732 49.208C141.572 49.208 142.148 49.208 142.46 49.208C142.772 49.208 142.988 49.148 143.108 49.028C143.228 48.908 143.288 48.704 143.288 48.416V19.652ZM136.376 35.78L139.94 34.592C140.396 35.432 140.816 36.332 141.2 37.292C141.608 38.252 141.944 39.2 142.208 40.136C142.496 41.048 142.688 41.876 142.784 42.62L138.968 43.952C138.896 43.232 138.728 42.404 138.464 41.468C138.2 40.532 137.888 39.572 137.528 38.588C137.168 37.604 136.784 36.668 136.376 35.78ZM117.224 21.632L120.212 20.336C120.74 21.128 121.232 22.004 121.688 22.964C122.144 23.924 122.444 24.764 122.588 25.484L119.456 26.96C119.312 26.24 119.024 25.388 118.592 24.404C118.184 23.396 117.728 22.472 117.224 21.632ZM119.852 31.172L123.164 30.02C123.572 30.716 123.956 31.472 124.316 32.288C124.7 33.104 124.94 33.824 125.036 34.448L121.508 35.744C121.436 35.144 121.232 34.412 120.896 33.548C120.584 32.684 120.236 31.892 119.852 31.172ZM122.372 19.724H125.756V28.544H122.372V19.724ZM124.64 36.176H128.636V49.244H124.64V36.176ZM127.412 19.724H130.832V28.544H127.412V19.724ZM117.368 47.876C118.904 47.732 120.668 47.564 122.66 47.372C124.676 47.18 126.788 46.976 128.996 46.76C131.204 46.52 133.4 46.28 135.584 46.04L135.656 49.82C133.568 50.06 131.456 50.3 129.32 50.54C127.208 50.804 125.18 51.044 123.236 51.26C121.292 51.476 119.516 51.668 117.908 51.836L117.368 47.876ZM133.136 20.12L136.88 21.452C136.304 22.436 135.728 23.408 135.152 24.368C134.576 25.328 134.048 26.144 133.568 26.816L130.688 25.664C130.952 25.16 131.24 24.584 131.552 23.936C131.864 23.288 132.164 22.628 132.452 21.956C132.74 21.284 132.968 20.672 133.136 20.12ZM129.824 29.984L133.712 30.956C133.328 31.772 132.956 32.576 132.596 33.368C132.236 34.16 131.9 34.844 131.588 35.42L128.204 34.556C128.396 34.148 128.588 33.68 128.78 33.152C128.996 32.6 129.188 32.048 129.356 31.496C129.548 30.944 129.704 30.44 129.824 29.984ZM153.692 25.196H186.344V29.3H153.692V25.196ZM165.716 34.016H179.504V38.084H165.716V34.016ZM177.884 34.016H182.348C182.348 34.016 182.336 34.136 182.312 34.376C182.312 34.592 182.312 34.844 182.312 35.132C182.312 35.42 182.288 35.672 182.24 35.888C182.024 39.176 181.784 41.864 181.52 43.952C181.256 46.04 180.956 47.672 180.62 48.848C180.284 50 179.876 50.84 179.396 51.368C178.844 51.968 178.268 52.376 177.668 52.592C177.068 52.808 176.348 52.964 175.508 53.06C174.812 53.132 173.9 53.156 172.772 53.132C171.644 53.132 170.48 53.108 169.28 53.06C169.256 52.436 169.1 51.716 168.812 50.9C168.524 50.108 168.164 49.412 167.732 48.812C168.98 48.932 170.18 49.004 171.332 49.028C172.484 49.052 173.312 49.064 173.816 49.064C174.224 49.064 174.56 49.04 174.824 48.992C175.112 48.92 175.364 48.788 175.58 48.596C175.964 48.284 176.288 47.6 176.552 46.544C176.84 45.488 177.092 43.988 177.308 42.044C177.524 40.1 177.716 37.64 177.884 34.664V34.016ZM164.096 27.644H168.92C168.824 29.564 168.668 31.508 168.452 33.476C168.26 35.42 167.924 37.352 167.444 39.272C166.964 41.168 166.268 42.98 165.356 44.708C164.444 46.436 163.244 48.044 161.756 49.532C160.268 51.02 158.384 52.34 156.104 53.492C155.792 52.892 155.336 52.244 154.736 51.548C154.16 50.852 153.596 50.276 153.044 49.82C155.132 48.86 156.836 47.744 158.156 46.472C159.5 45.176 160.556 43.784 161.324 42.296C162.092 40.784 162.656 39.212 163.016 37.58C163.4 35.948 163.652 34.292 163.772 32.612C163.916 30.932 164.024 29.276 164.096 27.644ZM167.552 19.256H172.052V26.816H167.552V19.256ZM203.804 19.4H208.232V25.232H203.804V19.4ZM199.484 26.168H204.056C203.888 27.68 203.6 29.048 203.192 30.272C202.808 31.472 202.184 32.552 201.32 33.512C200.48 34.472 199.316 35.312 197.828 36.032C196.364 36.728 194.468 37.304 192.14 37.76C191.996 37.4 191.804 37.004 191.564 36.572C191.324 36.14 191.048 35.72 190.736 35.312C190.448 34.88 190.16 34.52 189.872 34.232C191.864 33.896 193.46 33.488 194.66 33.008C195.884 32.528 196.82 31.964 197.468 31.316C198.116 30.644 198.584 29.888 198.872 29.048C199.16 28.184 199.364 27.224 199.484 26.168ZM207.692 26.168H211.976V31.64C211.976 32.144 212.048 32.456 212.192 32.576C212.336 32.672 212.684 32.72 213.236 32.72C213.356 32.72 213.548 32.72 213.812 32.72C214.076 32.72 214.364 32.72 214.676 32.72C215.012 32.72 215.324 32.72 215.612 32.72C215.9 32.72 216.116 32.72 216.26 32.72C216.716 32.72 217.016 32.564 217.16 32.252C217.304 31.94 217.4 31.244 217.448 30.164C217.856 30.452 218.42 30.728 219.14 30.992C219.884 31.256 220.532 31.448 221.084 31.568C220.964 32.792 220.736 33.74 220.4 34.412C220.088 35.06 219.632 35.516 219.032 35.78C218.456 36.044 217.7 36.176 216.764 36.176C216.572 36.176 216.272 36.176 215.864 36.176C215.48 36.176 215.072 36.176 214.64 36.176C214.208 36.176 213.8 36.176 213.416 36.176C213.032 36.176 212.744 36.176 212.552 36.176C211.256 36.176 210.248 36.044 209.528 35.78C208.832 35.492 208.352 35.024 208.088 34.376C207.824 33.704 207.692 32.804 207.692 31.676V26.168ZM190.484 22.748H221.696V29.624H217.16V26.6H194.804V30.236H190.484V22.748ZM189.908 39.164H222.056V43.088H189.908V39.164ZM203.3 35.096H207.98C207.836 37.04 207.62 38.84 207.332 40.496C207.044 42.128 206.576 43.616 205.928 44.96C205.28 46.28 204.356 47.468 203.156 48.524C201.98 49.58 200.432 50.492 198.512 51.26C196.592 52.028 194.192 52.676 191.312 53.204C191.216 52.796 191.036 52.352 190.772 51.872C190.532 51.416 190.256 50.96 189.944 50.504C189.656 50.048 189.368 49.652 189.08 49.316C191.672 48.932 193.808 48.452 195.488 47.876C197.168 47.276 198.512 46.58 199.52 45.788C200.528 44.972 201.284 44.048 201.788 43.016C202.316 41.96 202.676 40.784 202.868 39.488C203.06 38.168 203.204 36.704 203.3 35.096ZM208.304 40.46C209.336 43.052 211.016 45.02 213.344 46.364C215.672 47.708 218.876 48.548 222.956 48.884C222.62 49.22 222.272 49.64 221.912 50.144C221.576 50.648 221.252 51.164 220.94 51.692C220.628 52.22 220.376 52.712 220.184 53.168C217.232 52.736 214.736 52.028 212.696 51.044C210.656 50.084 208.976 48.8 207.656 47.192C206.336 45.584 205.232 43.58 204.344 41.18L208.304 40.46ZM242.504 26.492H258.092V30.56H242.504V26.492ZM251.36 28.004C251.744 29.9 252.272 31.676 252.944 33.332C253.616 34.964 254.468 36.416 255.5 37.688C256.556 38.936 257.828 39.932 259.316 40.676C259.004 40.964 258.656 41.324 258.272 41.756C257.888 42.188 257.528 42.632 257.192 43.088C256.88 43.544 256.616 43.976 256.4 44.384C254.768 43.376 253.388 42.104 252.26 40.568C251.132 39.032 250.208 37.268 249.488 35.276C248.768 33.26 248.18 31.052 247.724 28.652L251.36 28.004ZM231.02 28.688L232.892 26.276C233.564 26.54 234.26 26.876 234.98 27.284C235.7 27.668 236.384 28.064 237.032 28.472C237.68 28.88 238.208 29.264 238.616 29.624L236.672 32.324C236.288 31.964 235.772 31.568 235.124 31.136C234.5 30.68 233.828 30.236 233.108 29.804C232.388 29.372 231.692 29 231.02 28.688ZM251.792 21.452L254.924 19.76C255.356 20.216 255.8 20.732 256.256 21.308C256.712 21.884 257.12 22.448 257.48 23C257.864 23.552 258.164 24.056 258.38 24.512L255.068 26.42C254.78 25.748 254.312 24.944 253.664 24.008C253.04 23.048 252.416 22.196 251.792 21.452ZM227.564 32.54L229.904 30.344C230.576 30.728 231.272 31.172 231.992 31.676C232.736 32.156 233.432 32.648 234.08 33.152C234.752 33.656 235.292 34.124 235.7 34.556L233.216 37.004C232.832 36.572 232.328 36.092 231.704 35.564C231.08 35.036 230.396 34.508 229.652 33.98C228.932 33.428 228.236 32.948 227.564 32.54ZM232.964 19.076L237.068 20.12C236.372 21.824 235.544 23.552 234.584 25.304C233.624 27.032 232.556 28.676 231.38 30.236C230.204 31.772 228.92 33.116 227.528 34.268C227.168 33.86 226.7 33.38 226.124 32.828C225.572 32.252 225.08 31.808 224.648 31.496C225.92 30.488 227.096 29.288 228.176 27.896C229.28 26.504 230.228 25.04 231.02 23.504C231.836 21.968 232.484 20.492 232.964 19.076ZM239.408 22.424H240.2L240.92 22.244L243.656 23.36C242.888 26.96 241.784 30.128 240.344 32.864C238.928 35.576 237.236 37.892 235.268 39.812C233.3 41.732 231.14 43.256 228.788 44.384C228.596 44.072 228.32 43.7 227.96 43.268C227.6 42.836 227.216 42.428 226.808 42.044C226.424 41.636 226.064 41.324 225.728 41.108C228.032 40.124 230.096 38.816 231.92 37.184C233.768 35.528 235.328 33.536 236.6 31.208C237.872 28.88 238.808 26.228 239.408 23.252V22.424ZM235.952 45.896L239.948 45.464C240.188 46.544 240.392 47.72 240.56 48.992C240.752 50.264 240.86 51.344 240.884 52.232L236.636 52.844C236.636 52.268 236.6 51.584 236.528 50.792C236.48 50 236.408 49.172 236.312 48.308C236.216 47.444 236.096 46.64 235.952 45.896ZM243.116 46.004L247.148 45.32C247.46 46.016 247.76 46.772 248.048 47.588C248.336 48.404 248.588 49.196 248.804 49.964C249.02 50.732 249.176 51.428 249.272 52.052L244.952 52.88C244.832 51.992 244.592 50.9 244.232 49.604C243.896 48.308 243.524 47.108 243.116 46.004ZM250.352 45.788L254.492 44.492C255.044 45.236 255.608 46.04 256.184 46.904C256.784 47.768 257.336 48.632 257.84 49.496C258.368 50.336 258.776 51.092 259.064 51.764L254.636 53.24C254.396 52.592 254.036 51.836 253.556 50.972C253.076 50.108 252.548 49.232 251.972 48.344C251.42 47.432 250.88 46.58 250.352 45.788ZM229.328 44.636L233.54 45.644C233.132 47.012 232.568 48.392 231.848 49.784C231.152 51.152 230.372 52.316 229.508 53.276L225.368 51.584C226.184 50.816 226.952 49.796 227.672 48.524C228.392 47.252 228.944 45.956 229.328 44.636ZM233.792 22.424H240.848V25.808H231.488L233.792 22.424ZM247.292 19.94H251.396V27.32C251.396 28.808 251.276 30.32 251.036 31.856C250.796 33.368 250.328 34.868 249.632 36.356C248.936 37.844 247.928 39.26 246.608 40.604C245.312 41.948 243.596 43.16 241.46 44.24C241.1 43.76 240.632 43.232 240.056 42.656C239.48 42.08 238.94 41.612 238.436 41.252C240.38 40.244 241.94 39.176 243.116 38.048C244.292 36.896 245.18 35.72 245.78 34.52C246.38 33.296 246.776 32.072 246.968 30.848C247.184 29.6 247.292 28.412 247.292 27.284V19.94ZM277.748 35.708L281.24 33.98C281.864 34.796 282.488 35.696 283.112 36.68C283.736 37.64 284.3 38.6 284.804 39.56C285.308 40.496 285.68 41.348 285.92 42.116L282.176 44.06C281.96 43.316 281.612 42.464 281.132 41.504C280.676 40.52 280.148 39.524 279.548 38.516C278.972 37.508 278.372 36.572 277.748 35.708ZM278.972 25.52H291.896V29.624H278.972V25.52ZM290.024 25.52H294.2C294.2 25.52 294.2 25.652 294.2 25.916C294.2 26.18 294.2 26.468 294.2 26.78C294.2 27.092 294.188 27.344 294.164 27.536C294.044 31.496 293.912 34.868 293.768 37.652C293.648 40.412 293.492 42.692 293.3 44.492C293.108 46.292 292.88 47.708 292.616 48.74C292.376 49.772 292.064 50.528 291.68 51.008C291.176 51.704 290.648 52.184 290.096 52.448C289.568 52.712 288.92 52.904 288.152 53.024C287.504 53.12 286.664 53.168 285.632 53.168C284.624 53.168 283.58 53.156 282.5 53.132C282.476 52.508 282.332 51.776 282.068 50.936C281.804 50.12 281.468 49.4 281.06 48.776C282.212 48.872 283.268 48.932 284.228 48.956C285.188 48.98 285.896 48.992 286.352 48.992C286.736 48.992 287.036 48.944 287.252 48.848C287.492 48.752 287.72 48.596 287.936 48.38C288.224 48.068 288.476 47.432 288.692 46.472C288.908 45.512 289.088 44.168 289.232 42.44C289.4 40.688 289.544 38.492 289.664 35.852C289.808 33.212 289.928 30.056 290.024 26.384V25.52ZM279.188 19.364L283.652 20.372C283.148 22.148 282.536 23.9 281.816 25.628C281.12 27.332 280.352 28.928 279.512 30.416C278.672 31.904 277.796 33.2 276.884 34.304C276.596 34.04 276.224 33.74 275.768 33.404C275.312 33.068 274.832 32.744 274.328 32.432C273.824 32.12 273.392 31.868 273.032 31.676C273.968 30.716 274.82 29.588 275.588 28.292C276.356 26.972 277.04 25.556 277.64 24.044C278.264 22.508 278.78 20.948 279.188 19.364ZM266.48 19.436L270.296 20.768C269.816 21.704 269.312 22.664 268.784 23.648C268.256 24.608 267.74 25.544 267.236 26.456C266.732 27.344 266.24 28.124 265.76 28.796L262.844 27.608C263.276 26.864 263.72 26.024 264.176 25.088C264.632 24.128 265.064 23.156 265.472 22.172C265.88 21.188 266.216 20.276 266.48 19.436ZM270.8 23.72L274.472 25.232C273.584 26.6 272.624 28.04 271.592 29.552C270.56 31.04 269.516 32.468 268.46 33.836C267.404 35.204 266.42 36.404 265.508 37.436L262.88 36.104C263.576 35.288 264.284 34.364 265.004 33.332C265.724 32.3 266.432 31.232 267.128 30.128C267.848 29.024 268.52 27.92 269.144 26.816C269.792 25.688 270.344 24.656 270.8 23.72ZM260.936 27.968L262.988 25.016C263.612 25.544 264.26 26.144 264.932 26.816C265.604 27.464 266.216 28.112 266.768 28.76C267.344 29.408 267.776 30.008 268.064 30.56L265.868 33.908C265.58 33.356 265.16 32.732 264.608 32.036C264.08 31.316 263.492 30.608 262.844 29.912C262.196 29.192 261.56 28.544 260.936 27.968ZM269.936 32.396L272.996 31.064C273.476 31.856 273.944 32.708 274.4 33.62C274.856 34.532 275.252 35.432 275.588 36.32C275.924 37.184 276.176 37.964 276.344 38.66L273.032 40.172C272.888 39.5 272.66 38.72 272.348 37.832C272.036 36.92 271.664 35.996 271.232 35.06C270.824 34.1 270.392 33.212 269.936 32.396ZM260.936 35.276C262.592 35.228 264.584 35.156 266.912 35.06C269.264 34.964 271.652 34.856 274.076 34.736L274.04 38.156C271.784 38.324 269.54 38.492 267.308 38.66C265.076 38.804 263.072 38.924 261.296 39.02L260.936 35.276ZM270.548 41.396L273.716 40.352C274.22 41.432 274.688 42.608 275.12 43.88C275.552 45.152 275.864 46.256 276.056 47.192L272.708 48.416C272.54 47.456 272.252 46.328 271.844 45.032C271.436 43.712 271.004 42.5 270.548 41.396ZM262.484 40.568L266.048 41.216C265.856 42.944 265.568 44.648 265.184 46.328C264.8 48.008 264.356 49.424 263.852 50.576C263.612 50.408 263.288 50.216 262.88 50C262.472 49.808 262.052 49.616 261.62 49.424C261.212 49.232 260.852 49.088 260.54 48.992C261.068 47.912 261.488 46.628 261.8 45.14C262.112 43.628 262.34 42.104 262.484 40.568ZM266.66 37.184H270.476V53.24H266.66V37.184ZM312.236 19.544L316.484 20.516C315.98 22.388 315.368 24.248 314.648 26.096C313.928 27.92 313.136 29.636 312.272 31.244C311.432 32.828 310.532 34.22 309.572 35.42C309.308 35.156 308.96 34.844 308.528 34.484C308.12 34.124 307.688 33.776 307.232 33.44C306.8 33.08 306.416 32.792 306.08 32.576C307.016 31.544 307.868 30.332 308.636 28.94C309.404 27.548 310.088 26.048 310.688 24.44C311.312 22.832 311.828 21.2 312.236 19.544ZM311.228 35.528L315.44 36.392C315.104 37.928 314.672 39.44 314.144 40.928C313.64 42.392 313.076 43.784 312.452 45.104C311.828 46.4 311.18 47.54 310.508 48.524C310.244 48.284 309.884 48.02 309.428 47.732C308.972 47.42 308.504 47.132 308.024 46.868C307.568 46.58 307.172 46.352 306.836 46.184C307.868 44.912 308.756 43.316 309.5 41.396C310.244 39.476 310.82 37.52 311.228 35.528ZM313.028 25.88H327.824V29.876H311.444L313.028 25.88ZM317.168 27.644H321.452V48.416C321.452 49.424 321.344 50.252 321.128 50.9C320.912 51.548 320.468 52.052 319.796 52.412C319.172 52.748 318.416 52.976 317.528 53.096C316.664 53.216 315.644 53.276 314.468 53.276C314.396 52.628 314.204 51.884 313.892 51.044C313.604 50.204 313.304 49.496 312.992 48.92C313.76 48.944 314.48 48.956 315.152 48.956C315.848 48.956 316.316 48.956 316.556 48.956C316.772 48.956 316.928 48.92 317.024 48.848C317.12 48.752 317.168 48.584 317.168 48.344V27.644ZM322.748 36.464L326.6 35.168C327.248 36.416 327.836 37.748 328.364 39.164C328.892 40.556 329.348 41.936 329.732 43.304C330.116 44.648 330.392 45.86 330.56 46.94L326.42 48.38C326.276 47.324 326.024 46.1 325.664 44.708C325.328 43.316 324.908 41.912 324.404 40.496C323.9 39.056 323.348 37.712 322.748 36.464ZM326.636 25.88H327.212L327.896 25.736L330.956 26.312C330.74 27.776 330.488 29.288 330.2 30.848C329.912 32.384 329.636 33.692 329.372 34.772L325.7 34.088C325.796 33.44 325.904 32.684 326.024 31.82C326.144 30.956 326.264 30.056 326.384 29.12C326.504 28.16 326.588 27.26 326.636 26.42V25.88ZM304.532 19.544L308.6 20.84C307.832 22.856 306.92 24.896 305.864 26.96C304.808 29 303.668 30.944 302.444 32.792C301.22 34.616 299.948 36.212 298.628 37.58C298.508 37.22 298.304 36.764 298.016 36.212C297.752 35.636 297.464 35.06 297.152 34.484C296.84 33.908 296.564 33.44 296.324 33.08C297.404 31.976 298.448 30.704 299.456 29.264C300.488 27.824 301.436 26.276 302.3 24.62C303.188 22.964 303.932 21.272 304.532 19.544ZM301.076 29.516L305.18 25.412V25.448V53.168H301.076V29.516ZM336.572 22.532H345.032V44.168H336.572V39.956H341.144V26.708H336.572V22.532ZM334.34 22.532H338.3V47.048H334.34V22.532ZM349.604 24.476H366.2V28.508H349.604V24.476ZM348.884 32.18H361.232V36.176H348.884V32.18ZM350.756 19.4L355.004 20.444C354.476 22.124 353.828 23.78 353.06 25.412C352.292 27.02 351.464 28.532 350.576 29.948C349.688 31.34 348.752 32.552 347.768 33.584C347.528 33.32 347.192 33.008 346.76 32.648C346.328 32.288 345.884 31.94 345.428 31.604C344.996 31.244 344.612 30.956 344.276 30.74C345.692 29.396 346.964 27.716 348.092 25.7C349.22 23.684 350.108 21.584 350.756 19.4ZM360.584 32.18H361.268L362.204 32.072L365.12 33.692C365.048 33.812 364.964 33.944 364.868 34.088C364.772 34.208 364.652 34.328 364.508 34.448C361.988 36.416 359.888 38.084 358.208 39.452C356.528 40.796 355.196 41.924 354.212 42.836C353.228 43.724 352.496 44.444 352.016 44.996C351.56 45.548 351.248 45.992 351.08 46.328C350.936 46.664 350.864 46.952 350.864 47.192C350.864 47.624 351.08 47.936 351.512 48.128C351.944 48.32 352.532 48.416 353.276 48.416H361.34C361.796 48.416 362.156 48.308 362.42 48.092C362.708 47.852 362.924 47.384 363.068 46.688C363.236 45.968 363.344 44.864 363.392 43.376C363.968 43.688 364.592 43.964 365.264 44.204C365.936 44.444 366.596 44.624 367.244 44.744C367.1 46.928 366.788 48.596 366.308 49.748C365.852 50.876 365.204 51.632 364.364 52.016C363.524 52.424 362.432 52.628 361.088 52.628H353.384C350.984 52.628 349.22 52.184 348.092 51.296C346.964 50.432 346.4 49.256 346.4 47.768C346.4 47.312 346.46 46.82 346.58 46.292C346.724 45.764 347.036 45.14 347.516 44.42C347.996 43.676 348.74 42.776 349.748 41.72C350.756 40.64 352.136 39.332 353.888 37.796C355.64 36.236 357.872 34.364 360.584 32.18ZM387.188 19.436L391.4 20.12C390.848 21.56 390.176 22.988 389.384 24.404C388.592 25.82 387.668 27.188 386.612 28.508C385.556 29.828 384.344 31.076 382.976 32.252C382.784 31.94 382.508 31.604 382.148 31.244C381.812 30.86 381.452 30.5 381.068 30.164C380.708 29.828 380.372 29.564 380.06 29.372C381.284 28.436 382.352 27.416 383.264 26.312C384.2 25.184 384.992 24.032 385.64 22.856C386.288 21.656 386.804 20.516 387.188 19.436ZM388.088 22.568H395.576V26.096H385.964L388.088 22.568ZM390.392 29.84H394.46C394.364 32 394.208 34.064 393.992 36.032C393.776 37.976 393.404 39.812 392.876 41.54C392.372 43.268 391.628 44.876 390.644 46.364C389.684 47.828 388.4 49.136 386.792 50.288C385.184 51.464 383.168 52.484 380.744 53.348C380.504 52.796 380.132 52.172 379.628 51.476C379.148 50.804 378.668 50.252 378.188 49.82C380.468 49.124 382.328 48.284 383.768 47.3C385.232 46.316 386.396 45.212 387.26 43.988C388.124 42.74 388.76 41.384 389.168 39.92C389.576 38.432 389.864 36.848 390.032 35.168C390.2 33.488 390.32 31.712 390.392 29.84ZM391.832 38.552H395.864V47.66C395.864 48.188 395.912 48.524 396.008 48.668C396.104 48.788 396.332 48.848 396.692 48.848C396.788 48.848 396.92 48.848 397.088 48.848C397.256 48.848 397.436 48.848 397.628 48.848C397.844 48.848 398.036 48.848 398.204 48.848C398.396 48.848 398.54 48.848 398.636 48.848C398.9 48.848 399.092 48.752 399.212 48.56C399.356 48.368 399.452 47.972 399.5 47.372C399.572 46.748 399.62 45.812 399.644 44.564C399.908 44.78 400.256 44.996 400.688 45.212C401.12 45.404 401.564 45.584 402.02 45.752C402.476 45.92 402.884 46.052 403.244 46.148C403.124 47.852 402.908 49.172 402.596 50.108C402.284 51.068 401.852 51.728 401.3 52.088C400.748 52.472 400.004 52.664 399.068 52.664C398.9 52.664 398.672 52.664 398.384 52.664C398.12 52.664 397.832 52.664 397.52 52.664C397.208 52.664 396.92 52.664 396.656 52.664C396.416 52.664 396.2 52.664 396.008 52.664C394.88 52.664 394.004 52.508 393.38 52.196C392.78 51.884 392.372 51.356 392.156 50.612C391.94 49.892 391.832 48.92 391.832 47.696V38.552ZM372.536 22.136H381.104V46.4H372.536V42.62H377.216V25.916H372.536V22.136ZM372.608 32.288H378.8V35.996H372.608V32.288ZM370.34 22.136H374.192V49.208H370.34V22.136ZM386.828 32.252V37.04H397.88V32.252H386.828ZM383.048 28.724H401.876V40.568H383.048V28.724ZM394.208 22.568H395.072L395.684 22.388L398.348 24.116C397.988 24.836 397.556 25.604 397.052 26.42C396.548 27.236 396.02 28.028 395.468 28.796C394.94 29.54 394.436 30.212 393.956 30.812C393.572 30.524 393.104 30.212 392.552 29.876C392 29.516 391.508 29.228 391.076 29.012C391.484 28.484 391.892 27.884 392.3 27.212C392.708 26.516 393.08 25.82 393.416 25.124C393.752 24.404 394.016 23.78 394.208 23.252V22.568ZM412.496 19.4H416.06V25.7H412.496V19.4ZM413.936 20.84H421.856V23.36H413.936V20.84ZM411.524 24.476H419.264V26.996H409.472L411.524 24.476ZM418.436 24.476H419.084L419.696 24.332L421.964 25.52C421.052 27.272 419.804 28.784 418.22 30.056C416.66 31.304 414.908 32.348 412.964 33.188C411.02 34.028 409.016 34.7 406.952 35.204C406.736 34.796 406.448 34.328 406.088 33.8C405.752 33.272 405.416 32.852 405.08 32.54C406.472 32.252 407.84 31.88 409.184 31.424C410.552 30.968 411.836 30.428 413.036 29.804C414.236 29.156 415.304 28.424 416.24 27.608C417.176 26.792 417.908 25.916 418.436 24.98V24.476ZM408.032 28.76L410.12 27.032C410.888 27.344 411.716 27.74 412.604 28.22C413.492 28.676 414.188 29.12 414.692 29.552L412.532 31.424C412.196 31.16 411.776 30.872 411.272 30.56C410.768 30.224 410.228 29.9 409.652 29.588C409.1 29.276 408.56 29 408.032 28.76ZM410.3 23.756L413.36 24.656C412.592 25.688 411.62 26.672 410.444 27.608C409.292 28.544 408.152 29.324 407.024 29.948C406.76 29.66 406.364 29.3 405.836 28.868C405.332 28.436 404.912 28.1 404.576 27.86C405.704 27.356 406.784 26.744 407.816 26.024C408.848 25.304 409.676 24.548 410.3 23.756ZM423.008 20.66H434.096V23.576H423.008V20.66ZM433.196 20.66H433.88L434.528 20.552L436.904 21.524C436.232 23.396 435.296 25.052 434.096 26.492C432.896 27.908 431.516 29.12 429.956 30.128C428.42 31.112 426.764 31.904 424.988 32.504C424.772 32.072 424.46 31.568 424.052 30.992C423.644 30.392 423.26 29.912 422.9 29.552C424.436 29.096 425.888 28.472 427.256 27.68C428.624 26.864 429.824 25.916 430.856 24.836C431.912 23.732 432.692 22.52 433.196 21.2V20.66ZM422.648 26.348L425.06 24.044C426.5 24.644 428.024 25.364 429.632 26.204C431.24 27.02 432.764 27.872 434.204 28.76C435.644 29.648 436.832 30.488 437.768 31.28L435.14 33.944C434.276 33.176 433.148 32.336 431.756 31.424C430.364 30.512 428.864 29.612 427.256 28.724C425.672 27.812 424.136 27.02 422.648 26.348ZM421.82 33.116C420.74 34.028 419.396 34.928 417.788 35.816C416.18 36.68 414.44 37.484 412.568 38.228C410.696 38.972 408.8 39.596 406.88 40.1C406.688 39.692 406.424 39.2 406.088 38.624C405.752 38.024 405.428 37.532 405.116 37.148C407.084 36.692 409.004 36.128 410.876 35.456C412.772 34.76 414.5 33.98 416.06 33.116C417.62 32.252 418.916 31.34 419.948 30.38H423.404C424.796 31.484 426.344 32.456 428.048 33.296C429.752 34.136 431.54 34.844 433.412 35.42C435.284 35.996 437.132 36.452 438.956 36.788C438.572 37.196 438.2 37.7 437.84 38.3C437.504 38.9 437.204 39.44 436.94 39.92C435.668 39.632 434.348 39.26 432.98 38.804C431.612 38.324 430.244 37.784 428.876 37.184C427.508 36.584 426.212 35.948 424.988 35.276C423.788 34.58 422.732 33.86 421.82 33.116ZM414.152 38.12H432.332V46.724H414.152V44.492H428.228V40.388H414.152V38.12ZM411.956 38.192H416.06V50.684L411.956 50.972V38.192ZM433.088 44.42L436.076 46.292C434.972 47.084 433.82 47.864 432.62 48.632C431.444 49.376 430.364 50 429.38 50.504L427.184 48.92C427.832 48.536 428.516 48.092 429.236 47.588C429.956 47.06 430.652 46.52 431.324 45.968C432.02 45.392 432.608 44.876 433.088 44.42ZM422.864 45.464C423.728 46.472 424.904 47.312 426.392 47.984C427.88 48.632 429.62 49.136 431.612 49.496C433.628 49.856 435.824 50.096 438.2 50.216C437.816 50.576 437.432 51.056 437.048 51.656C436.664 52.28 436.364 52.832 436.148 53.312C433.628 53.072 431.324 52.676 429.236 52.124C427.148 51.596 425.312 50.852 423.728 49.892C422.144 48.932 420.824 47.732 419.768 46.292L422.864 45.464ZM414.152 41.432H429.452V43.34H414.152V41.432ZM417.104 35.024H426.536V37.256H417.104V35.024ZM407.744 49.568C409.088 49.448 410.612 49.328 412.316 49.208C414.044 49.088 415.856 48.944 417.752 48.776C419.672 48.608 421.592 48.44 423.512 48.272L423.548 51.368C421.724 51.56 419.888 51.74 418.04 51.908C416.216 52.076 414.464 52.232 412.784 52.376C411.104 52.544 409.568 52.688 408.176 52.808L407.744 49.568ZM446.984 54.968L445.832 52.052C447.344 51.572 448.496 50.912 449.288 50.072C450.104 49.256 450.512 48.32 450.512 47.264L450.224 43.736L452.24 46.94C451.928 47.204 451.592 47.408 451.232 47.552C450.872 47.696 450.488 47.768 450.08 47.768C449.192 47.768 448.4 47.492 447.704 46.94C447.008 46.364 446.66 45.56 446.66 44.528C446.66 43.52 447.008 42.728 447.704 42.152C448.4 41.576 449.228 41.288 450.188 41.288C451.46 41.288 452.42 41.732 453.068 42.62C453.74 43.508 454.076 44.708 454.076 46.22C454.076 48.26 453.452 50.06 452.204 51.62C450.956 53.18 449.216 54.296 446.984 54.968ZM114.92 93.704H130.76V107.096H126.548V97.556H118.988V107.24H114.92V93.704ZM114.2 80.672H129.968V90.032H125.828V84.344H114.2V80.672ZM118.628 75.956L122.804 76.316C122.612 77.828 122.384 79.424 122.12 81.104C121.856 82.784 121.58 84.404 121.292 85.964C121.028 87.524 120.764 88.892 120.5 90.068H116.324C116.54 89.156 116.744 88.124 116.936 86.972C117.152 85.82 117.368 84.62 117.584 83.372C117.8 82.1 117.992 80.84 118.16 79.592C118.328 78.32 118.484 77.108 118.628 75.956ZM113.624 74.444H131.768V78.116H113.624V74.444ZM112.328 88.016H133.064V91.796H112.328V88.016ZM116.54 101.984H128.96V105.836H116.54V101.984ZM100.808 84.704H111.212V87.98H100.808V84.704ZM101.024 74.552H111.248V77.792H101.024V74.552ZM100.808 89.744H111.212V93.02H100.808V89.744ZM99.08 79.52H112.508V82.94H99.08V79.52ZM102.824 94.856H111.464V105.8H102.824V102.38H107.792V98.276H102.824V94.856ZM100.7 94.856H104.336V107.204H100.7V94.856ZM142.964 76.496H167.552V79.736H142.964V76.496ZM143.288 81.14H164.42V84.272H143.288V81.14ZM139.148 85.712H159.956V88.988H139.148V85.712ZM136.772 95.144H158.192V98.384H136.772V95.144ZM142.64 73.4L147.248 74.552C146.6 76.232 145.82 77.864 144.908 79.448C144.02 81.008 143.048 82.46 141.992 83.804C140.96 85.148 139.892 86.312 138.788 87.296C138.5 87.008 138.104 86.696 137.6 86.36C137.096 86.024 136.58 85.688 136.052 85.352C135.548 84.992 135.116 84.716 134.756 84.524C136.46 83.276 138.008 81.668 139.4 79.7C140.792 77.708 141.872 75.608 142.64 73.4ZM158.624 85.712H162.98C162.98 87.536 162.992 89.3 163.016 91.004C163.064 92.684 163.136 94.244 163.232 95.684C163.352 97.124 163.508 98.384 163.7 99.464C163.916 100.52 164.156 101.348 164.42 101.948C164.708 102.548 165.056 102.848 165.464 102.848C165.728 102.848 165.908 102.392 166.004 101.48C166.124 100.568 166.196 99.344 166.22 97.808C166.628 98.312 167.072 98.816 167.552 99.32C168.056 99.824 168.536 100.232 168.992 100.544C168.824 102.848 168.476 104.516 167.948 105.548C167.444 106.604 166.52 107.132 165.176 107.132C163.712 107.132 162.548 106.568 161.684 105.44C160.82 104.336 160.172 102.8 159.74 100.832C159.308 98.864 159.02 96.596 158.876 94.028C158.732 91.436 158.648 88.664 158.624 85.712ZM138.788 91.256L142.028 89.96C142.532 90.584 143.012 91.292 143.468 92.084C143.924 92.852 144.248 93.536 144.44 94.136L140.984 95.54C140.84 94.94 140.552 94.244 140.12 93.452C139.688 92.636 139.244 91.904 138.788 91.256ZM147.356 100.22L150.02 97.952C150.908 98.432 151.856 98.996 152.864 99.644C153.896 100.268 154.892 100.892 155.852 101.516C156.812 102.14 157.592 102.704 158.192 103.208L155.348 105.8C154.772 105.248 154.028 104.648 153.116 104C152.204 103.328 151.244 102.668 150.236 102.02C149.228 101.348 148.268 100.748 147.356 100.22ZM145.736 89.708H149.768V107.132H145.736V89.708ZM153.332 89.852L157.148 91.004C156.524 91.82 155.9 92.624 155.276 93.416C154.652 94.184 154.088 94.856 153.584 95.432L150.848 94.352C151.136 93.944 151.436 93.476 151.748 92.948C152.06 92.396 152.36 91.856 152.648 91.328C152.936 90.776 153.164 90.284 153.332 89.852ZM144.872 96.548L148.04 97.772C147.32 98.972 146.432 100.148 145.376 101.3C144.32 102.428 143.18 103.46 141.956 104.396C140.732 105.332 139.496 106.124 138.248 106.772C138.056 106.436 137.804 106.064 137.492 105.656C137.18 105.272 136.856 104.888 136.52 104.504C136.184 104.12 135.86 103.808 135.548 103.568C136.748 103.112 137.936 102.512 139.112 101.768C140.288 101.024 141.38 100.208 142.388 99.32C143.396 98.408 144.224 97.484 144.872 96.548ZM179.576 87.44V100.724H175.436V91.436H171.368V87.44H179.576ZM179.576 98.996C180.272 100.196 181.256 101.084 182.528 101.66C183.8 102.212 185.348 102.524 187.172 102.596C188.252 102.644 189.548 102.68 191.06 102.704C192.596 102.704 194.192 102.692 195.848 102.668C197.528 102.644 199.16 102.608 200.744 102.56C202.352 102.488 203.792 102.392 205.064 102.272C204.896 102.584 204.716 103.004 204.524 103.532C204.356 104.036 204.188 104.552 204.02 105.08C203.876 105.608 203.768 106.076 203.696 106.484C202.592 106.556 201.32 106.604 199.88 106.628C198.44 106.652 196.952 106.664 195.416 106.664C193.88 106.688 192.392 106.688 190.952 106.664C189.512 106.664 188.24 106.64 187.136 106.592C184.976 106.496 183.14 106.148 181.628 105.548C180.116 104.948 178.82 103.952 177.74 102.56C177.044 103.28 176.3 103.988 175.508 104.684C174.74 105.404 173.9 106.148 172.988 106.916L170.936 102.632C171.704 102.128 172.508 101.564 173.348 100.94C174.212 100.316 175.04 99.668 175.832 98.996H179.576ZM171.512 76.784L174.788 74.336C175.484 74.864 176.204 75.464 176.948 76.136C177.692 76.808 178.376 77.48 179 78.152C179.624 78.824 180.128 79.46 180.512 80.06L176.948 82.796C176.612 82.196 176.144 81.548 175.544 80.852C174.968 80.132 174.32 79.424 173.6 78.728C172.88 78.008 172.184 77.36 171.512 76.784ZM180.152 82.796H204.38V85.784H180.152V82.796ZM186.992 89.276V91.148H197.36V89.276H186.992ZM182.996 86.9H201.644V93.56H182.996V86.9ZM190.736 91.472L194.336 92.732C193.448 93.884 192.368 94.976 191.096 96.008C189.848 97.04 188.504 97.964 187.064 98.78C185.648 99.596 184.232 100.292 182.816 100.868C182.648 100.604 182.408 100.28 182.096 99.896C181.808 99.488 181.508 99.08 181.196 98.672C180.884 98.264 180.596 97.94 180.332 97.7C181.7 97.268 183.032 96.74 184.328 96.116C185.648 95.492 186.86 94.784 187.964 93.992C189.092 93.176 190.016 92.336 190.736 91.472ZM200.744 92.048L203.768 94.136C202.856 94.784 201.932 95.408 200.996 96.008C200.06 96.608 199.208 97.124 198.44 97.556L196.172 95.792C196.652 95.48 197.168 95.108 197.72 94.676C198.296 94.244 198.848 93.8 199.376 93.344C199.928 92.864 200.384 92.432 200.744 92.048ZM193.58 92.912C194.252 93.8 195.128 94.604 196.208 95.324C197.312 96.044 198.56 96.656 199.952 97.16C201.368 97.664 202.856 98.048 204.416 98.312C204.008 98.672 203.576 99.176 203.12 99.824C202.664 100.448 202.304 101.012 202.04 101.516C200.36 101.132 198.788 100.58 197.324 99.86C195.86 99.14 194.552 98.276 193.4 97.268C192.272 96.236 191.3 95.084 190.484 93.812L193.58 92.912ZM196.604 76.784V79.268H198.908V76.784H196.604ZM191.06 76.784V79.268H193.328V76.784H191.06ZM185.588 76.784V79.268H187.784V76.784H185.588ZM181.952 74.372H202.724V81.68H181.952V74.372ZM189.764 92.192H193.868V101.912H189.764V92.192ZM211.544 83.732H214.712V92.516H211.544V83.732ZM211.436 73.364L214.316 74.48C213.74 75.272 213.164 76.064 212.588 76.856C212.012 77.648 211.46 78.332 210.932 78.908L208.7 77.9C209.18 77.276 209.672 76.532 210.176 75.668C210.704 74.804 211.124 74.036 211.436 73.364ZM214.496 76.064L217.412 77.36C216.764 78.152 216.068 78.98 215.324 79.844C214.604 80.684 213.872 81.488 213.128 82.256C212.408 83.024 211.712 83.708 211.04 84.308L208.844 83.12C209.468 82.496 210.128 81.776 210.824 80.96C211.544 80.144 212.216 79.316 212.84 78.476C213.488 77.612 214.04 76.808 214.496 76.064ZM207.008 82.472C208.376 82.424 209.972 82.364 211.796 82.292C213.62 82.22 215.516 82.148 217.484 82.076V84.812C215.66 84.932 213.86 85.052 212.084 85.172C210.308 85.268 208.688 85.364 207.224 85.46L207.008 82.472ZM208.952 85.856L211.688 86.504C211.4 87.536 211.04 88.58 210.608 89.636C210.176 90.692 209.708 91.592 209.204 92.336C208.94 92.12 208.556 91.868 208.052 91.58C207.572 91.292 207.152 91.076 206.792 90.932C207.32 90.236 207.752 89.444 208.088 88.556C208.448 87.644 208.736 86.744 208.952 85.856ZM232.892 83.732H236.132V92.552H232.892V83.732ZM232.784 73.364L235.736 74.48C235.16 75.296 234.572 76.1 233.972 76.892C233.372 77.684 232.82 78.356 232.316 78.908L230.048 77.9C230.528 77.276 231.02 76.532 231.524 75.668C232.052 74.804 232.472 74.036 232.784 73.364ZM236.024 75.956L239.012 77.252C238.316 78.092 237.584 78.944 236.816 79.808C236.048 80.672 235.28 81.5 234.512 82.292C233.744 83.06 233.012 83.744 232.316 84.344L230.048 83.156C230.72 82.532 231.428 81.8 232.172 80.96C232.916 80.12 233.624 79.268 234.296 78.404C234.968 77.516 235.544 76.7 236.024 75.956ZM228.32 82.436C229.712 82.388 231.332 82.328 233.18 82.256C235.028 82.184 236.924 82.112 238.868 82.04V84.704C237.044 84.848 235.256 84.98 233.504 85.1C231.752 85.196 230.12 85.292 228.608 85.388L228.32 82.436ZM230.228 86.072L233.108 86.756C232.844 87.716 232.484 88.676 232.028 89.636C231.572 90.596 231.092 91.412 230.588 92.084C230.3 91.844 229.892 91.568 229.364 91.256C228.86 90.944 228.428 90.716 228.068 90.572C228.572 89.924 229.004 89.216 229.364 88.448C229.724 87.656 230.012 86.864 230.228 86.072ZM219.644 74.12H227.96V76.1H219.644V74.12ZM218.312 77.108H229.04V79.412H218.312V77.108ZM219.572 80.384H227.996V82.364H219.572V80.384ZM219.572 83.336H227.996V85.28H219.572V83.336ZM207.332 78.44L209.024 76.172C209.84 76.652 210.692 77.228 211.58 77.9C212.468 78.572 213.152 79.172 213.632 79.7L211.832 82.22C211.376 81.668 210.704 81.032 209.816 80.312C208.952 79.592 208.124 78.968 207.332 78.44ZM228.572 78.692L230.228 76.46C230.996 76.916 231.824 77.444 232.712 78.044C233.624 78.644 234.332 79.196 234.836 79.7L233.108 82.22C232.628 81.716 231.944 81.128 231.056 80.456C230.192 79.76 229.364 79.172 228.572 78.692ZM236.204 81.14L238.616 80.132C239.096 80.804 239.576 81.572 240.056 82.436C240.536 83.276 240.884 84.008 241.1 84.632L238.544 85.82C238.328 85.196 237.992 84.452 237.536 83.588C237.104 82.7 236.66 81.884 236.204 81.14ZM236.276 86.864L238.832 85.856C239.312 86.6 239.78 87.428 240.236 88.34C240.692 89.228 241.016 89.984 241.208 90.608L238.508 91.796C238.34 91.148 238.04 90.356 237.608 89.42C237.2 88.484 236.756 87.632 236.276 86.864ZM214.856 81.176L217.232 80.24C217.664 80.912 218.072 81.668 218.456 82.508C218.84 83.324 219.128 84.032 219.32 84.632L216.8 85.712C216.656 85.112 216.392 84.392 216.008 83.552C215.648 82.688 215.264 81.896 214.856 81.176ZM214.64 86.756L217.16 85.82C217.544 86.468 217.904 87.188 218.24 87.98C218.6 88.748 218.828 89.408 218.924 89.96L216.26 91.076C216.164 90.5 215.948 89.804 215.612 88.988C215.3 88.172 214.976 87.428 214.64 86.756ZM222.344 88.16V89.708H225.152V88.16H222.344ZM219.284 86.216H228.356V91.688H219.284V86.216ZM215.144 96.188V98.06H232.82V96.188H215.144ZM211.22 93.344H237.032V100.904H211.22V93.344ZM221.768 91.112H225.98V104.18H221.768V91.112ZM208.664 102.92C210.464 102.92 212.48 102.92 214.712 102.92C216.968 102.92 219.356 102.92 221.876 102.92C224.42 102.896 227.012 102.884 229.652 102.884C232.292 102.86 234.92 102.836 237.536 102.812L237.32 105.944C233.936 106.016 230.516 106.088 227.06 106.16C223.628 106.232 220.352 106.292 217.232 106.34C214.112 106.412 211.328 106.46 208.88 106.484L208.664 102.92ZM231.308 101.588L234.692 100.148C235.412 100.7 236.156 101.324 236.924 102.02C237.716 102.716 238.448 103.4 239.12 104.072C239.792 104.744 240.356 105.356 240.812 105.908L237.284 107.672C236.852 107.096 236.3 106.448 235.628 105.728C234.956 105.008 234.236 104.288 233.468 103.568C232.724 102.824 232.004 102.164 231.308 101.588ZM250.1 85.928H269.684V89.924H250.1V85.928ZM250.1 93.632H269.684V97.628H250.1V93.632ZM250.1 101.372H269.684V105.368H250.1V101.372ZM247.184 78.08H273.32V107.132H268.748V82.22H251.54V107.204H247.184V78.08ZM257.408 73.364L262.628 73.94C262.196 75.116 261.74 76.268 261.26 77.396C260.78 78.524 260.336 79.496 259.928 80.312L255.968 79.592C256.16 78.992 256.352 78.332 256.544 77.612C256.736 76.868 256.904 76.136 257.048 75.416C257.216 74.672 257.336 73.988 257.408 73.364ZM296.504 80.492H312.092V84.56H296.504V80.492ZM305.36 82.004C305.744 83.9 306.272 85.676 306.944 87.332C307.616 88.964 308.468 90.416 309.5 91.688C310.556 92.936 311.828 93.932 313.316 94.676C313.004 94.964 312.656 95.324 312.272 95.756C311.888 96.188 311.528 96.632 311.192 97.088C310.88 97.544 310.616 97.976 310.4 98.384C308.768 97.376 307.388 96.104 306.26 94.568C305.132 93.032 304.208 91.268 303.488 89.276C302.768 87.26 302.18 85.052 301.724 82.652L305.36 82.004ZM285.02 82.688L286.892 80.276C287.564 80.54 288.26 80.876 288.98 81.284C289.7 81.668 290.384 82.064 291.032 82.472C291.68 82.88 292.208 83.264 292.616 83.624L290.672 86.324C290.288 85.964 289.772 85.568 289.124 85.136C288.5 84.68 287.828 84.236 287.108 83.804C286.388 83.372 285.692 83 285.02 82.688ZM305.792 75.452L308.924 73.76C309.356 74.216 309.8 74.732 310.256 75.308C310.712 75.884 311.12 76.448 311.48 77C311.864 77.552 312.164 78.056 312.38 78.512L309.068 80.42C308.78 79.748 308.312 78.944 307.664 78.008C307.04 77.048 306.416 76.196 305.792 75.452ZM281.564 86.54L283.904 84.344C284.576 84.728 285.272 85.172 285.992 85.676C286.736 86.156 287.432 86.648 288.08 87.152C288.752 87.656 289.292 88.124 289.7 88.556L287.216 91.004C286.832 90.572 286.328 90.092 285.704 89.564C285.08 89.036 284.396 88.508 283.652 87.98C282.932 87.428 282.236 86.948 281.564 86.54ZM286.964 73.076L291.068 74.12C290.372 75.824 289.544 77.552 288.584 79.304C287.624 81.032 286.556 82.676 285.38 84.236C284.204 85.772 282.92 87.116 281.528 88.268C281.168 87.86 280.7 87.38 280.124 86.828C279.572 86.252 279.08 85.808 278.648 85.496C279.92 84.488 281.096 83.288 282.176 81.896C283.28 80.504 284.228 79.04 285.02 77.504C285.836 75.968 286.484 74.492 286.964 73.076ZM293.408 76.424H294.2L294.92 76.244L297.656 77.36C296.888 80.96 295.784 84.128 294.344 86.864C292.928 89.576 291.236 91.892 289.268 93.812C287.3 95.732 285.14 97.256 282.788 98.384C282.596 98.072 282.32 97.7 281.96 97.268C281.6 96.836 281.216 96.428 280.808 96.044C280.424 95.636 280.064 95.324 279.728 95.108C282.032 94.124 284.096 92.816 285.92 91.184C287.768 89.528 289.328 87.536 290.6 85.208C291.872 82.88 292.808 80.228 293.408 77.252V76.424ZM289.952 99.896L293.948 99.464C294.188 100.544 294.392 101.72 294.56 102.992C294.752 104.264 294.86 105.344 294.884 106.232L290.636 106.844C290.636 106.268 290.6 105.584 290.528 104.792C290.48 104 290.408 103.172 290.312 102.308C290.216 101.444 290.096 100.64 289.952 99.896ZM297.116 100.004L301.148 99.32C301.46 100.016 301.76 100.772 302.048 101.588C302.336 102.404 302.588 103.196 302.804 103.964C303.02 104.732 303.176 105.428 303.272 106.052L298.952 106.88C298.832 105.992 298.592 104.9 298.232 103.604C297.896 102.308 297.524 101.108 297.116 100.004ZM304.352 99.788L308.492 98.492C309.044 99.236 309.608 100.04 310.184 100.904C310.784 101.768 311.336 102.632 311.84 103.496C312.368 104.336 312.776 105.092 313.064 105.764L308.636 107.24C308.396 106.592 308.036 105.836 307.556 104.972C307.076 104.108 306.548 103.232 305.972 102.344C305.42 101.432 304.88 100.58 304.352 99.788ZM283.328 98.636L287.54 99.644C287.132 101.012 286.568 102.392 285.848 103.784C285.152 105.152 284.372 106.316 283.508 107.276L279.368 105.584C280.184 104.816 280.952 103.796 281.672 102.524C282.392 101.252 282.944 99.956 283.328 98.636ZM287.792 76.424H294.848V79.808H285.488L287.792 76.424ZM301.292 73.94H305.396V81.32C305.396 82.808 305.276 84.32 305.036 85.856C304.796 87.368 304.328 88.868 303.632 90.356C302.936 91.844 301.928 93.26 300.608 94.604C299.312 95.948 297.596 97.16 295.46 98.24C295.1 97.76 294.632 97.232 294.056 96.656C293.48 96.08 292.94 95.612 292.436 95.252C294.38 94.244 295.94 93.176 297.116 92.048C298.292 90.896 299.18 89.72 299.78 88.52C300.38 87.296 300.776 86.072 300.968 84.848C301.184 83.6 301.292 82.412 301.292 81.284V73.94ZM319.148 79.268H330.2V103.496H319.148V99.716H326.312V83.012H319.148V79.268ZM316.628 79.268H320.552V106.16H316.628V79.268ZM319.004 88.88H328.184V92.624H319.004V88.88ZM321.776 73.4L326.456 74.084C326.072 75.308 325.652 76.52 325.196 77.72C324.764 78.92 324.368 79.94 324.008 80.78L320.552 79.988C320.72 79.364 320.876 78.668 321.02 77.9C321.188 77.132 321.344 76.352 321.488 75.56C321.632 74.768 321.728 74.048 321.776 73.4ZM334.952 78.98H345.5V82.94H334.952V78.98ZM343.988 78.98H347.984C347.984 78.98 347.984 79.112 347.984 79.376C347.984 79.616 347.984 79.892 347.984 80.204C347.984 80.516 347.972 80.756 347.948 80.924C347.852 84.98 347.732 88.424 347.588 91.256C347.468 94.064 347.312 96.392 347.12 98.24C346.952 100.064 346.748 101.492 346.508 102.524C346.268 103.556 345.956 104.312 345.572 104.792C345.092 105.488 344.576 105.968 344.024 106.232C343.472 106.496 342.836 106.688 342.116 106.808C341.42 106.904 340.556 106.94 339.524 106.916C338.516 106.916 337.484 106.904 336.428 106.88C336.404 106.28 336.26 105.572 335.996 104.756C335.732 103.964 335.408 103.268 335.024 102.668C336.176 102.764 337.244 102.824 338.228 102.848C339.236 102.872 339.968 102.884 340.424 102.884C340.784 102.884 341.072 102.848 341.288 102.776C341.528 102.68 341.756 102.512 341.972 102.272C342.284 101.96 342.536 101.324 342.728 100.364C342.944 99.38 343.124 98 343.268 96.224C343.412 94.448 343.544 92.204 343.664 89.492C343.784 86.78 343.892 83.552 343.988 79.808V78.98ZM335.06 73.436L339.236 74.408C338.78 76.16 338.216 77.912 337.544 79.664C336.896 81.416 336.176 83.072 335.384 84.632C334.616 86.168 333.824 87.512 333.008 88.664C332.768 88.424 332.42 88.148 331.964 87.836C331.532 87.5 331.088 87.176 330.632 86.864C330.2 86.552 329.816 86.312 329.48 86.144C330.272 85.112 331.016 83.924 331.712 82.58C332.432 81.212 333.068 79.748 333.62 78.188C334.196 76.604 334.676 75.02 335.06 73.436ZM333.296 89.384L336.68 87.476C337.28 88.292 337.916 89.192 338.588 90.176C339.26 91.16 339.896 92.12 340.496 93.056C341.096 93.992 341.588 94.82 341.972 95.54L338.3 97.772C337.964 97.028 337.508 96.176 336.932 95.216C336.38 94.256 335.78 93.272 335.132 92.264C334.508 91.232 333.896 90.272 333.296 89.384ZM356.984 108.968L355.832 106.052C357.344 105.572 358.496 104.912 359.288 104.072C360.104 103.256 360.512 102.32 360.512 101.264L360.224 97.736L362.24 100.94C361.928 101.204 361.592 101.408 361.232 101.552C360.872 101.696 360.488 101.768 360.08 101.768C359.192 101.768 358.4 101.492 357.704 100.94C357.008 100.364 356.66 99.56 356.66 98.528C356.66 97.52 357.008 96.728 357.704 96.152C358.4 95.576 359.228 95.288 360.188 95.288C361.46 95.288 362.42 95.732 363.068 96.62C363.74 97.508 364.076 98.708 364.076 100.22C364.076 102.26 363.452 104.06 362.204 105.62C360.956 107.18 359.216 108.296 356.984 108.968ZM402.236 73.544L406.484 74.516C405.98 76.388 405.368 78.248 404.648 80.096C403.928 81.92 403.136 83.636 402.272 85.244C401.432 86.828 400.532 88.22 399.572 89.42C399.308 89.156 398.96 88.844 398.528 88.484C398.12 88.124 397.688 87.776 397.232 87.44C396.8 87.08 396.416 86.792 396.08 86.576C397.016 85.544 397.868 84.332 398.636 82.94C399.404 81.548 400.088 80.048 400.688 78.44C401.312 76.832 401.828 75.2 402.236 73.544ZM401.228 89.528L405.44 90.392C405.104 91.928 404.672 93.44 404.144 94.928C403.64 96.392 403.076 97.784 402.452 99.104C401.828 100.4 401.18 101.54 400.508 102.524C400.244 102.284 399.884 102.02 399.428 101.732C398.972 101.42 398.504 101.132 398.024 100.868C397.568 100.58 397.172 100.352 396.836 100.184C397.868 98.912 398.756 97.316 399.5 95.396C400.244 93.476 400.82 91.52 401.228 89.528ZM403.028 79.88H417.824V83.876H401.444L403.028 79.88ZM407.168 81.644H411.452V102.416C411.452 103.424 411.344 104.252 411.128 104.9C410.912 105.548 410.468 106.052 409.796 106.412C409.172 106.748 408.416 106.976 407.528 107.096C406.664 107.216 405.644 107.276 404.468 107.276C404.396 106.628 404.204 105.884 403.892 105.044C403.604 104.204 403.304 103.496 402.992 102.92C403.76 102.944 404.48 102.956 405.152 102.956C405.848 102.956 406.316 102.956 406.556 102.956C406.772 102.956 406.928 102.92 407.024 102.848C407.12 102.752 407.168 102.584 407.168 102.344V81.644ZM412.748 90.464L416.6 89.168C417.248 90.416 417.836 91.748 418.364 93.164C418.892 94.556 419.348 95.936 419.732 97.304C420.116 98.648 420.392 99.86 420.56 100.94L416.42 102.38C416.276 101.324 416.024 100.1 415.664 98.708C415.328 97.316 414.908 95.912 414.404 94.496C413.9 93.056 413.348 91.712 412.748 90.464ZM416.636 79.88H417.212L417.896 79.736L420.956 80.312C420.74 81.776 420.488 83.288 420.2 84.848C419.912 86.384 419.636 87.692 419.372 88.772L415.7 88.088C415.796 87.44 415.904 86.684 416.024 85.82C416.144 84.956 416.264 84.056 416.384 83.12C416.504 82.16 416.588 81.26 416.636 80.42V79.88ZM394.532 73.544L398.6 74.84C397.832 76.856 396.92 78.896 395.864 80.96C394.808 83 393.668 84.944 392.444 86.792C391.22 88.616 389.948 90.212 388.628 91.58C388.508 91.22 388.304 90.764 388.016 90.212C387.752 89.636 387.464 89.06 387.152 88.484C386.84 87.908 386.564 87.44 386.324 87.08C387.404 85.976 388.448 84.704 389.456 83.264C390.488 81.824 391.436 80.276 392.3 78.62C393.188 76.964 393.932 75.272 394.532 73.544ZM391.076 83.516L395.18 79.412V79.448V107.168H391.076V83.516ZM431.072 86.54V91.076H448.856V86.54H431.072ZM427.472 83.84H452.672V93.704H427.472V83.84ZM433.628 79.772H446.372V82.58H433.628V79.772ZM438.056 84.74H441.548V92.336H438.056V84.74ZM439.784 76.748C438.728 77.78 437.408 78.824 435.824 79.88C434.24 80.936 432.524 81.92 430.676 82.832C428.828 83.72 426.956 84.5 425.06 85.172C424.82 84.692 424.484 84.116 424.052 83.444C423.62 82.772 423.2 82.22 422.792 81.788C424.784 81.188 426.716 80.444 428.588 79.556C430.484 78.668 432.212 77.684 433.772 76.604C435.332 75.524 436.604 74.456 437.588 73.4H441.656C443.048 74.672 444.584 75.836 446.264 76.892C447.968 77.948 449.744 78.86 451.592 79.628C453.464 80.372 455.324 80.984 457.172 81.464C456.716 81.944 456.272 82.52 455.84 83.192C455.408 83.864 455.024 84.476 454.688 85.028C453.416 84.596 452.096 84.08 450.728 83.48C449.36 82.88 448.004 82.22 446.66 81.5C445.316 80.756 444.056 79.988 442.88 79.196C441.704 78.38 440.672 77.564 439.784 76.748ZM432.332 87.296L435.284 86.504C435.62 87.104 435.92 87.764 436.184 88.484C436.448 89.204 436.628 89.828 436.724 90.356L433.592 91.292C433.52 90.764 433.364 90.128 433.124 89.384C432.884 88.616 432.62 87.92 432.332 87.296ZM444.212 86.36L447.812 87.224C447.404 87.992 447.02 88.736 446.66 89.456C446.324 90.176 446 90.788 445.688 91.292L442.772 90.464C443.012 89.888 443.276 89.204 443.564 88.412C443.876 87.62 444.092 86.936 444.212 86.36ZM429.452 94.892H450.764V107.096H446.3V97.7H433.7V107.24H429.452V94.892ZM431.864 99.14H448.136V101.948H431.864V99.14ZM431.9 103.46H448.136V106.268H431.9V103.46ZM473.264 94.748C473.144 93.788 473.216 92.948 473.48 92.228C473.768 91.508 474.164 90.86 474.668 90.284C475.196 89.708 475.772 89.18 476.396 88.7C477.044 88.22 477.644 87.752 478.196 87.296C478.772 86.84 479.24 86.372 479.6 85.892C479.96 85.412 480.14 84.884 480.14 84.308C480.14 83.588 479.96 82.976 479.6 82.472C479.24 81.968 478.712 81.584 478.016 81.32C477.344 81.056 476.528 80.924 475.568 80.924C474.464 80.924 473.456 81.164 472.544 81.644C471.632 82.124 470.732 82.832 469.844 83.768L466.892 81.032C468.044 79.712 469.4 78.656 470.96 77.864C472.544 77.048 474.284 76.64 476.18 76.64C477.932 76.64 479.48 76.904 480.824 77.432C482.192 77.96 483.26 78.764 484.028 79.844C484.82 80.9 485.216 82.232 485.216 83.84C485.216 84.728 485.024 85.508 484.64 86.18C484.28 86.828 483.8 87.416 483.2 87.944C482.624 88.448 482.012 88.94 481.364 89.42C480.716 89.876 480.116 90.356 479.564 90.86C479.012 91.364 478.58 91.928 478.268 92.552C477.956 93.176 477.836 93.908 477.908 94.748H473.264ZM475.604 104.324C474.692 104.324 473.936 104.024 473.336 103.424C472.736 102.824 472.436 102.068 472.436 101.156C472.436 100.22 472.736 99.452 473.336 98.852C473.936 98.252 474.692 97.952 475.604 97.952C476.516 97.952 477.272 98.252 477.872 98.852C478.472 99.452 478.772 100.22 478.772 101.156C478.772 102.068 478.472 102.824 477.872 103.424C477.272 104.024 476.516 104.324 475.604 104.324Z" fill="#864DA1"/>
</svg>
