<svg width="592" height="128" viewBox="0 0 592 128" fill="none" xmlns="http://www.w3.org/2000/svg">
<path d="M153.692 28.544H168.92V32.576H153.692V28.544ZM135.224 26.888H153.944V30.452H135.224V26.888ZM136.556 35.132H152.54V38.624H136.556V35.132ZM137.204 41H152.072V44.492H137.204V41ZM161.288 19.652H165.464V48.416C165.464 49.52 165.332 50.372 165.068 50.972C164.804 51.596 164.348 52.088 163.7 52.448C163.028 52.76 162.188 52.976 161.18 53.096C160.196 53.216 158.984 53.276 157.544 53.276C157.472 52.7 157.28 52.004 156.968 51.188C156.68 50.396 156.38 49.724 156.068 49.172C157.028 49.196 157.916 49.208 158.732 49.208C159.572 49.208 160.148 49.208 160.46 49.208C160.772 49.208 160.988 49.148 161.108 49.028C161.228 48.908 161.288 48.704 161.288 48.416V19.652ZM154.376 35.78L157.94 34.592C158.396 35.432 158.816 36.332 159.2 37.292C159.608 38.252 159.944 39.2 160.208 40.136C160.496 41.048 160.688 41.876 160.784 42.62L156.968 43.952C156.896 43.232 156.728 42.404 156.464 41.468C156.2 40.532 155.888 39.572 155.528 38.588C155.168 37.604 154.784 36.668 154.376 35.78ZM135.224 21.632L138.212 20.336C138.74 21.128 139.232 22.004 139.688 22.964C140.144 23.924 140.444 24.764 140.588 25.484L137.456 26.96C137.312 26.24 137.024 25.388 136.592 24.404C136.184 23.396 135.728 22.472 135.224 21.632ZM137.852 31.172L141.164 30.02C141.572 30.716 141.956 31.472 142.316 32.288C142.7 33.104 142.94 33.824 143.036 34.448L139.508 35.744C139.436 35.144 139.232 34.412 138.896 33.548C138.584 32.684 138.236 31.892 137.852 31.172ZM140.372 19.724H143.756V28.544H140.372V19.724ZM142.64 36.176H146.636V49.244H142.64V36.176ZM145.412 19.724H148.832V28.544H145.412V19.724ZM135.368 47.876C136.904 47.732 138.668 47.564 140.66 47.372C142.676 47.18 144.788 46.976 146.996 46.76C149.204 46.52 151.4 46.28 153.584 46.04L153.656 49.82C151.568 50.06 149.456 50.3 147.32 50.54C145.208 50.804 143.18 51.044 141.236 51.26C139.292 51.476 137.516 51.668 135.908 51.836L135.368 47.876ZM151.136 20.12L154.88 21.452C154.304 22.436 153.728 23.408 153.152 24.368C152.576 25.328 152.048 26.144 151.568 26.816L148.688 25.664C148.952 25.16 149.24 24.584 149.552 23.936C149.864 23.288 150.164 22.628 150.452 21.956C150.74 21.284 150.968 20.672 151.136 20.12ZM147.824 29.984L151.712 30.956C151.328 31.772 150.956 32.576 150.596 33.368C150.236 34.16 149.9 34.844 149.588 35.42L146.204 34.556C146.396 34.148 146.588 33.68 146.78 33.152C146.996 32.6 147.188 32.048 147.356 31.496C147.548 30.944 147.704 30.44 147.824 29.984ZM171.692 25.196H204.344V29.3H171.692V25.196ZM183.716 34.016H197.504V38.084H183.716V34.016ZM195.884 34.016H200.348C200.348 34.016 200.336 34.136 200.312 34.376C200.312 34.592 200.312 34.844 200.312 35.132C200.312 35.42 200.288 35.672 200.24 35.888C200.024 39.176 199.784 41.864 199.52 43.952C199.256 46.04 198.956 47.672 198.62 48.848C198.284 50 197.876 50.84 197.396 51.368C196.844 51.968 196.268 52.376 195.668 52.592C195.068 52.808 194.348 52.964 193.508 53.06C192.812 53.132 191.9 53.156 190.772 53.132C189.644 53.132 188.48 53.108 187.28 53.06C187.256 52.436 187.1 51.716 186.812 50.9C186.524 50.108 186.164 49.412 185.732 48.812C186.98 48.932 188.18 49.004 189.332 49.028C190.484 49.052 191.312 49.064 191.816 49.064C192.224 49.064 192.56 49.04 192.824 48.992C193.112 48.92 193.364 48.788 193.58 48.596C193.964 48.284 194.288 47.6 194.552 46.544C194.84 45.488 195.092 43.988 195.308 42.044C195.524 40.1 195.716 37.64 195.884 34.664V34.016ZM182.096 27.644H186.92C186.824 29.564 186.668 31.508 186.452 33.476C186.26 35.42 185.924 37.352 185.444 39.272C184.964 41.168 184.268 42.98 183.356 44.708C182.444 46.436 181.244 48.044 179.756 49.532C178.268 51.02 176.384 52.34 174.104 53.492C173.792 52.892 173.336 52.244 172.736 51.548C172.16 50.852 171.596 50.276 171.044 49.82C173.132 48.86 174.836 47.744 176.156 46.472C177.5 45.176 178.556 43.784 179.324 42.296C180.092 40.784 180.656 39.212 181.016 37.58C181.4 35.948 181.652 34.292 181.772 32.612C181.916 30.932 182.024 29.276 182.096 27.644ZM185.552 19.256H190.052V26.816H185.552V19.256ZM226.556 32.936V36.752H234.332V32.936H226.556ZM222.596 29.264H238.544V40.46H222.596V29.264ZM230.948 39.38H235.016V48.02C235.016 48.524 235.052 48.848 235.124 48.992C235.196 49.112 235.364 49.172 235.628 49.172C235.7 49.172 235.82 49.172 235.988 49.172C236.18 49.172 236.36 49.172 236.528 49.172C236.72 49.172 236.864 49.172 236.96 49.172C237.152 49.172 237.296 49.064 237.392 48.848C237.512 48.632 237.596 48.212 237.644 47.588C237.716 46.94 237.764 45.956 237.788 44.636C238.052 44.852 238.388 45.068 238.796 45.284C239.228 45.5 239.672 45.692 240.128 45.86C240.608 46.028 241.028 46.16 241.388 46.256C241.292 48.032 241.088 49.4 240.776 50.36C240.488 51.344 240.068 52.016 239.516 52.376C238.988 52.76 238.28 52.952 237.392 52.952C237.248 52.952 237.056 52.952 236.816 52.952C236.6 52.952 236.372 52.952 236.132 52.952C235.916 52.952 235.7 52.952 235.484 52.952C235.268 52.952 235.076 52.952 234.908 52.952C233.828 52.952 233 52.796 232.424 52.484C231.848 52.172 231.452 51.656 231.236 50.936C231.044 50.24 230.948 49.28 230.948 48.056V39.38ZM224.9 39.92H229.148C229.052 41.48 228.86 42.932 228.572 44.276C228.308 45.596 227.888 46.82 227.312 47.948C226.736 49.076 225.932 50.084 224.9 50.972C223.892 51.86 222.572 52.64 220.94 53.312C220.796 52.952 220.58 52.556 220.292 52.124C220.004 51.716 219.704 51.308 219.392 50.9C219.08 50.492 218.768 50.156 218.456 49.892C219.824 49.412 220.916 48.848 221.732 48.2C222.548 47.528 223.172 46.784 223.604 45.968C224.036 45.128 224.336 44.216 224.504 43.232C224.696 42.224 224.828 41.12 224.9 39.92ZM225.944 20.408H234.656V24.296H225.944V20.408ZM223.424 23.612L227.636 24.692C227.036 26.156 226.304 27.656 225.44 29.192C224.6 30.704 223.664 31.976 222.632 33.008C222.2 32.624 221.66 32.216 221.012 31.784C220.364 31.328 219.8 30.968 219.32 30.704C220.232 29.792 221.048 28.676 221.768 27.356C222.512 26.012 223.064 24.764 223.424 23.612ZM231.38 20.408H235.844C236.204 21.56 236.672 22.712 237.248 23.864C237.824 24.992 238.472 26.06 239.192 27.068C239.912 28.076 240.656 28.928 241.424 29.624C241.064 29.84 240.644 30.104 240.164 30.416C239.708 30.728 239.264 31.064 238.832 31.424C238.4 31.76 238.04 32.072 237.752 32.36C236.576 31.064 235.508 29.528 234.548 27.752C233.588 25.976 232.796 24.188 232.172 22.388H231.38V20.408ZM208.772 30.452H219.644V33.728H208.772V30.452ZM208.916 20.552H219.572V23.792H208.916V20.552ZM208.772 35.384H219.644V38.624H208.772V35.384ZM207.08 25.376H220.832V28.796H207.08V25.376ZM210.644 40.352H219.716V51.332H210.644V47.912H216.008V43.772H210.644V40.352ZM208.7 40.352H212.336V52.736H208.7V40.352ZM263.852 19.58H267.92V44.672H263.852V19.58ZM251.684 33.692L273.068 25.34L274.724 29.084L253.376 37.508L251.684 33.692ZM256.112 23.432H260.36V46.292C260.36 47.012 260.42 47.552 260.54 47.912C260.684 48.272 260.948 48.512 261.332 48.632C261.74 48.752 262.328 48.812 263.096 48.812C263.312 48.812 263.66 48.812 264.14 48.812C264.62 48.812 265.16 48.812 265.76 48.812C266.384 48.812 266.996 48.812 267.596 48.812C268.22 48.812 268.772 48.812 269.252 48.812C269.756 48.812 270.128 48.812 270.368 48.812C271.088 48.812 271.628 48.68 271.988 48.416C272.348 48.152 272.612 47.672 272.78 46.976C272.948 46.256 273.092 45.212 273.212 43.844C273.692 44.18 274.304 44.504 275.048 44.816C275.816 45.128 276.5 45.356 277.1 45.5C276.908 47.3 276.596 48.728 276.164 49.784C275.756 50.816 275.12 51.56 274.256 52.016C273.416 52.472 272.24 52.7 270.728 52.7C270.488 52.7 270.092 52.7 269.54 52.7C268.988 52.7 268.376 52.7 267.704 52.7C267.032 52.7 266.36 52.7 265.688 52.7C265.016 52.7 264.416 52.7 263.888 52.7C263.36 52.7 262.976 52.7 262.736 52.7C261.008 52.7 259.664 52.508 258.704 52.124C257.744 51.764 257.072 51.116 256.688 50.18C256.304 49.244 256.112 47.948 256.112 46.292V23.432ZM271.628 26.06H271.34L272.096 25.52L272.852 24.98L275.804 26.096L275.66 26.78C275.66 28.868 275.648 30.74 275.624 32.396C275.6 34.028 275.564 35.408 275.516 36.536C275.468 37.64 275.408 38.456 275.336 38.984C275.264 39.896 275.048 40.604 274.688 41.108C274.352 41.612 273.896 41.996 273.32 42.26C272.768 42.5 272.108 42.656 271.34 42.728C270.572 42.776 269.864 42.788 269.216 42.764C269.192 42.164 269.096 41.468 268.928 40.676C268.76 39.884 268.544 39.26 268.28 38.804C268.688 38.828 269.108 38.852 269.54 38.876C269.972 38.876 270.296 38.876 270.512 38.876C270.752 38.876 270.944 38.828 271.088 38.732C271.232 38.612 271.34 38.384 271.412 38.048C271.46 37.76 271.496 37.16 271.52 36.248C271.544 35.336 271.568 34.04 271.592 32.36C271.616 30.68 271.628 28.58 271.628 26.06ZM250.712 19.544L254.708 20.84C253.94 22.856 253.028 24.884 251.972 26.924C250.916 28.964 249.776 30.896 248.552 32.72C247.328 34.52 246.068 36.104 244.772 37.472C244.652 37.136 244.448 36.692 244.16 36.14C243.896 35.588 243.608 35.036 243.296 34.484C243.008 33.908 242.744 33.44 242.504 33.08C243.584 31.976 244.628 30.704 245.636 29.264C246.668 27.824 247.616 26.276 248.48 24.62C249.368 22.964 250.112 21.272 250.712 19.544ZM247.076 29.516L251.288 25.268L251.324 25.304V53.168H247.076V29.516ZM288.26 27.428V28.904H303.596V27.428H288.26ZM288.26 23.36V24.8H303.596V23.36H288.26ZM284.12 20.552H307.916V31.712H284.12V20.552ZM279.872 33.008H312.056V36.428H279.872V33.008ZM296.396 37.76H308.168V41.072H296.396V37.76ZM285.416 37.868H293.588V40.856H285.416V37.868ZM285.416 42.404H293.588V45.392H285.416V42.404ZM300.788 40.748C301.796 42.956 303.332 44.852 305.396 46.436C307.484 48.02 309.968 49.148 312.848 49.82C312.584 50.084 312.284 50.408 311.948 50.792C311.612 51.2 311.3 51.62 311.012 52.052C310.724 52.484 310.484 52.868 310.292 53.204C307.196 52.268 304.568 50.828 302.408 48.884C300.272 46.94 298.58 44.552 297.332 41.72L300.788 40.748ZM306.872 37.76H307.664L308.384 37.652L311.048 38.66C310.328 41.156 309.308 43.352 307.988 45.248C306.668 47.12 305.108 48.704 303.308 50C301.532 51.32 299.564 52.388 297.404 53.204C297.164 52.676 296.816 52.076 296.36 51.404C295.904 50.756 295.472 50.228 295.064 49.82C296.456 49.388 297.776 48.812 299.024 48.092C300.296 47.372 301.448 46.52 302.48 45.536C303.512 44.552 304.4 43.46 305.144 42.26C305.912 41.06 306.488 39.776 306.872 38.408V37.76ZM279.548 47.624C280.772 47.552 282.14 47.468 283.652 47.372C285.164 47.252 286.76 47.132 288.44 47.012C290.12 46.868 291.812 46.724 293.516 46.58V50.108C291.092 50.324 288.68 50.54 286.28 50.756C283.904 50.996 281.768 51.2 279.872 51.368L279.548 47.624ZM291.392 34.124H295.496V53.24H291.392V34.124ZM282.716 34.196H286.64V48.92H282.716V34.196ZM330.848 29.516H348.488V33.512H330.848V29.516ZM338.156 31.28H342.44V47.012H338.156V31.28ZM328.508 21.632L333.656 22.568C333.632 22.88 333.308 23.096 332.684 23.216V29.948C332.684 31.148 332.624 32.456 332.504 33.872C332.384 35.264 332.144 36.716 331.784 38.228C331.448 39.716 330.932 41.168 330.236 42.584C329.54 43.976 328.64 45.248 327.536 46.4C327.344 46.088 327.056 45.74 326.672 45.356C326.312 44.972 325.928 44.6 325.52 44.24C325.112 43.88 324.74 43.616 324.404 43.448C325.652 42.128 326.564 40.688 327.14 39.128C327.716 37.544 328.088 35.96 328.256 34.376C328.424 32.768 328.508 31.268 328.508 29.876V21.632ZM343.628 19.472L347.192 22.748C345.704 23.276 344.072 23.756 342.296 24.188C340.52 24.596 338.708 24.956 336.86 25.268C335.036 25.58 333.26 25.844 331.532 26.06C331.436 25.556 331.256 24.968 330.992 24.296C330.728 23.6 330.476 23.036 330.236 22.604C331.844 22.364 333.476 22.088 335.132 21.776C336.788 21.44 338.348 21.08 339.812 20.696C341.3 20.312 342.572 19.904 343.628 19.472ZM323.972 33.44V46.724H319.76V37.436H315.584V33.44H323.972ZM323.972 44.852C324.716 46.028 325.76 46.892 327.104 47.444C328.448 47.996 330.056 48.308 331.928 48.38C332.984 48.428 334.232 48.464 335.672 48.488C337.136 48.488 338.672 48.476 340.28 48.452C341.888 48.428 343.46 48.38 344.996 48.308C346.556 48.236 347.936 48.152 349.136 48.056C348.992 48.392 348.824 48.824 348.632 49.352C348.44 49.88 348.26 50.42 348.092 50.972C347.948 51.524 347.84 52.016 347.768 52.448C346.688 52.52 345.452 52.568 344.06 52.592C342.668 52.64 341.24 52.664 339.776 52.664C338.312 52.688 336.896 52.688 335.528 52.664C334.16 52.64 332.936 52.604 331.856 52.556C329.648 52.46 327.764 52.112 326.204 51.512C324.644 50.936 323.264 49.952 322.064 48.56C321.272 49.232 320.456 49.928 319.616 50.648C318.8 51.368 317.9 52.112 316.916 52.88L314.792 48.38C315.632 47.876 316.508 47.324 317.42 46.724C318.332 46.124 319.208 45.5 320.048 44.852H323.972ZM315.62 22.856L318.824 20.264C319.568 20.744 320.324 21.308 321.092 21.956C321.86 22.58 322.58 23.228 323.252 23.9C323.924 24.548 324.464 25.148 324.872 25.7L321.452 28.58C321.092 28.004 320.588 27.38 319.94 26.708C319.316 26.036 318.62 25.364 317.852 24.692C317.084 23.996 316.34 23.384 315.62 22.856ZM351.728 35.204H384.272V39.596H351.728V35.204ZM357.344 19.832L361.916 20.804C361.46 22.532 360.896 24.224 360.224 25.88C359.576 27.512 358.868 29.048 358.1 30.488C357.332 31.904 356.516 33.152 355.652 34.232C355.34 33.992 354.92 33.728 354.392 33.44C353.888 33.128 353.372 32.84 352.844 32.576C352.316 32.288 351.86 32.072 351.476 31.928C352.364 30.992 353.18 29.876 353.924 28.58C354.668 27.284 355.328 25.892 355.904 24.404C356.504 22.892 356.984 21.368 357.344 19.832ZM358.388 25.124H381.176V29.516H356.228L358.388 25.124ZM370.232 36.104C371.312 39.512 373.076 42.32 375.524 44.528C377.972 46.736 381.26 48.272 385.388 49.136C385.052 49.448 384.692 49.844 384.308 50.324C383.948 50.804 383.6 51.296 383.264 51.8C382.952 52.328 382.688 52.808 382.472 53.24C379.496 52.472 376.964 51.356 374.876 49.892C372.788 48.428 371.036 46.628 369.62 44.492C368.228 42.356 367.064 39.872 366.128 37.04L370.232 36.104ZM365.552 19.4H370.088V30.884C370.088 32.564 369.98 34.268 369.764 35.996C369.572 37.724 369.164 39.416 368.54 41.072C367.916 42.728 367.004 44.312 365.804 45.824C364.604 47.312 363.02 48.692 361.052 49.964C359.108 51.212 356.696 52.28 353.816 53.168C353.648 52.808 353.396 52.388 353.06 51.908C352.748 51.428 352.412 50.948 352.052 50.468C351.692 50.012 351.356 49.64 351.044 49.352C353.636 48.608 355.808 47.708 357.56 46.652C359.312 45.596 360.716 44.444 361.772 43.196C362.852 41.948 363.656 40.64 364.184 39.272C364.736 37.88 365.096 36.476 365.264 35.06C365.456 33.644 365.552 32.24 365.552 30.848V19.4ZM390.176 21.092H399.428V47.228H390.176V43.376H395.468V24.872H390.176V21.092ZM390.608 28.472H397.988V32.108H390.608V28.472ZM390.608 35.924H397.988V39.56H390.608V35.924ZM388.232 21.092H392.228V50.108H388.232V21.092ZM404.396 20.948H419.876V32.216H404.396V28.4H415.664V24.728H404.396V20.948ZM404.18 36.176H420.704V40.136H404.18V36.176ZM401.948 20.948H406.088V50.036H401.948V20.948ZM398.708 48.596C399.764 48.452 400.964 48.272 402.308 48.056C403.676 47.816 405.116 47.564 406.628 47.3C408.164 47.036 409.7 46.772 411.236 46.508L411.56 50.252C409.544 50.708 407.504 51.152 405.44 51.584C403.4 52.016 401.54 52.4 399.86 52.736L398.708 48.596ZM409.724 31.028H413.864C413.864 33.356 413.972 35.612 414.188 37.796C414.404 39.956 414.68 41.888 415.016 43.592C415.376 45.272 415.76 46.604 416.168 47.588C416.6 48.572 417.02 49.064 417.428 49.064C417.692 49.064 417.896 48.656 418.04 47.84C418.184 47 418.268 45.776 418.292 44.168C418.724 44.576 419.252 44.972 419.876 45.356C420.5 45.716 421.076 45.98 421.604 46.148C421.436 48.02 421.16 49.46 420.776 50.468C420.416 51.476 419.936 52.16 419.336 52.52C418.736 52.88 417.992 53.06 417.104 53.06C416.12 53.06 415.244 52.664 414.476 51.872C413.708 51.104 413.036 50.024 412.46 48.632C411.884 47.24 411.404 45.62 411.02 43.772C410.636 41.9 410.336 39.884 410.12 37.724C409.904 35.564 409.772 33.332 409.724 31.028ZM428.984 54.968L427.832 52.052C429.344 51.572 430.496 50.912 431.288 50.072C432.104 49.256 432.512 48.32 432.512 47.264L432.224 43.736L434.24 46.94C433.928 47.204 433.592 47.408 433.232 47.552C432.872 47.696 432.488 47.768 432.08 47.768C431.192 47.768 430.4 47.492 429.704 46.94C429.008 46.364 428.66 45.56 428.66 44.528C428.66 43.52 429.008 42.728 429.704 42.152C430.4 41.576 431.228 41.288 432.188 41.288C433.46 41.288 434.42 41.732 435.068 42.62C435.74 43.508 436.076 44.708 436.076 46.22C436.076 48.26 435.452 50.06 434.204 51.62C432.956 53.18 431.216 54.296 428.984 54.968ZM222.236 73.544L226.484 74.516C225.98 76.388 225.368 78.248 224.648 80.096C223.928 81.92 223.136 83.636 222.272 85.244C221.432 86.828 220.532 88.22 219.572 89.42C219.308 89.156 218.96 88.844 218.528 88.484C218.12 88.124 217.688 87.776 217.232 87.44C216.8 87.08 216.416 86.792 216.08 86.576C217.016 85.544 217.868 84.332 218.636 82.94C219.404 81.548 220.088 80.048 220.688 78.44C221.312 76.832 221.828 75.2 222.236 73.544ZM221.228 89.528L225.44 90.392C225.104 91.928 224.672 93.44 224.144 94.928C223.64 96.392 223.076 97.784 222.452 99.104C221.828 100.4 221.18 101.54 220.508 102.524C220.244 102.284 219.884 102.02 219.428 101.732C218.972 101.42 218.504 101.132 218.024 100.868C217.568 100.58 217.172 100.352 216.836 100.184C217.868 98.912 218.756 97.316 219.5 95.396C220.244 93.476 220.82 91.52 221.228 89.528ZM223.028 79.88H237.824V83.876H221.444L223.028 79.88ZM227.168 81.644H231.452V102.416C231.452 103.424 231.344 104.252 231.128 104.9C230.912 105.548 230.468 106.052 229.796 106.412C229.172 106.748 228.416 106.976 227.528 107.096C226.664 107.216 225.644 107.276 224.468 107.276C224.396 106.628 224.204 105.884 223.892 105.044C223.604 104.204 223.304 103.496 222.992 102.92C223.76 102.944 224.48 102.956 225.152 102.956C225.848 102.956 226.316 102.956 226.556 102.956C226.772 102.956 226.928 102.92 227.024 102.848C227.12 102.752 227.168 102.584 227.168 102.344V81.644ZM232.748 90.464L236.6 89.168C237.248 90.416 237.836 91.748 238.364 93.164C238.892 94.556 239.348 95.936 239.732 97.304C240.116 98.648 240.392 99.86 240.56 100.94L236.42 102.38C236.276 101.324 236.024 100.1 235.664 98.708C235.328 97.316 234.908 95.912 234.404 94.496C233.9 93.056 233.348 91.712 232.748 90.464ZM236.636 79.88H237.212L237.896 79.736L240.956 80.312C240.74 81.776 240.488 83.288 240.2 84.848C239.912 86.384 239.636 87.692 239.372 88.772L235.7 88.088C235.796 87.44 235.904 86.684 236.024 85.82C236.144 84.956 236.264 84.056 236.384 83.12C236.504 82.16 236.588 81.26 236.636 80.42V79.88ZM214.532 73.544L218.6 74.84C217.832 76.856 216.92 78.896 215.864 80.96C214.808 83 213.668 84.944 212.444 86.792C211.22 88.616 209.948 90.212 208.628 91.58C208.508 91.22 208.304 90.764 208.016 90.212C207.752 89.636 207.464 89.06 207.152 88.484C206.84 87.908 206.564 87.44 206.324 87.08C207.404 85.976 208.448 84.704 209.456 83.264C210.488 81.824 211.436 80.276 212.3 78.62C213.188 76.964 213.932 75.272 214.532 73.544ZM211.076 83.516L215.18 79.412V79.448V107.168H211.076V83.516ZM251.072 86.54V91.076H268.856V86.54H251.072ZM247.472 83.84H272.672V93.704H247.472V83.84ZM253.628 79.772H266.372V82.58H253.628V79.772ZM258.056 84.74H261.548V92.336H258.056V84.74ZM259.784 76.748C258.728 77.78 257.408 78.824 255.824 79.88C254.24 80.936 252.524 81.92 250.676 82.832C248.828 83.72 246.956 84.5 245.06 85.172C244.82 84.692 244.484 84.116 244.052 83.444C243.62 82.772 243.2 82.22 242.792 81.788C244.784 81.188 246.716 80.444 248.588 79.556C250.484 78.668 252.212 77.684 253.772 76.604C255.332 75.524 256.604 74.456 257.588 73.4H261.656C263.048 74.672 264.584 75.836 266.264 76.892C267.968 77.948 269.744 78.86 271.592 79.628C273.464 80.372 275.324 80.984 277.172 81.464C276.716 81.944 276.272 82.52 275.84 83.192C275.408 83.864 275.024 84.476 274.688 85.028C273.416 84.596 272.096 84.08 270.728 83.48C269.36 82.88 268.004 82.22 266.66 81.5C265.316 80.756 264.056 79.988 262.88 79.196C261.704 78.38 260.672 77.564 259.784 76.748ZM252.332 87.296L255.284 86.504C255.62 87.104 255.92 87.764 256.184 88.484C256.448 89.204 256.628 89.828 256.724 90.356L253.592 91.292C253.52 90.764 253.364 90.128 253.124 89.384C252.884 88.616 252.62 87.92 252.332 87.296ZM264.212 86.36L267.812 87.224C267.404 87.992 267.02 88.736 266.66 89.456C266.324 90.176 266 90.788 265.688 91.292L262.772 90.464C263.012 89.888 263.276 89.204 263.564 88.412C263.876 87.62 264.092 86.936 264.212 86.36ZM249.452 94.892H270.764V107.096H266.3V97.7H253.7V107.24H249.452V94.892ZM251.864 99.14H268.136V101.948H251.864V99.14ZM251.9 103.46H268.136V106.268H251.9V103.46ZM288.692 96.008H292.976V101.66C292.976 102.188 293.096 102.524 293.336 102.668C293.576 102.788 294.104 102.848 294.92 102.848C295.112 102.848 295.424 102.848 295.856 102.848C296.288 102.848 296.756 102.848 297.26 102.848C297.764 102.848 298.244 102.848 298.7 102.848C299.156 102.848 299.504 102.848 299.744 102.848C300.2 102.848 300.536 102.776 300.752 102.632C300.992 102.464 301.16 102.14 301.256 101.66C301.376 101.18 301.46 100.46 301.508 99.5C301.796 99.692 302.156 99.896 302.588 100.112C303.044 100.304 303.524 100.484 304.028 100.652C304.532 100.796 304.964 100.904 305.324 100.976C305.18 102.512 304.916 103.688 304.532 104.504C304.172 105.32 303.644 105.884 302.948 106.196C302.252 106.532 301.316 106.7 300.14 106.7C299.924 106.7 299.624 106.7 299.24 106.7C298.856 106.7 298.424 106.7 297.944 106.7C297.488 106.7 297.02 106.7 296.54 106.7C296.06 106.7 295.628 106.7 295.244 106.7C294.86 106.7 294.584 106.7 294.416 106.7C292.88 106.7 291.692 106.544 290.852 106.232C290.036 105.92 289.472 105.404 289.16 104.684C288.848 103.964 288.692 102.968 288.692 101.696V96.008ZM292.256 94.964L295.208 92.48C295.928 92.888 296.672 93.356 297.44 93.884C298.208 94.412 298.928 94.964 299.6 95.54C300.296 96.092 300.848 96.62 301.256 97.124L298.088 99.86C297.728 99.332 297.224 98.78 296.576 98.204C295.928 97.604 295.22 97.028 294.452 96.476C293.708 95.9 292.976 95.396 292.256 94.964ZM303.272 96.8L306.944 95.036C307.784 95.876 308.6 96.8 309.392 97.808C310.208 98.816 310.928 99.824 311.552 100.832C312.176 101.84 312.644 102.8 312.956 103.712L308.96 105.584C308.696 104.768 308.264 103.844 307.664 102.812C307.088 101.78 306.416 100.736 305.648 99.68C304.904 98.624 304.112 97.664 303.272 96.8ZM283.652 95.504L287.54 96.764C287.084 98.516 286.46 100.22 285.668 101.876C284.9 103.508 283.844 104.876 282.5 105.98L278.9 103.604C280.076 102.644 281.06 101.456 281.852 100.04C282.668 98.6 283.268 97.088 283.652 95.504ZM287.108 77.288H311.588V80.996H287.108V77.288ZM294.488 82.832H309.536V86.216H294.488V82.832ZM294.524 88.268H310.508V91.796H294.524V88.268ZM292.544 78.584H296.9V93.848H292.544V78.584ZM287.576 73.292L292.148 74.444C291.476 76.34 290.66 78.164 289.7 79.916C288.74 81.644 287.684 83.24 286.532 84.704C285.38 86.168 284.168 87.44 282.896 88.52C282.656 88.232 282.308 87.884 281.852 87.476C281.396 87.068 280.928 86.672 280.448 86.288C279.992 85.904 279.584 85.592 279.224 85.352C281.096 84.008 282.764 82.268 284.228 80.132C285.692 77.996 286.808 75.716 287.576 73.292ZM327.176 96.476H332.9V99.392H327.176V96.476ZM330.272 92.336H338.372V95.252H330.272V92.336ZM328.508 77.432H348.2V80.492H328.508V77.432ZM327.5 86.144H348.812V89.348H327.5V86.144ZM329.768 81.824H347.3V84.74H329.768V81.824ZM336.068 79.196H340.208V87.656H336.068V79.196ZM336.14 92.336H340.172V103.316C340.172 104.204 340.064 104.912 339.848 105.44C339.656 105.968 339.26 106.376 338.66 106.664C338.06 106.952 337.34 107.12 336.5 107.168C335.684 107.24 334.724 107.276 333.62 107.276C333.548 106.748 333.404 106.148 333.188 105.476C332.996 104.804 332.78 104.228 332.54 103.748C333.164 103.772 333.776 103.784 334.376 103.784C334.976 103.784 335.384 103.772 335.6 103.748C335.792 103.748 335.924 103.712 335.996 103.64C336.092 103.568 336.14 103.436 336.14 103.244V92.336ZM333.764 90.464L335.924 88.124C336.836 88.34 337.808 88.628 338.84 88.988C339.872 89.324 340.868 89.696 341.828 90.104C342.812 90.488 343.628 90.86 344.276 91.22L342.044 93.848C341.444 93.488 340.664 93.104 339.704 92.696C338.768 92.264 337.772 91.856 336.716 91.472C335.684 91.064 334.7 90.728 333.764 90.464ZM330.668 74.588L333.872 73.4C334.304 73.952 334.712 74.576 335.096 75.272C335.504 75.944 335.828 76.544 336.068 77.072L332.756 78.44C332.564 77.912 332.264 77.288 331.856 76.568C331.472 75.848 331.076 75.188 330.668 74.588ZM332.144 96.476H332.756L333.368 96.368L335.78 97.34C335.132 99.524 334.148 101.408 332.828 102.992C331.508 104.576 329.996 105.8 328.292 106.664C328.052 106.28 327.704 105.8 327.248 105.224C326.792 104.672 326.384 104.228 326.024 103.892C326.96 103.484 327.836 102.932 328.652 102.236C329.492 101.54 330.212 100.748 330.812 99.86C331.412 98.948 331.856 98 332.144 97.016V96.476ZM345.536 93.2L348.704 95.576C347.624 96.344 346.532 97.112 345.428 97.88C344.324 98.648 343.316 99.284 342.404 99.788L340.172 97.916C340.748 97.508 341.36 97.04 342.008 96.512C342.68 95.96 343.328 95.396 343.952 94.82C344.576 94.244 345.104 93.704 345.536 93.2ZM342.116 73.364L345.896 74.516C345.392 75.212 344.9 75.884 344.42 76.532C343.964 77.156 343.544 77.708 343.16 78.188L340.208 77.18C340.544 76.628 340.892 75.992 341.252 75.272C341.612 74.552 341.9 73.916 342.116 73.364ZM340.1 94.532C340.676 95.78 341.42 96.968 342.332 98.096C343.268 99.2 344.336 100.184 345.536 101.048C346.76 101.912 348.056 102.608 349.424 103.136C348.992 103.496 348.524 103.988 348.02 104.612C347.516 105.236 347.12 105.812 346.832 106.34C345.416 105.62 344.108 104.708 342.908 103.604C341.708 102.5 340.64 101.24 339.704 99.824C338.792 98.384 338.024 96.872 337.4 95.288L340.1 94.532ZM315.656 80.888H327.536V84.884H315.656V80.888ZM320.048 73.4H323.936V107.204H320.048V73.4ZM319.976 83.624L322.352 84.416C322.112 85.856 321.8 87.344 321.416 88.88C321.032 90.392 320.6 91.892 320.12 93.38C319.64 94.844 319.112 96.212 318.536 97.484C317.984 98.756 317.384 99.848 316.736 100.76C316.544 100.208 316.244 99.56 315.836 98.816C315.452 98.072 315.104 97.46 314.792 96.98C315.368 96.188 315.92 95.264 316.448 94.208C316.976 93.152 317.468 92.024 317.924 90.824C318.38 89.624 318.776 88.412 319.112 87.188C319.472 85.94 319.76 84.752 319.976 83.624ZM323.756 86.216C323.948 86.456 324.248 86.888 324.656 87.512C325.088 88.112 325.544 88.772 326.024 89.492C326.504 90.188 326.936 90.848 327.32 91.472C327.728 92.072 328.004 92.492 328.148 92.732L325.916 95.828C325.7 95.324 325.424 94.712 325.088 93.992C324.752 93.272 324.38 92.528 323.972 91.76C323.588 90.992 323.216 90.272 322.856 89.6C322.52 88.928 322.22 88.376 321.956 87.944L323.756 86.216ZM365.264 94.748C365.144 93.788 365.216 92.948 365.48 92.228C365.768 91.508 366.164 90.86 366.668 90.284C367.196 89.708 367.772 89.18 368.396 88.7C369.044 88.22 369.644 87.752 370.196 87.296C370.772 86.84 371.24 86.372 371.6 85.892C371.96 85.412 372.14 84.884 372.14 84.308C372.14 83.588 371.96 82.976 371.6 82.472C371.24 81.968 370.712 81.584 370.016 81.32C369.344 81.056 368.528 80.924 367.568 80.924C366.464 80.924 365.456 81.164 364.544 81.644C363.632 82.124 362.732 82.832 361.844 83.768L358.892 81.032C360.044 79.712 361.4 78.656 362.96 77.864C364.544 77.048 366.284 76.64 368.18 76.64C369.932 76.64 371.48 76.904 372.824 77.432C374.192 77.96 375.26 78.764 376.028 79.844C376.82 80.9 377.216 82.232 377.216 83.84C377.216 84.728 377.024 85.508 376.64 86.18C376.28 86.828 375.8 87.416 375.2 87.944C374.624 88.448 374.012 88.94 373.364 89.42C372.716 89.876 372.116 90.356 371.564 90.86C371.012 91.364 370.58 91.928 370.268 92.552C369.956 93.176 369.836 93.908 369.908 94.748H365.264ZM367.604 104.324C366.692 104.324 365.936 104.024 365.336 103.424C364.736 102.824 364.436 102.068 364.436 101.156C364.436 100.22 364.736 99.452 365.336 98.852C365.936 98.252 366.692 97.952 367.604 97.952C368.516 97.952 369.272 98.252 369.872 98.852C370.472 99.452 370.772 100.22 370.772 101.156C370.772 102.068 370.472 102.824 369.872 103.424C369.272 104.024 368.516 104.324 367.604 104.324Z" fill="#864DA1"/>
</svg>
