<svg width="592" height="128" viewBox="0 0 592 128" fill="none" xmlns="http://www.w3.org/2000/svg">
<path d="M135.692 28.544H150.92V32.576H135.692V28.544ZM117.224 26.888H135.944V30.452H117.224V26.888ZM118.556 35.132H134.54V38.624H118.556V35.132ZM119.204 41H134.072V44.492H119.204V41ZM143.288 19.652H147.464V48.416C147.464 49.52 147.332 50.372 147.068 50.972C146.804 51.596 146.348 52.088 145.7 52.448C145.028 52.76 144.188 52.976 143.18 53.096C142.196 53.216 140.984 53.276 139.544 53.276C139.472 52.7 139.28 52.004 138.968 51.188C138.68 50.396 138.38 49.724 138.068 49.172C139.028 49.196 139.916 49.208 140.732 49.208C141.572 49.208 142.148 49.208 142.46 49.208C142.772 49.208 142.988 49.148 143.108 49.028C143.228 48.908 143.288 48.704 143.288 48.416V19.652ZM136.376 35.78L139.94 34.592C140.396 35.432 140.816 36.332 141.2 37.292C141.608 38.252 141.944 39.2 142.208 40.136C142.496 41.048 142.688 41.876 142.784 42.62L138.968 43.952C138.896 43.232 138.728 42.404 138.464 41.468C138.2 40.532 137.888 39.572 137.528 38.588C137.168 37.604 136.784 36.668 136.376 35.78ZM117.224 21.632L120.212 20.336C120.74 21.128 121.232 22.004 121.688 22.964C122.144 23.924 122.444 24.764 122.588 25.484L119.456 26.96C119.312 26.24 119.024 25.388 118.592 24.404C118.184 23.396 117.728 22.472 117.224 21.632ZM119.852 31.172L123.164 30.02C123.572 30.716 123.956 31.472 124.316 32.288C124.7 33.104 124.94 33.824 125.036 34.448L121.508 35.744C121.436 35.144 121.232 34.412 120.896 33.548C120.584 32.684 120.236 31.892 119.852 31.172ZM122.372 19.724H125.756V28.544H122.372V19.724ZM124.64 36.176H128.636V49.244H124.64V36.176ZM127.412 19.724H130.832V28.544H127.412V19.724ZM117.368 47.876C118.904 47.732 120.668 47.564 122.66 47.372C124.676 47.18 126.788 46.976 128.996 46.76C131.204 46.52 133.4 46.28 135.584 46.04L135.656 49.82C133.568 50.06 131.456 50.3 129.32 50.54C127.208 50.804 125.18 51.044 123.236 51.26C121.292 51.476 119.516 51.668 117.908 51.836L117.368 47.876ZM133.136 20.12L136.88 21.452C136.304 22.436 135.728 23.408 135.152 24.368C134.576 25.328 134.048 26.144 133.568 26.816L130.688 25.664C130.952 25.16 131.24 24.584 131.552 23.936C131.864 23.288 132.164 22.628 132.452 21.956C132.74 21.284 132.968 20.672 133.136 20.12ZM129.824 29.984L133.712 30.956C133.328 31.772 132.956 32.576 132.596 33.368C132.236 34.16 131.9 34.844 131.588 35.42L128.204 34.556C128.396 34.148 128.588 33.68 128.78 33.152C128.996 32.6 129.188 32.048 129.356 31.496C129.548 30.944 129.704 30.44 129.824 29.984ZM153.692 25.196H186.344V29.3H153.692V25.196ZM165.716 34.016H179.504V38.084H165.716V34.016ZM177.884 34.016H182.348C182.348 34.016 182.336 34.136 182.312 34.376C182.312 34.592 182.312 34.844 182.312 35.132C182.312 35.42 182.288 35.672 182.24 35.888C182.024 39.176 181.784 41.864 181.52 43.952C181.256 46.04 180.956 47.672 180.62 48.848C180.284 50 179.876 50.84 179.396 51.368C178.844 51.968 178.268 52.376 177.668 52.592C177.068 52.808 176.348 52.964 175.508 53.06C174.812 53.132 173.9 53.156 172.772 53.132C171.644 53.132 170.48 53.108 169.28 53.06C169.256 52.436 169.1 51.716 168.812 50.9C168.524 50.108 168.164 49.412 167.732 48.812C168.98 48.932 170.18 49.004 171.332 49.028C172.484 49.052 173.312 49.064 173.816 49.064C174.224 49.064 174.56 49.04 174.824 48.992C175.112 48.92 175.364 48.788 175.58 48.596C175.964 48.284 176.288 47.6 176.552 46.544C176.84 45.488 177.092 43.988 177.308 42.044C177.524 40.1 177.716 37.64 177.884 34.664V34.016ZM164.096 27.644H168.92C168.824 29.564 168.668 31.508 168.452 33.476C168.26 35.42 167.924 37.352 167.444 39.272C166.964 41.168 166.268 42.98 165.356 44.708C164.444 46.436 163.244 48.044 161.756 49.532C160.268 51.02 158.384 52.34 156.104 53.492C155.792 52.892 155.336 52.244 154.736 51.548C154.16 50.852 153.596 50.276 153.044 49.82C155.132 48.86 156.836 47.744 158.156 46.472C159.5 45.176 160.556 43.784 161.324 42.296C162.092 40.784 162.656 39.212 163.016 37.58C163.4 35.948 163.652 34.292 163.772 32.612C163.916 30.932 164.024 29.276 164.096 27.644ZM167.552 19.256H172.052V26.816H167.552V19.256ZM207.656 30.164H214.928V33.44H207.656V30.164ZM204.956 40.676H216.692V43.592H204.956V40.676ZM192.68 20.66H202.58V24.044H192.68V20.66ZM201.464 20.66H202.184L202.868 20.516L205.532 21.812C204.668 23.924 203.492 25.796 202.004 27.428C200.516 29.036 198.836 30.428 196.964 31.604C195.092 32.756 193.136 33.716 191.096 34.484C190.832 34.004 190.472 33.452 190.016 32.828C189.56 32.18 189.152 31.676 188.792 31.316C190.136 30.908 191.456 30.38 192.752 29.732C194.072 29.06 195.296 28.292 196.424 27.428C197.552 26.564 198.548 25.616 199.412 24.584C200.276 23.552 200.96 22.46 201.464 21.308V20.66ZM209.096 19.4C209.912 21.176 210.992 22.808 212.336 24.296C213.704 25.76 215.288 27.032 217.088 28.112C218.912 29.192 220.94 30.02 223.172 30.596C222.716 31.004 222.236 31.544 221.732 32.216C221.252 32.864 220.868 33.452 220.58 33.98C218.228 33.236 216.104 32.216 214.208 30.92C212.336 29.624 210.68 28.1 209.24 26.348C207.824 24.572 206.624 22.592 205.64 20.408L209.096 19.4ZM214.496 19.652L217.628 21.812C216.764 22.556 215.876 23.288 214.964 24.008C214.076 24.704 213.26 25.304 212.516 25.808L210.032 23.864C210.512 23.504 211.028 23.084 211.58 22.604C212.132 22.1 212.66 21.596 213.164 21.092C213.692 20.564 214.136 20.084 214.496 19.652ZM219.14 23.252L222.272 25.412C221.432 26.156 220.544 26.888 219.608 27.608C218.672 28.304 217.82 28.904 217.052 29.408L214.496 27.464C215 27.104 215.528 26.684 216.08 26.204C216.656 25.7 217.22 25.196 217.772 24.692C218.324 24.164 218.78 23.684 219.14 23.252ZM193.616 30.38H203.408V39.812H199.592V33.656H193.616V30.38ZM192.932 36.176H196.496C196.304 37.208 196.1 38.312 195.884 39.488C195.668 40.64 195.44 41.756 195.2 42.836C194.984 43.892 194.756 44.84 194.516 45.68L191.024 45.14C191.264 44.348 191.492 43.448 191.708 42.44C191.948 41.408 192.164 40.352 192.356 39.272C192.572 38.168 192.764 37.136 192.932 36.176ZM199.592 41.684H203.48C203.48 41.684 203.468 41.876 203.444 42.26C203.444 42.644 203.42 42.956 203.372 43.196C203.252 44.924 203.108 46.376 202.94 47.552C202.796 48.704 202.616 49.616 202.4 50.288C202.184 50.96 201.908 51.464 201.572 51.8C201.188 52.232 200.768 52.52 200.312 52.664C199.856 52.832 199.316 52.952 198.692 53.024C198.188 53.072 197.504 53.096 196.64 53.096C195.776 53.12 194.852 53.108 193.868 53.06C193.82 52.484 193.688 51.86 193.472 51.188C193.256 50.516 192.98 49.928 192.644 49.424C193.532 49.496 194.384 49.544 195.2 49.568C196.016 49.592 196.616 49.604 197 49.604C197.312 49.604 197.576 49.592 197.792 49.568C198.008 49.52 198.2 49.424 198.368 49.28C198.56 49.112 198.728 48.764 198.872 48.236C199.016 47.708 199.148 46.952 199.268 45.968C199.388 44.984 199.496 43.724 199.592 42.188V41.684ZM206.036 30.164H209.636V32.828C209.636 33.692 209.528 34.604 209.312 35.564C209.096 36.5 208.7 37.4 208.124 38.264C207.572 39.128 206.744 39.896 205.64 40.568C205.472 40.328 205.22 40.028 204.884 39.668C204.548 39.308 204.2 38.96 203.84 38.624C203.48 38.288 203.18 38.048 202.94 37.904C203.852 37.376 204.524 36.824 204.956 36.248C205.388 35.672 205.676 35.084 205.82 34.484C205.964 33.884 206.036 33.296 206.036 32.72V30.164ZM215.828 40.676H216.584L217.268 40.568L219.608 41.396C218.864 43.724 217.772 45.668 216.332 47.228C214.916 48.788 213.224 50.048 211.256 51.008C209.288 51.968 207.092 52.712 204.668 53.24C204.476 52.784 204.212 52.244 203.876 51.62C203.54 50.996 203.192 50.492 202.832 50.108C204.944 49.772 206.864 49.232 208.592 48.488C210.344 47.72 211.844 46.736 213.092 45.536C214.34 44.336 215.252 42.872 215.828 41.144V40.676ZM209.312 43.304C210.368 45.032 211.964 46.448 214.1 47.552C216.26 48.632 218.816 49.364 221.768 49.748C221.336 50.156 220.88 50.708 220.4 51.404C219.92 52.1 219.548 52.712 219.284 53.24C216.14 52.616 213.464 51.548 211.256 50.036C209.048 48.524 207.32 46.58 206.072 44.204L209.312 43.304ZM194.732 36.176H200.924V39.38H194.156L194.732 36.176ZM193.76 41.684H200.672V44.816H193.112L193.76 41.684ZM212.84 30.164H216.476V35.6C216.476 35.816 216.476 36.008 216.476 36.176C216.5 36.32 216.536 36.416 216.584 36.464C216.656 36.56 216.788 36.608 216.98 36.608C217.052 36.608 217.148 36.608 217.268 36.608C217.388 36.608 217.496 36.608 217.592 36.608C217.664 36.608 217.748 36.608 217.844 36.608C217.94 36.608 218.012 36.596 218.06 36.572C218.108 36.524 218.168 36.476 218.24 36.428C218.312 36.356 218.36 36.248 218.384 36.104C218.432 35.984 218.456 35.78 218.456 35.492C218.48 35.204 218.504 34.868 218.528 34.484C218.864 34.772 219.32 35.072 219.896 35.384C220.496 35.672 221.048 35.9 221.552 36.068C221.48 36.524 221.408 36.98 221.336 37.436C221.264 37.868 221.156 38.192 221.012 38.408C220.868 38.624 220.688 38.816 220.472 38.984C220.256 39.152 219.992 39.296 219.68 39.416C219.464 39.488 219.176 39.548 218.816 39.596C218.48 39.644 218.18 39.668 217.916 39.668C217.652 39.668 217.34 39.668 216.98 39.668C216.644 39.668 216.344 39.668 216.08 39.668C215.672 39.668 215.24 39.608 214.784 39.488C214.352 39.344 213.992 39.14 213.704 38.876C213.416 38.564 213.2 38.192 213.056 37.76C212.912 37.304 212.84 36.56 212.84 35.528V30.164ZM191.492 26.348L193.94 24.08C194.66 24.44 195.44 24.884 196.28 25.412C197.144 25.916 197.816 26.384 198.296 26.816L195.704 29.336C195.272 28.88 194.648 28.376 193.832 27.824C193.016 27.272 192.236 26.78 191.492 26.348ZM239.912 31.748H244.52V48.2C244.52 49.424 244.34 50.36 243.98 51.008C243.62 51.68 242.996 52.184 242.108 52.52C241.22 52.832 240.128 53.024 238.832 53.096C237.536 53.192 236.024 53.24 234.296 53.24C234.152 52.592 233.9 51.836 233.54 50.972C233.204 50.132 232.868 49.412 232.532 48.812C233.372 48.86 234.224 48.896 235.088 48.92C235.976 48.944 236.756 48.956 237.428 48.956C238.124 48.932 238.604 48.92 238.868 48.92C239.276 48.92 239.552 48.872 239.696 48.776C239.84 48.656 239.912 48.428 239.912 48.092V31.748ZM227.636 21.92H252.764V26.204H227.636V21.92ZM251.144 21.92H252.332L253.34 21.668L256.76 24.152C255.68 25.472 254.456 26.828 253.088 28.22C251.72 29.612 250.28 30.944 248.768 32.216C247.28 33.464 245.804 34.544 244.34 35.456C244.124 35.144 243.836 34.808 243.476 34.448C243.116 34.064 242.744 33.692 242.36 33.332C242 32.948 241.664 32.636 241.352 32.396C242.288 31.796 243.236 31.1 244.196 30.308C245.18 29.516 246.116 28.688 247.004 27.824C247.892 26.96 248.696 26.108 249.416 25.268C250.136 24.428 250.712 23.672 251.144 23V21.92ZM261.368 33.62H294.704V38.336H261.368V33.62ZM316.628 23.792H320.84V44.168H316.628V23.792ZM325.124 20.156H329.408V47.984C329.408 49.256 329.264 50.228 328.976 50.9C328.688 51.572 328.172 52.088 327.428 52.448C326.684 52.784 325.712 53 324.512 53.096C323.312 53.216 321.884 53.276 320.228 53.276C320.156 52.844 320.036 52.352 319.868 51.8C319.724 51.272 319.544 50.732 319.328 50.18C319.136 49.652 318.932 49.196 318.716 48.812C319.892 48.836 320.996 48.86 322.028 48.884C323.084 48.884 323.804 48.884 324.188 48.884C324.524 48.884 324.764 48.824 324.908 48.704C325.052 48.56 325.124 48.32 325.124 47.984V20.156ZM301.472 44.492L305.72 45.68C305.096 47.12 304.304 48.524 303.344 49.892C302.384 51.26 301.412 52.4 300.428 53.312C300.164 53.048 299.816 52.748 299.384 52.412C298.952 52.1 298.496 51.788 298.016 51.476C297.56 51.164 297.164 50.924 296.828 50.756C297.764 49.964 298.652 49.016 299.492 47.912C300.332 46.784 300.992 45.644 301.472 44.492ZM307.34 46.076L311.12 44.528C311.936 45.488 312.716 46.544 313.46 47.696C314.204 48.848 314.768 49.88 315.152 50.792L311.192 52.664C310.976 52.04 310.664 51.344 310.256 50.576C309.848 49.832 309.392 49.064 308.888 48.272C308.384 47.48 307.868 46.748 307.34 46.076ZM303.2 30.992V33.98H309.608V30.992H303.2ZM303.2 37.364V40.352H309.608V37.364H303.2ZM303.2 24.656V27.572H309.608V24.656H303.2ZM299.132 20.804H313.892V44.204H299.132V20.804ZM337.652 21.596H363.248V41.396H358.676V25.736H342.008V41.576H337.652V21.596ZM339.74 36.212H360.368V40.352H339.74V36.212ZM352.376 44.852L356.012 42.512C357.116 43.28 358.304 44.144 359.576 45.104C360.848 46.064 362.06 47.036 363.212 48.02C364.364 48.98 365.312 49.868 366.056 50.684L362.096 53.348C361.424 52.58 360.536 51.692 359.432 50.684C358.328 49.7 357.152 48.692 355.904 47.66C354.68 46.628 353.504 45.692 352.376 44.852ZM343.484 42.548L348.164 44.42C347.18 45.5 346.076 46.592 344.852 47.696C343.652 48.776 342.392 49.796 341.072 50.756C339.752 51.716 338.468 52.556 337.22 53.276C336.908 52.964 336.536 52.604 336.104 52.196C335.672 51.812 335.228 51.44 334.772 51.08C334.34 50.72 333.944 50.42 333.584 50.18C334.832 49.556 336.08 48.812 337.328 47.948C338.6 47.084 339.776 46.184 340.856 45.248C341.936 44.288 342.812 43.388 343.484 42.548ZM369.98 23.756H402.092V27.824H369.98V23.756ZM379.7 36.752H395.324V40.352H379.7V36.752ZM376.496 30.668H394.676V34.448H380.744V53.204H376.496V30.668ZM393.812 30.668H398.06V48.56C398.06 49.616 397.928 50.456 397.664 51.08C397.424 51.704 396.932 52.184 396.188 52.52C395.468 52.856 394.58 53.06 393.524 53.132C392.468 53.204 391.208 53.24 389.744 53.24C389.672 52.64 389.504 51.932 389.24 51.116C389 50.324 388.736 49.64 388.448 49.064C389.072 49.088 389.696 49.112 390.32 49.136C390.944 49.16 391.496 49.172 391.976 49.172C392.48 49.172 392.828 49.172 393.02 49.172C393.332 49.148 393.536 49.088 393.632 48.992C393.752 48.896 393.812 48.728 393.812 48.488V30.668ZM381.14 19.4L385.604 20.408C384.764 23.096 383.708 25.772 382.436 28.436C381.188 31.076 379.676 33.536 377.9 35.816C376.148 38.096 374.096 40.052 371.744 41.684C371.528 41.372 371.24 41.012 370.88 40.604C370.544 40.172 370.196 39.764 369.836 39.38C369.5 38.972 369.188 38.636 368.9 38.372C370.484 37.316 371.924 36.068 373.22 34.628C374.54 33.188 375.704 31.628 376.712 29.948C377.744 28.244 378.62 26.504 379.34 24.728C380.084 22.928 380.684 21.152 381.14 19.4ZM379.7 42.692H395.324V46.292H379.7V42.692ZM420.236 19.544L424.484 20.516C423.98 22.388 423.368 24.248 422.648 26.096C421.928 27.92 421.136 29.636 420.272 31.244C419.432 32.828 418.532 34.22 417.572 35.42C417.308 35.156 416.96 34.844 416.528 34.484C416.12 34.124 415.688 33.776 415.232 33.44C414.8 33.08 414.416 32.792 414.08 32.576C415.016 31.544 415.868 30.332 416.636 28.94C417.404 27.548 418.088 26.048 418.688 24.44C419.312 22.832 419.828 21.2 420.236 19.544ZM419.228 35.528L423.44 36.392C423.104 37.928 422.672 39.44 422.144 40.928C421.64 42.392 421.076 43.784 420.452 45.104C419.828 46.4 419.18 47.54 418.508 48.524C418.244 48.284 417.884 48.02 417.428 47.732C416.972 47.42 416.504 47.132 416.024 46.868C415.568 46.58 415.172 46.352 414.836 46.184C415.868 44.912 416.756 43.316 417.5 41.396C418.244 39.476 418.82 37.52 419.228 35.528ZM421.028 25.88H435.824V29.876H419.444L421.028 25.88ZM425.168 27.644H429.452V48.416C429.452 49.424 429.344 50.252 429.128 50.9C428.912 51.548 428.468 52.052 427.796 52.412C427.172 52.748 426.416 52.976 425.528 53.096C424.664 53.216 423.644 53.276 422.468 53.276C422.396 52.628 422.204 51.884 421.892 51.044C421.604 50.204 421.304 49.496 420.992 48.92C421.76 48.944 422.48 48.956 423.152 48.956C423.848 48.956 424.316 48.956 424.556 48.956C424.772 48.956 424.928 48.92 425.024 48.848C425.12 48.752 425.168 48.584 425.168 48.344V27.644ZM430.748 36.464L434.6 35.168C435.248 36.416 435.836 37.748 436.364 39.164C436.892 40.556 437.348 41.936 437.732 43.304C438.116 44.648 438.392 45.86 438.56 46.94L434.42 48.38C434.276 47.324 434.024 46.1 433.664 44.708C433.328 43.316 432.908 41.912 432.404 40.496C431.9 39.056 431.348 37.712 430.748 36.464ZM434.636 25.88H435.212L435.896 25.736L438.956 26.312C438.74 27.776 438.488 29.288 438.2 30.848C437.912 32.384 437.636 33.692 437.372 34.772L433.7 34.088C433.796 33.44 433.904 32.684 434.024 31.82C434.144 30.956 434.264 30.056 434.384 29.12C434.504 28.16 434.588 27.26 434.636 26.42V25.88ZM412.532 19.544L416.6 20.84C415.832 22.856 414.92 24.896 413.864 26.96C412.808 29 411.668 30.944 410.444 32.792C409.22 34.616 407.948 36.212 406.628 37.58C406.508 37.22 406.304 36.764 406.016 36.212C405.752 35.636 405.464 35.06 405.152 34.484C404.84 33.908 404.564 33.44 404.324 33.08C405.404 31.976 406.448 30.704 407.456 29.264C408.488 27.824 409.436 26.276 410.3 24.62C411.188 22.964 411.932 21.272 412.532 19.544ZM409.076 29.516L413.18 25.412V25.448V53.168H409.076V29.516ZM456.2 19.364L460.808 19.328L460.988 47.84C461.012 49.136 460.856 50.12 460.52 50.792C460.208 51.488 459.644 52.028 458.828 52.412C458.036 52.772 457.004 53 455.732 53.096C454.484 53.192 452.984 53.252 451.232 53.276C451.16 52.844 451.028 52.352 450.836 51.8C450.644 51.272 450.44 50.732 450.224 50.18C450.008 49.652 449.792 49.184 449.576 48.776C450.368 48.8 451.16 48.824 451.952 48.848C452.744 48.848 453.44 48.848 454.04 48.848C454.664 48.848 455.108 48.848 455.372 48.848C455.78 48.824 456.056 48.752 456.2 48.632C456.344 48.488 456.416 48.224 456.416 47.84L456.2 19.364ZM442.196 25.844H473.912V30.092H442.196V25.844ZM466.784 30.884L471.068 33.548C469.364 35.06 467.456 36.512 465.344 37.904C463.232 39.272 460.976 40.556 458.576 41.756C456.176 42.932 453.68 44 451.088 44.96C448.52 45.92 445.916 46.736 443.276 47.408C443.108 47.024 442.88 46.58 442.592 46.076C442.328 45.572 442.04 45.08 441.728 44.6C441.44 44.12 441.164 43.712 440.9 43.376C443.444 42.8 445.976 42.068 448.496 41.18C451.016 40.292 453.428 39.308 455.732 38.228C458.036 37.124 460.136 35.96 462.032 34.736C463.928 33.488 465.512 32.204 466.784 30.884ZM53.144 89.348H74.636V107.312H70.316V92.588H57.248V107.312H53.144V89.348ZM45.944 84.416H78.056V87.836H45.944V84.416ZM48.464 79.628H76.076V82.868H48.464V79.628ZM55.916 94.136H72.044V96.836H55.916V94.136ZM55.916 98.42H72.044V101.12H55.916V98.42ZM55.448 102.74H72.08V106.016H55.448V102.74ZM73.448 73.544L75.932 76.604C74.084 76.916 72.056 77.18 69.848 77.396C67.664 77.588 65.384 77.756 63.008 77.9C60.632 78.02 58.244 78.104 55.844 78.152C53.444 78.2 51.128 78.212 48.896 78.188C48.872 77.732 48.776 77.192 48.608 76.568C48.44 75.944 48.26 75.416 48.068 74.984C50.276 74.984 52.544 74.96 54.872 74.912C57.224 74.84 59.528 74.744 61.784 74.624C64.04 74.504 66.164 74.36 68.156 74.192C70.148 74 71.912 73.784 73.448 73.544ZM58.112 76.532L62.576 77.432C61.76 80.408 60.704 83.3 59.408 86.108C58.136 88.916 56.528 91.496 54.584 93.848C52.64 96.176 50.288 98.144 47.528 99.752C47.312 99.416 47.048 99.032 46.736 98.6C46.424 98.168 46.1 97.748 45.764 97.34C45.428 96.932 45.116 96.596 44.828 96.332C47.372 94.94 49.52 93.2 51.272 91.112C53.048 89 54.488 86.684 55.592 84.164C56.696 81.644 57.536 79.1 58.112 76.532ZM98.72 82.148V83.948H108.152V82.148H98.72ZM98.72 77.504V79.268H108.152V77.504H98.72ZM94.58 74.444H112.508V87.008H94.58V74.444ZM92.744 88.592H113.66V92.12H92.744V88.592ZM91.844 94.136H114.416V97.808H91.844V94.136ZM105.092 91.688H109.448V102.956C109.448 103.94 109.328 104.708 109.088 105.26C108.872 105.836 108.416 106.268 107.72 106.556C107.048 106.868 106.244 107.048 105.308 107.096C104.396 107.168 103.328 107.204 102.104 107.204C102.032 106.628 101.864 105.98 101.6 105.26C101.336 104.54 101.06 103.904 100.772 103.352C101.516 103.376 102.248 103.4 102.968 103.424C103.712 103.424 104.204 103.424 104.444 103.424C104.708 103.4 104.876 103.352 104.948 103.28C105.044 103.184 105.092 103.04 105.092 102.848V91.688ZM94.22 99.608L97.244 97.592C98.012 98.288 98.816 99.08 99.656 99.968C100.496 100.856 101.144 101.648 101.6 102.344L98.396 104.612C98.132 104.156 97.76 103.64 97.28 103.064C96.824 102.488 96.32 101.9 95.768 101.3C95.24 100.676 94.724 100.112 94.22 99.608ZM89.288 81.356L93.068 82.94C92.204 84.428 91.184 85.916 90.008 87.404C88.832 88.892 87.596 90.308 86.3 91.652C85.004 92.972 83.732 94.124 82.484 95.108C82.364 94.772 82.184 94.328 81.944 93.776C81.728 93.2 81.476 92.624 81.188 92.048C80.924 91.472 80.672 91.016 80.432 90.68C81.512 89.912 82.592 89.036 83.672 88.052C84.752 87.044 85.784 85.976 86.768 84.848C87.752 83.696 88.592 82.532 89.288 81.356ZM88.352 73.472L92.456 75.128C91.664 76.232 90.74 77.348 89.684 78.476C88.652 79.58 87.56 80.624 86.408 81.608C85.256 82.592 84.104 83.456 82.952 84.2C82.808 83.864 82.604 83.468 82.34 83.012C82.1 82.556 81.836 82.1 81.548 81.644C81.284 81.188 81.044 80.816 80.828 80.528C81.764 79.952 82.712 79.268 83.672 78.476C84.632 77.684 85.52 76.856 86.336 75.992C87.176 75.104 87.848 74.264 88.352 73.472ZM85.724 89.42L89.72 85.424L89.936 85.496V107.204H85.724V89.42ZM129.824 98.996H149.66V101.876H129.824V98.996ZM127.988 103.28H151.208V106.34H127.988V103.28ZM137.6 81.932H141.524V105.44H137.6V81.932ZM128.528 75.704H150.74V78.62H128.528V75.704ZM128.24 84.488H150.992V87.368H128.24V84.488ZM132.992 73.4H136.7V80.276H132.992V73.4ZM142.28 73.4H146.024V80.132H142.28V73.4ZM134.036 94.172V95.54H145.196V94.172H134.036ZM134.036 90.716V92.048H145.196V90.716H134.036ZM130.22 88.484H149.192V97.772H130.22V88.484ZM148.04 79.916L149.804 82.616C148.508 82.784 147.08 82.928 145.52 83.048C143.984 83.144 142.388 83.24 140.732 83.336C139.076 83.408 137.408 83.468 135.728 83.516C134.072 83.54 132.464 83.552 130.904 83.552C130.856 83.168 130.76 82.724 130.616 82.22C130.472 81.716 130.316 81.296 130.148 80.96C131.684 80.912 133.268 80.864 134.9 80.816C136.556 80.744 138.176 80.672 139.76 80.6C141.344 80.504 142.844 80.408 144.26 80.312C145.676 80.192 146.936 80.06 148.04 79.916ZM121.688 73.4H125.792V107.204H121.688V73.4ZM118.34 80.528L121.508 80.96C121.484 81.968 121.388 83.084 121.22 84.308C121.076 85.532 120.896 86.744 120.68 87.944C120.488 89.144 120.26 90.2 119.996 91.112L116.684 89.996C116.972 89.156 117.224 88.196 117.44 87.116C117.656 86.036 117.836 84.92 117.98 83.768C118.148 82.592 118.268 81.512 118.34 80.528ZM125.396 79.808L128.168 78.836C128.504 79.652 128.828 80.54 129.14 81.5C129.476 82.46 129.728 83.264 129.896 83.912L126.944 85.1C126.8 84.404 126.584 83.564 126.296 82.58C126.008 81.572 125.708 80.648 125.396 79.808ZM157.148 79.268H168.2V103.496H157.148V99.716H164.312V83.012H157.148V79.268ZM154.628 79.268H158.552V106.16H154.628V79.268ZM157.004 88.88H166.184V92.624H157.004V88.88ZM159.776 73.4L164.456 74.084C164.072 75.308 163.652 76.52 163.196 77.72C162.764 78.92 162.368 79.94 162.008 80.78L158.552 79.988C158.72 79.364 158.876 78.668 159.02 77.9C159.188 77.132 159.344 76.352 159.488 75.56C159.632 74.768 159.728 74.048 159.776 73.4ZM172.952 78.98H183.5V82.94H172.952V78.98ZM181.988 78.98H185.984C185.984 78.98 185.984 79.112 185.984 79.376C185.984 79.616 185.984 79.892 185.984 80.204C185.984 80.516 185.972 80.756 185.948 80.924C185.852 84.98 185.732 88.424 185.588 91.256C185.468 94.064 185.312 96.392 185.12 98.24C184.952 100.064 184.748 101.492 184.508 102.524C184.268 103.556 183.956 104.312 183.572 104.792C183.092 105.488 182.576 105.968 182.024 106.232C181.472 106.496 180.836 106.688 180.116 106.808C179.42 106.904 178.556 106.94 177.524 106.916C176.516 106.916 175.484 106.904 174.428 106.88C174.404 106.28 174.26 105.572 173.996 104.756C173.732 103.964 173.408 103.268 173.024 102.668C174.176 102.764 175.244 102.824 176.228 102.848C177.236 102.872 177.968 102.884 178.424 102.884C178.784 102.884 179.072 102.848 179.288 102.776C179.528 102.68 179.756 102.512 179.972 102.272C180.284 101.96 180.536 101.324 180.728 100.364C180.944 99.38 181.124 98 181.268 96.224C181.412 94.448 181.544 92.204 181.664 89.492C181.784 86.78 181.892 83.552 181.988 79.808V78.98ZM173.06 73.436L177.236 74.408C176.78 76.16 176.216 77.912 175.544 79.664C174.896 81.416 174.176 83.072 173.384 84.632C172.616 86.168 171.824 87.512 171.008 88.664C170.768 88.424 170.42 88.148 169.964 87.836C169.532 87.5 169.088 87.176 168.632 86.864C168.2 86.552 167.816 86.312 167.48 86.144C168.272 85.112 169.016 83.924 169.712 82.58C170.432 81.212 171.068 79.748 171.62 78.188C172.196 76.604 172.676 75.02 173.06 73.436ZM171.296 89.384L174.68 87.476C175.28 88.292 175.916 89.192 176.588 90.176C177.26 91.16 177.896 92.12 178.496 93.056C179.096 93.992 179.588 94.82 179.972 95.54L176.3 97.772C175.964 97.028 175.508 96.176 174.932 95.216C174.38 94.256 173.78 93.272 173.132 92.264C172.508 91.232 171.896 90.272 171.296 89.384ZM206.216 81.608H218.6V85.136H206.216V81.608ZM200.024 102.488C201.104 102.32 202.352 102.116 203.768 101.876C205.208 101.636 206.732 101.384 208.34 101.12C209.948 100.832 211.544 100.544 213.128 100.256L213.488 104C211.4 104.48 209.3 104.948 207.188 105.404C205.076 105.884 203.156 106.304 201.428 106.664L200.024 102.488ZM203.768 75.02H207.944V103.46H203.768V75.02ZM206.216 75.02H220.58V91.868H206.216V88.16H216.296V78.728H206.216V75.02ZM213.704 89.384C214.16 91.544 214.784 93.548 215.576 95.396C216.368 97.22 217.376 98.828 218.6 100.22C219.824 101.612 221.324 102.692 223.1 103.46C222.788 103.748 222.452 104.096 222.092 104.504C221.732 104.936 221.384 105.38 221.048 105.836C220.736 106.316 220.484 106.748 220.292 107.132C218.348 106.1 216.716 104.756 215.396 103.1C214.1 101.42 213.032 99.476 212.192 97.268C211.352 95.06 210.668 92.636 210.14 89.996L213.704 89.384ZM218.924 92.12L222.308 94.46C221.324 95.42 220.28 96.368 219.176 97.304C218.096 98.216 217.1 98.996 216.188 99.644L213.524 97.592C214.1 97.112 214.712 96.56 215.36 95.936C216.032 95.312 216.68 94.664 217.304 93.992C217.928 93.32 218.468 92.696 218.924 92.12ZM190.664 74.948H199.628V78.836H194.696V107.24H190.664V74.948ZM198.44 74.948H199.196L199.808 74.804L202.76 76.496C202.424 77.552 202.064 78.668 201.68 79.844C201.296 81.02 200.912 82.184 200.528 83.336C200.144 84.488 199.76 85.532 199.376 86.468C200.552 87.86 201.308 89.18 201.644 90.428C202.004 91.652 202.184 92.792 202.184 93.848C202.184 95.048 202.052 96.032 201.788 96.8C201.524 97.568 201.092 98.168 200.492 98.6C200.204 98.816 199.868 98.984 199.484 99.104C199.124 99.224 198.752 99.32 198.368 99.392C198.032 99.44 197.636 99.464 197.18 99.464C196.748 99.464 196.304 99.464 195.848 99.464C195.824 98.912 195.728 98.264 195.56 97.52C195.416 96.776 195.2 96.14 194.912 95.612C195.248 95.636 195.548 95.648 195.812 95.648C196.1 95.648 196.352 95.648 196.568 95.648C196.76 95.648 196.94 95.624 197.108 95.576C197.3 95.504 197.48 95.42 197.648 95.324C197.864 95.156 198.02 94.904 198.116 94.568C198.236 94.208 198.284 93.776 198.26 93.272C198.26 92.432 198.08 91.472 197.72 90.392C197.384 89.288 196.676 88.136 195.596 86.936C195.86 86.12 196.124 85.22 196.388 84.236C196.676 83.252 196.94 82.268 197.18 81.284C197.444 80.276 197.684 79.34 197.9 78.476C198.14 77.588 198.32 76.856 198.44 76.28V74.948ZM226.088 96.692H242.9V99.752H226.088V96.692ZM225.296 79.556H243.296V82.688H225.296V79.556ZM232.424 77.036H236.348V102.848H232.424V77.036ZM225.08 102.416C226.592 102.32 228.32 102.2 230.264 102.056C232.208 101.912 234.26 101.756 236.42 101.588C238.604 101.396 240.776 101.204 242.936 101.012L242.972 104.288C240.932 104.504 238.868 104.72 236.78 104.936C234.716 105.152 232.724 105.344 230.804 105.512C228.908 105.704 227.168 105.884 225.584 106.052L225.08 102.416ZM229.652 90.968V92.588H239.156V90.968H229.652ZM229.652 86.792V88.412H239.156V86.792H229.652ZM226.232 84.092H242.72V95.288H226.232V84.092ZM240.992 73.616L242.864 76.82C241.352 77.132 239.648 77.408 237.752 77.648C235.88 77.864 233.96 78.044 231.992 78.188C230.024 78.308 228.14 78.392 226.34 78.44C226.268 77.984 226.136 77.468 225.944 76.892C225.776 76.292 225.584 75.776 225.368 75.344C226.712 75.272 228.092 75.188 229.508 75.092C230.924 74.972 232.316 74.84 233.684 74.696C235.076 74.552 236.384 74.396 237.608 74.228C238.856 74.036 239.984 73.832 240.992 73.616ZM243.26 81.572H255.752V85.532H243.26V81.572ZM253.988 81.572H258.128C258.128 81.572 258.128 81.692 258.128 81.932C258.128 82.172 258.128 82.448 258.128 82.76C258.128 83.048 258.128 83.288 258.128 83.48C258.032 87.176 257.936 90.32 257.84 92.912C257.744 95.48 257.636 97.604 257.516 99.284C257.42 100.94 257.264 102.236 257.048 103.172C256.856 104.108 256.616 104.78 256.328 105.188C255.92 105.788 255.488 106.208 255.032 106.448C254.6 106.712 254.084 106.904 253.484 107.024C252.932 107.12 252.26 107.168 251.468 107.168C250.676 107.192 249.848 107.192 248.984 107.168C248.96 106.568 248.828 105.872 248.588 105.08C248.372 104.288 248.096 103.604 247.76 103.028C248.528 103.1 249.236 103.148 249.884 103.172C250.532 103.196 251.024 103.208 251.36 103.208C251.648 103.208 251.888 103.16 252.08 103.064C252.272 102.968 252.452 102.812 252.62 102.596C252.812 102.308 252.98 101.756 253.124 100.94C253.268 100.1 253.388 98.912 253.484 97.376C253.604 95.816 253.7 93.812 253.772 91.364C253.868 88.916 253.94 85.952 253.988 82.472V81.572ZM246.716 74.012H250.856C250.856 77.084 250.82 80 250.748 82.76C250.7 85.52 250.544 88.124 250.28 90.572C250.04 92.996 249.62 95.252 249.02 97.34C248.444 99.404 247.628 101.288 246.572 102.992C245.516 104.696 244.16 106.196 242.504 107.492C242.288 107.132 242 106.748 241.64 106.34C241.304 105.932 240.944 105.536 240.56 105.152C240.2 104.792 239.84 104.492 239.48 104.252C240.992 103.1 242.216 101.78 243.152 100.292C244.088 98.78 244.808 97.112 245.312 95.288C245.816 93.44 246.164 91.424 246.356 89.24C246.548 87.032 246.656 84.668 246.68 82.148C246.704 79.604 246.716 76.892 246.716 74.012ZM265.976 83.804L269.54 85.136C269.084 86.456 268.472 87.74 267.704 88.988C266.96 90.236 265.964 91.268 264.716 92.084L261.404 89.852C262.508 89.156 263.444 88.268 264.212 87.188C265.004 86.108 265.592 84.98 265.976 83.804ZM270.584 83.552H274.436V89.672C274.436 90.2 274.568 90.536 274.832 90.68C275.096 90.824 275.696 90.896 276.632 90.896C276.824 90.896 277.172 90.896 277.676 90.896C278.18 90.896 278.732 90.896 279.332 90.896C279.932 90.896 280.496 90.896 281.024 90.896C281.576 90.896 281.984 90.896 282.248 90.896C282.728 90.896 283.088 90.836 283.328 90.716C283.568 90.596 283.736 90.344 283.832 89.96C283.952 89.576 284.036 89.012 284.084 88.268C284.492 88.532 285.032 88.796 285.704 89.06C286.4 89.3 287.012 89.48 287.54 89.6C287.396 90.824 287.144 91.772 286.784 92.444C286.448 93.116 285.944 93.584 285.272 93.848C284.624 94.088 283.748 94.208 282.644 94.208C282.428 94.208 282.104 94.208 281.672 94.208C281.24 94.208 280.76 94.208 280.232 94.208C279.704 94.208 279.164 94.208 278.612 94.208C278.06 94.208 277.568 94.208 277.136 94.208C276.728 94.208 276.428 94.208 276.236 94.208C274.724 94.208 273.56 94.076 272.744 93.812C271.928 93.548 271.364 93.092 271.052 92.444C270.74 91.796 270.584 90.896 270.584 89.744V83.552ZM272.024 82.004L274.04 79.484C274.76 79.748 275.516 80.06 276.308 80.42C277.124 80.78 277.892 81.164 278.612 81.572C279.332 81.956 279.932 82.34 280.412 82.724L278.252 85.46C277.82 85.076 277.244 84.68 276.524 84.272C275.828 83.84 275.084 83.42 274.292 83.012C273.524 82.604 272.768 82.268 272.024 82.004ZM285.848 86.144L288.944 84.056C289.664 84.68 290.408 85.376 291.176 86.144C291.944 86.912 292.664 87.68 293.336 88.448C294.032 89.192 294.572 89.888 294.956 90.536L291.644 92.84C291.308 92.216 290.816 91.508 290.168 90.716C289.544 89.924 288.848 89.132 288.08 88.34C287.336 87.524 286.592 86.792 285.848 86.144ZM283.436 81.248L287.108 82.868C285.38 85.196 283.256 87.26 280.736 89.06C278.24 90.836 275.516 92.36 272.564 93.632C269.612 94.904 266.564 95.948 263.42 96.764C263.252 96.452 263.024 96.08 262.736 95.648C262.448 95.216 262.148 94.784 261.836 94.352C261.548 93.896 261.272 93.536 261.008 93.272C264.152 92.6 267.152 91.724 270.008 90.644C272.864 89.54 275.444 88.208 277.748 86.648C280.076 85.088 281.972 83.288 283.436 81.248ZM275.732 94.64H280.124V104.108H275.732V94.64ZM265.4 96.332H269.648V107.24H265.4V96.332ZM286.568 96.332H290.888V107.204H286.568V96.332ZM267.56 101.876H288.836V105.872H267.56V101.876ZM275.66 73.436H280.124V78.548H275.66V73.436ZM262.484 76.1H293.552V83.696H289.124V79.916H266.732V83.696H262.484V76.1ZM312.92 93.704H328.76V107.096H324.548V97.556H316.988V107.24H312.92V93.704ZM312.2 80.672H327.968V90.032H323.828V84.344H312.2V80.672ZM316.628 75.956L320.804 76.316C320.612 77.828 320.384 79.424 320.12 81.104C319.856 82.784 319.58 84.404 319.292 85.964C319.028 87.524 318.764 88.892 318.5 90.068H314.324C314.54 89.156 314.744 88.124 314.936 86.972C315.152 85.82 315.368 84.62 315.584 83.372C315.8 82.1 315.992 80.84 316.16 79.592C316.328 78.32 316.484 77.108 316.628 75.956ZM311.624 74.444H329.768V78.116H311.624V74.444ZM310.328 88.016H331.064V91.796H310.328V88.016ZM314.54 101.984H326.96V105.836H314.54V101.984ZM298.808 84.704H309.212V87.98H298.808V84.704ZM299.024 74.552H309.248V77.792H299.024V74.552ZM298.808 89.744H309.212V93.02H298.808V89.744ZM297.08 79.52H310.508V82.94H297.08V79.52ZM300.824 94.856H309.464V105.8H300.824V102.38H305.792V98.276H300.824V94.856ZM298.7 94.856H302.336V107.204H298.7V94.856ZM338.984 108.968L337.832 106.052C339.344 105.572 340.496 104.912 341.288 104.072C342.104 103.256 342.512 102.32 342.512 101.264L342.224 97.736L344.24 100.94C343.928 101.204 343.592 101.408 343.232 101.552C342.872 101.696 342.488 101.768 342.08 101.768C341.192 101.768 340.4 101.492 339.704 100.94C339.008 100.364 338.66 99.56 338.66 98.528C338.66 97.52 339.008 96.728 339.704 96.152C340.4 95.576 341.228 95.288 342.188 95.288C343.46 95.288 344.42 95.732 345.068 96.62C345.74 97.508 346.076 98.708 346.076 100.22C346.076 102.26 345.452 104.06 344.204 105.62C342.956 107.18 341.216 108.296 338.984 108.968ZM384.236 73.544L388.484 74.516C387.98 76.388 387.368 78.248 386.648 80.096C385.928 81.92 385.136 83.636 384.272 85.244C383.432 86.828 382.532 88.22 381.572 89.42C381.308 89.156 380.96 88.844 380.528 88.484C380.12 88.124 379.688 87.776 379.232 87.44C378.8 87.08 378.416 86.792 378.08 86.576C379.016 85.544 379.868 84.332 380.636 82.94C381.404 81.548 382.088 80.048 382.688 78.44C383.312 76.832 383.828 75.2 384.236 73.544ZM383.228 89.528L387.44 90.392C387.104 91.928 386.672 93.44 386.144 94.928C385.64 96.392 385.076 97.784 384.452 99.104C383.828 100.4 383.18 101.54 382.508 102.524C382.244 102.284 381.884 102.02 381.428 101.732C380.972 101.42 380.504 101.132 380.024 100.868C379.568 100.58 379.172 100.352 378.836 100.184C379.868 98.912 380.756 97.316 381.5 95.396C382.244 93.476 382.82 91.52 383.228 89.528ZM385.028 79.88H399.824V83.876H383.444L385.028 79.88ZM389.168 81.644H393.452V102.416C393.452 103.424 393.344 104.252 393.128 104.9C392.912 105.548 392.468 106.052 391.796 106.412C391.172 106.748 390.416 106.976 389.528 107.096C388.664 107.216 387.644 107.276 386.468 107.276C386.396 106.628 386.204 105.884 385.892 105.044C385.604 104.204 385.304 103.496 384.992 102.92C385.76 102.944 386.48 102.956 387.152 102.956C387.848 102.956 388.316 102.956 388.556 102.956C388.772 102.956 388.928 102.92 389.024 102.848C389.12 102.752 389.168 102.584 389.168 102.344V81.644ZM394.748 90.464L398.6 89.168C399.248 90.416 399.836 91.748 400.364 93.164C400.892 94.556 401.348 95.936 401.732 97.304C402.116 98.648 402.392 99.86 402.56 100.94L398.42 102.38C398.276 101.324 398.024 100.1 397.664 98.708C397.328 97.316 396.908 95.912 396.404 94.496C395.9 93.056 395.348 91.712 394.748 90.464ZM398.636 79.88H399.212L399.896 79.736L402.956 80.312C402.74 81.776 402.488 83.288 402.2 84.848C401.912 86.384 401.636 87.692 401.372 88.772L397.7 88.088C397.796 87.44 397.904 86.684 398.024 85.82C398.144 84.956 398.264 84.056 398.384 83.12C398.504 82.16 398.588 81.26 398.636 80.42V79.88ZM376.532 73.544L380.6 74.84C379.832 76.856 378.92 78.896 377.864 80.96C376.808 83 375.668 84.944 374.444 86.792C373.22 88.616 371.948 90.212 370.628 91.58C370.508 91.22 370.304 90.764 370.016 90.212C369.752 89.636 369.464 89.06 369.152 88.484C368.84 87.908 368.564 87.44 368.324 87.08C369.404 85.976 370.448 84.704 371.456 83.264C372.488 81.824 373.436 80.276 374.3 78.62C375.188 76.964 375.932 75.272 376.532 73.544ZM373.076 83.516L377.18 79.412V79.448V107.168H373.076V83.516ZM413.072 86.54V91.076H430.856V86.54H413.072ZM409.472 83.84H434.672V93.704H409.472V83.84ZM415.628 79.772H428.372V82.58H415.628V79.772ZM420.056 84.74H423.548V92.336H420.056V84.74ZM421.784 76.748C420.728 77.78 419.408 78.824 417.824 79.88C416.24 80.936 414.524 81.92 412.676 82.832C410.828 83.72 408.956 84.5 407.06 85.172C406.82 84.692 406.484 84.116 406.052 83.444C405.62 82.772 405.2 82.22 404.792 81.788C406.784 81.188 408.716 80.444 410.588 79.556C412.484 78.668 414.212 77.684 415.772 76.604C417.332 75.524 418.604 74.456 419.588 73.4H423.656C425.048 74.672 426.584 75.836 428.264 76.892C429.968 77.948 431.744 78.86 433.592 79.628C435.464 80.372 437.324 80.984 439.172 81.464C438.716 81.944 438.272 82.52 437.84 83.192C437.408 83.864 437.024 84.476 436.688 85.028C435.416 84.596 434.096 84.08 432.728 83.48C431.36 82.88 430.004 82.22 428.66 81.5C427.316 80.756 426.056 79.988 424.88 79.196C423.704 78.38 422.672 77.564 421.784 76.748ZM414.332 87.296L417.284 86.504C417.62 87.104 417.92 87.764 418.184 88.484C418.448 89.204 418.628 89.828 418.724 90.356L415.592 91.292C415.52 90.764 415.364 90.128 415.124 89.384C414.884 88.616 414.62 87.92 414.332 87.296ZM426.212 86.36L429.812 87.224C429.404 87.992 429.02 88.736 428.66 89.456C428.324 90.176 428 90.788 427.688 91.292L424.772 90.464C425.012 89.888 425.276 89.204 425.564 88.412C425.876 87.62 426.092 86.936 426.212 86.36ZM411.452 94.892H432.764V107.096H428.3V97.7H415.7V107.24H411.452V94.892ZM413.864 99.14H430.136V101.948H413.864V99.14ZM413.9 103.46H430.136V106.268H413.9V103.46ZM450.692 96.008H454.976V101.66C454.976 102.188 455.096 102.524 455.336 102.668C455.576 102.788 456.104 102.848 456.92 102.848C457.112 102.848 457.424 102.848 457.856 102.848C458.288 102.848 458.756 102.848 459.26 102.848C459.764 102.848 460.244 102.848 460.7 102.848C461.156 102.848 461.504 102.848 461.744 102.848C462.2 102.848 462.536 102.776 462.752 102.632C462.992 102.464 463.16 102.14 463.256 101.66C463.376 101.18 463.46 100.46 463.508 99.5C463.796 99.692 464.156 99.896 464.588 100.112C465.044 100.304 465.524 100.484 466.028 100.652C466.532 100.796 466.964 100.904 467.324 100.976C467.18 102.512 466.916 103.688 466.532 104.504C466.172 105.32 465.644 105.884 464.948 106.196C464.252 106.532 463.316 106.7 462.14 106.7C461.924 106.7 461.624 106.7 461.24 106.7C460.856 106.7 460.424 106.7 459.944 106.7C459.488 106.7 459.02 106.7 458.54 106.7C458.06 106.7 457.628 106.7 457.244 106.7C456.86 106.7 456.584 106.7 456.416 106.7C454.88 106.7 453.692 106.544 452.852 106.232C452.036 105.92 451.472 105.404 451.16 104.684C450.848 103.964 450.692 102.968 450.692 101.696V96.008ZM454.256 94.964L457.208 92.48C457.928 92.888 458.672 93.356 459.44 93.884C460.208 94.412 460.928 94.964 461.6 95.54C462.296 96.092 462.848 96.62 463.256 97.124L460.088 99.86C459.728 99.332 459.224 98.78 458.576 98.204C457.928 97.604 457.22 97.028 456.452 96.476C455.708 95.9 454.976 95.396 454.256 94.964ZM465.272 96.8L468.944 95.036C469.784 95.876 470.6 96.8 471.392 97.808C472.208 98.816 472.928 99.824 473.552 100.832C474.176 101.84 474.644 102.8 474.956 103.712L470.96 105.584C470.696 104.768 470.264 103.844 469.664 102.812C469.088 101.78 468.416 100.736 467.648 99.68C466.904 98.624 466.112 97.664 465.272 96.8ZM445.652 95.504L449.54 96.764C449.084 98.516 448.46 100.22 447.668 101.876C446.9 103.508 445.844 104.876 444.5 105.98L440.9 103.604C442.076 102.644 443.06 101.456 443.852 100.04C444.668 98.6 445.268 97.088 445.652 95.504ZM449.108 77.288H473.588V80.996H449.108V77.288ZM456.488 82.832H471.536V86.216H456.488V82.832ZM456.524 88.268H472.508V91.796H456.524V88.268ZM454.544 78.584H458.9V93.848H454.544V78.584ZM449.576 73.292L454.148 74.444C453.476 76.34 452.66 78.164 451.7 79.916C450.74 81.644 449.684 83.24 448.532 84.704C447.38 86.168 446.168 87.44 444.896 88.52C444.656 88.232 444.308 87.884 443.852 87.476C443.396 87.068 442.928 86.672 442.448 86.288C441.992 85.904 441.584 85.592 441.224 85.352C443.096 84.008 444.764 82.268 446.228 80.132C447.692 77.996 448.808 75.716 449.576 73.292ZM489.176 96.476H494.9V99.392H489.176V96.476ZM492.272 92.336H500.372V95.252H492.272V92.336ZM490.508 77.432H510.2V80.492H490.508V77.432ZM489.5 86.144H510.812V89.348H489.5V86.144ZM491.768 81.824H509.3V84.74H491.768V81.824ZM498.068 79.196H502.208V87.656H498.068V79.196ZM498.14 92.336H502.172V103.316C502.172 104.204 502.064 104.912 501.848 105.44C501.656 105.968 501.26 106.376 500.66 106.664C500.06 106.952 499.34 107.12 498.5 107.168C497.684 107.24 496.724 107.276 495.62 107.276C495.548 106.748 495.404 106.148 495.188 105.476C494.996 104.804 494.78 104.228 494.54 103.748C495.164 103.772 495.776 103.784 496.376 103.784C496.976 103.784 497.384 103.772 497.6 103.748C497.792 103.748 497.924 103.712 497.996 103.64C498.092 103.568 498.14 103.436 498.14 103.244V92.336ZM495.764 90.464L497.924 88.124C498.836 88.34 499.808 88.628 500.84 88.988C501.872 89.324 502.868 89.696 503.828 90.104C504.812 90.488 505.628 90.86 506.276 91.22L504.044 93.848C503.444 93.488 502.664 93.104 501.704 92.696C500.768 92.264 499.772 91.856 498.716 91.472C497.684 91.064 496.7 90.728 495.764 90.464ZM492.668 74.588L495.872 73.4C496.304 73.952 496.712 74.576 497.096 75.272C497.504 75.944 497.828 76.544 498.068 77.072L494.756 78.44C494.564 77.912 494.264 77.288 493.856 76.568C493.472 75.848 493.076 75.188 492.668 74.588ZM494.144 96.476H494.756L495.368 96.368L497.78 97.34C497.132 99.524 496.148 101.408 494.828 102.992C493.508 104.576 491.996 105.8 490.292 106.664C490.052 106.28 489.704 105.8 489.248 105.224C488.792 104.672 488.384 104.228 488.024 103.892C488.96 103.484 489.836 102.932 490.652 102.236C491.492 101.54 492.212 100.748 492.812 99.86C493.412 98.948 493.856 98 494.144 97.016V96.476ZM507.536 93.2L510.704 95.576C509.624 96.344 508.532 97.112 507.428 97.88C506.324 98.648 505.316 99.284 504.404 99.788L502.172 97.916C502.748 97.508 503.36 97.04 504.008 96.512C504.68 95.96 505.328 95.396 505.952 94.82C506.576 94.244 507.104 93.704 507.536 93.2ZM504.116 73.364L507.896 74.516C507.392 75.212 506.9 75.884 506.42 76.532C505.964 77.156 505.544 77.708 505.16 78.188L502.208 77.18C502.544 76.628 502.892 75.992 503.252 75.272C503.612 74.552 503.9 73.916 504.116 73.364ZM502.1 94.532C502.676 95.78 503.42 96.968 504.332 98.096C505.268 99.2 506.336 100.184 507.536 101.048C508.76 101.912 510.056 102.608 511.424 103.136C510.992 103.496 510.524 103.988 510.02 104.612C509.516 105.236 509.12 105.812 508.832 106.34C507.416 105.62 506.108 104.708 504.908 103.604C503.708 102.5 502.64 101.24 501.704 99.824C500.792 98.384 500.024 96.872 499.4 95.288L502.1 94.532ZM477.656 80.888H489.536V84.884H477.656V80.888ZM482.048 73.4H485.936V107.204H482.048V73.4ZM481.976 83.624L484.352 84.416C484.112 85.856 483.8 87.344 483.416 88.88C483.032 90.392 482.6 91.892 482.12 93.38C481.64 94.844 481.112 96.212 480.536 97.484C479.984 98.756 479.384 99.848 478.736 100.76C478.544 100.208 478.244 99.56 477.836 98.816C477.452 98.072 477.104 97.46 476.792 96.98C477.368 96.188 477.92 95.264 478.448 94.208C478.976 93.152 479.468 92.024 479.924 90.824C480.38 89.624 480.776 88.412 481.112 87.188C481.472 85.94 481.76 84.752 481.976 83.624ZM485.756 86.216C485.948 86.456 486.248 86.888 486.656 87.512C487.088 88.112 487.544 88.772 488.024 89.492C488.504 90.188 488.936 90.848 489.32 91.472C489.728 92.072 490.004 92.492 490.148 92.732L487.916 95.828C487.7 95.324 487.424 94.712 487.088 93.992C486.752 93.272 486.38 92.528 485.972 91.76C485.588 90.992 485.216 90.272 484.856 89.6C484.52 88.928 484.22 88.376 483.956 87.944L485.756 86.216ZM527.264 94.748C527.144 93.788 527.216 92.948 527.48 92.228C527.768 91.508 528.164 90.86 528.668 90.284C529.196 89.708 529.772 89.18 530.396 88.7C531.044 88.22 531.644 87.752 532.196 87.296C532.772 86.84 533.24 86.372 533.6 85.892C533.96 85.412 534.14 84.884 534.14 84.308C534.14 83.588 533.96 82.976 533.6 82.472C533.24 81.968 532.712 81.584 532.016 81.32C531.344 81.056 530.528 80.924 529.568 80.924C528.464 80.924 527.456 81.164 526.544 81.644C525.632 82.124 524.732 82.832 523.844 83.768L520.892 81.032C522.044 79.712 523.4 78.656 524.96 77.864C526.544 77.048 528.284 76.64 530.18 76.64C531.932 76.64 533.48 76.904 534.824 77.432C536.192 77.96 537.26 78.764 538.028 79.844C538.82 80.9 539.216 82.232 539.216 83.84C539.216 84.728 539.024 85.508 538.64 86.18C538.28 86.828 537.8 87.416 537.2 87.944C536.624 88.448 536.012 88.94 535.364 89.42C534.716 89.876 534.116 90.356 533.564 90.86C533.012 91.364 532.58 91.928 532.268 92.552C531.956 93.176 531.836 93.908 531.908 94.748H527.264ZM529.604 104.324C528.692 104.324 527.936 104.024 527.336 103.424C526.736 102.824 526.436 102.068 526.436 101.156C526.436 100.22 526.736 99.452 527.336 98.852C527.936 98.252 528.692 97.952 529.604 97.952C530.516 97.952 531.272 98.252 531.872 98.852C532.472 99.452 532.772 100.22 532.772 101.156C532.772 102.068 532.472 102.824 531.872 103.424C531.272 104.024 530.516 104.324 529.604 104.324Z" fill="#864DA1"/>
</svg>
