<svg width="592" height="128" viewBox="0 0 592 128" fill="none" xmlns="http://www.w3.org/2000/svg">
<path d="M153.692 28.544H168.92V32.576H153.692V28.544ZM135.224 26.888H153.944V30.452H135.224V26.888ZM136.556 35.132H152.54V38.624H136.556V35.132ZM137.204 41H152.072V44.492H137.204V41ZM161.288 19.652H165.464V48.416C165.464 49.52 165.332 50.372 165.068 50.972C164.804 51.596 164.348 52.088 163.7 52.448C163.028 52.76 162.188 52.976 161.18 53.096C160.196 53.216 158.984 53.276 157.544 53.276C157.472 52.7 157.28 52.004 156.968 51.188C156.68 50.396 156.38 49.724 156.068 49.172C157.028 49.196 157.916 49.208 158.732 49.208C159.572 49.208 160.148 49.208 160.46 49.208C160.772 49.208 160.988 49.148 161.108 49.028C161.228 48.908 161.288 48.704 161.288 48.416V19.652ZM154.376 35.78L157.94 34.592C158.396 35.432 158.816 36.332 159.2 37.292C159.608 38.252 159.944 39.2 160.208 40.136C160.496 41.048 160.688 41.876 160.784 42.62L156.968 43.952C156.896 43.232 156.728 42.404 156.464 41.468C156.2 40.532 155.888 39.572 155.528 38.588C155.168 37.604 154.784 36.668 154.376 35.78ZM135.224 21.632L138.212 20.336C138.74 21.128 139.232 22.004 139.688 22.964C140.144 23.924 140.444 24.764 140.588 25.484L137.456 26.96C137.312 26.24 137.024 25.388 136.592 24.404C136.184 23.396 135.728 22.472 135.224 21.632ZM137.852 31.172L141.164 30.02C141.572 30.716 141.956 31.472 142.316 32.288C142.7 33.104 142.94 33.824 143.036 34.448L139.508 35.744C139.436 35.144 139.232 34.412 138.896 33.548C138.584 32.684 138.236 31.892 137.852 31.172ZM140.372 19.724H143.756V28.544H140.372V19.724ZM142.64 36.176H146.636V49.244H142.64V36.176ZM145.412 19.724H148.832V28.544H145.412V19.724ZM135.368 47.876C136.904 47.732 138.668 47.564 140.66 47.372C142.676 47.18 144.788 46.976 146.996 46.76C149.204 46.52 151.4 46.28 153.584 46.04L153.656 49.82C151.568 50.06 149.456 50.3 147.32 50.54C145.208 50.804 143.18 51.044 141.236 51.26C139.292 51.476 137.516 51.668 135.908 51.836L135.368 47.876ZM151.136 20.12L154.88 21.452C154.304 22.436 153.728 23.408 153.152 24.368C152.576 25.328 152.048 26.144 151.568 26.816L148.688 25.664C148.952 25.16 149.24 24.584 149.552 23.936C149.864 23.288 150.164 22.628 150.452 21.956C150.74 21.284 150.968 20.672 151.136 20.12ZM147.824 29.984L151.712 30.956C151.328 31.772 150.956 32.576 150.596 33.368C150.236 34.16 149.9 34.844 149.588 35.42L146.204 34.556C146.396 34.148 146.588 33.68 146.78 33.152C146.996 32.6 147.188 32.048 147.356 31.496C147.548 30.944 147.704 30.44 147.824 29.984ZM171.692 25.196H204.344V29.3H171.692V25.196ZM183.716 34.016H197.504V38.084H183.716V34.016ZM195.884 34.016H200.348C200.348 34.016 200.336 34.136 200.312 34.376C200.312 34.592 200.312 34.844 200.312 35.132C200.312 35.42 200.288 35.672 200.24 35.888C200.024 39.176 199.784 41.864 199.52 43.952C199.256 46.04 198.956 47.672 198.62 48.848C198.284 50 197.876 50.84 197.396 51.368C196.844 51.968 196.268 52.376 195.668 52.592C195.068 52.808 194.348 52.964 193.508 53.06C192.812 53.132 191.9 53.156 190.772 53.132C189.644 53.132 188.48 53.108 187.28 53.06C187.256 52.436 187.1 51.716 186.812 50.9C186.524 50.108 186.164 49.412 185.732 48.812C186.98 48.932 188.18 49.004 189.332 49.028C190.484 49.052 191.312 49.064 191.816 49.064C192.224 49.064 192.56 49.04 192.824 48.992C193.112 48.92 193.364 48.788 193.58 48.596C193.964 48.284 194.288 47.6 194.552 46.544C194.84 45.488 195.092 43.988 195.308 42.044C195.524 40.1 195.716 37.64 195.884 34.664V34.016ZM182.096 27.644H186.92C186.824 29.564 186.668 31.508 186.452 33.476C186.26 35.42 185.924 37.352 185.444 39.272C184.964 41.168 184.268 42.98 183.356 44.708C182.444 46.436 181.244 48.044 179.756 49.532C178.268 51.02 176.384 52.34 174.104 53.492C173.792 52.892 173.336 52.244 172.736 51.548C172.16 50.852 171.596 50.276 171.044 49.82C173.132 48.86 174.836 47.744 176.156 46.472C177.5 45.176 178.556 43.784 179.324 42.296C180.092 40.784 180.656 39.212 181.016 37.58C181.4 35.948 181.652 34.292 181.772 32.612C181.916 30.932 182.024 29.276 182.096 27.644ZM185.552 19.256H190.052V26.816H185.552V19.256ZM226.556 32.936V36.752H234.332V32.936H226.556ZM222.596 29.264H238.544V40.46H222.596V29.264ZM230.948 39.38H235.016V48.02C235.016 48.524 235.052 48.848 235.124 48.992C235.196 49.112 235.364 49.172 235.628 49.172C235.7 49.172 235.82 49.172 235.988 49.172C236.18 49.172 236.36 49.172 236.528 49.172C236.72 49.172 236.864 49.172 236.96 49.172C237.152 49.172 237.296 49.064 237.392 48.848C237.512 48.632 237.596 48.212 237.644 47.588C237.716 46.94 237.764 45.956 237.788 44.636C238.052 44.852 238.388 45.068 238.796 45.284C239.228 45.5 239.672 45.692 240.128 45.86C240.608 46.028 241.028 46.16 241.388 46.256C241.292 48.032 241.088 49.4 240.776 50.36C240.488 51.344 240.068 52.016 239.516 52.376C238.988 52.76 238.28 52.952 237.392 52.952C237.248 52.952 237.056 52.952 236.816 52.952C236.6 52.952 236.372 52.952 236.132 52.952C235.916 52.952 235.7 52.952 235.484 52.952C235.268 52.952 235.076 52.952 234.908 52.952C233.828 52.952 233 52.796 232.424 52.484C231.848 52.172 231.452 51.656 231.236 50.936C231.044 50.24 230.948 49.28 230.948 48.056V39.38ZM224.9 39.92H229.148C229.052 41.48 228.86 42.932 228.572 44.276C228.308 45.596 227.888 46.82 227.312 47.948C226.736 49.076 225.932 50.084 224.9 50.972C223.892 51.86 222.572 52.64 220.94 53.312C220.796 52.952 220.58 52.556 220.292 52.124C220.004 51.716 219.704 51.308 219.392 50.9C219.08 50.492 218.768 50.156 218.456 49.892C219.824 49.412 220.916 48.848 221.732 48.2C222.548 47.528 223.172 46.784 223.604 45.968C224.036 45.128 224.336 44.216 224.504 43.232C224.696 42.224 224.828 41.12 224.9 39.92ZM225.944 20.408H234.656V24.296H225.944V20.408ZM223.424 23.612L227.636 24.692C227.036 26.156 226.304 27.656 225.44 29.192C224.6 30.704 223.664 31.976 222.632 33.008C222.2 32.624 221.66 32.216 221.012 31.784C220.364 31.328 219.8 30.968 219.32 30.704C220.232 29.792 221.048 28.676 221.768 27.356C222.512 26.012 223.064 24.764 223.424 23.612ZM231.38 20.408H235.844C236.204 21.56 236.672 22.712 237.248 23.864C237.824 24.992 238.472 26.06 239.192 27.068C239.912 28.076 240.656 28.928 241.424 29.624C241.064 29.84 240.644 30.104 240.164 30.416C239.708 30.728 239.264 31.064 238.832 31.424C238.4 31.76 238.04 32.072 237.752 32.36C236.576 31.064 235.508 29.528 234.548 27.752C233.588 25.976 232.796 24.188 232.172 22.388H231.38V20.408ZM208.772 30.452H219.644V33.728H208.772V30.452ZM208.916 20.552H219.572V23.792H208.916V20.552ZM208.772 35.384H219.644V38.624H208.772V35.384ZM207.08 25.376H220.832V28.796H207.08V25.376ZM210.644 40.352H219.716V51.332H210.644V47.912H216.008V43.772H210.644V40.352ZM208.7 40.352H212.336V52.736H208.7V40.352ZM265.04 19.328H276.992V23.216H269.324V42.332H265.04V19.328ZM279.98 23.756H312.092V27.824H279.98V23.756ZM289.7 36.752H305.324V40.352H289.7V36.752ZM286.496 30.668H304.676V34.448H290.744V53.204H286.496V30.668ZM303.812 30.668H308.06V48.56C308.06 49.616 307.928 50.456 307.664 51.08C307.424 51.704 306.932 52.184 306.188 52.52C305.468 52.856 304.58 53.06 303.524 53.132C302.468 53.204 301.208 53.24 299.744 53.24C299.672 52.64 299.504 51.932 299.24 51.116C299 50.324 298.736 49.64 298.448 49.064C299.072 49.088 299.696 49.112 300.32 49.136C300.944 49.16 301.496 49.172 301.976 49.172C302.48 49.172 302.828 49.172 303.02 49.172C303.332 49.148 303.536 49.088 303.632 48.992C303.752 48.896 303.812 48.728 303.812 48.488V30.668ZM291.14 19.4L295.604 20.408C294.764 23.096 293.708 25.772 292.436 28.436C291.188 31.076 289.676 33.536 287.9 35.816C286.148 38.096 284.096 40.052 281.744 41.684C281.528 41.372 281.24 41.012 280.88 40.604C280.544 40.172 280.196 39.764 279.836 39.38C279.5 38.972 279.188 38.636 278.9 38.372C280.484 37.316 281.924 36.068 283.22 34.628C284.54 33.188 285.704 31.628 286.712 29.948C287.744 28.244 288.62 26.504 289.34 24.728C290.084 22.928 290.684 21.152 291.14 19.4ZM289.7 42.692H305.324V46.292H289.7V42.692ZM329.66 19.4H334.124V25.304H329.66V19.4ZM329.66 40.748H334.124V50.36H329.66V40.748ZM325.808 26.204H330.308C330.14 27.764 329.864 29.18 329.48 30.452C329.096 31.724 328.484 32.864 327.644 33.872C326.804 34.88 325.64 35.768 324.152 36.536C322.664 37.28 320.744 37.904 318.392 38.408C318.272 38.048 318.08 37.64 317.816 37.184C317.576 36.728 317.3 36.284 316.988 35.852C316.676 35.396 316.376 35.036 316.088 34.772C318.128 34.412 319.76 33.98 320.984 33.476C322.208 32.948 323.144 32.336 323.792 31.64C324.464 30.944 324.932 30.14 325.196 29.228C325.484 28.316 325.688 27.308 325.808 26.204ZM333.728 26.132H338.012V32.288C338.012 32.792 338.084 33.104 338.228 33.224C338.396 33.344 338.756 33.404 339.308 33.404C339.452 33.404 339.656 33.404 339.92 33.404C340.208 33.404 340.52 33.404 340.856 33.404C341.192 33.404 341.516 33.404 341.828 33.404C342.14 33.404 342.368 33.404 342.512 33.404C342.824 33.404 343.052 33.344 343.196 33.224C343.364 33.08 343.484 32.828 343.556 32.468C343.628 32.084 343.688 31.52 343.736 30.776C344.024 30.992 344.384 31.196 344.816 31.388C345.248 31.58 345.704 31.76 346.184 31.928C346.664 32.072 347.084 32.18 347.444 32.252C347.3 33.5 347.06 34.484 346.724 35.204C346.388 35.9 345.92 36.392 345.32 36.68C344.72 36.944 343.928 37.076 342.944 37.076C342.728 37.076 342.428 37.076 342.044 37.076C341.66 37.076 341.24 37.076 340.784 37.076C340.352 37.076 339.932 37.076 339.524 37.076C339.14 37.076 338.852 37.076 338.66 37.076C337.316 37.076 336.284 36.932 335.564 36.644C334.868 36.332 334.388 35.828 334.124 35.132C333.86 34.436 333.728 33.5 333.728 32.324V26.132ZM316.592 22.64H347.516V30.128H343.052V26.564H320.84V30.812H316.592V22.64ZM319.976 39.092H344.78V42.944H319.976V39.092ZM316.196 48.344H347.84V52.268H316.196V48.344ZM351.08 40.964H384.92V44.96H351.08V40.964ZM352.556 21.344H383.48V25.34H352.556V21.344ZM358.208 34.376H378.08V38.048H358.208V34.376ZM376.496 27.716H380.816V48.56C380.816 49.64 380.672 50.492 380.384 51.116C380.096 51.74 379.58 52.22 378.836 52.556C378.092 52.892 377.168 53.096 376.064 53.168C374.984 53.24 373.688 53.276 372.176 53.276C372.056 52.7 371.84 52.004 371.528 51.188C371.24 50.396 370.952 49.736 370.664 49.208C371.336 49.232 372.008 49.256 372.68 49.28C373.352 49.28 373.952 49.28 374.48 49.28C375.032 49.28 375.404 49.28 375.596 49.28C375.932 49.28 376.16 49.22 376.28 49.1C376.424 48.98 376.496 48.776 376.496 48.488V27.716ZM355.22 27.716H378.224V31.604H359.468V53.276H355.22V27.716ZM365.696 22.568H370.016V42.368H365.696V22.568ZM403.748 35.708L407.24 33.98C407.864 34.796 408.488 35.696 409.112 36.68C409.736 37.64 410.3 38.6 410.804 39.56C411.308 40.496 411.68 41.348 411.92 42.116L408.176 44.06C407.96 43.316 407.612 42.464 407.132 41.504C406.676 40.52 406.148 39.524 405.548 38.516C404.972 37.508 404.372 36.572 403.748 35.708ZM404.972 25.52H417.896V29.624H404.972V25.52ZM416.024 25.52H420.2C420.2 25.52 420.2 25.652 420.2 25.916C420.2 26.18 420.2 26.468 420.2 26.78C420.2 27.092 420.188 27.344 420.164 27.536C420.044 31.496 419.912 34.868 419.768 37.652C419.648 40.412 419.492 42.692 419.3 44.492C419.108 46.292 418.88 47.708 418.616 48.74C418.376 49.772 418.064 50.528 417.68 51.008C417.176 51.704 416.648 52.184 416.096 52.448C415.568 52.712 414.92 52.904 414.152 53.024C413.504 53.12 412.664 53.168 411.632 53.168C410.624 53.168 409.58 53.156 408.5 53.132C408.476 52.508 408.332 51.776 408.068 50.936C407.804 50.12 407.468 49.4 407.06 48.776C408.212 48.872 409.268 48.932 410.228 48.956C411.188 48.98 411.896 48.992 412.352 48.992C412.736 48.992 413.036 48.944 413.252 48.848C413.492 48.752 413.72 48.596 413.936 48.38C414.224 48.068 414.476 47.432 414.692 46.472C414.908 45.512 415.088 44.168 415.232 42.44C415.4 40.688 415.544 38.492 415.664 35.852C415.808 33.212 415.928 30.056 416.024 26.384V25.52ZM405.188 19.364L409.652 20.372C409.148 22.148 408.536 23.9 407.816 25.628C407.12 27.332 406.352 28.928 405.512 30.416C404.672 31.904 403.796 33.2 402.884 34.304C402.596 34.04 402.224 33.74 401.768 33.404C401.312 33.068 400.832 32.744 400.328 32.432C399.824 32.12 399.392 31.868 399.032 31.676C399.968 30.716 400.82 29.588 401.588 28.292C402.356 26.972 403.04 25.556 403.64 24.044C404.264 22.508 404.78 20.948 405.188 19.364ZM392.48 19.436L396.296 20.768C395.816 21.704 395.312 22.664 394.784 23.648C394.256 24.608 393.74 25.544 393.236 26.456C392.732 27.344 392.24 28.124 391.76 28.796L388.844 27.608C389.276 26.864 389.72 26.024 390.176 25.088C390.632 24.128 391.064 23.156 391.472 22.172C391.88 21.188 392.216 20.276 392.48 19.436ZM396.8 23.72L400.472 25.232C399.584 26.6 398.624 28.04 397.592 29.552C396.56 31.04 395.516 32.468 394.46 33.836C393.404 35.204 392.42 36.404 391.508 37.436L388.88 36.104C389.576 35.288 390.284 34.364 391.004 33.332C391.724 32.3 392.432 31.232 393.128 30.128C393.848 29.024 394.52 27.92 395.144 26.816C395.792 25.688 396.344 24.656 396.8 23.72ZM386.936 27.968L388.988 25.016C389.612 25.544 390.26 26.144 390.932 26.816C391.604 27.464 392.216 28.112 392.768 28.76C393.344 29.408 393.776 30.008 394.064 30.56L391.868 33.908C391.58 33.356 391.16 32.732 390.608 32.036C390.08 31.316 389.492 30.608 388.844 29.912C388.196 29.192 387.56 28.544 386.936 27.968ZM395.936 32.396L398.996 31.064C399.476 31.856 399.944 32.708 400.4 33.62C400.856 34.532 401.252 35.432 401.588 36.32C401.924 37.184 402.176 37.964 402.344 38.66L399.032 40.172C398.888 39.5 398.66 38.72 398.348 37.832C398.036 36.92 397.664 35.996 397.232 35.06C396.824 34.1 396.392 33.212 395.936 32.396ZM386.936 35.276C388.592 35.228 390.584 35.156 392.912 35.06C395.264 34.964 397.652 34.856 400.076 34.736L400.04 38.156C397.784 38.324 395.54 38.492 393.308 38.66C391.076 38.804 389.072 38.924 387.296 39.02L386.936 35.276ZM396.548 41.396L399.716 40.352C400.22 41.432 400.688 42.608 401.12 43.88C401.552 45.152 401.864 46.256 402.056 47.192L398.708 48.416C398.54 47.456 398.252 46.328 397.844 45.032C397.436 43.712 397.004 42.5 396.548 41.396ZM388.484 40.568L392.048 41.216C391.856 42.944 391.568 44.648 391.184 46.328C390.8 48.008 390.356 49.424 389.852 50.576C389.612 50.408 389.288 50.216 388.88 50C388.472 49.808 388.052 49.616 387.62 49.424C387.212 49.232 386.852 49.088 386.54 48.992C387.068 47.912 387.488 46.628 387.8 45.14C388.112 43.628 388.34 42.104 388.484 40.568ZM392.66 37.184H396.476V53.24H392.66V37.184ZM434.96 53.312H423.008V49.424H430.676V30.308H434.96V53.312ZM145.448 101.984H169.028V106.016H145.448V101.984ZM152.468 89.024V94.46H161.72V89.024H152.468ZM152.468 79.736V85.028H161.72V79.736H152.468ZM147.968 75.704H166.4V98.456H147.968V75.704ZM143.072 73.544L147.248 74.912C146.456 76.952 145.508 79.004 144.404 81.068C143.324 83.132 142.148 85.076 140.876 86.9C139.628 88.724 138.32 90.332 136.952 91.724C136.832 91.34 136.628 90.86 136.34 90.284C136.052 89.708 135.752 89.12 135.44 88.52C135.152 87.92 134.864 87.428 134.576 87.044C135.704 85.964 136.796 84.704 137.852 83.264C138.908 81.824 139.88 80.276 140.768 78.62C141.68 76.964 142.448 75.272 143.072 73.544ZM139.436 83.516L143.684 79.232L143.72 79.268V107.168H139.436V83.516ZM171.368 87.62H204.704V92.336H171.368V87.62ZM211.832 101.624H240.452V105.62H211.832V101.624ZM208.016 76.352H240.056V80.312H208.016V76.352ZM209.672 83.408H213.956V107.276H209.672V83.408ZM220.94 89.996V91.796H232.064V89.996H220.94ZM220.94 94.64V96.512H232.064V94.64H220.94ZM220.94 85.352V87.152H232.064V85.352H220.94ZM216.872 82.328H236.348V99.536H216.872V82.328ZM222.308 73.292L227.384 73.436C227.216 74.708 227.024 75.992 226.808 77.288C226.592 78.56 226.376 79.772 226.16 80.924C225.968 82.052 225.764 83.048 225.548 83.912L221.228 83.624C221.42 82.688 221.588 81.62 221.732 80.42C221.876 79.22 221.996 77.996 222.092 76.748C222.212 75.5 222.284 74.348 222.308 73.292ZM260.252 76.532H272.42V80.456H260.252V76.532ZM255.428 90.176H272.096V94.028H255.428V90.176ZM270.692 76.532H274.976C274.976 76.532 274.964 76.736 274.94 77.144C274.94 77.528 274.928 77.864 274.904 78.152C274.784 80.096 274.64 81.704 274.472 82.976C274.328 84.248 274.148 85.256 273.932 86C273.716 86.744 273.44 87.296 273.104 87.656C272.696 88.112 272.252 88.436 271.772 88.628C271.316 88.796 270.788 88.916 270.188 88.988C269.684 89.036 269.012 89.072 268.172 89.096C267.332 89.096 266.432 89.084 265.472 89.06C265.448 88.436 265.316 87.752 265.076 87.008C264.836 86.264 264.548 85.628 264.212 85.1C265.028 85.172 265.796 85.22 266.516 85.244C267.236 85.268 267.788 85.28 268.172 85.28C268.436 85.28 268.664 85.256 268.856 85.208C269.072 85.16 269.276 85.064 269.468 84.92C269.66 84.728 269.828 84.344 269.972 83.768C270.116 83.192 270.248 82.364 270.368 81.284C270.488 80.18 270.596 78.776 270.692 77.072V76.532ZM259.208 73.4L263.672 73.94C263.168 77.42 262.34 80.528 261.188 83.264C260.036 86 258.524 88.244 256.652 89.996C256.388 89.756 256.028 89.468 255.572 89.132C255.14 88.772 254.672 88.424 254.168 88.088C253.688 87.752 253.268 87.476 252.908 87.26C254.756 85.82 256.172 83.9 257.156 81.5C258.164 79.076 258.848 76.376 259.208 73.4ZM270.584 90.176H271.448L272.24 89.996L275.084 91.184C274.316 93.56 273.284 95.648 271.988 97.448C270.692 99.224 269.18 100.748 267.452 102.02C265.724 103.292 263.804 104.348 261.692 105.188C259.58 106.028 257.312 106.7 254.888 107.204C254.744 106.82 254.552 106.388 254.312 105.908C254.072 105.428 253.808 104.948 253.52 104.468C253.256 104.012 252.992 103.628 252.728 103.316C254.912 102.956 256.952 102.44 258.848 101.768C260.768 101.096 262.496 100.256 264.032 99.248C265.592 98.216 266.924 97.004 268.028 95.612C269.156 94.196 270.008 92.588 270.584 90.788V90.176ZM261.332 93.632C262.292 95.216 263.552 96.656 265.112 97.952C266.672 99.224 268.484 100.316 270.548 101.228C272.612 102.116 274.868 102.8 277.316 103.28C277.004 103.568 276.656 103.94 276.272 104.396C275.912 104.876 275.576 105.356 275.264 105.836C274.952 106.34 274.688 106.784 274.472 107.168C271.904 106.544 269.552 105.668 267.416 104.54C265.304 103.412 263.42 102.044 261.764 100.436C260.108 98.828 258.68 97.016 257.48 95L261.332 93.632ZM245.168 76.748L247.544 73.58C248.312 73.868 249.116 74.228 249.956 74.66C250.82 75.068 251.636 75.512 252.404 75.992C253.196 76.448 253.832 76.892 254.312 77.324L251.792 80.816C251.336 80.384 250.736 79.916 249.992 79.412C249.248 78.908 248.444 78.428 247.58 77.972C246.74 77.492 245.936 77.084 245.168 76.748ZM243.008 86.504L245.312 83.264C246.08 83.528 246.896 83.876 247.76 84.308C248.624 84.716 249.452 85.148 250.244 85.604C251.036 86.036 251.672 86.456 252.152 86.864L249.74 90.428C249.26 89.996 248.648 89.54 247.904 89.06C247.16 88.58 246.356 88.124 245.492 87.692C244.628 87.236 243.8 86.84 243.008 86.504ZM244.268 103.928C244.892 103.016 245.576 101.948 246.32 100.724C247.064 99.476 247.82 98.156 248.588 96.764C249.38 95.348 250.112 93.956 250.784 92.588L254.024 95.396C253.424 96.644 252.788 97.928 252.116 99.248C251.444 100.544 250.76 101.828 250.064 103.1C249.368 104.372 248.672 105.596 247.976 106.772L244.268 103.928ZM295.748 89.708L299.24 87.98C299.864 88.796 300.488 89.696 301.112 90.68C301.736 91.64 302.3 92.6 302.804 93.56C303.308 94.496 303.68 95.348 303.92 96.116L300.176 98.06C299.96 97.316 299.612 96.464 299.132 95.504C298.676 94.52 298.148 93.524 297.548 92.516C296.972 91.508 296.372 90.572 295.748 89.708ZM296.972 79.52H309.896V83.624H296.972V79.52ZM308.024 79.52H312.2C312.2 79.52 312.2 79.652 312.2 79.916C312.2 80.18 312.2 80.468 312.2 80.78C312.2 81.092 312.188 81.344 312.164 81.536C312.044 85.496 311.912 88.868 311.768 91.652C311.648 94.412 311.492 96.692 311.3 98.492C311.108 100.292 310.88 101.708 310.616 102.74C310.376 103.772 310.064 104.528 309.68 105.008C309.176 105.704 308.648 106.184 308.096 106.448C307.568 106.712 306.92 106.904 306.152 107.024C305.504 107.12 304.664 107.168 303.632 107.168C302.624 107.168 301.58 107.156 300.5 107.132C300.476 106.508 300.332 105.776 300.068 104.936C299.804 104.12 299.468 103.4 299.06 102.776C300.212 102.872 301.268 102.932 302.228 102.956C303.188 102.98 303.896 102.992 304.352 102.992C304.736 102.992 305.036 102.944 305.252 102.848C305.492 102.752 305.72 102.596 305.936 102.38C306.224 102.068 306.476 101.432 306.692 100.472C306.908 99.512 307.088 98.168 307.232 96.44C307.4 94.688 307.544 92.492 307.664 89.852C307.808 87.212 307.928 84.056 308.024 80.384V79.52ZM297.188 73.364L301.652 74.372C301.148 76.148 300.536 77.9 299.816 79.628C299.12 81.332 298.352 82.928 297.512 84.416C296.672 85.904 295.796 87.2 294.884 88.304C294.596 88.04 294.224 87.74 293.768 87.404C293.312 87.068 292.832 86.744 292.328 86.432C291.824 86.12 291.392 85.868 291.032 85.676C291.968 84.716 292.82 83.588 293.588 82.292C294.356 80.972 295.04 79.556 295.64 78.044C296.264 76.508 296.78 74.948 297.188 73.364ZM284.48 73.436L288.296 74.768C287.816 75.704 287.312 76.664 286.784 77.648C286.256 78.608 285.74 79.544 285.236 80.456C284.732 81.344 284.24 82.124 283.76 82.796L280.844 81.608C281.276 80.864 281.72 80.024 282.176 79.088C282.632 78.128 283.064 77.156 283.472 76.172C283.88 75.188 284.216 74.276 284.48 73.436ZM288.8 77.72L292.472 79.232C291.584 80.6 290.624 82.04 289.592 83.552C288.56 85.04 287.516 86.468 286.46 87.836C285.404 89.204 284.42 90.404 283.508 91.436L280.88 90.104C281.576 89.288 282.284 88.364 283.004 87.332C283.724 86.3 284.432 85.232 285.128 84.128C285.848 83.024 286.52 81.92 287.144 80.816C287.792 79.688 288.344 78.656 288.8 77.72ZM278.936 81.968L280.988 79.016C281.612 79.544 282.26 80.144 282.932 80.816C283.604 81.464 284.216 82.112 284.768 82.76C285.344 83.408 285.776 84.008 286.064 84.56L283.868 87.908C283.58 87.356 283.16 86.732 282.608 86.036C282.08 85.316 281.492 84.608 280.844 83.912C280.196 83.192 279.56 82.544 278.936 81.968ZM287.936 86.396L290.996 85.064C291.476 85.856 291.944 86.708 292.4 87.62C292.856 88.532 293.252 89.432 293.588 90.32C293.924 91.184 294.176 91.964 294.344 92.66L291.032 94.172C290.888 93.5 290.66 92.72 290.348 91.832C290.036 90.92 289.664 89.996 289.232 89.06C288.824 88.1 288.392 87.212 287.936 86.396ZM278.936 89.276C280.592 89.228 282.584 89.156 284.912 89.06C287.264 88.964 289.652 88.856 292.076 88.736L292.04 92.156C289.784 92.324 287.54 92.492 285.308 92.66C283.076 92.804 281.072 92.924 279.296 93.02L278.936 89.276ZM288.548 95.396L291.716 94.352C292.22 95.432 292.688 96.608 293.12 97.88C293.552 99.152 293.864 100.256 294.056 101.192L290.708 102.416C290.54 101.456 290.252 100.328 289.844 99.032C289.436 97.712 289.004 96.5 288.548 95.396ZM280.484 94.568L284.048 95.216C283.856 96.944 283.568 98.648 283.184 100.328C282.8 102.008 282.356 103.424 281.852 104.576C281.612 104.408 281.288 104.216 280.88 104C280.472 103.808 280.052 103.616 279.62 103.424C279.212 103.232 278.852 103.088 278.54 102.992C279.068 101.912 279.488 100.628 279.8 99.14C280.112 97.628 280.34 96.104 280.484 94.568ZM284.66 91.184H288.476V107.24H284.66V91.184ZM320.984 108.968L319.832 106.052C321.344 105.572 322.496 104.912 323.288 104.072C324.104 103.256 324.512 102.32 324.512 101.264L324.224 97.736L326.24 100.94C325.928 101.204 325.592 101.408 325.232 101.552C324.872 101.696 324.488 101.768 324.08 101.768C323.192 101.768 322.4 101.492 321.704 100.94C321.008 100.364 320.66 99.56 320.66 98.528C320.66 97.52 321.008 96.728 321.704 96.152C322.4 95.576 323.228 95.288 324.188 95.288C325.46 95.288 326.42 95.732 327.068 96.62C327.74 97.508 328.076 98.708 328.076 100.22C328.076 102.26 327.452 104.06 326.204 105.62C324.956 107.18 323.216 108.296 320.984 108.968ZM366.236 73.544L370.484 74.516C369.98 76.388 369.368 78.248 368.648 80.096C367.928 81.92 367.136 83.636 366.272 85.244C365.432 86.828 364.532 88.22 363.572 89.42C363.308 89.156 362.96 88.844 362.528 88.484C362.12 88.124 361.688 87.776 361.232 87.44C360.8 87.08 360.416 86.792 360.08 86.576C361.016 85.544 361.868 84.332 362.636 82.94C363.404 81.548 364.088 80.048 364.688 78.44C365.312 76.832 365.828 75.2 366.236 73.544ZM365.228 89.528L369.44 90.392C369.104 91.928 368.672 93.44 368.144 94.928C367.64 96.392 367.076 97.784 366.452 99.104C365.828 100.4 365.18 101.54 364.508 102.524C364.244 102.284 363.884 102.02 363.428 101.732C362.972 101.42 362.504 101.132 362.024 100.868C361.568 100.58 361.172 100.352 360.836 100.184C361.868 98.912 362.756 97.316 363.5 95.396C364.244 93.476 364.82 91.52 365.228 89.528ZM367.028 79.88H381.824V83.876H365.444L367.028 79.88ZM371.168 81.644H375.452V102.416C375.452 103.424 375.344 104.252 375.128 104.9C374.912 105.548 374.468 106.052 373.796 106.412C373.172 106.748 372.416 106.976 371.528 107.096C370.664 107.216 369.644 107.276 368.468 107.276C368.396 106.628 368.204 105.884 367.892 105.044C367.604 104.204 367.304 103.496 366.992 102.92C367.76 102.944 368.48 102.956 369.152 102.956C369.848 102.956 370.316 102.956 370.556 102.956C370.772 102.956 370.928 102.92 371.024 102.848C371.12 102.752 371.168 102.584 371.168 102.344V81.644ZM376.748 90.464L380.6 89.168C381.248 90.416 381.836 91.748 382.364 93.164C382.892 94.556 383.348 95.936 383.732 97.304C384.116 98.648 384.392 99.86 384.56 100.94L380.42 102.38C380.276 101.324 380.024 100.1 379.664 98.708C379.328 97.316 378.908 95.912 378.404 94.496C377.9 93.056 377.348 91.712 376.748 90.464ZM380.636 79.88H381.212L381.896 79.736L384.956 80.312C384.74 81.776 384.488 83.288 384.2 84.848C383.912 86.384 383.636 87.692 383.372 88.772L379.7 88.088C379.796 87.44 379.904 86.684 380.024 85.82C380.144 84.956 380.264 84.056 380.384 83.12C380.504 82.16 380.588 81.26 380.636 80.42V79.88ZM358.532 73.544L362.6 74.84C361.832 76.856 360.92 78.896 359.864 80.96C358.808 83 357.668 84.944 356.444 86.792C355.22 88.616 353.948 90.212 352.628 91.58C352.508 91.22 352.304 90.764 352.016 90.212C351.752 89.636 351.464 89.06 351.152 88.484C350.84 87.908 350.564 87.44 350.324 87.08C351.404 85.976 352.448 84.704 353.456 83.264C354.488 81.824 355.436 80.276 356.3 78.62C357.188 76.964 357.932 75.272 358.532 73.544ZM355.076 83.516L359.18 79.412V79.448V107.168H355.076V83.516ZM395.072 86.54V91.076H412.856V86.54H395.072ZM391.472 83.84H416.672V93.704H391.472V83.84ZM397.628 79.772H410.372V82.58H397.628V79.772ZM402.056 84.74H405.548V92.336H402.056V84.74ZM403.784 76.748C402.728 77.78 401.408 78.824 399.824 79.88C398.24 80.936 396.524 81.92 394.676 82.832C392.828 83.72 390.956 84.5 389.06 85.172C388.82 84.692 388.484 84.116 388.052 83.444C387.62 82.772 387.2 82.22 386.792 81.788C388.784 81.188 390.716 80.444 392.588 79.556C394.484 78.668 396.212 77.684 397.772 76.604C399.332 75.524 400.604 74.456 401.588 73.4H405.656C407.048 74.672 408.584 75.836 410.264 76.892C411.968 77.948 413.744 78.86 415.592 79.628C417.464 80.372 419.324 80.984 421.172 81.464C420.716 81.944 420.272 82.52 419.84 83.192C419.408 83.864 419.024 84.476 418.688 85.028C417.416 84.596 416.096 84.08 414.728 83.48C413.36 82.88 412.004 82.22 410.66 81.5C409.316 80.756 408.056 79.988 406.88 79.196C405.704 78.38 404.672 77.564 403.784 76.748ZM396.332 87.296L399.284 86.504C399.62 87.104 399.92 87.764 400.184 88.484C400.448 89.204 400.628 89.828 400.724 90.356L397.592 91.292C397.52 90.764 397.364 90.128 397.124 89.384C396.884 88.616 396.62 87.92 396.332 87.296ZM408.212 86.36L411.812 87.224C411.404 87.992 411.02 88.736 410.66 89.456C410.324 90.176 410 90.788 409.688 91.292L406.772 90.464C407.012 89.888 407.276 89.204 407.564 88.412C407.876 87.62 408.092 86.936 408.212 86.36ZM393.452 94.892H414.764V107.096H410.3V97.7H397.7V107.24H393.452V94.892ZM395.864 99.14H412.136V101.948H395.864V99.14ZM395.9 103.46H412.136V106.268H395.9V103.46ZM437.264 94.748C437.144 93.788 437.216 92.948 437.48 92.228C437.768 91.508 438.164 90.86 438.668 90.284C439.196 89.708 439.772 89.18 440.396 88.7C441.044 88.22 441.644 87.752 442.196 87.296C442.772 86.84 443.24 86.372 443.6 85.892C443.96 85.412 444.14 84.884 444.14 84.308C444.14 83.588 443.96 82.976 443.6 82.472C443.24 81.968 442.712 81.584 442.016 81.32C441.344 81.056 440.528 80.924 439.568 80.924C438.464 80.924 437.456 81.164 436.544 81.644C435.632 82.124 434.732 82.832 433.844 83.768L430.892 81.032C432.044 79.712 433.4 78.656 434.96 77.864C436.544 77.048 438.284 76.64 440.18 76.64C441.932 76.64 443.48 76.904 444.824 77.432C446.192 77.96 447.26 78.764 448.028 79.844C448.82 80.9 449.216 82.232 449.216 83.84C449.216 84.728 449.024 85.508 448.64 86.18C448.28 86.828 447.8 87.416 447.2 87.944C446.624 88.448 446.012 88.94 445.364 89.42C444.716 89.876 444.116 90.356 443.564 90.86C443.012 91.364 442.58 91.928 442.268 92.552C441.956 93.176 441.836 93.908 441.908 94.748H437.264ZM439.604 104.324C438.692 104.324 437.936 104.024 437.336 103.424C436.736 102.824 436.436 102.068 436.436 101.156C436.436 100.22 436.736 99.452 437.336 98.852C437.936 98.252 438.692 97.952 439.604 97.952C440.516 97.952 441.272 98.252 441.872 98.852C442.472 99.452 442.772 100.22 442.772 101.156C442.772 102.068 442.472 102.824 441.872 103.424C441.272 104.024 440.516 104.324 439.604 104.324Z" fill="#864DA1"/>
</svg>
