<svg width="592" height="128" viewBox="0 0 592 128" fill="none" xmlns="http://www.w3.org/2000/svg">
<path d="M171.584 48.2H182.924V51.908H171.584V48.2ZM173.132 22.82H182.276V26.492H173.132V22.82ZM169.82 39.776H184.724V53.024H180.584V43.412H173.78V53.132H169.82V39.776ZM180.764 22.82H181.52L182.276 22.676L185.012 23.864C184.364 26.096 183.512 28.148 182.456 30.02C181.4 31.868 180.176 33.536 178.784 35.024C177.392 36.488 175.868 37.784 174.212 38.912C172.58 40.016 170.84 40.952 168.992 41.72C168.752 41.24 168.392 40.676 167.912 40.028C167.432 39.38 166.988 38.864 166.58 38.48C168.188 37.88 169.736 37.1 171.224 36.14C172.736 35.156 174.116 34.028 175.364 32.756C176.612 31.46 177.692 30.044 178.604 28.508C179.54 26.948 180.26 25.292 180.764 23.54V22.82ZM173.276 19.364L177.38 20.408C176.852 22.016 176.216 23.588 175.472 25.124C174.728 26.66 173.9 28.1 172.988 29.444C172.1 30.764 171.164 31.916 170.18 32.9C169.94 32.636 169.616 32.324 169.208 31.964C168.8 31.604 168.38 31.256 167.948 30.92C167.54 30.56 167.168 30.284 166.832 30.092C168.248 28.844 169.52 27.272 170.648 25.376C171.776 23.48 172.652 21.476 173.276 19.364ZM173.384 24.836C173.888 26.06 174.56 27.308 175.4 28.58C176.264 29.828 177.284 31.028 178.46 32.18C179.636 33.332 180.98 34.376 182.492 35.312C184.004 36.248 185.672 37.004 187.496 37.58C187.208 37.844 186.884 38.204 186.524 38.66C186.188 39.092 185.864 39.536 185.552 39.992C185.264 40.448 185.012 40.856 184.796 41.216C182.948 40.496 181.256 39.596 179.72 38.516C178.208 37.412 176.864 36.212 175.688 34.916C174.512 33.596 173.48 32.24 172.592 30.848C171.728 29.432 171.02 28.064 170.468 26.744L173.384 24.836ZM154.556 35.276H158.048V48.38H154.556V35.276ZM158.552 24.44V29.048H163.304V24.44H158.552ZM154.808 20.768H167.264V32.72H154.808V20.768ZM159.848 31.244H163.664V47.336H159.848V31.244ZM152.936 47.696C154.208 47.48 155.66 47.204 157.292 46.868C158.948 46.532 160.688 46.172 162.512 45.788C164.336 45.38 166.136 44.972 167.912 44.564L168.344 48.38C165.8 48.98 163.232 49.592 160.64 50.216C158.048 50.84 155.732 51.392 153.692 51.872L152.936 47.696ZM161.396 36.932H167.624V40.712H161.396V36.932ZM204.956 30.236H219.932V34.592H204.956V30.236ZM189.548 47.084H222.488V51.44H189.548V47.084ZM202.508 19.868H207.152V49.496H202.508V19.868ZM225.98 23.756H258.092V27.824H225.98V23.756ZM235.7 36.752H251.324V40.352H235.7V36.752ZM232.496 30.668H250.676V34.448H236.744V53.204H232.496V30.668ZM249.812 30.668H254.06V48.56C254.06 49.616 253.928 50.456 253.664 51.08C253.424 51.704 252.932 52.184 252.188 52.52C251.468 52.856 250.58 53.06 249.524 53.132C248.468 53.204 247.208 53.24 245.744 53.24C245.672 52.64 245.504 51.932 245.24 51.116C245 50.324 244.736 49.64 244.448 49.064C245.072 49.088 245.696 49.112 246.32 49.136C246.944 49.16 247.496 49.172 247.976 49.172C248.48 49.172 248.828 49.172 249.02 49.172C249.332 49.148 249.536 49.088 249.632 48.992C249.752 48.896 249.812 48.728 249.812 48.488V30.668ZM237.14 19.4L241.604 20.408C240.764 23.096 239.708 25.772 238.436 28.436C237.188 31.076 235.676 33.536 233.9 35.816C232.148 38.096 230.096 40.052 227.744 41.684C227.528 41.372 227.24 41.012 226.88 40.604C226.544 40.172 226.196 39.764 225.836 39.38C225.5 38.972 225.188 38.636 224.9 38.372C226.484 37.316 227.924 36.068 229.22 34.628C230.54 33.188 231.704 31.628 232.712 29.948C233.744 28.244 234.62 26.504 235.34 24.728C236.084 22.928 236.684 21.152 237.14 19.4ZM235.7 42.692H251.324V46.292H235.7V42.692ZM262.34 20.84H271.664V24.944H266.372V53.204H262.34V20.84ZM270.656 20.84H271.448L272.06 20.66L275.084 22.46C274.532 24.02 273.92 25.664 273.248 27.392C272.576 29.096 271.916 30.644 271.268 32.036C272.612 33.548 273.488 34.964 273.896 36.284C274.304 37.58 274.508 38.78 274.508 39.884C274.508 41.084 274.352 42.104 274.04 42.944C273.752 43.76 273.284 44.396 272.636 44.852C272.324 45.068 271.964 45.248 271.556 45.392C271.172 45.536 270.752 45.632 270.296 45.68C269.912 45.704 269.456 45.728 268.928 45.752C268.424 45.776 267.932 45.776 267.452 45.752C267.428 45.2 267.32 44.552 267.128 43.808C266.936 43.04 266.684 42.38 266.372 41.828C266.78 41.852 267.152 41.876 267.488 41.9C267.848 41.9 268.172 41.888 268.46 41.864C268.94 41.864 269.36 41.78 269.72 41.612C270.008 41.42 270.212 41.144 270.332 40.784C270.452 40.4 270.512 39.944 270.512 39.416C270.488 38.504 270.248 37.472 269.792 36.32C269.36 35.144 268.508 33.896 267.236 32.576C267.548 31.76 267.872 30.872 268.208 29.912C268.544 28.952 268.856 27.992 269.144 27.032C269.456 26.048 269.744 25.136 270.008 24.296C270.272 23.456 270.488 22.736 270.656 22.136V20.84ZM278.072 38.084H291.176V41.9H278.072V38.084ZM278.036 46.796H291.212V50.72H278.036V46.796ZM282.284 22.496L287.144 22.928C286.928 23.936 286.7 24.956 286.46 25.988C286.22 26.996 285.968 27.968 285.704 28.904C285.464 29.816 285.236 30.62 285.02 31.316L281.312 30.74C281.456 29.972 281.588 29.108 281.708 28.148C281.852 27.188 281.972 26.216 282.068 25.232C282.188 24.224 282.26 23.312 282.284 22.496ZM276.02 29.372H293.372V52.988H289.124V33.152H280.052V53.168H276.02V29.372ZM275.12 20.804H294.38V24.836H275.12V20.804ZM303.488 25.952H328.544V30.164H303.488V25.952ZM301.976 36.536H327.14V40.712H301.976V36.536ZM297.836 47.984H330.38V52.196H297.836V47.984ZM311.804 19.4H316.34V50.036H311.804V19.4ZM303.488 19.868L307.952 20.876C307.448 22.724 306.824 24.548 306.08 26.348C305.336 28.148 304.532 29.828 303.668 31.388C302.804 32.924 301.904 34.268 300.968 35.42C300.68 35.156 300.296 34.868 299.816 34.556C299.36 34.22 298.88 33.896 298.376 33.584C297.872 33.272 297.44 33.02 297.08 32.828C298.04 31.82 298.916 30.62 299.708 29.228C300.524 27.836 301.244 26.336 301.868 24.728C302.516 23.12 303.056 21.5 303.488 19.868ZM346.976 20.264H351.944C351.896 21.272 351.812 22.568 351.692 24.152C351.572 25.736 351.344 27.5 351.008 29.444C350.696 31.364 350.216 33.38 349.568 35.492C348.92 37.604 348.032 39.716 346.904 41.828C345.8 43.916 344.384 45.92 342.656 47.84C340.952 49.736 338.876 51.428 336.428 52.916C336.044 52.364 335.516 51.776 334.844 51.152C334.196 50.528 333.512 49.964 332.792 49.46C335.192 48.116 337.208 46.58 338.84 44.852C340.472 43.124 341.804 41.312 342.836 39.416C343.868 37.496 344.66 35.576 345.212 33.656C345.764 31.712 346.16 29.876 346.4 28.148C346.64 26.42 346.784 24.872 346.832 23.504C346.88 22.136 346.928 21.056 346.976 20.264ZM351.764 21.236C351.788 21.692 351.836 22.412 351.908 23.396C351.98 24.38 352.124 25.556 352.34 26.924C352.556 28.292 352.88 29.78 353.312 31.388C353.768 32.972 354.368 34.604 355.112 36.284C355.856 37.964 356.78 39.608 357.884 41.216C358.988 42.824 360.32 44.312 361.88 45.68C363.464 47.048 365.312 48.236 367.424 49.244C366.728 49.748 366.08 50.336 365.48 51.008C364.904 51.68 364.436 52.316 364.076 52.916C361.868 51.812 359.936 50.504 358.28 48.992C356.648 47.456 355.244 45.8 354.068 44.024C352.916 42.224 351.956 40.4 351.188 38.552C350.42 36.704 349.796 34.892 349.316 33.116C348.86 31.316 348.512 29.648 348.272 28.112C348.032 26.576 347.864 25.244 347.768 24.116C347.696 22.988 347.636 22.172 347.588 21.668L351.764 21.236ZM369.692 36.428H402.344V40.244H369.692V36.428ZM378.08 26.06H397.556V29.408H378.08V26.06ZM378.08 31.244H397.556V34.592H378.08V31.244ZM371.276 49.064C372.692 48.896 374.312 48.692 376.136 48.452C377.984 48.188 379.916 47.912 381.932 47.624C383.972 47.336 385.976 47.048 387.944 46.76L388.16 50.54C386.312 50.828 384.44 51.128 382.544 51.44C380.648 51.752 378.824 52.028 377.072 52.268C375.32 52.532 373.712 52.784 372.248 53.024L371.276 49.064ZM387.512 37.508C388.688 40.652 390.548 43.232 393.092 45.248C395.636 47.264 398.948 48.644 403.028 49.388C402.716 49.7 402.38 50.084 402.02 50.54C401.684 50.996 401.36 51.464 401.048 51.944C400.736 52.424 400.484 52.868 400.292 53.276C397.34 52.58 394.796 51.572 392.66 50.252C390.524 48.956 388.712 47.324 387.224 45.356C385.76 43.388 384.536 41.084 383.552 38.444L387.512 37.508ZM397.736 39.776L401.228 42.188C400.34 42.836 399.404 43.472 398.42 44.096C397.46 44.696 396.488 45.26 395.504 45.788C394.52 46.316 393.608 46.784 392.768 47.192L389.888 44.96C390.728 44.528 391.628 44.024 392.588 43.448C393.548 42.848 394.472 42.224 395.36 41.576C396.272 40.928 397.064 40.328 397.736 39.776ZM375.704 20.66H398.528V24.188H380.132V38.012H375.704V20.66ZM375.704 37.58H380.132V49.532L375.704 50V37.58ZM422.72 28.148V29.948H432.152V28.148H422.72ZM422.72 23.504V25.268H432.152V23.504H422.72ZM418.58 20.444H436.508V33.008H418.58V20.444ZM416.744 34.592H437.66V38.12H416.744V34.592ZM415.844 40.136H438.416V43.808H415.844V40.136ZM429.092 37.688H433.448V48.956C433.448 49.94 433.328 50.708 433.088 51.26C432.872 51.836 432.416 52.268 431.72 52.556C431.048 52.868 430.244 53.048 429.308 53.096C428.396 53.168 427.328 53.204 426.104 53.204C426.032 52.628 425.864 51.98 425.6 51.26C425.336 50.54 425.06 49.904 424.772 49.352C425.516 49.376 426.248 49.4 426.968 49.424C427.712 49.424 428.204 49.424 428.444 49.424C428.708 49.4 428.876 49.352 428.948 49.28C429.044 49.184 429.092 49.04 429.092 48.848V37.688ZM418.22 45.608L421.244 43.592C422.012 44.288 422.816 45.08 423.656 45.968C424.496 46.856 425.144 47.648 425.6 48.344L422.396 50.612C422.132 50.156 421.76 49.64 421.28 49.064C420.824 48.488 420.32 47.9 419.768 47.3C419.24 46.676 418.724 46.112 418.22 45.608ZM413.288 27.356L417.068 28.94C416.204 30.428 415.184 31.916 414.008 33.404C412.832 34.892 411.596 36.308 410.3 37.652C409.004 38.972 407.732 40.124 406.484 41.108C406.364 40.772 406.184 40.328 405.944 39.776C405.728 39.2 405.476 38.624 405.188 38.048C404.924 37.472 404.672 37.016 404.432 36.68C405.512 35.912 406.592 35.036 407.672 34.052C408.752 33.044 409.784 31.976 410.768 30.848C411.752 29.696 412.592 28.532 413.288 27.356ZM412.352 19.472L416.456 21.128C415.664 22.232 414.74 23.348 413.684 24.476C412.652 25.58 411.56 26.624 410.408 27.608C409.256 28.592 408.104 29.456 406.952 30.2C406.808 29.864 406.604 29.468 406.34 29.012C406.1 28.556 405.836 28.1 405.548 27.644C405.284 27.188 405.044 26.816 404.828 26.528C405.764 25.952 406.712 25.268 407.672 24.476C408.632 23.684 409.52 22.856 410.336 21.992C411.176 21.104 411.848 20.264 412.352 19.472ZM409.724 35.42L413.72 31.424L413.936 31.496V53.204H409.724V35.42ZM135.98 77.756H168.092V81.824H135.98V77.756ZM145.7 90.752H161.324V94.352H145.7V90.752ZM142.496 84.668H160.676V88.448H146.744V107.204H142.496V84.668ZM159.812 84.668H164.06V102.56C164.06 103.616 163.928 104.456 163.664 105.08C163.424 105.704 162.932 106.184 162.188 106.52C161.468 106.856 160.58 107.06 159.524 107.132C158.468 107.204 157.208 107.24 155.744 107.24C155.672 106.64 155.504 105.932 155.24 105.116C155 104.324 154.736 103.64 154.448 103.064C155.072 103.088 155.696 103.112 156.32 103.136C156.944 103.16 157.496 103.172 157.976 103.172C158.48 103.172 158.828 103.172 159.02 103.172C159.332 103.148 159.536 103.088 159.632 102.992C159.752 102.896 159.812 102.728 159.812 102.488V84.668ZM147.14 73.4L151.604 74.408C150.764 77.096 149.708 79.772 148.436 82.436C147.188 85.076 145.676 87.536 143.9 89.816C142.148 92.096 140.096 94.052 137.744 95.684C137.528 95.372 137.24 95.012 136.88 94.604C136.544 94.172 136.196 93.764 135.836 93.38C135.5 92.972 135.188 92.636 134.9 92.372C136.484 91.316 137.924 90.068 139.22 88.628C140.54 87.188 141.704 85.628 142.712 83.948C143.744 82.244 144.62 80.504 145.34 78.728C146.084 76.928 146.684 75.152 147.14 73.4ZM145.7 96.692H161.324V100.292H145.7V96.692ZM188.936 90.428H203.66V107.06H199.52V94.352H192.824V107.204H188.936V90.428ZM193.724 73.472H197.9V91.508H193.724V73.472ZM196.208 80.888H204.884V84.884H196.208V80.888ZM190.988 101.876H201.464V105.8H190.988V101.876ZM175.58 77.396V85.28H184.328V77.396H175.58ZM172.376 74.516H187.676V88.16H172.376V74.516ZM175.508 78.944L177.308 78.44C177.596 79.256 177.848 80.144 178.064 81.104C178.28 82.064 178.412 82.892 178.46 83.588L176.552 84.2C176.528 83.504 176.42 82.664 176.228 81.68C176.036 80.696 175.796 79.784 175.508 78.944ZM176.408 99.608L179.036 99.284C179.252 100.268 179.42 101.348 179.54 102.524C179.684 103.7 179.768 104.72 179.792 105.584L177.02 105.944C177.044 105.08 176.996 104.06 176.876 102.884C176.756 101.684 176.6 100.592 176.408 99.608ZM180.008 99.428L182.564 98.96C182.924 99.92 183.248 100.952 183.536 102.056C183.824 103.136 184.028 104.096 184.148 104.936L181.448 105.476C181.376 104.66 181.196 103.688 180.908 102.56C180.644 101.432 180.344 100.388 180.008 99.428ZM183.5 99.14L186.056 98.168C186.656 99.032 187.22 99.992 187.748 101.048C188.276 102.104 188.648 103.028 188.864 103.82L186.128 104.936C185.936 104.12 185.588 103.172 185.084 102.092C184.604 101.012 184.076 100.028 183.5 99.14ZM173.24 99.392L176.156 100.22C175.94 101.516 175.64 102.8 175.256 104.072C174.896 105.344 174.332 106.4 173.564 107.24L170.756 105.8C171.428 105.032 171.968 104.072 172.376 102.92C172.784 101.744 173.072 100.568 173.24 99.392ZM182.564 78.404L184.724 79.124C184.388 79.988 184.04 80.9 183.68 81.86C183.344 82.82 183.032 83.624 182.744 84.272L181.124 83.66C181.316 83.156 181.496 82.604 181.664 82.004C181.856 81.38 182.036 80.756 182.204 80.132C182.372 79.484 182.492 78.908 182.564 78.404ZM171.548 94.892C172.964 94.868 174.572 94.832 176.372 94.784C178.196 94.712 180.116 94.64 182.132 94.568C184.148 94.496 186.164 94.412 188.18 94.316L188.108 97.7C186.164 97.796 184.196 97.904 182.204 98.024C180.236 98.12 178.352 98.216 176.552 98.312C174.776 98.384 173.144 98.456 171.656 98.528L171.548 94.892ZM172.448 89.708H187.604V92.984H172.448V89.708ZM178.604 75.992H181.196V86.828H181.808V96.224H177.992V86.828H178.604V75.992ZM222.56 73.436L226.628 74.192C225.644 75.968 224.492 77.708 223.172 79.412C221.852 81.092 220.28 82.664 218.456 84.128C218.096 83.72 217.616 83.276 217.016 82.796C216.416 82.316 215.864 81.956 215.36 81.716C216.488 80.9 217.508 80.024 218.42 79.088C219.356 78.152 220.16 77.204 220.832 76.244C221.528 75.26 222.104 74.324 222.56 73.436ZM223.712 75.596H231.704V78.728H221.192L223.712 75.596ZM221.84 83.588V86.324H235.52V83.588H221.84ZM217.952 80.672H239.66V89.24H217.952V80.672ZM226.556 81.968H230.408V87.692H226.556V81.968ZM227.204 86.648L230.408 87.944C229.424 88.904 228.26 89.84 226.916 90.752C225.596 91.64 224.192 92.456 222.704 93.2C221.24 93.92 219.812 94.544 218.42 95.072C218.252 94.808 218.024 94.508 217.736 94.172C217.448 93.812 217.16 93.452 216.872 93.092C216.584 92.732 216.32 92.444 216.08 92.228C217.448 91.844 218.828 91.364 220.22 90.788C221.612 90.212 222.92 89.576 224.144 88.88C225.368 88.184 226.388 87.44 227.204 86.648ZM222.776 91.508L225.656 89.744C227.072 90.728 228.224 91.832 229.112 93.056C230 94.256 230.648 95.492 231.056 96.764C231.488 98.036 231.704 99.272 231.704 100.472C231.728 101.648 231.584 102.704 231.272 103.64C230.96 104.576 230.504 105.296 229.904 105.8C229.328 106.328 228.74 106.688 228.14 106.88C227.564 107.096 226.88 107.228 226.088 107.276C225.704 107.276 225.284 107.264 224.828 107.24C224.396 107.216 223.964 107.192 223.532 107.168C223.508 106.664 223.412 106.064 223.244 105.368C223.1 104.672 222.86 104.06 222.524 103.532C223.052 103.604 223.544 103.652 224 103.676C224.48 103.7 224.9 103.712 225.26 103.712C225.62 103.712 225.944 103.664 226.232 103.568C226.544 103.472 226.82 103.28 227.06 102.992C227.42 102.632 227.672 102.032 227.816 101.192C227.96 100.328 227.9 99.332 227.636 98.204C227.372 97.076 226.856 95.924 226.088 94.748C225.32 93.572 224.216 92.492 222.776 91.508ZM226.52 92.12L228.86 93.704C228.02 94.448 227 95.228 225.8 96.044C224.6 96.836 223.328 97.58 221.984 98.276C220.664 98.972 219.416 99.56 218.24 100.04C218.024 99.632 217.736 99.164 217.376 98.636C217.016 98.108 216.656 97.676 216.296 97.34C217.448 96.98 218.672 96.524 219.968 95.972C221.264 95.42 222.488 94.808 223.64 94.136C224.816 93.44 225.776 92.768 226.52 92.12ZM228.248 95.792L230.948 97.664C229.964 98.696 228.728 99.74 227.24 100.796C225.776 101.828 224.228 102.8 222.596 103.712C220.988 104.6 219.44 105.356 217.952 105.98C217.688 105.5 217.352 104.96 216.944 104.36C216.536 103.784 216.128 103.304 215.72 102.92C216.824 102.584 217.964 102.164 219.14 101.66C220.316 101.132 221.48 100.544 222.632 99.896C223.784 99.248 224.84 98.576 225.8 97.88C226.784 97.16 227.6 96.464 228.248 95.792ZM238.004 89.96L240.92 92.516C240.056 93.308 239.12 94.088 238.112 94.856C237.104 95.6 236.18 96.224 235.34 96.728L232.928 94.388C233.456 94.028 234.02 93.596 234.62 93.092C235.244 92.588 235.856 92.06 236.456 91.508C237.08 90.932 237.596 90.416 238.004 89.96ZM232.928 87.368C233.336 89.528 233.9 91.592 234.62 93.56C235.364 95.504 236.288 97.244 237.392 98.78C238.52 100.316 239.852 101.54 241.388 102.452C241.076 102.692 240.74 103.016 240.38 103.424C240.044 103.808 239.708 104.204 239.372 104.612C239.06 105.044 238.808 105.44 238.616 105.8C236.936 104.648 235.496 103.184 234.296 101.408C233.12 99.632 232.136 97.604 231.344 95.324C230.576 93.02 229.952 90.56 229.472 87.944L232.928 87.368ZM230.408 75.596H231.344L232.1 75.38L234.62 77.216C233.972 78.296 233.216 79.412 232.352 80.564C231.488 81.716 230.648 82.7 229.832 83.516C229.544 83.108 229.16 82.652 228.68 82.148C228.2 81.644 227.792 81.236 227.456 80.924C228.008 80.324 228.572 79.58 229.148 78.692C229.724 77.78 230.144 76.988 230.408 76.316V75.596ZM213.56 73.472L217.556 74.66C216.884 76.748 216.068 78.86 215.108 80.996C214.172 83.132 213.14 85.16 212.012 87.08C210.884 88.976 209.708 90.644 208.484 92.084C208.388 91.748 208.22 91.28 207.98 90.68C207.74 90.08 207.476 89.48 207.188 88.88C206.9 88.28 206.648 87.788 206.432 87.404C207.392 86.276 208.316 84.968 209.204 83.48C210.116 81.992 210.944 80.396 211.688 78.692C212.432 76.964 213.056 75.224 213.56 73.472ZM210.68 83.372L214.676 79.376L214.784 79.448V107.204H210.68V83.372ZM261.692 82.544H276.92V86.576H261.692V82.544ZM243.224 80.888H261.944V84.452H243.224V80.888ZM244.556 89.132H260.54V92.624H244.556V89.132ZM245.204 95H260.072V98.492H245.204V95ZM269.288 73.652H273.464V102.416C273.464 103.52 273.332 104.372 273.068 104.972C272.804 105.596 272.348 106.088 271.7 106.448C271.028 106.76 270.188 106.976 269.18 107.096C268.196 107.216 266.984 107.276 265.544 107.276C265.472 106.7 265.28 106.004 264.968 105.188C264.68 104.396 264.38 103.724 264.068 103.172C265.028 103.196 265.916 103.208 266.732 103.208C267.572 103.208 268.148 103.208 268.46 103.208C268.772 103.208 268.988 103.148 269.108 103.028C269.228 102.908 269.288 102.704 269.288 102.416V73.652ZM262.376 89.78L265.94 88.592C266.396 89.432 266.816 90.332 267.2 91.292C267.608 92.252 267.944 93.2 268.208 94.136C268.496 95.048 268.688 95.876 268.784 96.62L264.968 97.952C264.896 97.232 264.728 96.404 264.464 95.468C264.2 94.532 263.888 93.572 263.528 92.588C263.168 91.604 262.784 90.668 262.376 89.78ZM243.224 75.632L246.212 74.336C246.74 75.128 247.232 76.004 247.688 76.964C248.144 77.924 248.444 78.764 248.588 79.484L245.456 80.96C245.312 80.24 245.024 79.388 244.592 78.404C244.184 77.396 243.728 76.472 243.224 75.632ZM245.852 85.172L249.164 84.02C249.572 84.716 249.956 85.472 250.316 86.288C250.7 87.104 250.94 87.824 251.036 88.448L247.508 89.744C247.436 89.144 247.232 88.412 246.896 87.548C246.584 86.684 246.236 85.892 245.852 85.172ZM248.372 73.724H251.756V82.544H248.372V73.724ZM250.64 90.176H254.636V103.244H250.64V90.176ZM253.412 73.724H256.832V82.544H253.412V73.724ZM243.368 101.876C244.904 101.732 246.668 101.564 248.66 101.372C250.676 101.18 252.788 100.976 254.996 100.76C257.204 100.52 259.4 100.28 261.584 100.04L261.656 103.82C259.568 104.06 257.456 104.3 255.32 104.54C253.208 104.804 251.18 105.044 249.236 105.26C247.292 105.476 245.516 105.668 243.908 105.836L243.368 101.876ZM259.136 74.12L262.88 75.452C262.304 76.436 261.728 77.408 261.152 78.368C260.576 79.328 260.048 80.144 259.568 80.816L256.688 79.664C256.952 79.16 257.24 78.584 257.552 77.936C257.864 77.288 258.164 76.628 258.452 75.956C258.74 75.284 258.968 74.672 259.136 74.12ZM255.824 83.984L259.712 84.956C259.328 85.772 258.956 86.576 258.596 87.368C258.236 88.16 257.9 88.844 257.588 89.42L254.204 88.556C254.396 88.148 254.588 87.68 254.78 87.152C254.996 86.6 255.188 86.048 255.356 85.496C255.548 84.944 255.704 84.44 255.824 83.984ZM279.692 79.196H312.344V83.3H279.692V79.196ZM291.716 88.016H305.504V92.084H291.716V88.016ZM303.884 88.016H308.348C308.348 88.016 308.336 88.136 308.312 88.376C308.312 88.592 308.312 88.844 308.312 89.132C308.312 89.42 308.288 89.672 308.24 89.888C308.024 93.176 307.784 95.864 307.52 97.952C307.256 100.04 306.956 101.672 306.62 102.848C306.284 104 305.876 104.84 305.396 105.368C304.844 105.968 304.268 106.376 303.668 106.592C303.068 106.808 302.348 106.964 301.508 107.06C300.812 107.132 299.9 107.156 298.772 107.132C297.644 107.132 296.48 107.108 295.28 107.06C295.256 106.436 295.1 105.716 294.812 104.9C294.524 104.108 294.164 103.412 293.732 102.812C294.98 102.932 296.18 103.004 297.332 103.028C298.484 103.052 299.312 103.064 299.816 103.064C300.224 103.064 300.56 103.04 300.824 102.992C301.112 102.92 301.364 102.788 301.58 102.596C301.964 102.284 302.288 101.6 302.552 100.544C302.84 99.488 303.092 97.988 303.308 96.044C303.524 94.1 303.716 91.64 303.884 88.664V88.016ZM290.096 81.644H294.92C294.824 83.564 294.668 85.508 294.452 87.476C294.26 89.42 293.924 91.352 293.444 93.272C292.964 95.168 292.268 96.98 291.356 98.708C290.444 100.436 289.244 102.044 287.756 103.532C286.268 105.02 284.384 106.34 282.104 107.492C281.792 106.892 281.336 106.244 280.736 105.548C280.16 104.852 279.596 104.276 279.044 103.82C281.132 102.86 282.836 101.744 284.156 100.472C285.5 99.176 286.556 97.784 287.324 96.296C288.092 94.784 288.656 93.212 289.016 91.58C289.4 89.948 289.652 88.292 289.772 86.612C289.916 84.932 290.024 83.276 290.096 81.644ZM293.552 73.256H298.052V80.816H293.552V73.256ZM320.984 108.968L319.832 106.052C321.344 105.572 322.496 104.912 323.288 104.072C324.104 103.256 324.512 102.32 324.512 101.264L324.224 97.736L326.24 100.94C325.928 101.204 325.592 101.408 325.232 101.552C324.872 101.696 324.488 101.768 324.08 101.768C323.192 101.768 322.4 101.492 321.704 100.94C321.008 100.364 320.66 99.56 320.66 98.528C320.66 97.52 321.008 96.728 321.704 96.152C322.4 95.576 323.228 95.288 324.188 95.288C325.46 95.288 326.42 95.732 327.068 96.62C327.74 97.508 328.076 98.708 328.076 100.22C328.076 102.26 327.452 104.06 326.204 105.62C324.956 107.18 323.216 108.296 320.984 108.968ZM366.236 73.544L370.484 74.516C369.98 76.388 369.368 78.248 368.648 80.096C367.928 81.92 367.136 83.636 366.272 85.244C365.432 86.828 364.532 88.22 363.572 89.42C363.308 89.156 362.96 88.844 362.528 88.484C362.12 88.124 361.688 87.776 361.232 87.44C360.8 87.08 360.416 86.792 360.08 86.576C361.016 85.544 361.868 84.332 362.636 82.94C363.404 81.548 364.088 80.048 364.688 78.44C365.312 76.832 365.828 75.2 366.236 73.544ZM365.228 89.528L369.44 90.392C369.104 91.928 368.672 93.44 368.144 94.928C367.64 96.392 367.076 97.784 366.452 99.104C365.828 100.4 365.18 101.54 364.508 102.524C364.244 102.284 363.884 102.02 363.428 101.732C362.972 101.42 362.504 101.132 362.024 100.868C361.568 100.58 361.172 100.352 360.836 100.184C361.868 98.912 362.756 97.316 363.5 95.396C364.244 93.476 364.82 91.52 365.228 89.528ZM367.028 79.88H381.824V83.876H365.444L367.028 79.88ZM371.168 81.644H375.452V102.416C375.452 103.424 375.344 104.252 375.128 104.9C374.912 105.548 374.468 106.052 373.796 106.412C373.172 106.748 372.416 106.976 371.528 107.096C370.664 107.216 369.644 107.276 368.468 107.276C368.396 106.628 368.204 105.884 367.892 105.044C367.604 104.204 367.304 103.496 366.992 102.92C367.76 102.944 368.48 102.956 369.152 102.956C369.848 102.956 370.316 102.956 370.556 102.956C370.772 102.956 370.928 102.92 371.024 102.848C371.12 102.752 371.168 102.584 371.168 102.344V81.644ZM376.748 90.464L380.6 89.168C381.248 90.416 381.836 91.748 382.364 93.164C382.892 94.556 383.348 95.936 383.732 97.304C384.116 98.648 384.392 99.86 384.56 100.94L380.42 102.38C380.276 101.324 380.024 100.1 379.664 98.708C379.328 97.316 378.908 95.912 378.404 94.496C377.9 93.056 377.348 91.712 376.748 90.464ZM380.636 79.88H381.212L381.896 79.736L384.956 80.312C384.74 81.776 384.488 83.288 384.2 84.848C383.912 86.384 383.636 87.692 383.372 88.772L379.7 88.088C379.796 87.44 379.904 86.684 380.024 85.82C380.144 84.956 380.264 84.056 380.384 83.12C380.504 82.16 380.588 81.26 380.636 80.42V79.88ZM358.532 73.544L362.6 74.84C361.832 76.856 360.92 78.896 359.864 80.96C358.808 83 357.668 84.944 356.444 86.792C355.22 88.616 353.948 90.212 352.628 91.58C352.508 91.22 352.304 90.764 352.016 90.212C351.752 89.636 351.464 89.06 351.152 88.484C350.84 87.908 350.564 87.44 350.324 87.08C351.404 85.976 352.448 84.704 353.456 83.264C354.488 81.824 355.436 80.276 356.3 78.62C357.188 76.964 357.932 75.272 358.532 73.544ZM355.076 83.516L359.18 79.412V79.448V107.168H355.076V83.516ZM395.072 86.54V91.076H412.856V86.54H395.072ZM391.472 83.84H416.672V93.704H391.472V83.84ZM397.628 79.772H410.372V82.58H397.628V79.772ZM402.056 84.74H405.548V92.336H402.056V84.74ZM403.784 76.748C402.728 77.78 401.408 78.824 399.824 79.88C398.24 80.936 396.524 81.92 394.676 82.832C392.828 83.72 390.956 84.5 389.06 85.172C388.82 84.692 388.484 84.116 388.052 83.444C387.62 82.772 387.2 82.22 386.792 81.788C388.784 81.188 390.716 80.444 392.588 79.556C394.484 78.668 396.212 77.684 397.772 76.604C399.332 75.524 400.604 74.456 401.588 73.4H405.656C407.048 74.672 408.584 75.836 410.264 76.892C411.968 77.948 413.744 78.86 415.592 79.628C417.464 80.372 419.324 80.984 421.172 81.464C420.716 81.944 420.272 82.52 419.84 83.192C419.408 83.864 419.024 84.476 418.688 85.028C417.416 84.596 416.096 84.08 414.728 83.48C413.36 82.88 412.004 82.22 410.66 81.5C409.316 80.756 408.056 79.988 406.88 79.196C405.704 78.38 404.672 77.564 403.784 76.748ZM396.332 87.296L399.284 86.504C399.62 87.104 399.92 87.764 400.184 88.484C400.448 89.204 400.628 89.828 400.724 90.356L397.592 91.292C397.52 90.764 397.364 90.128 397.124 89.384C396.884 88.616 396.62 87.92 396.332 87.296ZM408.212 86.36L411.812 87.224C411.404 87.992 411.02 88.736 410.66 89.456C410.324 90.176 410 90.788 409.688 91.292L406.772 90.464C407.012 89.888 407.276 89.204 407.564 88.412C407.876 87.62 408.092 86.936 408.212 86.36ZM393.452 94.892H414.764V107.096H410.3V97.7H397.7V107.24H393.452V94.892ZM395.864 99.14H412.136V101.948H395.864V99.14ZM395.9 103.46H412.136V106.268H395.9V103.46ZM437.264 94.748C437.144 93.788 437.216 92.948 437.48 92.228C437.768 91.508 438.164 90.86 438.668 90.284C439.196 89.708 439.772 89.18 440.396 88.7C441.044 88.22 441.644 87.752 442.196 87.296C442.772 86.84 443.24 86.372 443.6 85.892C443.96 85.412 444.14 84.884 444.14 84.308C444.14 83.588 443.96 82.976 443.6 82.472C443.24 81.968 442.712 81.584 442.016 81.32C441.344 81.056 440.528 80.924 439.568 80.924C438.464 80.924 437.456 81.164 436.544 81.644C435.632 82.124 434.732 82.832 433.844 83.768L430.892 81.032C432.044 79.712 433.4 78.656 434.96 77.864C436.544 77.048 438.284 76.64 440.18 76.64C441.932 76.64 443.48 76.904 444.824 77.432C446.192 77.96 447.26 78.764 448.028 79.844C448.82 80.9 449.216 82.232 449.216 83.84C449.216 84.728 449.024 85.508 448.64 86.18C448.28 86.828 447.8 87.416 447.2 87.944C446.624 88.448 446.012 88.94 445.364 89.42C444.716 89.876 444.116 90.356 443.564 90.86C443.012 91.364 442.58 91.928 442.268 92.552C441.956 93.176 441.836 93.908 441.908 94.748H437.264ZM439.604 104.324C438.692 104.324 437.936 104.024 437.336 103.424C436.736 102.824 436.436 102.068 436.436 101.156C436.436 100.22 436.736 99.452 437.336 98.852C437.936 98.252 438.692 97.952 439.604 97.952C440.516 97.952 441.272 98.252 441.872 98.852C442.472 99.452 442.772 100.22 442.772 101.156C442.772 102.068 442.472 102.824 441.872 103.424C441.272 104.024 440.516 104.324 439.604 104.324Z" fill="#864DA1"/>
</svg>
