<svg width="592" height="128" viewBox="0 0 592 128" fill="none" xmlns="http://www.w3.org/2000/svg">
<path d="M171.512 20.768H184.22V24.584H171.512V20.768ZM174.716 28.472H181.016V31.964H174.716V28.472ZM174.716 35.816H181.016V39.344H174.716V35.816ZM173.024 22.82H176.516V45.428H173.024V22.82ZM179.036 22.82H182.636V53.24H179.036V22.82ZM170.9 44.6C172.196 44.408 173.72 44.168 175.472 43.88C177.248 43.568 179.048 43.244 180.872 42.908L181.196 46.544C179.564 46.88 177.92 47.228 176.264 47.588C174.632 47.924 173.108 48.236 171.692 48.524L170.9 44.6ZM182.888 42.152C183.968 41.936 185.204 41.672 186.596 41.36C188.012 41.048 189.488 40.712 191.024 40.352L191.384 43.34C190.136 43.772 188.888 44.204 187.64 44.636C186.416 45.044 185.264 45.428 184.184 45.788L182.888 42.152ZM184.94 22.964L188.252 24.188V42.656H184.94V22.964ZM190.088 26.24H193.436V37.616C193.436 39.152 193.352 40.652 193.184 42.116C193.04 43.58 192.716 44.984 192.212 46.328C191.732 47.648 191.012 48.896 190.052 50.072C189.092 51.248 187.808 52.316 186.2 53.276C185.96 52.892 185.6 52.436 185.12 51.908C184.64 51.38 184.208 50.972 183.824 50.684C185.216 49.844 186.32 48.932 187.136 47.948C187.976 46.964 188.612 45.92 189.044 44.816C189.476 43.688 189.752 42.512 189.872 41.288C190.016 40.064 190.088 38.816 190.088 37.544V26.24ZM200.384 22.136H203.84V42.764C203.84 43.484 203.78 44.096 203.66 44.6C203.54 45.08 203.264 45.476 202.832 45.788C202.424 46.052 201.968 46.232 201.464 46.328C200.984 46.4 200.408 46.436 199.736 46.436C199.712 45.98 199.592 45.416 199.376 44.744C199.184 44.072 198.98 43.508 198.764 43.052C199.052 43.076 199.316 43.088 199.556 43.088C199.796 43.088 199.976 43.088 200.096 43.088C200.288 43.088 200.384 42.968 200.384 42.728V22.136ZM191.204 19.472L194.156 21.92C193.172 22.712 192.128 23.492 191.024 24.26C189.92 25.004 188.924 25.652 188.036 26.204L185.624 24.008C186.2 23.624 186.824 23.18 187.496 22.676C188.192 22.148 188.864 21.608 189.512 21.056C190.184 20.48 190.748 19.952 191.204 19.472ZM195.02 22.136H202.436V25.556H198.404V53.24H195.02V22.136ZM226.16 34.664C226.856 37.136 227.84 39.344 229.112 41.288C230.384 43.232 232.004 44.864 233.972 46.184C235.964 47.48 238.376 48.44 241.208 49.064C240.872 49.376 240.512 49.784 240.128 50.288C239.768 50.792 239.408 51.308 239.048 51.836C238.712 52.364 238.436 52.844 238.22 53.276C235.148 52.412 232.568 51.188 230.48 49.604C228.392 48.02 226.664 46.052 225.296 43.7C223.952 41.348 222.836 38.624 221.948 35.528L226.16 34.664ZM209.096 32.864H239.048V37.292H209.096V32.864ZM207.98 21.812H240.02V26.24H207.98V21.812ZM221.372 23H225.98V31.856C225.98 33.368 225.872 34.952 225.656 36.608C225.44 38.24 225.02 39.86 224.396 41.468C223.772 43.052 222.86 44.576 221.66 46.04C220.46 47.504 218.876 48.848 216.908 50.072C214.964 51.32 212.552 52.4 209.672 53.312C209.504 52.928 209.264 52.496 208.952 52.016C208.64 51.536 208.304 51.056 207.944 50.576C207.608 50.12 207.284 49.736 206.972 49.424C209.54 48.68 211.688 47.792 213.416 46.76C215.168 45.704 216.572 44.564 217.628 43.34C218.684 42.116 219.476 40.856 220.004 39.56C220.532 38.264 220.892 36.956 221.084 35.636C221.276 34.292 221.372 33.02 221.372 31.82V23ZM243.512 20.768H256.22V24.584H243.512V20.768ZM246.716 28.472H253.016V31.964H246.716V28.472ZM246.716 35.816H253.016V39.344H246.716V35.816ZM245.024 22.82H248.516V45.428H245.024V22.82ZM251.036 22.82H254.636V53.24H251.036V22.82ZM242.9 44.6C244.196 44.408 245.72 44.168 247.472 43.88C249.248 43.568 251.048 43.244 252.872 42.908L253.196 46.544C251.564 46.88 249.92 47.228 248.264 47.588C246.632 47.924 245.108 48.236 243.692 48.524L242.9 44.6ZM254.888 42.152C255.968 41.936 257.204 41.672 258.596 41.36C260.012 41.048 261.488 40.712 263.024 40.352L263.384 43.34C262.136 43.772 260.888 44.204 259.64 44.636C258.416 45.044 257.264 45.428 256.184 45.788L254.888 42.152ZM256.94 22.964L260.252 24.188V42.656H256.94V22.964ZM262.088 26.24H265.436V37.616C265.436 39.152 265.352 40.652 265.184 42.116C265.04 43.58 264.716 44.984 264.212 46.328C263.732 47.648 263.012 48.896 262.052 50.072C261.092 51.248 259.808 52.316 258.2 53.276C257.96 52.892 257.6 52.436 257.12 51.908C256.64 51.38 256.208 50.972 255.824 50.684C257.216 49.844 258.32 48.932 259.136 47.948C259.976 46.964 260.612 45.92 261.044 44.816C261.476 43.688 261.752 42.512 261.872 41.288C262.016 40.064 262.088 38.816 262.088 37.544V26.24ZM272.384 22.136H275.84V42.764C275.84 43.484 275.78 44.096 275.66 44.6C275.54 45.08 275.264 45.476 274.832 45.788C274.424 46.052 273.968 46.232 273.464 46.328C272.984 46.4 272.408 46.436 271.736 46.436C271.712 45.98 271.592 45.416 271.376 44.744C271.184 44.072 270.98 43.508 270.764 43.052C271.052 43.076 271.316 43.088 271.556 43.088C271.796 43.088 271.976 43.088 272.096 43.088C272.288 43.088 272.384 42.968 272.384 42.728V22.136ZM263.204 19.472L266.156 21.92C265.172 22.712 264.128 23.492 263.024 24.26C261.92 25.004 260.924 25.652 260.036 26.204L257.624 24.008C258.2 23.624 258.824 23.18 259.496 22.676C260.192 22.148 260.864 21.608 261.512 21.056C262.184 20.48 262.748 19.952 263.204 19.472ZM267.02 22.136H274.436V25.556H270.404V53.24H267.02V22.136ZM279.368 33.62H312.704V38.336H279.368V33.62ZM318.644 21.704L322.604 20.156C323.132 20.948 323.66 21.824 324.188 22.784C324.716 23.72 325.184 24.632 325.592 25.52C326.024 26.408 326.348 27.224 326.564 27.968L322.28 29.732C322.112 29.012 321.836 28.196 321.452 27.284C321.068 26.348 320.624 25.4 320.12 24.44C319.64 23.456 319.148 22.544 318.644 21.704ZM341 19.976L345.68 21.416C345.2 22.4 344.696 23.384 344.168 24.368C343.664 25.328 343.16 26.252 342.656 27.14C342.152 28.004 341.684 28.772 341.252 29.444L337.292 28.076C337.748 27.356 338.204 26.528 338.66 25.592C339.116 24.656 339.548 23.696 339.956 22.712C340.388 21.728 340.736 20.816 341 19.976ZM317.888 30.668H346.472V34.952H317.888V30.668ZM315.692 39.272H348.344V43.628H315.692V39.272ZM329.624 19.364H334.16V53.168H329.624V19.364ZM369.692 28.544H384.92V32.576H369.692V28.544ZM351.224 26.888H369.944V30.452H351.224V26.888ZM352.556 35.132H368.54V38.624H352.556V35.132ZM353.204 41H368.072V44.492H353.204V41ZM377.288 19.652H381.464V48.416C381.464 49.52 381.332 50.372 381.068 50.972C380.804 51.596 380.348 52.088 379.7 52.448C379.028 52.76 378.188 52.976 377.18 53.096C376.196 53.216 374.984 53.276 373.544 53.276C373.472 52.7 373.28 52.004 372.968 51.188C372.68 50.396 372.38 49.724 372.068 49.172C373.028 49.196 373.916 49.208 374.732 49.208C375.572 49.208 376.148 49.208 376.46 49.208C376.772 49.208 376.988 49.148 377.108 49.028C377.228 48.908 377.288 48.704 377.288 48.416V19.652ZM370.376 35.78L373.94 34.592C374.396 35.432 374.816 36.332 375.2 37.292C375.608 38.252 375.944 39.2 376.208 40.136C376.496 41.048 376.688 41.876 376.784 42.62L372.968 43.952C372.896 43.232 372.728 42.404 372.464 41.468C372.2 40.532 371.888 39.572 371.528 38.588C371.168 37.604 370.784 36.668 370.376 35.78ZM351.224 21.632L354.212 20.336C354.74 21.128 355.232 22.004 355.688 22.964C356.144 23.924 356.444 24.764 356.588 25.484L353.456 26.96C353.312 26.24 353.024 25.388 352.592 24.404C352.184 23.396 351.728 22.472 351.224 21.632ZM353.852 31.172L357.164 30.02C357.572 30.716 357.956 31.472 358.316 32.288C358.7 33.104 358.94 33.824 359.036 34.448L355.508 35.744C355.436 35.144 355.232 34.412 354.896 33.548C354.584 32.684 354.236 31.892 353.852 31.172ZM356.372 19.724H359.756V28.544H356.372V19.724ZM358.64 36.176H362.636V49.244H358.64V36.176ZM361.412 19.724H364.832V28.544H361.412V19.724ZM351.368 47.876C352.904 47.732 354.668 47.564 356.66 47.372C358.676 47.18 360.788 46.976 362.996 46.76C365.204 46.52 367.4 46.28 369.584 46.04L369.656 49.82C367.568 50.06 365.456 50.3 363.32 50.54C361.208 50.804 359.18 51.044 357.236 51.26C355.292 51.476 353.516 51.668 351.908 51.836L351.368 47.876ZM367.136 20.12L370.88 21.452C370.304 22.436 369.728 23.408 369.152 24.368C368.576 25.328 368.048 26.144 367.568 26.816L364.688 25.664C364.952 25.16 365.24 24.584 365.552 23.936C365.864 23.288 366.164 22.628 366.452 21.956C366.74 21.284 366.968 20.672 367.136 20.12ZM363.824 29.984L367.712 30.956C367.328 31.772 366.956 32.576 366.596 33.368C366.236 34.16 365.9 34.844 365.588 35.42L362.204 34.556C362.396 34.148 362.588 33.68 362.78 33.152C362.996 32.6 363.188 32.048 363.356 31.496C363.548 30.944 363.704 30.44 363.824 29.984ZM387.692 25.196H420.344V29.3H387.692V25.196ZM399.716 34.016H413.504V38.084H399.716V34.016ZM411.884 34.016H416.348C416.348 34.016 416.336 34.136 416.312 34.376C416.312 34.592 416.312 34.844 416.312 35.132C416.312 35.42 416.288 35.672 416.24 35.888C416.024 39.176 415.784 41.864 415.52 43.952C415.256 46.04 414.956 47.672 414.62 48.848C414.284 50 413.876 50.84 413.396 51.368C412.844 51.968 412.268 52.376 411.668 52.592C411.068 52.808 410.348 52.964 409.508 53.06C408.812 53.132 407.9 53.156 406.772 53.132C405.644 53.132 404.48 53.108 403.28 53.06C403.256 52.436 403.1 51.716 402.812 50.9C402.524 50.108 402.164 49.412 401.732 48.812C402.98 48.932 404.18 49.004 405.332 49.028C406.484 49.052 407.312 49.064 407.816 49.064C408.224 49.064 408.56 49.04 408.824 48.992C409.112 48.92 409.364 48.788 409.58 48.596C409.964 48.284 410.288 47.6 410.552 46.544C410.84 45.488 411.092 43.988 411.308 42.044C411.524 40.1 411.716 37.64 411.884 34.664V34.016ZM398.096 27.644H402.92C402.824 29.564 402.668 31.508 402.452 33.476C402.26 35.42 401.924 37.352 401.444 39.272C400.964 41.168 400.268 42.98 399.356 44.708C398.444 46.436 397.244 48.044 395.756 49.532C394.268 51.02 392.384 52.34 390.104 53.492C389.792 52.892 389.336 52.244 388.736 51.548C388.16 50.852 387.596 50.276 387.044 49.82C389.132 48.86 390.836 47.744 392.156 46.472C393.5 45.176 394.556 43.784 395.324 42.296C396.092 40.784 396.656 39.212 397.016 37.58C397.4 35.948 397.652 34.292 397.772 32.612C397.916 30.932 398.024 29.276 398.096 27.644ZM401.552 19.256H406.052V26.816H401.552V19.256ZM156.716 82.508H161.18V99.32C161.18 100.064 161.276 100.628 161.468 101.012C161.684 101.372 162.128 101.612 162.8 101.732C163.472 101.852 164.456 101.912 165.752 101.912C166.136 101.912 166.712 101.912 167.48 101.912C168.272 101.912 169.148 101.912 170.108 101.912C171.092 101.912 172.076 101.912 173.06 101.912C174.068 101.912 174.98 101.912 175.796 101.912C176.612 101.912 177.224 101.912 177.632 101.912C178.592 101.912 179.348 101.84 179.9 101.696C180.476 101.528 180.92 101.228 181.232 100.796C181.568 100.364 181.82 99.74 181.988 98.924C182.156 98.108 182.312 97.04 182.456 95.72C182.84 95.936 183.284 96.164 183.788 96.404C184.316 96.644 184.844 96.848 185.372 97.016C185.924 97.184 186.404 97.316 186.812 97.412C186.62 99.116 186.344 100.532 185.984 101.66C185.624 102.788 185.12 103.688 184.472 104.36C183.824 105.032 182.96 105.512 181.88 105.8C180.8 106.088 179.444 106.232 177.812 106.232C177.524 106.232 177.068 106.232 176.444 106.232C175.82 106.232 175.1 106.232 174.284 106.232C173.468 106.232 172.628 106.232 171.764 106.232C170.9 106.232 170.06 106.232 169.244 106.232C168.452 106.232 167.744 106.232 167.12 106.232C166.496 106.232 166.052 106.232 165.788 106.232C163.46 106.232 161.636 106.028 160.316 105.62C158.996 105.236 158.06 104.552 157.508 103.568C156.98 102.56 156.716 101.144 156.716 99.32V82.508ZM159.272 87.404H179.18V91.652H159.272V87.404ZM155.276 75.452H182.096V93.344H177.596V79.736H155.276V75.452ZM202.004 75.02H222.236V77.72H202.004V75.02ZM203.192 78.944H221.3V81.428H203.192V78.944ZM209.744 73.4H213.956V80.348H209.744V73.4ZM212.732 83.408H215.396V84.848C215.396 85.16 215.432 85.352 215.504 85.424C215.576 85.496 215.756 85.532 216.044 85.532C216.14 85.532 216.308 85.532 216.548 85.532C216.812 85.532 217.076 85.532 217.34 85.532C217.604 85.532 217.784 85.532 217.88 85.532C218.12 85.532 218.276 85.532 218.348 85.532C218.444 85.508 218.516 85.448 218.564 85.352C218.804 85.472 219.116 85.58 219.5 85.676C219.908 85.772 220.256 85.844 220.544 85.892C220.472 86.348 220.256 86.672 219.896 86.864C219.536 87.032 218.996 87.116 218.276 87.116C218.156 87.116 217.976 87.116 217.736 87.116C217.496 87.116 217.232 87.116 216.944 87.116C216.68 87.116 216.428 87.116 216.188 87.116C215.948 87.116 215.768 87.116 215.648 87.116C214.472 87.116 213.692 86.96 213.308 86.648C212.924 86.336 212.732 85.724 212.732 84.812V83.408ZM208.7 83.552H211.112C211.112 84.344 210.98 85.016 210.716 85.568C210.476 86.12 210.02 86.564 209.348 86.9C208.676 87.236 207.692 87.464 206.396 87.584C206.324 87.32 206.18 87.02 205.964 86.684C205.748 86.348 205.532 86.072 205.316 85.856C206.3 85.808 207.032 85.712 207.512 85.568C207.992 85.4 208.304 85.16 208.448 84.848C208.616 84.512 208.7 84.08 208.7 83.552ZM205.496 84.596V87.98H218.492V84.596H205.496ZM202.148 82.436H222.056V90.104H202.148V82.436ZM207.116 95.864V96.98H217.088V95.864H207.116ZM207.116 98.528V99.68H217.088V98.528H207.116ZM207.116 93.236V94.28H217.088V93.236H207.116ZM203.3 91.004H221.084V101.876H203.3V91.004ZM213.02 103.46L215.72 101.264C216.608 101.648 217.52 102.068 218.456 102.524C219.392 102.956 220.28 103.388 221.12 103.82C221.984 104.228 222.716 104.6 223.316 104.936L219.716 107.168C219.212 106.832 218.588 106.448 217.844 106.016C217.1 105.608 216.308 105.176 215.468 104.72C214.652 104.264 213.836 103.844 213.02 103.46ZM207.512 101.336L210.788 103.424C210.14 103.904 209.36 104.384 208.448 104.864C207.56 105.368 206.624 105.824 205.64 106.232C204.68 106.64 203.744 106.964 202.832 107.204C202.52 106.844 202.1 106.412 201.572 105.908C201.044 105.404 200.564 104.996 200.132 104.684C201.044 104.444 201.968 104.144 202.904 103.784C203.864 103.4 204.74 103.004 205.532 102.596C206.348 102.164 207.008 101.744 207.512 101.336ZM190.556 84.452H200.132V87.728H190.556V84.452ZM190.808 74.552H200.06V77.792H190.808V74.552ZM190.556 89.384H200.132V92.624H190.556V89.384ZM189.08 79.376H201.068V82.796H189.08V79.376ZM192.536 94.352H200.096V105.26H192.536V101.876H196.64V97.736H192.536V94.352ZM190.448 94.352H193.832V106.736H190.448V94.352ZM226.34 75.812H257.732V80.24H226.34V75.812ZM243.728 87.908L247.076 85.1C248.036 85.796 249.068 86.564 250.172 87.404C251.3 88.22 252.416 89.072 253.52 89.96C254.648 90.848 255.692 91.724 256.652 92.588C257.612 93.428 258.428 94.196 259.1 94.892L255.428 98.24C254.828 97.52 254.06 96.728 253.124 95.864C252.212 94.976 251.216 94.064 250.136 93.128C249.08 92.192 247.988 91.28 246.86 90.392C245.756 89.504 244.712 88.676 243.728 87.908ZM242.288 77.468L247.076 79.16C245.708 81.68 244.076 84.14 242.18 86.54C240.308 88.94 238.196 91.16 235.844 93.2C233.492 95.216 230.936 96.944 228.176 98.384C227.96 98 227.672 97.568 227.312 97.088C226.952 96.608 226.58 96.14 226.196 95.684C225.836 95.204 225.5 94.796 225.188 94.46C227.132 93.572 228.968 92.492 230.696 91.22C232.424 89.924 234.02 88.52 235.484 87.008C236.972 85.496 238.28 83.936 239.408 82.328C240.56 80.696 241.52 79.076 242.288 77.468ZM239.66 86.18L244.376 81.464V107.168H239.66V86.18ZM274.58 87.044V93.308H280.916V87.044H274.58ZM270.512 83.264H285.272V97.052H270.512V83.264ZM262.556 74.624H293.48V107.204H288.764V79.052H267.056V107.204H262.556V74.624ZM265.112 101.228H291.428V105.26H265.112V101.228ZM302.984 108.968L301.832 106.052C303.344 105.572 304.496 104.912 305.288 104.072C306.104 103.256 306.512 102.32 306.512 101.264L306.224 97.736L308.24 100.94C307.928 101.204 307.592 101.408 307.232 101.552C306.872 101.696 306.488 101.768 306.08 101.768C305.192 101.768 304.4 101.492 303.704 100.94C303.008 100.364 302.66 99.56 302.66 98.528C302.66 97.52 303.008 96.728 303.704 96.152C304.4 95.576 305.228 95.288 306.188 95.288C307.46 95.288 308.42 95.732 309.068 96.62C309.74 97.508 310.076 98.708 310.076 100.22C310.076 102.26 309.452 104.06 308.204 105.62C306.956 107.18 305.216 108.296 302.984 108.968ZM348.236 73.544L352.484 74.516C351.98 76.388 351.368 78.248 350.648 80.096C349.928 81.92 349.136 83.636 348.272 85.244C347.432 86.828 346.532 88.22 345.572 89.42C345.308 89.156 344.96 88.844 344.528 88.484C344.12 88.124 343.688 87.776 343.232 87.44C342.8 87.08 342.416 86.792 342.08 86.576C343.016 85.544 343.868 84.332 344.636 82.94C345.404 81.548 346.088 80.048 346.688 78.44C347.312 76.832 347.828 75.2 348.236 73.544ZM347.228 89.528L351.44 90.392C351.104 91.928 350.672 93.44 350.144 94.928C349.64 96.392 349.076 97.784 348.452 99.104C347.828 100.4 347.18 101.54 346.508 102.524C346.244 102.284 345.884 102.02 345.428 101.732C344.972 101.42 344.504 101.132 344.024 100.868C343.568 100.58 343.172 100.352 342.836 100.184C343.868 98.912 344.756 97.316 345.5 95.396C346.244 93.476 346.82 91.52 347.228 89.528ZM349.028 79.88H363.824V83.876H347.444L349.028 79.88ZM353.168 81.644H357.452V102.416C357.452 103.424 357.344 104.252 357.128 104.9C356.912 105.548 356.468 106.052 355.796 106.412C355.172 106.748 354.416 106.976 353.528 107.096C352.664 107.216 351.644 107.276 350.468 107.276C350.396 106.628 350.204 105.884 349.892 105.044C349.604 104.204 349.304 103.496 348.992 102.92C349.76 102.944 350.48 102.956 351.152 102.956C351.848 102.956 352.316 102.956 352.556 102.956C352.772 102.956 352.928 102.92 353.024 102.848C353.12 102.752 353.168 102.584 353.168 102.344V81.644ZM358.748 90.464L362.6 89.168C363.248 90.416 363.836 91.748 364.364 93.164C364.892 94.556 365.348 95.936 365.732 97.304C366.116 98.648 366.392 99.86 366.56 100.94L362.42 102.38C362.276 101.324 362.024 100.1 361.664 98.708C361.328 97.316 360.908 95.912 360.404 94.496C359.9 93.056 359.348 91.712 358.748 90.464ZM362.636 79.88H363.212L363.896 79.736L366.956 80.312C366.74 81.776 366.488 83.288 366.2 84.848C365.912 86.384 365.636 87.692 365.372 88.772L361.7 88.088C361.796 87.44 361.904 86.684 362.024 85.82C362.144 84.956 362.264 84.056 362.384 83.12C362.504 82.16 362.588 81.26 362.636 80.42V79.88ZM340.532 73.544L344.6 74.84C343.832 76.856 342.92 78.896 341.864 80.96C340.808 83 339.668 84.944 338.444 86.792C337.22 88.616 335.948 90.212 334.628 91.58C334.508 91.22 334.304 90.764 334.016 90.212C333.752 89.636 333.464 89.06 333.152 88.484C332.84 87.908 332.564 87.44 332.324 87.08C333.404 85.976 334.448 84.704 335.456 83.264C336.488 81.824 337.436 80.276 338.3 78.62C339.188 76.964 339.932 75.272 340.532 73.544ZM337.076 83.516L341.18 79.412V79.448V107.168H337.076V83.516ZM377.072 86.54V91.076H394.856V86.54H377.072ZM373.472 83.84H398.672V93.704H373.472V83.84ZM379.628 79.772H392.372V82.58H379.628V79.772ZM384.056 84.74H387.548V92.336H384.056V84.74ZM385.784 76.748C384.728 77.78 383.408 78.824 381.824 79.88C380.24 80.936 378.524 81.92 376.676 82.832C374.828 83.72 372.956 84.5 371.06 85.172C370.82 84.692 370.484 84.116 370.052 83.444C369.62 82.772 369.2 82.22 368.792 81.788C370.784 81.188 372.716 80.444 374.588 79.556C376.484 78.668 378.212 77.684 379.772 76.604C381.332 75.524 382.604 74.456 383.588 73.4H387.656C389.048 74.672 390.584 75.836 392.264 76.892C393.968 77.948 395.744 78.86 397.592 79.628C399.464 80.372 401.324 80.984 403.172 81.464C402.716 81.944 402.272 82.52 401.84 83.192C401.408 83.864 401.024 84.476 400.688 85.028C399.416 84.596 398.096 84.08 396.728 83.48C395.36 82.88 394.004 82.22 392.66 81.5C391.316 80.756 390.056 79.988 388.88 79.196C387.704 78.38 386.672 77.564 385.784 76.748ZM378.332 87.296L381.284 86.504C381.62 87.104 381.92 87.764 382.184 88.484C382.448 89.204 382.628 89.828 382.724 90.356L379.592 91.292C379.52 90.764 379.364 90.128 379.124 89.384C378.884 88.616 378.62 87.92 378.332 87.296ZM390.212 86.36L393.812 87.224C393.404 87.992 393.02 88.736 392.66 89.456C392.324 90.176 392 90.788 391.688 91.292L388.772 90.464C389.012 89.888 389.276 89.204 389.564 88.412C389.876 87.62 390.092 86.936 390.212 86.36ZM375.452 94.892H396.764V107.096H392.3V97.7H379.7V107.24H375.452V94.892ZM377.864 99.14H394.136V101.948H377.864V99.14ZM377.9 103.46H394.136V106.268H377.9V103.46ZM419.264 94.748C419.144 93.788 419.216 92.948 419.48 92.228C419.768 91.508 420.164 90.86 420.668 90.284C421.196 89.708 421.772 89.18 422.396 88.7C423.044 88.22 423.644 87.752 424.196 87.296C424.772 86.84 425.24 86.372 425.6 85.892C425.96 85.412 426.14 84.884 426.14 84.308C426.14 83.588 425.96 82.976 425.6 82.472C425.24 81.968 424.712 81.584 424.016 81.32C423.344 81.056 422.528 80.924 421.568 80.924C420.464 80.924 419.456 81.164 418.544 81.644C417.632 82.124 416.732 82.832 415.844 83.768L412.892 81.032C414.044 79.712 415.4 78.656 416.96 77.864C418.544 77.048 420.284 76.64 422.18 76.64C423.932 76.64 425.48 76.904 426.824 77.432C428.192 77.96 429.26 78.764 430.028 79.844C430.82 80.9 431.216 82.232 431.216 83.84C431.216 84.728 431.024 85.508 430.64 86.18C430.28 86.828 429.8 87.416 429.2 87.944C428.624 88.448 428.012 88.94 427.364 89.42C426.716 89.876 426.116 90.356 425.564 90.86C425.012 91.364 424.58 91.928 424.268 92.552C423.956 93.176 423.836 93.908 423.908 94.748H419.264ZM421.604 104.324C420.692 104.324 419.936 104.024 419.336 103.424C418.736 102.824 418.436 102.068 418.436 101.156C418.436 100.22 418.736 99.452 419.336 98.852C419.936 98.252 420.692 97.952 421.604 97.952C422.516 97.952 423.272 98.252 423.872 98.852C424.472 99.452 424.772 100.22 424.772 101.156C424.772 102.068 424.472 102.824 423.872 103.424C423.272 104.024 422.516 104.324 421.604 104.324Z" fill="#864DA1"/>
</svg>
