<svg width="138" height="43" viewBox="0 0 138 43" fill="none" xmlns="http://www.w3.org/2000/svg">
<rect x="0.75" y="0.75" width="136.5" height="41.5" rx="20.75" stroke="#CCA1E0" stroke-width="1.5"/>
<path d="M80.3411 28.551H87.3591V30.949H80.3411V28.551ZM79.0211 22.567H88.7671V31.719H86.1491V24.965H81.5071V31.807H79.0211V22.567ZM77.5911 18.409C78.4711 18.365 79.4757 18.3136 80.6051 18.255C81.7491 18.1963 82.9444 18.1303 84.1911 18.057C85.4524 17.9836 86.6991 17.903 87.9311 17.815L87.9091 20.191C86.7357 20.279 85.5477 20.3743 84.3451 20.477C83.1571 20.565 82.0057 20.6456 80.8911 20.719C79.7911 20.7923 78.7791 20.8656 77.8551 20.939L77.5911 18.409ZM84.5211 15.637L86.6331 14.581C87.0877 15.1823 87.5351 15.8423 87.9751 16.561C88.4297 17.2796 88.8331 17.9836 89.1851 18.673C89.5517 19.3623 89.8231 19.993 89.9991 20.565L87.7111 21.775C87.5644 21.2176 87.3224 20.587 86.9851 19.883C86.6477 19.1643 86.2664 18.4383 85.8411 17.705C85.4304 16.957 84.9904 16.2676 84.5211 15.637ZM81.4191 11.105L84.3671 11.655C84.0591 12.5936 83.7291 13.5543 83.3771 14.537C83.0251 15.5196 82.6657 16.4656 82.2991 17.375C81.9471 18.2696 81.6024 19.0616 81.2651 19.751L79.0651 19.201C79.2851 18.6436 79.5051 18.035 79.7251 17.375C79.9597 16.7003 80.1797 16.0036 80.3851 15.285C80.6051 14.5516 80.8031 13.833 80.9791 13.129C81.1551 12.4103 81.3017 11.7356 81.4191 11.105ZM69.1211 15.527H76.2271V17.969H69.1211V15.527ZM72.0911 11.105L74.5551 11.391C74.3204 12.5496 74.0637 13.7743 73.7851 15.065C73.5211 16.3556 73.2351 17.6463 72.9271 18.937C72.6337 20.2276 72.3404 21.4743 72.0471 22.677C71.7537 23.865 71.4677 24.9503 71.1891 25.933L69.0551 24.789C69.3044 23.9236 69.5611 22.9336 69.8251 21.819C70.1037 20.7043 70.3751 19.531 70.6391 18.299C70.9177 17.0523 71.1817 15.8203 71.4311 14.603C71.6804 13.371 71.9004 12.205 72.0911 11.105ZM70.3531 24.437L71.8051 22.589C72.5677 23.073 73.3671 23.6156 74.2031 24.217C75.0391 24.8183 75.8237 25.427 76.5571 26.043C77.2904 26.659 77.8624 27.2456 78.2731 27.803L76.6891 29.937C76.2784 29.3796 75.7211 28.771 75.0171 28.111C74.3277 27.451 73.5724 26.7983 72.7511 26.153C71.9297 25.5076 71.1304 24.9356 70.3531 24.437ZM75.2811 15.527H75.7211L76.1611 15.461L77.7451 15.725C77.5837 18.585 77.2244 21.0563 76.6671 23.139C76.1244 25.2216 75.3691 26.9743 74.4011 28.397C73.4331 29.8196 72.2157 30.9856 70.7491 31.895C70.5584 31.5723 70.3091 31.1983 70.0011 30.773C69.7077 30.3623 69.4217 30.0323 69.1431 29.783C70.3897 29.123 71.4457 28.155 72.3111 26.879C73.1764 25.603 73.8511 24.0556 74.3351 22.237C74.8191 20.4036 75.1344 18.3283 75.2811 16.011V15.527Z" fill="#CCA1E0"/>
<path d="M51.917 20.939H62.587V23.007H51.917V20.939ZM51.609 24.679H62.961V26.835H51.609V24.679ZM58.187 21.577H60.519V31.389H58.187V21.577ZM53.897 21.687H56.163V25.889C56.163 26.2557 56.119 26.6883 56.031 27.187C55.943 27.6857 55.789 28.221 55.569 28.793C55.3636 29.3503 55.0703 29.8857 54.689 30.399C54.3076 30.927 53.831 31.389 53.259 31.785C53.0683 31.5503 52.8043 31.279 52.467 30.971C52.1296 30.6777 51.829 30.443 51.565 30.267C52.181 29.8857 52.6576 29.4237 52.995 28.881C53.347 28.3383 53.5816 27.7957 53.699 27.253C53.831 26.7103 53.897 26.2557 53.897 25.889V21.687ZM49.321 14.977H54.843V16.693H49.321V14.977ZM59.529 14.977H65.073V16.693H59.529V14.977ZM64.039 11.985H66.635V28.727C66.635 29.4017 66.5616 29.9297 66.415 30.311C66.283 30.707 66.0116 31.015 65.601 31.235C65.205 31.455 64.7136 31.5943 64.127 31.653C63.5403 31.7117 62.8216 31.7337 61.971 31.719C61.9416 31.4843 61.883 31.2057 61.795 30.883C61.7216 30.575 61.6336 30.2597 61.531 29.937C61.4283 29.6143 61.311 29.343 61.179 29.123C61.6776 29.1377 62.1616 29.1523 62.631 29.167C63.1003 29.167 63.423 29.1597 63.599 29.145C63.7603 29.145 63.8703 29.1083 63.929 29.035C64.0023 28.9617 64.039 28.8517 64.039 28.705V11.985ZM49.563 11.985H56.515V19.795H49.563V17.903H54.051V13.855H49.563V11.985ZM65.403 11.985V13.855H60.453V17.969H65.403V19.861H57.945V11.985H65.403ZM48.001 11.985H50.575V31.807H48.001V11.985Z" fill="#CCA1E0"/>
</svg>
