<svg width="309" height="101" viewBox="0 0 309 101" fill="none" xmlns="http://www.w3.org/2000/svg">
<path d="M18.636 26.42H27.024V29.3H18.636V26.42ZM18.528 48.956H29.256V52.052H18.528V48.956ZM16.692 34.916H28.176V37.508H16.692V34.916ZM14.928 30.596H18.636V35.888C18.636 37.088 18.576 38.408 18.456 39.848C18.336 41.264 18.12 42.728 17.808 44.24C17.496 45.752 17.04 47.216 16.44 48.632C15.864 50.048 15.12 51.332 14.208 52.484C14.04 52.244 13.776 51.944 13.416 51.584C13.056 51.248 12.684 50.912 12.3 50.576C11.94 50.264 11.616 50.036 11.328 49.892C12.432 48.5 13.224 46.976 13.704 45.32C14.208 43.664 14.532 42.02 14.676 40.388C14.844 38.732 14.928 37.208 14.928 35.816V30.596ZM17.016 30.596H29.868V41.864H16.908V38.876H26.016V33.62H17.016V30.596ZM16.98 43.304H30.48V53.06H26.7V46.4H20.616V53.168H16.98V43.304ZM32.028 23.792H36.132V44.168H32.028V23.792ZM39.912 20.156H44.124V48.056C44.124 49.28 43.98 50.216 43.692 50.864C43.428 51.512 42.948 52.004 42.252 52.34C41.532 52.7 40.62 52.928 39.516 53.024C38.412 53.144 37.068 53.204 35.484 53.204C35.436 52.796 35.328 52.328 35.16 51.8C35.016 51.272 34.848 50.732 34.656 50.18C34.464 49.652 34.272 49.196 34.08 48.812C35.16 48.836 36.168 48.86 37.104 48.884C38.04 48.884 38.688 48.884 39.048 48.884C39.36 48.884 39.576 48.824 39.696 48.704C39.84 48.56 39.912 48.332 39.912 48.02V20.156ZM20.292 19.868H22.668V20.732H24.036V21.956C22.956 23.42 21.588 25.028 19.932 26.78C18.3 28.508 16.248 30.164 13.776 31.748C13.632 31.436 13.404 31.076 13.092 30.668C12.78 30.26 12.444 29.876 12.084 29.516C11.748 29.156 11.448 28.868 11.184 28.652C12.624 27.836 13.92 26.936 15.072 25.952C16.224 24.944 17.232 23.924 18.096 22.892C18.984 21.86 19.716 20.852 20.292 19.868ZM21.192 19.868H24.144C24.984 20.492 25.872 21.2 26.808 21.992C27.744 22.76 28.644 23.528 29.508 24.296C30.372 25.04 31.092 25.724 31.668 26.348L28.932 29.552C28.404 28.928 27.744 28.22 26.952 27.428C26.16 26.612 25.32 25.796 24.432 24.98C23.568 24.164 22.74 23.48 21.948 22.928H21.192V19.868ZM62.376 23.504H79.44V27.14H62.376V23.504ZM57.66 30.164H80.952V33.8H57.66V30.164ZM61.836 19.76L65.868 20.696C65.244 22.52 64.428 24.284 63.42 25.988C62.436 27.668 61.416 29.084 60.36 30.236C60.072 30.02 59.7 29.78 59.244 29.516C58.812 29.252 58.368 29 57.912 28.76C57.456 28.52 57.06 28.328 56.724 28.184C57.852 27.176 58.86 25.916 59.748 24.404C60.636 22.892 61.332 21.344 61.836 19.76ZM67.272 19.4H71.556V32.612H67.272V19.4ZM56.472 33.44V46.724H52.26V37.436H48.084V33.44H56.472ZM56.472 44.852C57.216 46.028 58.26 46.892 59.604 47.444C60.948 47.996 62.556 48.308 64.428 48.38C65.484 48.428 66.732 48.464 68.172 48.488C69.636 48.488 71.172 48.476 72.78 48.452C74.388 48.428 75.96 48.38 77.496 48.308C79.056 48.236 80.436 48.152 81.636 48.056C81.492 48.392 81.324 48.824 81.132 49.352C80.94 49.88 80.76 50.42 80.592 50.972C80.448 51.524 80.34 52.016 80.268 52.448C79.188 52.52 77.952 52.568 76.56 52.592C75.168 52.64 73.74 52.664 72.276 52.664C70.812 52.688 69.396 52.688 68.028 52.664C66.66 52.64 65.436 52.604 64.356 52.556C62.148 52.46 60.264 52.112 58.704 51.512C57.144 50.936 55.764 49.952 54.564 48.56C53.772 49.232 52.956 49.928 52.116 50.648C51.3 51.368 50.4 52.112 49.416 52.88L47.292 48.38C48.132 47.876 49.008 47.324 49.92 46.724C50.832 46.124 51.708 45.5 52.548 44.852H56.472ZM48.12 22.856L51.324 20.264C52.068 20.744 52.824 21.308 53.592 21.956C54.36 22.58 55.08 23.228 55.752 23.9C56.424 24.548 56.964 25.148 57.372 25.7L53.952 28.58C53.592 28.004 53.088 27.38 52.44 26.708C51.816 26.036 51.12 25.364 50.352 24.692C49.584 23.996 48.84 23.384 48.12 22.856ZM64.752 39.2V42.872H74.256V39.2H64.752ZM60.54 35.744H78.756V46.292H60.54V35.744ZM98.736 19.544L102.984 20.516C102.48 22.388 101.868 24.248 101.148 26.096C100.428 27.92 99.636 29.636 98.772 31.244C97.932 32.828 97.032 34.22 96.072 35.42C95.808 35.156 95.46 34.844 95.028 34.484C94.62 34.124 94.188 33.776 93.732 33.44C93.3 33.08 92.916 32.792 92.58 32.576C93.516 31.544 94.368 30.332 95.136 28.94C95.904 27.548 96.588 26.048 97.188 24.44C97.812 22.832 98.328 21.2 98.736 19.544ZM97.728 35.528L101.94 36.392C101.604 37.928 101.172 39.44 100.644 40.928C100.14 42.392 99.576 43.784 98.952 45.104C98.328 46.4 97.68 47.54 97.008 48.524C96.744 48.284 96.384 48.02 95.928 47.732C95.472 47.42 95.004 47.132 94.524 46.868C94.068 46.58 93.672 46.352 93.336 46.184C94.368 44.912 95.256 43.316 96 41.396C96.744 39.476 97.32 37.52 97.728 35.528ZM99.528 25.88H114.324V29.876H97.944L99.528 25.88ZM103.668 27.644H107.952V48.416C107.952 49.424 107.844 50.252 107.628 50.9C107.412 51.548 106.968 52.052 106.296 52.412C105.672 52.748 104.916 52.976 104.028 53.096C103.164 53.216 102.144 53.276 100.968 53.276C100.896 52.628 100.704 51.884 100.392 51.044C100.104 50.204 99.804 49.496 99.492 48.92C100.26 48.944 100.98 48.956 101.652 48.956C102.348 48.956 102.816 48.956 103.056 48.956C103.272 48.956 103.428 48.92 103.524 48.848C103.62 48.752 103.668 48.584 103.668 48.344V27.644ZM109.248 36.464L113.1 35.168C113.748 36.416 114.336 37.748 114.864 39.164C115.392 40.556 115.848 41.936 116.232 43.304C116.616 44.648 116.892 45.86 117.06 46.94L112.92 48.38C112.776 47.324 112.524 46.1 112.164 44.708C111.828 43.316 111.408 41.912 110.904 40.496C110.4 39.056 109.848 37.712 109.248 36.464ZM113.136 25.88H113.712L114.396 25.736L117.456 26.312C117.24 27.776 116.988 29.288 116.7 30.848C116.412 32.384 116.136 33.692 115.872 34.772L112.2 34.088C112.296 33.44 112.404 32.684 112.524 31.82C112.644 30.956 112.764 30.056 112.884 29.12C113.004 28.16 113.088 27.26 113.136 26.42V25.88ZM91.032 19.544L95.1 20.84C94.332 22.856 93.42 24.896 92.364 26.96C91.308 29 90.168 30.944 88.944 32.792C87.72 34.616 86.448 36.212 85.128 37.58C85.008 37.22 84.804 36.764 84.516 36.212C84.252 35.636 83.964 35.06 83.652 34.484C83.34 33.908 83.064 33.44 82.824 33.08C83.904 31.976 84.948 30.704 85.956 29.264C86.988 27.824 87.936 26.276 88.8 24.62C89.688 22.964 90.432 21.272 91.032 19.544ZM87.576 29.516L91.68 25.412V25.448V53.168H87.576V29.516ZM123.648 25.268H134.7V49.496H123.648V45.716H130.812V29.012H123.648V25.268ZM121.128 25.268H125.052V52.16H121.128V25.268ZM123.504 34.88H132.684V38.624H123.504V34.88ZM126.276 19.4L130.956 20.084C130.572 21.308 130.152 22.52 129.696 23.72C129.264 24.92 128.868 25.94 128.508 26.78L125.052 25.988C125.22 25.364 125.376 24.668 125.52 23.9C125.688 23.132 125.844 22.352 125.988 21.56C126.132 20.768 126.228 20.048 126.276 19.4ZM139.452 24.98H150V28.94H139.452V24.98ZM148.488 24.98H152.484C152.484 24.98 152.484 25.112 152.484 25.376C152.484 25.616 152.484 25.892 152.484 26.204C152.484 26.516 152.472 26.756 152.448 26.924C152.352 30.98 152.232 34.424 152.088 37.256C151.968 40.064 151.812 42.392 151.62 44.24C151.452 46.064 151.248 47.492 151.008 48.524C150.768 49.556 150.456 50.312 150.072 50.792C149.592 51.488 149.076 51.968 148.524 52.232C147.972 52.496 147.336 52.688 146.616 52.808C145.92 52.904 145.056 52.94 144.024 52.916C143.016 52.916 141.984 52.904 140.928 52.88C140.904 52.28 140.76 51.572 140.496 50.756C140.232 49.964 139.908 49.268 139.524 48.668C140.676 48.764 141.744 48.824 142.728 48.848C143.736 48.872 144.468 48.884 144.924 48.884C145.284 48.884 145.572 48.848 145.788 48.776C146.028 48.68 146.256 48.512 146.472 48.272C146.784 47.96 147.036 47.324 147.228 46.364C147.444 45.38 147.624 44 147.768 42.224C147.912 40.448 148.044 38.204 148.164 35.492C148.284 32.78 148.392 29.552 148.488 25.808V24.98ZM139.56 19.436L143.736 20.408C143.28 22.16 142.716 23.912 142.044 25.664C141.396 27.416 140.676 29.072 139.884 30.632C139.116 32.168 138.324 33.512 137.508 34.664C137.268 34.424 136.92 34.148 136.464 33.836C136.032 33.5 135.588 33.176 135.132 32.864C134.7 32.552 134.316 32.312 133.98 32.144C134.772 31.112 135.516 29.924 136.212 28.58C136.932 27.212 137.568 25.748 138.12 24.188C138.696 22.604 139.176 21.02 139.56 19.436ZM137.796 35.384L141.18 33.476C141.78 34.292 142.416 35.192 143.088 36.176C143.76 37.16 144.396 38.12 144.996 39.056C145.596 39.992 146.088 40.82 146.472 41.54L142.8 43.772C142.464 43.028 142.008 42.176 141.432 41.216C140.88 40.256 140.28 39.272 139.632 38.264C139.008 37.232 138.396 36.272 137.796 35.384ZM164.184 26.024V27.212H180.744V26.024H164.184ZM164.184 22.712V23.864H180.744V22.712H164.184ZM160.08 20.444H185.064V29.516H160.08V20.444ZM170.304 32.756H174.48V53.204H170.304V32.756ZM164.508 43.376V44.528H180.348V43.376H164.508ZM164.508 40.28V41.396H180.348V40.28H164.508ZM160.512 38.192H184.524V46.616H160.512V38.192ZM156.408 47.732H188.7V50.756H156.408V47.732ZM161.628 34.556H183.192V37.076H161.628V34.556ZM156.84 30.524H188.088V36.644H183.984V33.44H160.8V36.644H156.84V30.524ZM210.588 47.876H221.748V51.8H210.588V47.876ZM209.004 36.824H223.692V53.024H219.516V40.82H213V53.168H209.004V36.824ZM198.672 39.524H201.156V46.868H198.672V39.524ZM202.596 24.08H206.376V48.884C206.376 49.796 206.28 50.54 206.088 51.116C205.92 51.692 205.572 52.148 205.044 52.484C204.492 52.796 203.856 53 203.136 53.096C202.416 53.192 201.528 53.24 200.472 53.24C200.4 52.712 200.256 52.064 200.04 51.296C199.824 50.528 199.596 49.892 199.356 49.388C199.932 49.412 200.484 49.424 201.012 49.424C201.54 49.424 201.9 49.412 202.092 49.388C202.428 49.388 202.596 49.208 202.596 48.848V24.08ZM193.848 24.08H197.484V37.364C197.484 38.612 197.448 39.944 197.376 41.36C197.304 42.776 197.16 44.204 196.944 45.644C196.752 47.084 196.452 48.476 196.044 49.82C195.636 51.14 195.096 52.328 194.424 53.384C194.208 53.144 193.908 52.892 193.524 52.628C193.14 52.364 192.744 52.1 192.336 51.836C191.928 51.596 191.58 51.416 191.292 51.296C192.084 50 192.66 48.56 193.02 46.976C193.38 45.368 193.608 43.736 193.704 42.08C193.8 40.424 193.848 38.852 193.848 37.364V24.08ZM191.328 35.492C192.72 35.396 194.304 35.288 196.08 35.168C197.88 35.048 199.776 34.904 201.768 34.736C203.76 34.568 205.74 34.4 207.708 34.232L207.744 37.76C205.848 37.952 203.94 38.144 202.02 38.336C200.124 38.504 198.288 38.672 196.512 38.84C194.76 38.984 193.164 39.128 191.724 39.272L191.328 35.492ZM197.808 29.48L200.328 28.508C200.76 29.18 201.132 29.936 201.444 30.776C201.78 31.592 201.996 32.312 202.092 32.936L199.392 34.088C199.32 33.44 199.128 32.684 198.816 31.82C198.528 30.956 198.192 30.176 197.808 29.48ZM198.168 19.364L202.776 20.156C202.392 21.212 201.996 22.244 201.588 23.252C201.204 24.26 200.844 25.112 200.508 25.808L197.016 25.016C197.232 24.2 197.448 23.264 197.664 22.208C197.904 21.152 198.072 20.204 198.168 19.364ZM210.912 20.084L215.016 21.056C214.608 24.104 214.008 26.948 213.216 29.588C212.448 32.228 211.404 34.448 210.084 36.248C209.868 35.984 209.568 35.696 209.184 35.384C208.824 35.048 208.452 34.724 208.068 34.412C207.684 34.1 207.336 33.836 207.024 33.62C207.72 32.612 208.32 31.4 208.824 29.984C209.352 28.544 209.784 26.984 210.12 25.304C210.48 23.6 210.744 21.86 210.912 20.084ZM220.596 19.976C220.908 21.608 221.304 23.228 221.784 24.836C222.264 26.444 222.84 27.932 223.512 29.3C224.208 30.668 224.964 31.808 225.78 32.72C225.468 32.984 225.108 33.32 224.7 33.728C224.316 34.112 223.944 34.52 223.584 34.952C223.224 35.36 222.924 35.756 222.684 36.14C221.724 34.988 220.872 33.596 220.128 31.964C219.408 30.332 218.784 28.568 218.256 26.672C217.752 24.752 217.32 22.796 216.96 20.804L220.596 19.976ZM195.54 24.08H204.144V27.716H195.54V24.08ZM230.316 22.316H259.08V26.132H230.316V22.316ZM228.3 30.56H260.736V34.412H228.3V30.56ZM235.572 42.62H253.536V45.896H235.572V42.62ZM235.608 48.452H253.572V52.052H235.608V48.452ZM242.124 19.4H246.696V24.62H242.124V19.4ZM233.412 36.572H256.236V53.168H251.7V40.172H237.768V53.204H233.412V36.572ZM250.044 25.448L254.868 26.456C254.436 27.368 254.004 28.256 253.572 29.12C253.164 29.984 252.792 30.716 252.456 31.316L248.28 30.344C248.496 29.888 248.712 29.372 248.928 28.796C249.168 28.22 249.384 27.644 249.576 27.068C249.792 26.468 249.948 25.928 250.044 25.448ZM234.888 26.456L239.172 25.592C239.628 26.336 240.036 27.152 240.396 28.04C240.756 28.904 240.984 29.672 241.08 30.344L236.58 31.352C236.508 30.68 236.304 29.876 235.968 28.94C235.656 28.004 235.296 27.176 234.888 26.456ZM264.444 39.92H296.592V43.664H264.444V39.92ZM278.268 37.112H282.66V53.168H278.268V37.112ZM276.936 41.576L280.464 43.088C279.384 44.504 278.076 45.848 276.54 47.12C275.028 48.368 273.396 49.484 271.644 50.468C269.916 51.476 268.164 52.304 266.388 52.952C266.172 52.592 265.884 52.184 265.524 51.728C265.188 51.272 264.84 50.828 264.48 50.396C264.144 49.964 263.808 49.616 263.472 49.352C265.224 48.824 266.952 48.164 268.656 47.372C270.36 46.58 271.932 45.692 273.372 44.708C274.836 43.7 276.024 42.656 276.936 41.576ZM283.956 41.684C284.892 42.716 286.08 43.712 287.52 44.672C288.984 45.608 290.58 46.448 292.308 47.192C294.06 47.936 295.812 48.548 297.564 49.028C297.228 49.316 296.88 49.676 296.52 50.108C296.16 50.54 295.812 50.984 295.476 51.44C295.14 51.896 294.864 52.304 294.648 52.664C292.896 52.064 291.144 51.284 289.392 50.324C287.64 49.388 285.984 48.32 284.424 47.12C282.888 45.92 281.544 44.66 280.392 43.34L283.956 41.684ZM278.628 31.748V34.448H282.228V31.748H278.628ZM278.628 26.06V28.724H282.228V26.06H278.628ZM275.028 22.82H286.008V37.688H275.028V22.82ZM278.772 19.364L283.128 19.868C282.816 20.828 282.48 21.74 282.12 22.604C281.784 23.468 281.484 24.212 281.22 24.836L277.764 24.26C277.956 23.54 278.148 22.724 278.34 21.812C278.556 20.9 278.7 20.084 278.772 19.364ZM264.12 27.428L265.812 24.548C266.436 24.956 267.084 25.436 267.756 25.988C268.428 26.516 269.052 27.044 269.628 27.572C270.228 28.1 270.696 28.592 271.032 29.048L269.232 32.324C268.92 31.844 268.476 31.316 267.9 30.74C267.324 30.164 266.7 29.588 266.028 29.012C265.38 28.436 264.744 27.908 264.12 27.428ZM271.032 31.964L273.732 31.136C274.164 32.216 274.548 33.392 274.884 34.664C275.244 35.936 275.496 37.004 275.64 37.868L272.76 38.876C272.688 37.988 272.484 36.896 272.148 35.6C271.812 34.304 271.44 33.092 271.032 31.964ZM271.572 24.656L274.812 25.988C274.14 27.164 273.42 28.388 272.652 29.66C271.884 30.908 271.104 32.108 270.312 33.26C269.544 34.412 268.8 35.432 268.08 36.32L265.452 35.06C266.148 34.148 266.868 33.092 267.612 31.892C268.38 30.692 269.112 29.456 269.808 28.184C270.504 26.912 271.092 25.736 271.572 24.656ZM268.656 19.688L272.004 20.876C271.452 22.1 270.84 23.336 270.168 24.584C269.52 25.832 268.92 26.9 268.368 27.788L265.632 26.672C265.992 26.048 266.352 25.328 266.712 24.512C267.096 23.696 267.456 22.868 267.792 22.028C268.152 21.164 268.44 20.384 268.656 19.688ZM264.048 34.7C265.32 34.628 266.796 34.532 268.476 34.412C270.156 34.268 271.896 34.124 273.696 33.98L273.732 36.968C272.076 37.208 270.456 37.436 268.872 37.652C267.312 37.844 265.848 38.036 264.48 38.228L264.048 34.7ZM285.036 27.104L286.98 24.332C287.604 24.86 288.252 25.436 288.924 26.06C289.62 26.684 290.256 27.296 290.832 27.896C291.432 28.496 291.912 29.048 292.272 29.552L290.22 32.684C289.884 32.132 289.428 31.532 288.852 30.884C288.276 30.236 287.652 29.588 286.98 28.94C286.332 28.268 285.684 27.656 285.036 27.104ZM292.128 31.856L294.936 30.848C295.272 31.592 295.596 32.396 295.908 33.26C296.244 34.124 296.532 34.964 296.772 35.78C297.036 36.572 297.216 37.28 297.312 37.904L294.252 39.128C294.18 38.48 294.036 37.748 293.82 36.932C293.604 36.092 293.34 35.228 293.028 34.34C292.74 33.452 292.44 32.624 292.128 31.856ZM292.632 24.728L295.908 26.096C295.236 27.272 294.492 28.496 293.676 29.768C292.884 31.016 292.092 32.216 291.3 33.368C290.508 34.52 289.752 35.54 289.032 36.428L286.368 35.168C287.088 34.256 287.832 33.2 288.6 32C289.368 30.8 290.112 29.564 290.832 28.292C291.552 27.02 292.152 25.832 292.632 24.728ZM289.896 19.652L293.244 20.84C292.62 22.04 291.984 23.276 291.336 24.548C290.688 25.796 290.076 26.864 289.5 27.752L286.692 26.6C287.076 26 287.46 25.292 287.844 24.476C288.252 23.66 288.636 22.832 288.996 21.992C289.356 21.128 289.656 20.348 289.896 19.652ZM285.324 34.592C286.596 34.544 288.084 34.472 289.788 34.376C291.492 34.28 293.28 34.172 295.152 34.052L295.116 37.076C293.46 37.292 291.828 37.496 290.22 37.688C288.636 37.856 287.148 38.012 285.756 38.156L285.324 34.592Z" fill="#864DA1"/>
<path d="M65.26 73.9H83.78V76.52H65.26V73.9ZM85.8 67.34H103.24V69.8H85.8V67.34ZM95.46 74.06L97.32 72.5C97.8533 72.8867 98.4267 73.3133 99.04 73.78C99.6667 74.2333 100.287 74.7067 100.9 75.2C101.527 75.6933 102.107 76.18 102.64 76.66C103.173 77.1267 103.627 77.5533 104 77.94L101.96 79.8C101.627 79.4 101.2 78.96 100.68 78.48C100.173 77.9867 99.62 77.48 99.02 76.96C98.4333 76.44 97.8267 75.9333 97.2 75.44C96.5867 74.9467 96.0067 74.4867 95.46 74.06ZM94.66 68.26L97.32 69.2C96.56 70.6 95.6533 71.9667 94.6 73.3C93.56 74.6333 92.3867 75.8667 91.08 77C89.7733 78.12 88.3533 79.08 86.82 79.88C86.7 79.6667 86.54 79.4267 86.34 79.16C86.14 78.8933 85.9333 78.6333 85.72 78.38C85.52 78.1133 85.3333 77.8867 85.16 77.7C86.24 77.2067 87.26 76.6067 88.22 75.9C89.18 75.18 90.0667 74.4 90.88 73.56C91.7067 72.72 92.4333 71.8533 93.06 70.96C93.7 70.0533 94.2333 69.1533 94.66 68.26ZM93.2 73.1L95.82 70.48V84.76H93.2V73.1ZM113.26 66.28H115.88V81.78C115.88 82.5267 115.787 83.0867 115.6 83.46C115.413 83.8333 115.093 84.12 114.64 84.32C114.173 84.5067 113.587 84.6267 112.88 84.68C112.187 84.7467 111.353 84.7733 110.38 84.76C110.34 84.5333 110.267 84.2667 110.16 83.96C110.053 83.6667 109.933 83.3667 109.8 83.06C109.68 82.7533 109.553 82.4933 109.42 82.28C109.86 82.2933 110.3 82.3067 110.74 82.32C111.18 82.3333 111.573 82.34 111.92 82.34C112.267 82.3267 112.513 82.32 112.66 82.32C112.873 82.32 113.027 82.28 113.12 82.2C113.213 82.12 113.26 81.98 113.26 81.78V66.28ZM118.06 71.54L120.42 70.66C120.967 71.6067 121.493 72.62 122 73.7C122.52 74.7667 122.973 75.82 123.36 76.86C123.76 77.8867 124.047 78.82 124.22 79.66L121.58 80.7C121.447 79.8867 121.2 78.96 120.84 77.92C120.493 76.8667 120.073 75.7867 119.58 74.68C119.1 73.56 118.593 72.5133 118.06 71.54ZM108.02 70.88L110.74 71.34C110.513 72.3267 110.24 73.38 109.92 74.5C109.6 75.6067 109.22 76.6667 108.78 77.68C108.353 78.68 107.86 79.5533 107.3 80.3C107.1 80.1533 106.853 80 106.56 79.84C106.28 79.68 105.993 79.5333 105.7 79.4C105.42 79.2533 105.167 79.1333 104.94 79.04C105.487 78.36 105.96 77.5533 106.36 76.62C106.773 75.6733 107.12 74.7 107.4 73.7C107.68 72.6867 107.887 71.7467 108.02 70.88ZM130.46 71.74H132.96V81.28C132.96 81.7733 133.02 82.0867 133.14 82.22C133.273 82.34 133.58 82.4 134.06 82.4C134.153 82.4 134.327 82.4 134.58 82.4C134.833 82.4 135.107 82.4 135.4 82.4C135.693 82.4 135.967 82.4 136.22 82.4C136.473 82.4 136.667 82.4 136.8 82.4C137.12 82.4 137.36 82.3067 137.52 82.12C137.693 81.92 137.82 81.5467 137.9 81C137.98 80.4533 138.04 79.66 138.08 78.62C138.36 78.8333 138.72 79.04 139.16 79.24C139.6 79.4267 139.987 79.5667 140.32 79.66C140.24 80.9 140.093 81.8867 139.88 82.62C139.667 83.34 139.333 83.8467 138.88 84.14C138.427 84.4467 137.793 84.6 136.98 84.6C136.873 84.6 136.707 84.6 136.48 84.6C136.267 84.6 136.02 84.6 135.74 84.6C135.473 84.6 135.207 84.6 134.94 84.6C134.673 84.6 134.427 84.6 134.2 84.6C133.987 84.6 133.833 84.6 133.74 84.6C132.887 84.6 132.22 84.4933 131.74 84.28C131.273 84.08 130.94 83.74 130.74 83.26C130.553 82.78 130.46 82.12 130.46 81.28V71.74ZM130.52 67.94L132.08 66.08C132.88 66.36 133.693 66.7 134.52 67.1C135.347 67.5 136.133 67.9133 136.88 68.34C137.627 68.7667 138.267 69.18 138.8 69.58L137.22 71.68C136.7 71.2533 136.067 70.8133 135.32 70.36C134.587 69.8933 133.8 69.4467 132.96 69.02C132.133 68.5933 131.32 68.2333 130.52 67.94ZM126.86 73.16L129.2 73.64C129.107 74.56 128.98 75.5 128.82 76.46C128.66 77.42 128.44 78.3333 128.16 79.2C127.88 80.0533 127.513 80.8067 127.06 81.46L124.82 80.16C125.22 79.5867 125.553 78.9267 125.82 78.18C126.087 77.4333 126.307 76.6333 126.48 75.78C126.653 74.9267 126.78 74.0533 126.86 73.16ZM138.36 73.46L140.56 72.38C141.133 73.1133 141.667 73.9067 142.16 74.76C142.653 75.6133 143.073 76.46 143.42 77.3C143.78 78.14 144.04 78.9067 144.2 79.6L141.78 80.8C141.647 80.12 141.413 79.3533 141.08 78.5C140.747 77.6333 140.347 76.76 139.88 75.88C139.413 75 138.907 74.1933 138.36 73.46ZM148.38 85.76L147.74 84.14C148.58 83.8733 149.22 83.5067 149.66 83.04C150.113 82.5867 150.34 82.0667 150.34 81.48L150.18 79.52L151.3 81.3C151.127 81.4467 150.94 81.56 150.74 81.64C150.54 81.72 150.327 81.76 150.1 81.76C149.607 81.76 149.167 81.6067 148.78 81.3C148.393 80.98 148.2 80.5333 148.2 79.96C148.2 79.4 148.393 78.96 148.78 78.64C149.167 78.32 149.627 78.16 150.16 78.16C150.867 78.16 151.4 78.4067 151.76 78.9C152.133 79.3933 152.32 80.06 152.32 80.9C152.32 82.0333 151.973 83.0333 151.28 83.9C150.587 84.7667 149.62 85.3867 148.38 85.76ZM169.88 69.68V70.34H179.08V69.68H169.88ZM169.88 67.84V68.48H179.08V67.84H169.88ZM167.6 66.58H181.48V71.62H167.6V66.58ZM173.28 73.42H175.6V84.78H173.28V73.42ZM170.06 79.32V79.96H178.86V79.32H170.06ZM170.06 77.6V78.22H178.86V77.6H170.06ZM167.84 76.44H181.18V81.12H167.84V76.44ZM165.56 81.74H183.5V83.42H165.56V81.74ZM168.46 74.42H180.44V75.82H168.46V74.42ZM165.8 72.18H183.16V75.58H180.88V73.8H168V75.58H165.8V72.18ZM188.14 73.54H192.76V75.72H188.14V73.54ZM191.84 73.54H194.16C194.16 73.54 194.16 73.5933 194.16 73.7C194.16 73.8067 194.16 73.9333 194.16 74.08C194.16 74.2133 194.16 74.3267 194.16 74.42C194.133 75.8333 194.1 76.9933 194.06 77.9C194.02 78.7933 193.953 79.4933 193.86 80C193.78 80.4933 193.667 80.84 193.52 81.04C193.32 81.2933 193.107 81.4733 192.88 81.58C192.667 81.6867 192.413 81.7667 192.12 81.82C191.853 81.8733 191.513 81.9067 191.1 81.92C190.7 81.92 190.26 81.9133 189.78 81.9C189.767 81.5533 189.7 81.1667 189.58 80.74C189.46 80.3133 189.313 79.9533 189.14 79.66C189.5 79.6867 189.833 79.7067 190.14 79.72C190.46 79.7333 190.7 79.74 190.86 79.74C190.993 79.74 191.107 79.7267 191.2 79.7C191.307 79.66 191.393 79.5933 191.46 79.5C191.553 79.38 191.62 79.1333 191.66 78.76C191.713 78.3733 191.753 77.7933 191.78 77.02C191.807 76.2333 191.827 75.1933 191.84 73.9V73.54ZM197.84 67.26L199.3 65.82C199.673 66.0067 200.067 66.2267 200.48 66.48C200.893 66.7333 201.287 66.9867 201.66 67.24C202.047 67.4933 202.36 67.74 202.6 67.98L201.06 69.58C200.833 69.3533 200.54 69.1 200.18 68.82C199.82 68.54 199.433 68.2667 199.02 68C198.607 67.72 198.213 67.4733 197.84 67.26ZM200.2 72.42L202.64 73C201.8 75.6 200.653 77.9 199.2 79.9C197.747 81.8867 196.027 83.4933 194.04 84.72C193.933 84.5467 193.773 84.3333 193.56 84.08C193.347 83.84 193.127 83.5933 192.9 83.34C192.673 83.1 192.473 82.9 192.3 82.74C194.22 81.7 195.847 80.3 197.18 78.54C198.513 76.7667 199.52 74.7267 200.2 72.42ZM188.26 69H203.7V71.36H188.26V69ZM186.66 69H189.18V74.9C189.18 75.6467 189.153 76.4667 189.1 77.36C189.047 78.24 188.947 79.1467 188.8 80.08C188.653 81 188.433 81.8867 188.14 82.74C187.86 83.5933 187.493 84.36 187.04 85.04C186.907 84.8667 186.707 84.6733 186.44 84.46C186.187 84.2467 185.927 84.0333 185.66 83.82C185.407 83.62 185.187 83.48 185 83.4C185.507 82.6 185.873 81.7067 186.1 80.72C186.34 79.72 186.493 78.7133 186.56 77.7C186.627 76.6867 186.66 75.7467 186.66 74.88V69ZM194.78 66.02H197.3C197.273 67.66 197.32 69.2667 197.44 70.84C197.56 72.4133 197.733 73.8867 197.96 75.26C198.2 76.62 198.48 77.8267 198.8 78.88C199.12 79.92 199.473 80.7333 199.86 81.32C200.247 81.9067 200.64 82.2 201.04 82.2C201.267 82.2 201.44 81.9267 201.56 81.38C201.693 80.8333 201.787 79.9333 201.84 78.68C202.12 78.9467 202.447 79.2067 202.82 79.46C203.207 79.7133 203.56 79.9 203.88 80.02C203.76 81.26 203.58 82.22 203.34 82.9C203.1 83.5667 202.78 84.0267 202.38 84.28C201.98 84.5333 201.467 84.66 200.84 84.66C200.12 84.66 199.467 84.4133 198.88 83.92C198.307 83.4267 197.793 82.74 197.34 81.86C196.9 80.98 196.52 79.9467 196.2 78.76C195.88 77.5733 195.613 76.2867 195.4 74.9C195.2 73.5133 195.047 72.0733 194.94 70.58C194.847 69.0733 194.793 67.5533 194.78 66.02ZM215.66 81.82H221.86V84H215.66V81.82ZM214.78 75.68H222.94V84.68H220.62V77.9H217V84.76H214.78V75.68ZM209.04 77.18H210.42V81.26H209.04V77.18ZM211.22 68.6H213.32V82.38C213.32 82.8867 213.267 83.3 213.16 83.62C213.067 83.94 212.873 84.1933 212.58 84.38C212.273 84.5533 211.92 84.6667 211.52 84.72C211.12 84.7733 210.627 84.8 210.04 84.8C210 84.5067 209.92 84.1467 209.8 83.72C209.68 83.2933 209.553 82.94 209.42 82.66C209.74 82.6733 210.047 82.68 210.34 82.68C210.633 82.68 210.833 82.6733 210.94 82.66C211.127 82.66 211.22 82.56 211.22 82.36V68.6ZM206.36 68.6H208.38V75.98C208.38 76.6733 208.36 77.4133 208.32 78.2C208.28 78.9867 208.2 79.78 208.08 80.58C207.973 81.38 207.807 82.1533 207.58 82.9C207.353 83.6333 207.053 84.2933 206.68 84.88C206.56 84.7467 206.393 84.6067 206.18 84.46C205.967 84.3133 205.747 84.1667 205.52 84.02C205.293 83.8867 205.1 83.7867 204.94 83.72C205.38 83 205.7 82.2 205.9 81.32C206.1 80.4267 206.227 79.52 206.28 78.6C206.333 77.68 206.36 76.8067 206.36 75.98V68.6ZM204.96 74.94C205.733 74.8867 206.613 74.8267 207.6 74.76C208.6 74.6933 209.653 74.6133 210.76 74.52C211.867 74.4267 212.967 74.3333 214.06 74.24L214.08 76.2C213.027 76.3067 211.967 76.4133 210.9 76.52C209.847 76.6133 208.827 76.7067 207.84 76.8C206.867 76.88 205.98 76.96 205.18 77.04L204.96 74.94ZM208.56 71.6L209.96 71.06C210.2 71.4333 210.407 71.8533 210.58 72.32C210.767 72.7733 210.887 73.1733 210.94 73.52L209.44 74.16C209.4 73.8 209.293 73.38 209.12 72.9C208.96 72.42 208.773 71.9867 208.56 71.6ZM208.76 65.98L211.32 66.42C211.107 67.0067 210.887 67.58 210.66 68.14C210.447 68.7 210.247 69.1733 210.06 69.56L208.12 69.12C208.24 68.6667 208.36 68.1467 208.48 67.56C208.613 66.9733 208.707 66.4467 208.76 65.98ZM215.84 66.38L218.12 66.92C217.893 68.6133 217.56 70.1933 217.12 71.66C216.693 73.1267 216.113 74.36 215.38 75.36C215.26 75.2133 215.093 75.0533 214.88 74.88C214.68 74.6933 214.473 74.5133 214.26 74.34C214.047 74.1667 213.853 74.02 213.68 73.9C214.067 73.34 214.4 72.6667 214.68 71.88C214.973 71.08 215.213 70.2133 215.4 69.28C215.6 68.3333 215.747 67.3667 215.84 66.38ZM221.22 66.32C221.393 67.2267 221.613 68.1267 221.88 69.02C222.147 69.9133 222.467 70.74 222.84 71.5C223.227 72.26 223.647 72.8933 224.1 73.4C223.927 73.5467 223.727 73.7333 223.5 73.96C223.287 74.1733 223.08 74.4 222.88 74.64C222.68 74.8667 222.513 75.0867 222.38 75.3C221.847 74.66 221.373 73.8867 220.96 72.98C220.56 72.0733 220.213 71.0933 219.92 70.04C219.64 68.9733 219.4 67.8867 219.2 66.78L221.22 66.32ZM207.3 68.6H212.08V70.62H207.3V68.6ZM225.44 75.46H243.58V77.58H225.44V75.46ZM230.1 69.7H240.92V71.56H230.1V69.7ZM230.1 72.58H240.92V74.44H230.1V72.58ZM226.32 82.48C227.107 82.3867 228.007 82.2733 229.02 82.14C230.047 81.9933 231.12 81.84 232.24 81.68C233.373 81.52 234.487 81.36 235.58 81.2L235.7 83.3C234.673 83.46 233.633 83.6267 232.58 83.8C231.527 83.9733 230.513 84.1267 229.54 84.26C228.567 84.4067 227.673 84.5467 226.86 84.68L226.32 82.48ZM235.34 76.06C235.993 77.8067 237.027 79.24 238.44 80.36C239.853 81.48 241.693 82.2467 243.96 82.66C243.787 82.8333 243.6 83.0467 243.4 83.3C243.213 83.5533 243.033 83.8133 242.86 84.08C242.687 84.3467 242.547 84.5933 242.44 84.82C240.8 84.4333 239.387 83.8733 238.2 83.14C237.013 82.42 236.007 81.5133 235.18 80.42C234.367 79.3267 233.687 78.0467 233.14 76.58L235.34 76.06ZM241.02 77.32L242.96 78.66C242.467 79.02 241.947 79.3733 241.4 79.72C240.867 80.0533 240.327 80.3667 239.78 80.66C239.233 80.9533 238.727 81.2133 238.26 81.44L236.66 80.2C237.127 79.96 237.627 79.68 238.16 79.36C238.693 79.0267 239.207 78.68 239.7 78.32C240.207 77.96 240.647 77.6267 241.02 77.32ZM228.78 66.7H241.46V68.66H231.24V76.34H228.78V66.7ZM228.78 76.1H231.24V82.74L228.78 83V76.1Z" fill="#864DA1"/>
</svg>
